<svg xmlns="http://www.w3.org/2000/svg" xmlns:xlink="http://www.w3.org/1999/xlink" contentStyleType="text/css" data-diagram-type="DESCRIPTION" height="407px" preserveAspectRatio="none" style="width:982px;height:407px;background:#FFFFFF;" version="1.1" viewBox="0 0 982 407" width="982px" zoomAndPan="magnify"><?plantuml 1.2026.6?><defs/><g><g class="title" data-source-line="3"><text fill="#000000" font-family="'Helvetica'" font-size="14" font-weight="700" lengthAdjust="spacing" textLength="275.0166" x="350.1319" y="22.9951">Storage-Service Filesystem Layout</text></g><!--cluster StorageRoot--><g class="cluster" data-qualified-name="StorageRoot" data-source-line="23" id="ent0001"><polygon fill="#F0F0F0" points="16,53.2969,26,43.2969,673,43.2969,673,306.1969,663,316.1969,16,316.1969,16,53.2969" style="stroke:#666666;stroke-width:1;stroke-linejoin:miter;stroke-miterlimit:10;"/><line style="stroke:#666666;stroke-width:1;" x1="663" x2="673" y1="53.2969" y2="43.2969"/><line style="stroke:#666666;stroke-width:1;" x1="16" x2="663" y1="53.2969" y2="53.2969"/><line style="stroke:#666666;stroke-width:1;" x1="663" x2="663" y1="53.2969" y2="316.1969"/><text fill="#000000" font-family="'Helvetica'" font-size="12" font-style="italic" lengthAdjust="spacing" textLength="80.2852" x="300.3574" y="67.4355">&#171;file system&#187;</text><text fill="#000000" font-family="'Helvetica'" font-size="12" font-weight="700" lengthAdjust="spacing" textLength="60.6328" x="310.1836" y="81.4043">/storage/</text><text fill="#000000" font-family="'Helvetica'" font-size="12" font-weight="700" lengthAdjust="spacing" textLength="181.9512" x="249.5244" y="95.373">root of all registered users</text></g><!--cluster U1--><g class="cluster" data-qualified-name="StorageRoot.U1" data-source-line="25" id="ent0002"><polygon fill="#FDECEA" points="48,134.2969,58,124.2969,334,124.2969,334,274.1969,324,284.1969,48,284.1969,48,134.2969" style="stroke:#B0413E;stroke-width:1;stroke-linejoin:miter;stroke-miterlimit:10;"/><line style="stroke:#B0413E;stroke-width:1;" x1="324" x2="334" y1="134.2969" y2="124.2969"/><line style="stroke:#B0413E;stroke-width:1;" x1="48" x2="324" y1="134.2969" y2="134.2969"/><line style="stroke:#B0413E;stroke-width:1;" x1="324" x2="324" y1="134.2969" y2="284.1969"/><text fill="#000000" font-family="'Helvetica'" font-size="12" font-style="italic" lengthAdjust="spacing" textLength="154.3711" x="109.8145" y="148.4355">&#171;execution environment&#187;</text><text fill="#000000" font-family="'Helvetica'" font-size="12" font-weight="700" lengthAdjust="spacing" textLength="87.3984" x="143.3008" y="162.4043">user7k2m9x/</text><text fill="#000000" font-family="'Helvetica'" font-size="12" font-weight="700" lengthAdjust="spacing" textLength="138.5098" x="117.7451" y="176.373">{owner = root:root}</text><text fill="#000000" font-family="'Helvetica'" font-size="12" font-weight="700" lengthAdjust="spacing" textLength="199.0605" x="87.4697" y="190.3418">{home = none, shell = none}</text></g><!--cluster U2--><g class="cluster" data-qualified-name="StorageRoot.U2" data-source-line="29" id="ent0004"><polygon fill="#FDECEA" points="358,134.2969,368,124.2969,633,124.2969,633,274.1969,623,284.1969,358,284.1969,358,134.2969" style="stroke:#B0413E;stroke-width:1;stroke-linejoin:miter;stroke-miterlimit:10;"/><line style="stroke:#B0413E;stroke-width:1;" x1="623" x2="633" y1="134.2969" y2="124.2969"/><line style="stroke:#B0413E;stroke-width:1;" x1="358" x2="623" y1="134.2969" y2="134.2969"/><line style="stroke:#B0413E;stroke-width:1;" x1="623" x2="623" y1="134.2969" y2="284.1969"/><text fill="#000000" font-family="'Helvetica'" font-size="12" font-style="italic" lengthAdjust="spacing" textLength="154.3711" x="414.3145" y="148.4355">&#171;execution environment&#187;</text><text fill="#000000" font-family="'Helvetica'" font-size="12" font-weight="700" lengthAdjust="spacing" textLength="79.6055" x="451.6973" y="162.4043">user3f9a1c/</text><text fill="#000000" font-family="'Helvetica'" font-size="12" font-weight="700" lengthAdjust="spacing" textLength="138.5098" x="422.2451" y="176.373">{owner = root:root}</text><text fill="#000000" font-family="'Helvetica'" font-size="12" font-weight="700" lengthAdjust="spacing" textLength="199.0605" x="391.9697" y="190.3418">{home = none, shell = none}</text></g><!--entity D1--><g class="entity" data-qualified-name="StorageRoot.U1.D1" data-source-line="26" id="ent0003"><rect fill="#E8F5E9" height="64.9063" rx="4" ry="4" style="stroke:#2E7D32;stroke-width:0.5;" width="253.7109" x="64.14" y="203.2969"/><polygon fill="#E8F5E9" points="300.8509,208.2969,300.8509,222.2969,312.8509,222.2969,312.8509,214.2969,306.8509,208.2969,300.8509,208.2969" style="stroke:#2E7D32;stroke-width:0.5;stroke-linejoin:miter;stroke-miterlimit:10;"/><line style="stroke:#2E7D32;stroke-width:0.5;" x1="306.8509" x2="306.8509" y1="208.2969" y2="214.2969"/><line style="stroke:#2E7D32;stroke-width:0.5;" x1="312.8509" x2="306.8509" y1="214.2969" y2="214.2969"/><text fill="#000000" font-family="'Helvetica'" font-size="12" lengthAdjust="spacing" textLength="31.0723" x="74.14" y="227.4355">data/</text><text fill="#000000" font-family="'Helvetica'" font-size="12" lengthAdjust="spacing" textLength="223.7109" x="74.14" y="241.4043">{owner = user7k2m9x:user7k2m9x}</text><text fill="#000000" font-family="'Helvetica'" font-size="12" lengthAdjust="spacing" textLength="106.0547" x="74.14" y="255.373">{writable = true}</text></g><!--entity D2--><g class="entity" data-qualified-name="StorageRoot.U2.D2" data-source-line="30" id="ent0005"><rect fill="#E8F5E9" height="64.9063" rx="4" ry="4" style="stroke:#2E7D32;stroke-width:0.5;" width="238.582" x="375.71" y="203.2969"/><polygon fill="#E8F5E9" points="597.292,208.2969,597.292,222.2969,609.292,222.2969,609.292,214.2969,603.292,208.2969,597.292,208.2969" style="stroke:#2E7D32;stroke-width:0.5;stroke-linejoin:miter;stroke-miterlimit:10;"/><line style="stroke:#2E7D32;stroke-width:0.5;" x1="603.292" x2="603.292" y1="208.2969" y2="214.2969"/><line style="stroke:#2E7D32;stroke-width:0.5;" x1="609.292" x2="603.292" y1="214.2969" y2="214.2969"/><text fill="#000000" font-family="'Helvetica'" font-size="12" lengthAdjust="spacing" textLength="31.0723" x="385.71" y="227.4355">data/</text><text fill="#000000" font-family="'Helvetica'" font-size="12" lengthAdjust="spacing" textLength="208.582" x="385.71" y="241.4043">{owner = user3f9a1c:user3f9a1c}</text><text fill="#000000" font-family="'Helvetica'" font-size="12" lengthAdjust="spacing" textLength="106.0547" x="385.71" y="255.373">{writable = true}</text></g><g class="entity" data-qualified-name="GMN6" data-source-line="35" id="ent0007"><path d="M362.71,344.1969 L362.71,388.1031 A4,4 0 0 0 366.71,392.1031 L963.2803,392.1031 A4,4 0 0 0 967.2803,388.1031 L967.2803,350.1969 L957.2803,340.1969 L366.71,340.1969 A4,4 0 0 0 362.71,344.1969" fill="#FEFFDD" style="stroke:#181818;stroke-width:0.5;"/><path d="M957.2803,340.1969 L957.2803,348.1969 A2,2 0 0 0 959.2803,350.1969 L967.2803,350.1969 L957.2803,340.1969" fill="#FEFFDD" style="stroke:#181818;stroke-width:1;"/><text fill="#000000" font-family="'Helvetica'" font-size="12" lengthAdjust="spacing" textLength="474.7969" x="368.71" y="356.3355">Pattern repeats per registered user "user&lt;xxxxxx&gt;" (ST-F-06). Each execution</text><text fill="#000000" font-family="'Helvetica'" font-size="12" lengthAdjust="spacing" textLength="472.2012" x="368.71" y="370.3043">environment is an isolated chroot the user can never leave (ST-F-05, ST-F-07);</text><text fill="#000000" font-family="'Helvetica'" font-size="12" lengthAdjust="spacing" textLength="583.5703" x="368.71" y="384.273">data/ is the only writable path, holding Restic's client-side-encrypted backups (ST-F-02, ST-F-08).</text></g><!--link StorageRoot to GMN6--><g class="link" data-entity-1="ent0001" data-entity-2="ent0007" data-link-type="association" data-source-line="35" id="lnk8"><path d="M665,316.5096 C665,316.6805 665,316.8511 665,317.0216 C665,319.7499 665,322.4367 665,325.0605 C665,330.3083 665,335.3044 665,339.8769" fill="none" id="StorageRoot-GMN6" style="stroke:#333333;stroke-width:1;stroke-dasharray:7,7;"/></g><?plantuml-src fPDDZzem48Rl-HLJUcYH-4hONJvAaNQNSEgXMjfRfSeu0x5mxCYUyD4L_xrs0WiBtHvQHxASiVsyxymaxuJYiaWGMgtsJqixYQsyo6GGa229C2Djs1ARCpHhmH6cGgBTMS8Clh2TBYW8x4ged1cMWT89MipXfdCMD4ojheBtnkZDL2kQYLy8ONX-NXSgUTH6eO7-9NqqMZW3K3aOZ-4v07XWVBKyt9BQmFjfnpz-Hvi4pI5wLuvWVqN4BVA2X5Q0QYsCLXagUfCzYH_Z-qlsG-ScxCQlsCoGM31EVyR4_UbjFBZ4H75lqeqS9l3EeDQsLVNRFvJHca0lW4a91fV2vMymWSAYiJLWzjYe9t_kkafEgKBw2xrLb0ss3lgiDxxAdy7JXtxQks2gCtGnfHKsmARe5AktVIdqFOI_rmnEkTSIHknSw2G_F2szwCO8OdFfXSaK1wb9w73xr-QxYm4B-J-RZ_xJV2K_F2tVDX-Lvijc4i9S4-dCj_2iK-x4LqQkbSerDKT65d8dTT7WAl7HjXpZ6doSVMjEcvsxUWjYnbDuoSVXpZ82OO4fDsl9oA5uMdv4b695vMvJuTgj9B8r7h6t3QWMlVed1ooBu57-dbPo1o_PvepI1gHQ9a8juGaj2Vx10fV2gJUjIB29YfjTxjNdxXSeSdjKYOug_NehG9M0BrBm6m00?></g></svg>