<svg xmlns="http://www.w3.org/2000/svg" xmlns:xlink="http://www.w3.org/1999/xlink" contentStyleType="text/css" data-diagram-type="CLASS" height="208px" preserveAspectRatio="none" style="width:607px;height:208px;background:#FFFFFF;" version="1.1" viewBox="0 0 607 208" width="607px" zoomAndPan="magnify"><?plantuml 1.2026.6?><defs><linearGradient id="g9w2iv20vr5xc0" x1="0%" x2="100%" y1="0%" y2="100%"><stop offset="0%" stop-color="#E8C766"/><stop offset="100%" stop-color="#C9A227"/></linearGradient><filter height="300%" id="f9w2iv20vr5xc" width="300%" x="-1" y="-1"><feGaussianBlur result="blurOut" stdDeviation="2"/><feColorMatrix in="blurOut" result="blurOut2" type="matrix" values="0 0 0 0 0 0 0 0 0 0 0 0 0 0 0 0 0 0 .4 0"/><feOffset dx="4" dy="4" in="blurOut2" result="blurOut3"/><feBlend in="SourceGraphic" in2="blurOut3" mode="normal"/></filter></defs><g><g class="title" data-source-line="3"><text fill="#000000" font-family="'Helvetica'" font-size="14" font-weight="700" lengthAdjust="spacing" textLength="397.6602" x="101.6476" y="22.9951">Database-Vault: User Record (Entity-Relationship)</text></g><!--class User--><g class="entity" data-qualified-name="User" data-source-line="19" id="ent0001"><rect fill="url(#g9w2iv20vr5xc0)" filter="url(#f9w2iv20vr5xc)" height="143.7813" rx="8" ry="8" style="stroke:#8B6F1A;stroke-width:0.5;" width="206.6426" x="7" y="44.2969"/><rect fill="url(#g9w2iv20vr5xc0)" height="30" rx="8" ry="8" style="stroke:url(#g9w2iv20vr5xc0);stroke-width:0.5;" width="206.6426" x="7" y="44.2969"/><rect fill="url(#g9w2iv20vr5xc0)" height="8" style="stroke:url(#g9w2iv20vr5xc0);stroke-width:0.5;" width="206.6426" x="7" y="66.2969"/><rect fill="none" height="143.7813" rx="8" ry="8" style="stroke:#8B6F1A;stroke-width:0.5;" width="206.6426" x="7" y="44.2969"/><ellipse cx="92.6455" cy="59.2969" fill="#ADD1B2" rx="10" ry="10" style="stroke:#181818;stroke-width:1;"/><path d="M95.083,63.7969 L89.6299,63.7969 L89.6299,55.0469 L95.083,55.0469 L95.083,56.5781 L91.3643,56.5781 L91.3643,58.4531 L94.7236,58.4531 L94.7236,59.9844 L91.3643,59.9844 L91.3643,62.2656 L95.083,62.2656 L95.083,63.7969 Z " fill="#000000"/><text fill="#1A1400" font-family="'Helvetica'" font-size="12" lengthAdjust="spacing" textLength="27.3516" x="111.6455" y="63.4512">User</text><line style="stroke:#8B6F1A;stroke-width:0.5;" x1="8" x2="212.6426" y1="74.2969" y2="74.2969"/><g data-visibility-modifier="IE_MANDATORY"><ellipse cx="18" cy="86.7813" fill="#000000" rx="3" ry="3" style="stroke:#000000;stroke-width:1;"/></g><text fill="#000000" font-family="'Helvetica'" font-size="12" lengthAdjust="spacing" textLength="138.1641" x="26" y="89.4355">email_hash : CHAR(64)</text><line style="stroke:#8B6F1A;stroke-width:1;" x1="8" x2="212.6426" y1="96.2656" y2="96.2656"/><text fill="#000000" font-family="'Helvetica'" font-size="12" lengthAdjust="spacing" textLength="150.3926" x="13" y="111.4043">email_encrypted : BYTEA</text><text fill="#000000" font-family="'Helvetica'" font-size="12" lengthAdjust="spacing" textLength="135.1816" x="13" y="125.373">password_salt : BYTEA</text><text fill="#000000" font-family="'Helvetica'" font-size="12" lengthAdjust="spacing" textLength="194.6426" x="13" y="139.3418">password_hash : VARCHAR(255)</text><text fill="#000000" font-family="'Helvetica'" font-size="12" lengthAdjust="spacing" textLength="191.4316" x="13" y="153.3105">ssh_public_key : TEXT &#171;unique&#187;</text><text fill="#000000" font-family="'Helvetica'" font-size="12" lengthAdjust="spacing" textLength="168.1055" x="13" y="167.2793">posix_username : CHAR(10)</text><text fill="#000000" font-family="'Helvetica'" font-size="12" lengthAdjust="spacing" textLength="160.8223" x="13" y="181.248">registered_at : TIMESTAMP</text></g><g class="entity" data-qualified-name="GMN2" data-source-line="31" id="ent0003"><path d="M253.68,84.2669 L253.68,112.1869 L213.94,116.1869 L253.68,120.1869 L253.68,148.1106 A8,8 0 0 0 261.68,156.1106 L584.9554,156.1106 A8,8 0 0 0 592.9554,148.1106 L592.9554,86.2669 L582.9554,76.2669 L261.68,76.2669 A8,8 0 0 0 253.68,84.2669" fill="#FEFFDD" filter="url(#f9w2iv20vr5xc)" style="stroke:#181818;stroke-width:0.5;"/><path d="M582.9554,76.2669 L582.9554,82.2669 A4,4 0 0 0 586.9554,86.2669 L592.9554,86.2669 L582.9554,76.2669" fill="#FEFFDD" style="stroke:#181818;stroke-width:0.5;"/><text fill="#000000" font-family="'Helvetica'" font-size="12" lengthAdjust="spacing" textLength="241.5996" x="259.68" y="92.4055">email_hash: SHA-256 of email (DV-F-03)</text><text fill="#000000" font-family="'Helvetica'" font-size="12" lengthAdjust="spacing" textLength="252.3574" x="259.68" y="106.3743">email_encrypted: AES-256-GCM (DV-F-04)</text><text fill="#000000" font-family="'Helvetica'" font-size="12" lengthAdjust="spacing" textLength="223.8926" x="259.68" y="120.343">password_salt: per-user (DV-F-13/14)</text><text fill="#000000" font-family="'Helvetica'" font-size="12" lengthAdjust="spacing" textLength="215.6074" x="259.68" y="134.3118">password_hash: Argon2id (DV-F-07)</text><text fill="#000000" font-family="'Helvetica'" font-size="12" lengthAdjust="spacing" textLength="318.2754" x="259.68" y="148.2805">posix_username: "user" + 6 base-36 chars (DV-F-09)</text></g><?plantuml-src RLDTJzj047pthzY61v8Mvmi8OA589XYer4We1DG-MOTlYK-vtBctPy2g-jzxTp4KIb_yi3itExEp_YHK8MkEqEyFShADn7vLRsGKMM4bmZcpx9uHndUibZQ1Mq832ooquT3Db0CryG8biq8hAaNLYo9Q2rKnmpQWD4V22Ww6Rug6gNLRZ7O10qK2n3O8AoqvFB2Da0qm0biYKCaCSZWzvQsGwHJ8ea5jcmeJXn7aQBXWAq--SHCbWGS3AspDfAEgq91mZpW8zO-XtIsMh3QuvtYKjc7iUnGuqu-YG12MK3v0zwaKHGc2dAwsDPqE57jil2D9-5GwXRq-N4kcxEty6nXKtAc0R06ThUKEtEjd97WKB4mi92EAGm2EvE-wLaRNrLuGne0Z5mNpJbvPjCB-c-q66lWL0PonOkqVApxJKXlOoOvdHvF9O6Tsaex7HnxXGaJJTe_F9XUZr5KljB9jRPIE3eR3w7SKRQT1nyVVyTc4E_1ZFWDkc91voQY416PNwQ8xEUYvJXoxpxQ9gZ1DvNKdSFPZcVavbHFwv1JanDo6_rDl6U_IHI0T7nvwLg8oh-fxAOfyZOthBxFlIvT3hSJFsiNW6JI9vxns2fM_gbRKQEYV6ro9S3yyPtxgykiykrccysllqYqPmOXLQK4_18kl3hoO16wkqdXyEF7TK8Rk-Lry4G_tUn-j9f1cDnuTNyxcBy2mc7VE4t-UiHVROaRxWz5xs7PsQbPQZGL_eJhgVR2QGASE0Ns12OJptPz0uVuWUdbqqdDHSdzD6Fq1?></g></svg>