<svg xmlns="http://www.w3.org/2000/svg" xmlns:xlink="http://www.w3.org/1999/xlink" contentStyleType="text/css" data-diagram-type="SEQUENCE" height="664px" preserveAspectRatio="none" style="width:1281px;height:664px;background:#FFFFFF;" version="1.1" viewBox="0 0 1281 664" width="1281px" zoomAndPan="magnify"><?plantuml 1.2026.6?><defs/><g><g class="title" data-source-line="3"><text fill="#000000" font-family="'Helvetica'" font-size="14" font-weight="700" lengthAdjust="spacing" textLength="368.4365" x="452.8955" y="27.9951">Metrics Flow &#8212; Publish, Validate, Store, Query</text></g><rect fill="none" height="100.875" rx="4" ry="4" style="stroke:#000000;stroke-width:1.5;" width="514.9414" x="558.8125" y="265.0781"/><g class="participant-lifeline" data-entity-uid="part1" data-qualified-name="Services" data-source-line="5" id="part1-lifeline"><g><title>Services</title><rect fill="#000000" fill-opacity="0.00000" height="468.4063" width="8" x="244.4033" y="116.2656"/><line style="stroke:#181818;stroke-width:0.5;stroke-dasharray:5,5;" x1="248" x2="248" y1="116.2656" y2="584.6719"/></g></g><g class="participant-lifeline" data-entity-uid="part2" data-qualified-name="Broker" data-source-line="6" id="part2-lifeline"><g><title>MQTT-Broker</title><rect fill="#000000" fill-opacity="0.00000" height="468.4063" width="8" x="482.0879" y="116.2656"/><line style="stroke:#181818;stroke-width:0.5;stroke-dasharray:5,5;" x1="485.8066" x2="485.8066" y1="116.2656" y2="584.6719"/></g></g><g class="participant-lifeline" data-entity-uid="part3" data-qualified-name="Collector" data-source-line="7" id="part3-lifeline"><g><title>Metrics-Collector</title><rect fill="#000000" fill-opacity="0.00000" height="468.4063" width="8" x="622.4316" y="116.2656"/><line style="stroke:#181818;stroke-width:0.5;stroke-dasharray:5,5;" x1="625.8125" x2="625.8125" y1="116.2656" y2="584.6719"/></g></g><g class="participant-lifeline" data-entity-uid="part4" data-qualified-name="TSDB" data-source-line="8" id="part4-lifeline"><g><title>TimescaleDB</title><rect fill="#000000" fill-opacity="0.00000" height="468.4063" width="8" x="758.8555" y="116.2656"/><line style="stroke:#181818;stroke-width:0.5;stroke-dasharray:5,5;" x1="762.791" x2="762.791" y1="116.2656" y2="584.6719"/></g></g><g class="participant-lifeline" data-entity-uid="part5" data-qualified-name="Grafana" data-source-line="9" id="part5-lifeline"><g><title>Grafana</title><rect fill="#000000" fill-opacity="0.00000" height="468.4063" width="8" x="1034.5156" y="116.2656"/><line style="stroke:#181818;stroke-width:0.5;stroke-dasharray:5,5;" x1="1038.4541" x2="1038.4541" y1="116.2656" y2="584.6719"/></g></g><g class="participant-lifeline" data-entity-uid="part6" data-qualified-name="Admin" data-source-line="10" id="part6-lifeline"><g><title>Admin</title><rect fill="#000000" fill-opacity="0.00000" height="468.4063" width="8" x="1244" y="116.2656"/><line style="stroke:#181818;stroke-width:0.5;stroke-dasharray:5,5;" x1="1247.7725" x2="1247.7725" y1="116.2656" y2="584.6719"/></g></g><g class="participant participant-head" data-entity-uid="part1" data-qualified-name="Services" data-source-line="5" id="part1-head"><rect fill="#E2E2F0" height="55.9063" rx="4" ry="4" style="stroke:#181818;stroke-width:0.5;" width="358.8066" x="71" y="55.3594"/><rect fill="#E2E2F0" height="55.9063" rx="4" ry="4" style="stroke:#181818;stroke-width:0.5;" width="358.8066" x="67" y="59.3594"/><text fill="#000000" font-family="'Helvetica'" font-size="12" lengthAdjust="spacing" textLength="50.6016" x="221.1025" y="77.498">Services</text><text fill="#000000" font-family="'Helvetica'" font-size="12" lengthAdjust="spacing" textLength="270.334" x="111.2363" y="91.4668">(Entry-Hub, Security-Switch, Database-Vault,</text><text fill="#000000" font-family="'Helvetica'" font-size="12" lengthAdjust="spacing" textLength="344.8066" x="74" y="105.4355">Storage-Service, Network-Manager, Certificate-Authority)</text></g><g class="participant participant-tail" data-entity-uid="part1" data-qualified-name="Services" data-source-line="5" id="part1-tail"><rect fill="#E2E2F0" height="55.9063" rx="4" ry="4" style="stroke:#181818;stroke-width:0.5;" width="358.8066" x="71" y="583.6719"/><rect fill="#E2E2F0" height="55.9063" rx="4" ry="4" style="stroke:#181818;stroke-width:0.5;" width="358.8066" x="67" y="587.6719"/><text fill="#000000" font-family="'Helvetica'" font-size="12" lengthAdjust="spacing" textLength="50.6016" x="221.1025" y="605.8105">Services</text><text fill="#000000" font-family="'Helvetica'" font-size="12" lengthAdjust="spacing" textLength="270.334" x="111.2363" y="619.7793">(Entry-Hub, Security-Switch, Database-Vault,</text><text fill="#000000" font-family="'Helvetica'" font-size="12" lengthAdjust="spacing" textLength="344.8066" x="74" y="633.748">Storage-Service, Network-Manager, Certificate-Authority)</text></g><g class="participant participant-head" data-entity-uid="part2" data-qualified-name="Broker" data-source-line="6" id="part2-head"><rect fill="#E2E2F0" height="41.9375" rx="4" ry="4" style="stroke:#181818;stroke-width:0.5;" width="92.5625" x="439.8066" y="73.3281"/><text fill="#000000" font-family="'Helvetica'" font-size="12" lengthAdjust="spacing" textLength="78.5625" x="446.8066" y="91.4668">MQTT-Broker</text><text fill="#000000" font-family="'Helvetica'" font-size="12" lengthAdjust="spacing" textLength="68.6191" x="451.7783" y="105.4355">[Mosquitto]</text></g><g class="participant participant-tail" data-entity-uid="part2" data-qualified-name="Broker" data-source-line="6" id="part2-tail"><rect fill="#E2E2F0" height="41.9375" rx="4" ry="4" style="stroke:#181818;stroke-width:0.5;" width="92.5625" x="439.8066" y="583.6719"/><text fill="#000000" font-family="'Helvetica'" font-size="12" lengthAdjust="spacing" textLength="78.5625" x="446.8066" y="601.8105">MQTT-Broker</text><text fill="#000000" font-family="'Helvetica'" font-size="12" lengthAdjust="spacing" textLength="68.6191" x="451.7783" y="615.7793">[Mosquitto]</text></g><g class="participant participant-head" data-entity-uid="part3" data-qualified-name="Collector" data-source-line="7" id="part3-head"><rect fill="#E2E2F0" height="27.9688" rx="4" ry="4" style="stroke:#181818;stroke-width:0.5;" width="115.2383" x="568.8125" y="87.2969"/><text fill="#000000" font-family="'Helvetica'" font-size="12" lengthAdjust="spacing" textLength="101.2383" x="575.8125" y="105.4355">Metrics-Collector</text></g><g class="participant participant-tail" data-entity-uid="part3" data-qualified-name="Collector" data-source-line="7" id="part3-tail"><rect fill="#E2E2F0" height="27.9688" rx="4" ry="4" style="stroke:#181818;stroke-width:0.5;" width="115.2383" x="568.8125" y="583.6719"/><text fill="#000000" font-family="'Helvetica'" font-size="12" lengthAdjust="spacing" textLength="101.2383" x="575.8125" y="601.8105">Metrics-Collector</text></g><g class="participant participant-head" data-entity-uid="part4" data-qualified-name="TSDB" data-source-line="8" id="part4-head"><text fill="#000000" font-family="'Helvetica'" font-size="12" lengthAdjust="spacing" textLength="78.1289" x="720.791" y="113.4355">TimescaleDB</text><path d="M744.8555,66.2969 C744.8555,56.2969 762.8555,56.2969 762.8555,56.2969 C762.8555,56.2969 780.8555,56.2969 780.8555,66.2969 L780.8555,92.2969 C780.8555,102.2969 762.8555,102.2969 762.8555,102.2969 C762.8555,102.2969 744.8555,102.2969 744.8555,92.2969 L744.8555,66.2969" fill="#E2E2F0" style="stroke:#181818;stroke-width:0.5;"/><path d="M744.8555,66.2969 C744.8555,76.2969 762.8555,76.2969 762.8555,76.2969 C762.8555,76.2969 780.8555,76.2969 780.8555,66.2969" fill="none" style="stroke:#181818;stroke-width:0.5;"/></g><g class="participant participant-tail" data-entity-uid="part4" data-qualified-name="TSDB" data-source-line="8" id="part4-tail"><text fill="#000000" font-family="'Helvetica'" font-size="12" lengthAdjust="spacing" textLength="78.1289" x="720.791" y="594.8105">TimescaleDB</text><path d="M744.8555,607.6406 C744.8555,597.6406 762.8555,597.6406 762.8555,597.6406 C762.8555,597.6406 780.8555,597.6406 780.8555,607.6406 L780.8555,633.6406 C780.8555,643.6406 762.8555,643.6406 762.8555,643.6406 C762.8555,643.6406 744.8555,643.6406 744.8555,633.6406 L744.8555,607.6406" fill="#E2E2F0" style="stroke:#181818;stroke-width:0.5;"/><path d="M744.8555,607.6406 C744.8555,617.6406 762.8555,617.6406 762.8555,617.6406 C762.8555,617.6406 780.8555,617.6406 780.8555,607.6406" fill="none" style="stroke:#181818;stroke-width:0.5;"/></g><g class="participant participant-head" data-entity-uid="part5" data-qualified-name="Grafana" data-source-line="9" id="part5-head"><rect fill="#E2E2F0" height="27.9688" rx="4" ry="4" style="stroke:#181818;stroke-width:0.5;" width="62.123" x="1007.4541" y="87.2969"/><text fill="#000000" font-family="'Helvetica'" font-size="12" lengthAdjust="spacing" textLength="48.123" x="1014.4541" y="105.4355">Grafana</text></g><g class="participant participant-tail" data-entity-uid="part5" data-qualified-name="Grafana" data-source-line="9" id="part5-tail"><rect fill="#E2E2F0" height="27.9688" rx="4" ry="4" style="stroke:#181818;stroke-width:0.5;" width="62.123" x="1007.4541" y="583.6719"/><text fill="#000000" font-family="'Helvetica'" font-size="12" lengthAdjust="spacing" textLength="48.123" x="1014.4541" y="601.8105">Grafana</text></g><g class="participant participant-head" data-entity-uid="part6" data-qualified-name="Admin" data-source-line="10" id="part6-head"><text fill="#000000" font-family="'Helvetica'" font-size="12" lengthAdjust="spacing" textLength="38.4551" x="1225.7725" y="113.4355">Admin</text><ellipse cx="1248" cy="50.7969" fill="#E2E2F0" rx="8" ry="8" style="stroke:#181818;stroke-width:0.5;"/><path d="M1248,58.7969 L1248,85.7969 M1235,66.7969 L1261,66.7969 M1248,85.7969 L1235,100.7969 M1248,85.7969 L1261,100.7969" fill="none" style="stroke:#181818;stroke-width:0.5;"/></g><g class="participant participant-tail" data-entity-uid="part6" data-qualified-name="Admin" data-source-line="10" id="part6-tail"><text fill="#000000" font-family="'Helvetica'" font-size="12" lengthAdjust="spacing" textLength="38.4551" x="1225.7725" y="594.8105">Admin</text><ellipse cx="1248" cy="606.1406" fill="#E2E2F0" rx="8" ry="8" style="stroke:#181818;stroke-width:0.5;"/><path d="M1248,614.1406 L1248,641.1406 M1235,622.1406 L1261,622.1406 M1248,641.1406 L1235,656.1406 M1248,641.1406 L1261,656.1406" fill="none" style="stroke:#181818;stroke-width:0.5;"/></g><path d="M5,135.2656 L5,192.2656 A4,4 0 0 0 9,196.2656 L489,196.2656 A4,4 0 0 0 493,192.2656 L493,141.2656 L483,131.2656 L9,131.2656 A4,4 0 0 0 5,135.2656" fill="#FEFFDD" style="stroke:#181818;stroke-width:0.5;"/><path d="M483,131.2656 L483,139.2656 A2,2 0 0 0 485,141.2656 L493,141.2656 L483,131.2656" fill="#FEFFDD" style="stroke:#181818;stroke-width:0.5;"/><text fill="#000000" font-family="'Helvetica'" font-size="12" lengthAdjust="spacing" textLength="386.1738" x="11" y="147.4043">Every service publishes, every minute and only, to its dedicated</text><text fill="#000000" font-family="'Helvetica'" font-size="12" font-weight="700" lengthAdjust="spacing" textLength="163.8281" x="11" y="161.373">metrics/&lt;ServiceName&gt;</text><text fill="#000000" font-family="'Helvetica'" font-size="12" lengthAdjust="spacing" textLength="235.6523" x="178.6426" y="161.373">topic via mTLS, after verifying the peer</text><text fill="#000000" font-family="'Helvetica'" font-size="12" lengthAdjust="spacing" textLength="390.2988" x="11" y="175.3418">certificate comes from an MQTT-Broker and is a valid X.509 cert.</text><text fill="#000000" font-family="'Helvetica'" font-size="12" lengthAdjust="spacing" textLength="467.4199" x="11" y="189.3105">Metrics carry aggregated statistics only &#8212; never personal data (RNF-SEC-01).</text><g class="message" data-entity-1="part1" data-entity-2="part2" data-source-line="19" id="msg1"><polygon fill="#333333" points="474.0879,218.1094,484.0879,222.1094,474.0879,226.1094,478.0879,222.1094" style="stroke:#333333;stroke-width:1;stroke-linejoin:miter;stroke-miterlimit:10;"/><line style="stroke:#333333;stroke-width:1;" x1="248.4033" x2="480.0879" y1="222.1094" y2="222.1094"/><text fill="#333333" font-family="'Helvetica'" font-size="12" lengthAdjust="spacing" textLength="195.9785" x="255.4033" y="217.2793">publish metrics/&lt;ServiceName&gt;</text></g><g class="message" data-entity-1="part2" data-entity-2="part3" data-source-line="20" id="msg2"><polygon fill="#333333" points="614.4316,246.0781,624.4316,250.0781,614.4316,254.0781,618.4316,250.0781" style="stroke:#333333;stroke-width:1;stroke-linejoin:miter;stroke-miterlimit:10;"/><line style="stroke:#333333;stroke-width:1;" x1="486.0879" x2="620.4316" y1="250.0781" y2="250.0781"/><text fill="#333333" font-family="'Helvetica'" font-size="12" lengthAdjust="spacing" textLength="116.3438" x="493.0879" y="245.248">subscribe metrics/*</text></g><path d="M562.8125,265.0781 L621.7598,265.0781 L621.7598,271.0469 L611.7598,281.0469 L558.8125,281.0469 L558.8125,269.0781 A4,4 0 0 1 562.8125,265.0781" fill="#EEEEEE" style="stroke:#000000;stroke-width:1.5;"/><rect fill="none" height="100.875" rx="4" ry="4" style="stroke:#000000;stroke-width:1.5;" width="514.9414" x="558.8125" y="265.0781"/><text fill="#000000" font-family="'Helvetica'" font-size="12" font-weight="700" lengthAdjust="spacing" textLength="17.9473" x="573.8125" y="277.2168">alt</text><text fill="#000000" font-family="'Helvetica'" font-size="12" font-weight="700" lengthAdjust="spacing" textLength="431.9941" x="636.7598" y="278.2168">["service" field matches source topic (MT-F-02, Mosquitto ACL)]</text><g class="message" data-entity-1="part3" data-entity-2="part4" data-source-line="23" id="msg3"><polygon fill="#333333" points="750.8555,297.0156,760.8555,301.0156,750.8555,305.0156,754.8555,301.0156" style="stroke:#333333;stroke-width:1;stroke-linejoin:miter;stroke-miterlimit:10;"/><line style="stroke:#333333;stroke-width:1;" x1="626.4316" x2="756.8555" y1="301.0156" y2="301.0156"/><text fill="#333333" font-family="'Helvetica'" font-size="12" lengthAdjust="spacing" textLength="112.4238" x="633.4316" y="296.1855">insert (hypertable)</text></g><line style="stroke:#000000;stroke-width:1;stroke-dasharray:2,2;" x1="558.8125" x2="1073.7539" y1="310.0156" y2="310.0156"/><text fill="#000000" font-family="'Helvetica'" font-size="12" font-weight="700" lengthAdjust="spacing" textLength="111.0762" x="563.8125" y="321.1543">[field mismatch]</text><g class="message" data-entity-1="part3" data-entity-2="part3" data-source-line="25" id="msg4"><line style="stroke:#333333;stroke-width:1;" x1="626.4316" x2="668.4316" y1="344.9531" y2="344.9531"/><line style="stroke:#333333;stroke-width:1;" x1="668.4316" x2="668.4316" y1="344.9531" y2="357.9531"/><line style="stroke:#333333;stroke-width:1;" x1="627.4316" x2="668.4316" y1="357.9531" y2="357.9531"/><polygon fill="#333333" points="637.4316,353.9531,627.4316,357.9531,637.4316,361.9531,633.4316,357.9531" style="stroke:#333333;stroke-width:1;stroke-linejoin:miter;stroke-miterlimit:10;"/><text fill="#333333" font-family="'Helvetica'" font-size="12" lengthAdjust="spacing" textLength="43.7051" x="633.4316" y="340.123">discard</text></g><path d="M767,381.9531 L767,410.9531 A4,4 0 0 0 771,414.9531 L998,414.9531 A4,4 0 0 0 1002,410.9531 L1002,387.9531 L992,377.9531 L771,377.9531 A4,4 0 0 0 767,381.9531" fill="#FEFFDD" style="stroke:#181818;stroke-width:0.5;"/><path d="M992,377.9531 L992,385.9531 A2,2 0 0 0 994,387.9531 L1002,387.9531 L992,377.9531" fill="#FEFFDD" style="stroke:#181818;stroke-width:0.5;"/><text fill="#000000" font-family="'Helvetica'" font-size="12" lengthAdjust="spacing" textLength="104.2969" x="773" y="394.0918">30-day retention,</text><text fill="#000000" font-family="'Helvetica'" font-size="12" lengthAdjust="spacing" textLength="214.043" x="773" y="408.0605">compression after 7 days (MT-F-03)</text><g class="message" data-entity-1="part6" data-entity-2="part5" data-source-line="33" id="msg5"><polygon fill="#333333" points="1049.5156,464.7969,1039.5156,468.7969,1049.5156,472.7969,1045.5156,468.7969" style="stroke:#333333;stroke-width:1;stroke-linejoin:miter;stroke-miterlimit:10;"/><line style="stroke:#333333;stroke-width:1;" x1="1043.5156" x2="1247" y1="468.7969" y2="468.7969"/><text fill="#333333" font-family="'Helvetica'" font-size="12" lengthAdjust="spacing" textLength="103.7051" x="1055.5156" y="436.0293">open dashboards</text><text fill="#333333" font-family="'Helvetica'" font-size="12" lengthAdjust="spacing" textLength="169.1602" x="1055.5156" y="449.998">(response time, throughput,</text><text fill="#333333" font-family="'Helvetica'" font-size="12" lengthAdjust="spacing" textLength="185.4844" x="1055.5156" y="463.9668">active connections &#8212; MT-F-04)</text></g><g class="message" data-entity-1="part5" data-entity-2="part4" data-source-line="34" id="msg6"><polygon fill="#333333" points="773.8555,506.7344,763.8555,510.7344,773.8555,514.7344,769.8555,510.7344" style="stroke:#333333;stroke-width:1;stroke-linejoin:miter;stroke-miterlimit:10;"/><line style="stroke:#333333;stroke-width:1;" x1="767.8555" x2="1037.5156" y1="510.7344" y2="510.7344"/><text fill="#333333" font-family="'Helvetica'" font-size="12" lengthAdjust="spacing" textLength="184.7344" x="779.8555" y="491.9355">query raw / hourly-daily views,</text><text fill="#333333" font-family="'Helvetica'" font-size="12" lengthAdjust="spacing" textLength="251.6602" x="779.8555" y="505.9043">filtered by service &amp; metric name (UC-05)</text></g><g class="message" data-entity-1="part4" data-entity-2="part5" data-source-line="35" id="msg7"><polygon fill="#333333" points="1026.5156,534.7031,1036.5156,538.7031,1026.5156,542.7031,1030.5156,538.7031" style="stroke:#333333;stroke-width:1;stroke-linejoin:miter;stroke-miterlimit:10;"/><line style="stroke:#333333;stroke-width:1;stroke-dasharray:2,2;" x1="762.8555" x2="1032.5156" y1="538.7031" y2="538.7031"/><text fill="#333333" font-family="'Helvetica'" font-size="12" lengthAdjust="spacing" textLength="40.4648" x="769.8555" y="533.873">results</text></g><g class="message" data-entity-1="part5" data-entity-2="part6" data-source-line="36" id="msg8"><polygon fill="#333333" points="1236,562.6719,1246,566.6719,1236,570.6719,1240,566.6719" style="stroke:#333333;stroke-width:1;stroke-linejoin:miter;stroke-miterlimit:10;"/><line style="stroke:#333333;stroke-width:1;stroke-dasharray:2,2;" x1="1038.5156" x2="1242" y1="566.6719" y2="566.6719"/><text fill="#333333" font-family="'Helvetica'" font-size="12" lengthAdjust="spacing" textLength="122.3613" x="1045.5156" y="561.8418">rendered dashboard</text></g><?plantuml-src RLHTRzCm57tthxZq0RLLqXN6X41eqjPjyB1EZ9O9YI7a9ZVDrHmxivrMUUD7y0lv9LmxQJicdl9XttFkEVVOBqXdgiaH9fEZdywt2YTrKoaXF7c5C4TlANDmfSmM_lpw3P-RbI9N9d0d5UNIOm8BRom_RXkqhH2PKGepJqOx62pGRYX3Tw-7bzhRDltKhBW0iyQIRzF5bdp6M1VIovLqcDx9HldaNWT8kSQqhq_W1ltMs8TqBZN_jmdCq7egAECEqhF6boO0ZWOW7Un8HIrvJqQrr1u6yzlbCZstvW7jlVu-D-wn8U_DZrZI_NzMq4bFPvqWO-FE_PV8-wPXiAGANIOLNfp7FSl5nVc_M1-jBBZpkDg_2nbGO72MLwJZGdmJGXkFO3Pe3q80Blcx1TVzWBeR0he4C2vmOSDLKkTWj6eJy0R8EyWnZnRb334ULvsYemyzy8siy7GyviqrPR0X2TNoUf60B3opCp0LBUar-98faVq1o0wsGsPODXJML4mCJ_oDVP032PiG4lWsEPc-YwKJXjX5AfEMEvVhjSLrQ16SbvwS3sj1H8oR3lgOt3gZfOBWEGo_t5obYyjPEdqrcWXahc2P43kx83tj1mhlTrR1VxMBVXiNxEVADQvPkSpI2lTLOo6auZds0nX0GQXog2J7bmcTQIoFfVDnE5-cL-dqTGBxaC7Px7h4qWyap1XImcIa6TJ3i6nP9ITAuKYWubZr5EGYo_Fgf_tcnEcpUR2YZu-bTUd155qK0OwdQIvRiEXHXwEPX56QghRe77_s4t_B_hPk9-1uzCJRcCt0swUNMKsDcWjSkJ9C7euuezLyxDa8FX2SmTAQPbtMJJZHd7RQXCnelRiTmdmxgZSZiSCz6FCOxXEmSWj7KBB1gcKDnBdO46uTGnQak6iEpkfmCbxs8mFDyuNXLmx9oKX4nFIVxhbNlchSWPTNEv5XJUSHUAzE_0K0?></g></svg>