<svg xmlns="http://www.w3.org/2000/svg" xmlns:xlink="http://www.w3.org/1999/xlink" contentStyleType="text/css" data-diagram-type="SEQUENCE" height="666px" preserveAspectRatio="none" style="width:1268px;height:666px;background:#FFFFFF;" version="1.1" viewBox="0 0 1268 666" width="1268px" zoomAndPan="magnify"><?plantuml 1.2026.6?><defs/><g><g class="title" data-source-line="3"><text fill="#000000" font-family="'Helvetica'" font-size="14" font-weight="700" lengthAdjust="spacing" textLength="100.2422" x="580.7432" y="27.9951">Metrics Flow</text></g><rect fill="none" height="100.875" rx="4" ry="4" style="stroke:#000000;stroke-width:1.5;" width="514.9414" x="552.8125" y="266.0781"/><g class="participant-lifeline" data-entity-uid="part1" data-qualified-name="Services" data-source-line="5" id="part1-lifeline"><g><title>Services</title><rect fill="#000000" fill-opacity="0.00000" height="468.4063" width="8" x="238.4033" y="117.2656"/><line style="stroke:#181818;stroke-width:0.5;stroke-dasharray:5,5;" x1="242" x2="242" y1="117.2656" y2="585.6719"/></g></g><g class="participant-lifeline" data-entity-uid="part2" data-qualified-name="Broker" data-source-line="6" id="part2-lifeline"><g><title>MQTT-Broker</title><rect fill="#000000" fill-opacity="0.00000" height="468.4063" width="8" x="476.0879" y="117.2656"/><line style="stroke:#181818;stroke-width:0.5;stroke-dasharray:5,5;" x1="479.8066" x2="479.8066" y1="117.2656" y2="585.6719"/></g></g><g class="participant-lifeline" data-entity-uid="part3" data-qualified-name="Collector" data-source-line="7" id="part3-lifeline"><g><title>Metrics-Collector</title><rect fill="#000000" fill-opacity="0.00000" height="468.4063" width="8" x="616.4316" y="117.2656"/><line style="stroke:#181818;stroke-width:0.5;stroke-dasharray:5,5;" x1="619.8125" x2="619.8125" y1="117.2656" y2="585.6719"/></g></g><g class="participant-lifeline" data-entity-uid="part4" data-qualified-name="TSDB" data-source-line="8" id="part4-lifeline"><g><title>TimescaleDB</title><rect fill="#000000" fill-opacity="0.00000" height="468.4063" width="8" x="752.8555" y="117.2656"/><line style="stroke:#181818;stroke-width:0.5;stroke-dasharray:5,5;" x1="756.791" x2="756.791" y1="117.2656" y2="585.6719"/></g></g><g class="participant-lifeline" data-entity-uid="part5" data-qualified-name="Grafana" data-source-line="9" id="part5-lifeline"><g><title>Grafana</title><rect fill="#000000" fill-opacity="0.00000" height="468.4063" width="8" x="1028.5156" y="117.2656"/><line style="stroke:#181818;stroke-width:0.5;stroke-dasharray:5,5;" x1="1032.4541" x2="1032.4541" y1="117.2656" y2="585.6719"/></g></g><g class="participant-lifeline" data-entity-uid="part6" data-qualified-name="Admin" data-source-line="10" id="part6-lifeline"><g><title>Admin</title><rect fill="#000000" fill-opacity="0.00000" height="468.4063" width="8" x="1226.2285" y="117.2656"/><line style="stroke:#181818;stroke-width:0.5;stroke-dasharray:5,5;" x1="1229.7285" x2="1229.7285" y1="117.2656" y2="585.6719"/></g></g><g class="participant participant-head" data-entity-uid="part1" data-qualified-name="Services" data-source-line="5" id="part1-head"><rect fill="#E2E2F0" height="55.9063" rx="4" ry="4" style="stroke:#181818;stroke-width:0.5;" width="358.8066" x="65" y="56.3594"/><rect fill="#E2E2F0" height="55.9063" rx="4" ry="4" style="stroke:#181818;stroke-width:0.5;" width="358.8066" x="61" y="60.3594"/><text fill="#000000" font-family="'Helvetica'" font-size="12" lengthAdjust="spacing" textLength="50.6016" x="215.1025" y="78.498">Services</text><text fill="#000000" font-family="'Helvetica'" font-size="12" lengthAdjust="spacing" textLength="270.334" x="105.2363" y="92.4668">(Entry-Hub, Security-Switch, Database-Vault,</text><text fill="#000000" font-family="'Helvetica'" font-size="12" lengthAdjust="spacing" textLength="344.8066" x="68" y="106.4355">Storage-Service, Network-Manager, Certificate-Authority)</text></g><g class="participant participant-tail" data-entity-uid="part1" data-qualified-name="Services" data-source-line="5" id="part1-tail"><rect fill="#E2E2F0" height="55.9063" rx="4" ry="4" style="stroke:#181818;stroke-width:0.5;" width="358.8066" x="65" y="584.6719"/><rect fill="#E2E2F0" height="55.9063" rx="4" ry="4" style="stroke:#181818;stroke-width:0.5;" width="358.8066" x="61" y="588.6719"/><text fill="#000000" font-family="'Helvetica'" font-size="12" lengthAdjust="spacing" textLength="50.6016" x="215.1025" y="606.8105">Services</text><text fill="#000000" font-family="'Helvetica'" font-size="12" lengthAdjust="spacing" textLength="270.334" x="105.2363" y="620.7793">(Entry-Hub, Security-Switch, Database-Vault,</text><text fill="#000000" font-family="'Helvetica'" font-size="12" lengthAdjust="spacing" textLength="344.8066" x="68" y="634.748">Storage-Service, Network-Manager, Certificate-Authority)</text></g><g class="participant participant-head" data-entity-uid="part2" data-qualified-name="Broker" data-source-line="6" id="part2-head"><rect fill="#E2E2F0" height="41.9375" rx="4" ry="4" style="stroke:#181818;stroke-width:0.5;" width="92.5625" x="433.8066" y="74.3281"/><text fill="#000000" font-family="'Helvetica'" font-size="12" lengthAdjust="spacing" textLength="78.5625" x="440.8066" y="92.4668">MQTT-Broker</text><text fill="#000000" font-family="'Helvetica'" font-size="12" lengthAdjust="spacing" textLength="68.6191" x="445.7783" y="106.4355">[Mosquitto]</text></g><g class="participant participant-tail" data-entity-uid="part2" data-qualified-name="Broker" data-source-line="6" id="part2-tail"><rect fill="#E2E2F0" height="41.9375" rx="4" ry="4" style="stroke:#181818;stroke-width:0.5;" width="92.5625" x="433.8066" y="584.6719"/><text fill="#000000" font-family="'Helvetica'" font-size="12" lengthAdjust="spacing" textLength="78.5625" x="440.8066" y="602.8105">MQTT-Broker</text><text fill="#000000" font-family="'Helvetica'" font-size="12" lengthAdjust="spacing" textLength="68.6191" x="445.7783" y="616.7793">[Mosquitto]</text></g><g class="participant participant-head" data-entity-uid="part3" data-qualified-name="Collector" data-source-line="7" id="part3-head"><rect fill="#E2E2F0" height="27.9688" rx="4" ry="4" style="stroke:#181818;stroke-width:0.5;" width="115.2383" x="562.8125" y="88.2969"/><text fill="#000000" font-family="'Helvetica'" font-size="12" lengthAdjust="spacing" textLength="101.2383" x="569.8125" y="106.4355">Metrics-Collector</text></g><g class="participant participant-tail" data-entity-uid="part3" data-qualified-name="Collector" data-source-line="7" id="part3-tail"><rect fill="#E2E2F0" height="27.9688" rx="4" ry="4" style="stroke:#181818;stroke-width:0.5;" width="115.2383" x="562.8125" y="584.6719"/><text fill="#000000" font-family="'Helvetica'" font-size="12" lengthAdjust="spacing" textLength="101.2383" x="569.8125" y="602.8105">Metrics-Collector</text></g><g class="participant participant-head" data-entity-uid="part4" data-qualified-name="TSDB" data-source-line="8" id="part4-head"><text fill="#000000" font-family="'Helvetica'" font-size="12" lengthAdjust="spacing" textLength="78.1289" x="714.791" y="114.4355">TimescaleDB</text><path d="M738.8555,67.2969 C738.8555,57.2969 756.8555,57.2969 756.8555,57.2969 C756.8555,57.2969 774.8555,57.2969 774.8555,67.2969 L774.8555,93.2969 C774.8555,103.2969 756.8555,103.2969 756.8555,103.2969 C756.8555,103.2969 738.8555,103.2969 738.8555,93.2969 L738.8555,67.2969" fill="#E2E2F0" style="stroke:#181818;stroke-width:0.5;"/><path d="M738.8555,67.2969 C738.8555,77.2969 756.8555,77.2969 756.8555,77.2969 C756.8555,77.2969 774.8555,77.2969 774.8555,67.2969" fill="none" style="stroke:#181818;stroke-width:0.5;"/></g><g class="participant participant-tail" data-entity-uid="part4" data-qualified-name="TSDB" data-source-line="8" id="part4-tail"><text fill="#000000" font-family="'Helvetica'" font-size="12" lengthAdjust="spacing" textLength="78.1289" x="714.791" y="595.8105">TimescaleDB</text><path d="M738.8555,608.6406 C738.8555,598.6406 756.8555,598.6406 756.8555,598.6406 C756.8555,598.6406 774.8555,598.6406 774.8555,608.6406 L774.8555,634.6406 C774.8555,644.6406 756.8555,644.6406 756.8555,644.6406 C756.8555,644.6406 738.8555,644.6406 738.8555,634.6406 L738.8555,608.6406" fill="#E2E2F0" style="stroke:#181818;stroke-width:0.5;"/><path d="M738.8555,608.6406 C738.8555,618.6406 756.8555,618.6406 756.8555,618.6406 C756.8555,618.6406 774.8555,618.6406 774.8555,608.6406" fill="none" style="stroke:#181818;stroke-width:0.5;"/></g><g class="participant participant-head" data-entity-uid="part5" data-qualified-name="Grafana" data-source-line="9" id="part5-head"><rect fill="#E2E2F0" height="27.9688" rx="4" ry="4" style="stroke:#181818;stroke-width:0.5;" width="62.123" x="1001.4541" y="88.2969"/><text fill="#000000" font-family="'Helvetica'" font-size="12" lengthAdjust="spacing" textLength="48.123" x="1008.4541" y="106.4355">Grafana</text></g><g class="participant participant-tail" data-entity-uid="part5" data-qualified-name="Grafana" data-source-line="9" id="part5-tail"><rect fill="#E2E2F0" height="27.9688" rx="4" ry="4" style="stroke:#181818;stroke-width:0.5;" width="62.123" x="1001.4541" y="584.6719"/><text fill="#000000" font-family="'Helvetica'" font-size="12" lengthAdjust="spacing" textLength="48.123" x="1008.4541" y="602.8105">Grafana</text></g><g class="participant participant-head" data-entity-uid="part6" data-qualified-name="Admin" data-source-line="10" id="part6-head"><text fill="#000000" font-family="'Helvetica'" font-size="12" lengthAdjust="spacing" textLength="38.4551" x="1208.001" y="114.4355">Admin</text><ellipse cx="1230.2285" cy="58.7969" fill="#E2E2F0" rx="16" ry="16" style="stroke:#181818;stroke-width:0.5;"/><path d="M1230.2285,78.7969 C1234.2285,78.7969 1237.2285,78.7969 1241.2285,74.7969 C1249.2285,74.7969 1257.2285,82.7969 1257.2285,90.7969 L1257.2285,94.7969 C1257.2285,98.7969 1253.2285,102.7969 1249.2285,102.7969 L1211.2285,102.7969 C1207.2285,102.7969 1203.2285,98.7969 1203.2285,94.7969 L1203.2285,90.7969 C1203.2285,82.7969 1211.2285,74.7969 1219.2285,74.7969 C1223.2285,78.7969 1226.2285,78.7969 1230.2285,78.7969" fill="#E2E2F0" style="stroke:#181818;stroke-width:0.5;"/></g><g class="participant participant-tail" data-entity-uid="part6" data-qualified-name="Admin" data-source-line="10" id="part6-tail"><text fill="#000000" font-family="'Helvetica'" font-size="12" lengthAdjust="spacing" textLength="38.4551" x="1208.001" y="595.8105">Admin</text><ellipse cx="1230.2285" cy="615.1406" fill="#E2E2F0" rx="16" ry="16" style="stroke:#181818;stroke-width:0.5;"/><path d="M1230.2285,635.1406 C1234.2285,635.1406 1237.2285,635.1406 1241.2285,631.1406 C1249.2285,631.1406 1257.2285,639.1406 1257.2285,647.1406 L1257.2285,651.1406 C1257.2285,655.1406 1253.2285,659.1406 1249.2285,659.1406 L1211.2285,659.1406 C1207.2285,659.1406 1203.2285,655.1406 1203.2285,651.1406 L1203.2285,647.1406 C1203.2285,639.1406 1211.2285,631.1406 1219.2285,631.1406 C1223.2285,635.1406 1226.2285,635.1406 1230.2285,635.1406" fill="#E2E2F0" style="stroke:#181818;stroke-width:0.5;"/></g><path d="M5,136.2656 L5,193.2656 A4,4 0 0 0 9,197.2656 L477,197.2656 A4,4 0 0 0 481,193.2656 L481,142.2656 L471,132.2656 L9,132.2656 A4,4 0 0 0 5,136.2656" fill="#FEFFDD" style="stroke:#181818;stroke-width:0.5;"/><path d="M471,132.2656 L471,140.2656 A2,2 0 0 0 473,142.2656 L481,142.2656 L471,132.2656" fill="#FEFFDD" style="stroke:#181818;stroke-width:0.5;"/><text fill="#000000" font-family="'Helvetica'" font-size="12" lengthAdjust="spacing" textLength="386.1738" x="11" y="148.4043">Every service publishes, every minute and only, to its dedicated</text><text fill="#000000" font-family="'Helvetica'" font-size="12" font-weight="700" lengthAdjust="spacing" textLength="163.8281" x="11" y="162.373">metrics/&lt;ServiceName&gt;</text><text fill="#000000" font-family="'Helvetica'" font-size="12" lengthAdjust="spacing" textLength="235.6523" x="178.6426" y="162.373">topic via mTLS, after verifying the peer</text><text fill="#000000" font-family="'Helvetica'" font-size="12" lengthAdjust="spacing" textLength="390.2988" x="11" y="176.3418">certificate comes from an MQTT-Broker and is a valid X.509 cert.</text><text fill="#000000" font-family="'Helvetica'" font-size="12" lengthAdjust="spacing" textLength="455.6484" x="11" y="190.3105">Metrics carry aggregated statistics only: never personal data (RNF-SEC-01).</text><g class="message" data-entity-1="part1" data-entity-2="part2" data-source-line="19" id="msg1"><polygon fill="#333333" points="468.0879,219.1094,478.0879,223.1094,468.0879,227.1094,472.0879,223.1094" style="stroke:#333333;stroke-width:1;stroke-linejoin:miter;stroke-miterlimit:10;"/><line style="stroke:#333333;stroke-width:1;" x1="242.4033" x2="474.0879" y1="223.1094" y2="223.1094"/><text fill="#333333" font-family="'Helvetica'" font-size="12" lengthAdjust="spacing" textLength="195.9785" x="249.4033" y="218.2793">publish metrics/&lt;ServiceName&gt;</text></g><g class="message" data-entity-1="part2" data-entity-2="part3" data-source-line="20" id="msg2"><polygon fill="#333333" points="608.4316,247.0781,618.4316,251.0781,608.4316,255.0781,612.4316,251.0781" style="stroke:#333333;stroke-width:1;stroke-linejoin:miter;stroke-miterlimit:10;"/><line style="stroke:#333333;stroke-width:1;" x1="480.0879" x2="614.4316" y1="251.0781" y2="251.0781"/><text fill="#333333" font-family="'Helvetica'" font-size="12" lengthAdjust="spacing" textLength="116.3438" x="487.0879" y="246.248">subscribe metrics/*</text></g><path d="M556.8125,266.0781 L615.7598,266.0781 L615.7598,272.0469 L605.7598,282.0469 L552.8125,282.0469 L552.8125,270.0781 A4,4 0 0 1 556.8125,266.0781" fill="#EEEEEE" style="stroke:#000000;stroke-width:1.5;"/><rect fill="none" height="100.875" rx="4" ry="4" style="stroke:#000000;stroke-width:1.5;" width="514.9414" x="552.8125" y="266.0781"/><text fill="#000000" font-family="'Helvetica'" font-size="12" font-weight="700" lengthAdjust="spacing" textLength="17.9473" x="567.8125" y="278.2168">alt</text><text fill="#000000" font-family="'Helvetica'" font-size="12" font-weight="700" lengthAdjust="spacing" textLength="431.9941" x="630.7598" y="279.2168">["service" field matches source topic (MT-F-02, Mosquitto ACL)]</text><g class="message" data-entity-1="part3" data-entity-2="part4" data-source-line="23" id="msg3"><polygon fill="#333333" points="744.8555,298.0156,754.8555,302.0156,744.8555,306.0156,748.8555,302.0156" style="stroke:#333333;stroke-width:1;stroke-linejoin:miter;stroke-miterlimit:10;"/><line style="stroke:#333333;stroke-width:1;" x1="620.4316" x2="750.8555" y1="302.0156" y2="302.0156"/><text fill="#333333" font-family="'Helvetica'" font-size="12" lengthAdjust="spacing" textLength="112.4238" x="627.4316" y="297.1855">insert (hypertable)</text></g><line style="stroke:#000000;stroke-width:1;stroke-dasharray:2,2;" x1="552.8125" x2="1067.7539" y1="311.0156" y2="311.0156"/><text fill="#000000" font-family="'Helvetica'" font-size="12" font-weight="700" lengthAdjust="spacing" textLength="111.0762" x="557.8125" y="322.1543">[field mismatch]</text><g class="message" data-entity-1="part3" data-entity-2="part3" data-source-line="25" id="msg4"><line style="stroke:#333333;stroke-width:1;" x1="620.4316" x2="662.4316" y1="345.9531" y2="345.9531"/><line style="stroke:#333333;stroke-width:1;" x1="662.4316" x2="662.4316" y1="345.9531" y2="358.9531"/><line style="stroke:#333333;stroke-width:1;" x1="621.4316" x2="662.4316" y1="358.9531" y2="358.9531"/><polygon fill="#333333" points="631.4316,354.9531,621.4316,358.9531,631.4316,362.9531,627.4316,358.9531" style="stroke:#333333;stroke-width:1;stroke-linejoin:miter;stroke-miterlimit:10;"/><text fill="#333333" font-family="'Helvetica'" font-size="12" lengthAdjust="spacing" textLength="43.7051" x="627.4316" y="341.123">discard</text></g><path d="M761,382.9531 L761,411.9531 A4,4 0 0 0 765,415.9531 L992,415.9531 A4,4 0 0 0 996,411.9531 L996,388.9531 L986,378.9531 L765,378.9531 A4,4 0 0 0 761,382.9531" fill="#FEFFDD" style="stroke:#181818;stroke-width:0.5;"/><path d="M986,378.9531 L986,386.9531 A2,2 0 0 0 988,388.9531 L996,388.9531 L986,378.9531" fill="#FEFFDD" style="stroke:#181818;stroke-width:0.5;"/><text fill="#000000" font-family="'Helvetica'" font-size="12" lengthAdjust="spacing" textLength="104.2969" x="767" y="395.0918">30-day retention,</text><text fill="#000000" font-family="'Helvetica'" font-size="12" lengthAdjust="spacing" textLength="214.043" x="767" y="409.0605">compression after 7 days (MT-F-03)</text><g class="message" data-entity-1="part6" data-entity-2="part5" data-source-line="33" id="msg5"><polygon fill="#333333" points="1043.5156,465.7969,1033.5156,469.7969,1043.5156,473.7969,1039.5156,469.7969" style="stroke:#333333;stroke-width:1;stroke-linejoin:miter;stroke-miterlimit:10;"/><line style="stroke:#333333;stroke-width:1;" x1="1037.5156" x2="1229.2285" y1="469.7969" y2="469.7969"/><text fill="#333333" font-family="'Helvetica'" font-size="12" lengthAdjust="spacing" textLength="103.7051" x="1049.5156" y="437.0293">open dashboards</text><text fill="#333333" font-family="'Helvetica'" font-size="12" lengthAdjust="spacing" textLength="169.1602" x="1049.5156" y="450.998">(response time, throughput,</text><text fill="#333333" font-family="'Helvetica'" font-size="12" lengthAdjust="spacing" textLength="173.7129" x="1049.5156" y="464.9668">active connections: MT-F-04)</text></g><g class="message" data-entity-1="part5" data-entity-2="part4" data-source-line="34" id="msg6"><polygon fill="#333333" points="767.8555,507.7344,757.8555,511.7344,767.8555,515.7344,763.8555,511.7344" style="stroke:#333333;stroke-width:1;stroke-linejoin:miter;stroke-miterlimit:10;"/><line style="stroke:#333333;stroke-width:1;" x1="761.8555" x2="1031.5156" y1="511.7344" y2="511.7344"/><text fill="#333333" font-family="'Helvetica'" font-size="12" lengthAdjust="spacing" textLength="184.7344" x="773.8555" y="492.9355">query raw / hourly-daily views,</text><text fill="#333333" font-family="'Helvetica'" font-size="12" lengthAdjust="spacing" textLength="251.6602" x="773.8555" y="506.9043">filtered by service &amp; metric name (UC-05)</text></g><g class="message" data-entity-1="part4" data-entity-2="part5" data-source-line="35" id="msg7"><polygon fill="#333333" points="1020.5156,535.7031,1030.5156,539.7031,1020.5156,543.7031,1024.5156,539.7031" style="stroke:#333333;stroke-width:1;stroke-linejoin:miter;stroke-miterlimit:10;"/><line style="stroke:#333333;stroke-width:1;stroke-dasharray:2,2;" x1="756.8555" x2="1026.5156" y1="539.7031" y2="539.7031"/><text fill="#333333" font-family="'Helvetica'" font-size="12" lengthAdjust="spacing" textLength="40.4648" x="763.8555" y="534.873">results</text></g><g class="message" data-entity-1="part5" data-entity-2="part6" data-source-line="36" id="msg8"><polygon fill="#333333" points="1218.2285,563.6719,1228.2285,567.6719,1218.2285,571.6719,1222.2285,567.6719" style="stroke:#333333;stroke-width:1;stroke-linejoin:miter;stroke-miterlimit:10;"/><line style="stroke:#333333;stroke-width:1;stroke-dasharray:2,2;" x1="1032.5156" x2="1224.2285" y1="567.6719" y2="567.6719"/><text fill="#333333" font-family="'Helvetica'" font-size="12" lengthAdjust="spacing" textLength="122.3613" x="1039.5156" y="562.8418">rendered dashboard</text></g><?plantuml-src RLHTRzD047o_Nx7a0IMHBmsK2b6XIctQmaDJ2HmG4aNeOg_ZLSztxjqvaVyzUxQJj1Llle-TsPcTyniocMvoXDdivAyFhSPPtLHQY4118omnECeyt6gx4oApMcCMo1eFenJTbZBq3sPyOu9hvTTcdK2AMUCej3BTKSZA1AvLK6lbKVvKZGx9Wqc3TMg3SgXFu1x3phf7kLI6zrq22tI12ifKG7dPXD96mCa8b8SzgQWLtyceLYR0QFbjjP9NpZwYUp2_bzO_DHI2_TELzFkl2dfPSj4BigwxULY9V6WQHYkgq6TAu_LLTsULNb-znFhYLC6TTwV3jr0H1KQNUKMcE-Y-X30s8DWjkgCGW1jUj-3x3QYRjIPVeay0kmCkRBXAcHoiqMq2mG853pdcdKKvGqodLQ_evFC0VAygl9XE-N9D6Mn9GRMwInDGHM1s1gQY9RE1K38biZy0sT5so2pBXiBPYedXcRzT7-H1mLPfok7Nx6p-gIkTCSG-BfbotBdQR1nkOelWWmhaGpoB8ix1H77CxBmrIaCq7CRVxszbUhEGytUJcK0cYdu9iVSAvCKmJJZV-mJ_5Iw6Qrnm62hN-6RjCqThF5HDXL2QXpYuFuA2KETGASuk4thRE9v9R-9ukPAtSlu-WKF2u79nDs7THn9cZ15XCZ8C6c1SjgoIuwHn8b1pfWOAyXtBw-hd_UR4qNDvj6B8ZgDD6S0MVGu1JkSoLoqu36ZYkqpY76rLE_IUbyEuFxA_hTyBE9qyyxOBPkGTeikijaR31RvSMoQFxvlHQdxpR0I_1WvWwMopAUicFcUEEcrZO8mPVWtdqFDyc8WzwD6LfoPcsgaTd439xkgM1P1kEQAuyunNaEQMEJBhuvjuEymB30yNnZyu8MSJqI7A5wrpe_oJyKTUFkqLnZEJTy07QU8V?></g></svg>