<svg xmlns="http://www.w3.org/2000/svg" xmlns:xlink="http://www.w3.org/1999/xlink" contentStyleType="text/css" data-diagram-type="SEQUENCE" height="678px" preserveAspectRatio="none" style="width:1273px;height:678px;background:#FFFFFF;" version="1.1" viewBox="0 0 1273 678" width="1273px" zoomAndPan="magnify"><?plantuml 1.2026.6?><defs><filter height="300%" id="f1ag8la3mo1cg1" width="300%" x="-1" y="-1"><feGaussianBlur result="blurOut" stdDeviation="2"/><feColorMatrix in="blurOut" result="blurOut2" type="matrix" values="0 0 0 0 0 0 0 0 0 0 0 0 0 0 0 0 0 0 .4 0"/><feOffset dx="4" dy="4" in="blurOut2" result="blurOut3"/><feBlend in="SourceGraphic" in2="blurOut3" mode="normal"/></filter><linearGradient id="g1ag8la3mo1cg10" x1="0%" x2="100%" y1="0%" y2="100%"><stop offset="0%" stop-color="#2A4A7F"/><stop offset="100%" stop-color="#1B3A6B"/></linearGradient><linearGradient id="g1ag8la3mo1cg11" x1="0%" x2="100%" y1="0%" y2="100%"><stop offset="0%" stop-color="#6FA3B0"/><stop offset="100%" stop-color="#4A7E8C"/></linearGradient><linearGradient id="g1ag8la3mo1cg12" x1="0%" x2="100%" y1="0%" y2="100%"><stop offset="0%" stop-color="#E8C766"/><stop offset="100%" stop-color="#C9A227"/></linearGradient><linearGradient id="g1ag8la3mo1cg13" x1="0%" x2="100%" y1="0%" y2="100%"><stop offset="0%" stop-color="#B7CEEA"/><stop offset="100%" stop-color="#7FA8D9"/></linearGradient></defs><g><g class="title" data-source-line="3"><text fill="#000000" font-family="'Helvetica'" font-size="14" font-weight="700" lengthAdjust="spacing" textLength="100.2422" x="582.9932" y="27.9951">Metrics Flow</text></g><rect fill="none" filter="url(#f1ag8la3mo1cg1)" height="100.875" rx="8" ry="8" style="stroke:#000000;stroke-width:1.5;" width="514.9414" x="555.8125" y="271.9844"/><g class="participant-lifeline" data-entity-uid="part1" data-qualified-name="Services" data-source-line="5" id="part1-lifeline"><g><title>..service..</title><rect fill="#000000" fill-opacity="0.00000" height="474.4063" width="8" x="239.9033" y="120.1719"/><line style="stroke:#181818;stroke-width:0.5;stroke-dasharray:5,5;" x1="243" x2="243" y1="120.1719" y2="594.5781"/></g></g><g class="participant-lifeline" data-entity-uid="part2" data-qualified-name="Broker" data-source-line="6" id="part2-lifeline"><g><title>..infra..</title><rect fill="#000000" fill-opacity="0.00000" height="474.4063" width="8" x="480.5879" y="120.1719"/><line style="stroke:#181818;stroke-width:0.5;stroke-dasharray:5,5;" x1="483.8066" x2="483.8066" y1="120.1719" y2="594.5781"/></g></g><g class="participant-lifeline" data-entity-uid="part3" data-qualified-name="Collector" data-source-line="7" id="part3-lifeline"><g><title>..infra..</title><rect fill="#000000" fill-opacity="0.00000" height="474.4063" width="8" x="620.9316" y="120.1719"/><line style="stroke:#181818;stroke-width:0.5;stroke-dasharray:5,5;" x1="624.8125" x2="624.8125" y1="120.1719" y2="594.5781"/></g></g><g class="participant-lifeline" data-entity-uid="part4" data-qualified-name="TSDB" data-source-line="8" id="part4-lifeline"><g><title>TimescaleDB</title><rect fill="#000000" fill-opacity="0.00000" height="474.4063" width="8" x="757.3555" y="120.1719"/><line style="stroke:#181818;stroke-width:0.5;stroke-dasharray:5,5;" x1="761.291" x2="761.291" y1="120.1719" y2="594.5781"/></g></g><g class="participant-lifeline" data-entity-uid="part5" data-qualified-name="Grafana" data-source-line="9" id="part5-lifeline"><g><title>..infra..</title><rect fill="#000000" fill-opacity="0.00000" height="474.4063" width="8" x="1033.0156" y="120.1719"/><line style="stroke:#181818;stroke-width:0.5;stroke-dasharray:5,5;" x1="1036.4541" x2="1036.4541" y1="120.1719" y2="594.5781"/></g></g><g class="participant-lifeline" data-entity-uid="part6" data-qualified-name="Admin" data-source-line="10" id="part6-lifeline"><g><title>Admin</title><rect fill="#000000" fill-opacity="0.00000" height="474.4063" width="8" x="1230.7285" y="120.1719"/><line style="stroke:#181818;stroke-width:0.5;stroke-dasharray:5,5;" x1="1234.2285" x2="1234.2285" y1="120.1719" y2="594.5781"/></g></g><g class="participant participant-head" data-entity-uid="part1" data-qualified-name="Services" data-source-line="5" id="part1-head"><rect fill="url(#g1ag8la3mo1cg10)" filter="url(#f1ag8la3mo1cg1)" height="69.875" rx="8" ry="8" style="stroke:#0A1B36;stroke-width:0.5;" width="358.8066" x="65" y="42.2969"/><rect fill="url(#g1ag8la3mo1cg10)" filter="url(#f1ag8la3mo1cg1)" height="69.875" rx="8" ry="8" style="stroke:#0A1B36;stroke-width:0.5;" width="358.8066" x="61" y="46.2969"/><text fill="#F0F0F0" font-family="'Helvetica'" font-size="12" font-style="italic" lengthAdjust="spacing" textLength="57.7969" x="211.5049" y="64.4355">&#171;service&#187;</text><text fill="#F0F0F0" font-family="'Helvetica'" font-size="12" lengthAdjust="spacing" textLength="50.6016" x="215.1025" y="78.4043">Services</text><text fill="#F0F0F0" font-family="'Helvetica'" font-size="12" lengthAdjust="spacing" textLength="270.334" x="105.2363" y="92.373">(Entry-Hub, Security-Switch, Database-Vault,</text><text fill="#F0F0F0" font-family="'Helvetica'" font-size="12" lengthAdjust="spacing" textLength="344.8066" x="68" y="106.3418">Storage-Service, Network-Manager, Certificate-Authority)</text></g><g class="participant participant-tail" data-entity-uid="part1" data-qualified-name="Services" data-source-line="5" id="part1-tail"><rect fill="url(#g1ag8la3mo1cg10)" filter="url(#f1ag8la3mo1cg1)" height="69.875" rx="8" ry="8" style="stroke:#0A1B36;stroke-width:0.5;" width="358.8066" x="65" y="593.5781"/><rect fill="url(#g1ag8la3mo1cg10)" filter="url(#f1ag8la3mo1cg1)" height="69.875" rx="8" ry="8" style="stroke:#0A1B36;stroke-width:0.5;" width="358.8066" x="61" y="597.5781"/><text fill="#F0F0F0" font-family="'Helvetica'" font-size="12" font-style="italic" lengthAdjust="spacing" textLength="57.7969" x="211.5049" y="615.7168">&#171;service&#187;</text><text fill="#F0F0F0" font-family="'Helvetica'" font-size="12" lengthAdjust="spacing" textLength="50.6016" x="215.1025" y="629.6855">Services</text><text fill="#F0F0F0" font-family="'Helvetica'" font-size="12" lengthAdjust="spacing" textLength="270.334" x="105.2363" y="643.6543">(Entry-Hub, Security-Switch, Database-Vault,</text><text fill="#F0F0F0" font-family="'Helvetica'" font-size="12" lengthAdjust="spacing" textLength="344.8066" x="68" y="657.623">Storage-Service, Network-Manager, Certificate-Authority)</text></g><g class="participant participant-head" data-entity-uid="part2" data-qualified-name="Broker" data-source-line="6" id="part2-head"><rect fill="url(#g1ag8la3mo1cg11)" filter="url(#f1ag8la3mo1cg1)" height="55.9063" rx="8" ry="8" style="stroke:#2F5A66;stroke-width:0.5;" width="92.5625" x="436.8066" y="60.2656"/><text fill="#0A1B22" font-family="'Helvetica'" font-size="12" font-style="italic" lengthAdjust="spacing" textLength="42.2637" x="461.9561" y="78.4043">&#171;infra&#187;</text><text fill="#0A1B22" font-family="'Helvetica'" font-size="12" lengthAdjust="spacing" textLength="78.5625" x="443.8066" y="92.373">MQTT-Broker</text><text fill="#0A1B22" font-family="'Helvetica'" font-size="12" lengthAdjust="spacing" textLength="68.6191" x="448.7783" y="106.3418">[Mosquitto]</text></g><g class="participant participant-tail" data-entity-uid="part2" data-qualified-name="Broker" data-source-line="6" id="part2-tail"><rect fill="url(#g1ag8la3mo1cg11)" filter="url(#f1ag8la3mo1cg1)" height="55.9063" rx="8" ry="8" style="stroke:#2F5A66;stroke-width:0.5;" width="92.5625" x="436.8066" y="593.5781"/><text fill="#0A1B22" font-family="'Helvetica'" font-size="12" font-style="italic" lengthAdjust="spacing" textLength="42.2637" x="461.9561" y="611.7168">&#171;infra&#187;</text><text fill="#0A1B22" font-family="'Helvetica'" font-size="12" lengthAdjust="spacing" textLength="78.5625" x="443.8066" y="625.6855">MQTT-Broker</text><text fill="#0A1B22" font-family="'Helvetica'" font-size="12" lengthAdjust="spacing" textLength="68.6191" x="448.7783" y="639.6543">[Mosquitto]</text></g><g class="participant participant-head" data-entity-uid="part3" data-qualified-name="Collector" data-source-line="7" id="part3-head"><rect fill="url(#g1ag8la3mo1cg11)" filter="url(#f1ag8la3mo1cg1)" height="41.9375" rx="8" ry="8" style="stroke:#2F5A66;stroke-width:0.5;" width="115.2383" x="565.8125" y="74.2344"/><text fill="#0A1B22" font-family="'Helvetica'" font-size="12" font-style="italic" lengthAdjust="spacing" textLength="42.2637" x="602.2998" y="92.373">&#171;infra&#187;</text><text fill="#0A1B22" font-family="'Helvetica'" font-size="12" lengthAdjust="spacing" textLength="101.2383" x="572.8125" y="106.3418">Metrics-Collector</text></g><g class="participant participant-tail" data-entity-uid="part3" data-qualified-name="Collector" data-source-line="7" id="part3-tail"><rect fill="url(#g1ag8la3mo1cg11)" filter="url(#f1ag8la3mo1cg1)" height="41.9375" rx="8" ry="8" style="stroke:#2F5A66;stroke-width:0.5;" width="115.2383" x="565.8125" y="593.5781"/><text fill="#0A1B22" font-family="'Helvetica'" font-size="12" font-style="italic" lengthAdjust="spacing" textLength="42.2637" x="602.2998" y="611.7168">&#171;infra&#187;</text><text fill="#0A1B22" font-family="'Helvetica'" font-size="12" lengthAdjust="spacing" textLength="101.2383" x="572.8125" y="625.6855">Metrics-Collector</text></g><g class="participant participant-head" data-entity-uid="part4" data-qualified-name="TSDB" data-source-line="8" id="part4-head"><text fill="#000000" font-family="'Helvetica'" font-size="12" lengthAdjust="spacing" textLength="78.1289" x="719.291" y="117.3418">TimescaleDB</text><path d="M743.3555,70.2031 C743.3555,60.2031 761.3555,60.2031 761.3555,60.2031 C761.3555,60.2031 779.3555,60.2031 779.3555,70.2031 L779.3555,96.2031 C779.3555,106.2031 761.3555,106.2031 761.3555,106.2031 C761.3555,106.2031 743.3555,106.2031 743.3555,96.2031 L743.3555,70.2031" fill="url(#g1ag8la3mo1cg12)" filter="url(#f1ag8la3mo1cg1)" style="stroke:#8B6F1A;stroke-width:0.5;"/><path d="M743.3555,70.2031 C743.3555,80.2031 761.3555,80.2031 761.3555,80.2031 C761.3555,80.2031 779.3555,80.2031 779.3555,70.2031" fill="none" style="stroke:#8B6F1A;stroke-width:0.5;"/></g><g class="participant participant-tail" data-entity-uid="part4" data-qualified-name="TSDB" data-source-line="8" id="part4-tail"><text fill="#000000" font-family="'Helvetica'" font-size="12" lengthAdjust="spacing" textLength="78.1289" x="719.291" y="604.7168">TimescaleDB</text><path d="M743.3555,617.5469 C743.3555,607.5469 761.3555,607.5469 761.3555,607.5469 C761.3555,607.5469 779.3555,607.5469 779.3555,617.5469 L779.3555,643.5469 C779.3555,653.5469 761.3555,653.5469 761.3555,653.5469 C761.3555,653.5469 743.3555,653.5469 743.3555,643.5469 L743.3555,617.5469" fill="url(#g1ag8la3mo1cg12)" filter="url(#f1ag8la3mo1cg1)" style="stroke:#8B6F1A;stroke-width:0.5;"/><path d="M743.3555,617.5469 C743.3555,627.5469 761.3555,627.5469 761.3555,627.5469 C761.3555,627.5469 779.3555,627.5469 779.3555,617.5469" fill="none" style="stroke:#8B6F1A;stroke-width:0.5;"/></g><g class="participant participant-head" data-entity-uid="part5" data-qualified-name="Grafana" data-source-line="9" id="part5-head"><rect fill="url(#g1ag8la3mo1cg11)" filter="url(#f1ag8la3mo1cg1)" height="41.9375" rx="8" ry="8" style="stroke:#2F5A66;stroke-width:0.5;" width="62.123" x="1004.4541" y="74.2344"/><text fill="#0A1B22" font-family="'Helvetica'" font-size="12" font-style="italic" lengthAdjust="spacing" textLength="42.2637" x="1014.3838" y="92.373">&#171;infra&#187;</text><text fill="#0A1B22" font-family="'Helvetica'" font-size="12" lengthAdjust="spacing" textLength="48.123" x="1011.4541" y="106.3418">Grafana</text></g><g class="participant participant-tail" data-entity-uid="part5" data-qualified-name="Grafana" data-source-line="9" id="part5-tail"><rect fill="url(#g1ag8la3mo1cg11)" filter="url(#f1ag8la3mo1cg1)" height="41.9375" rx="8" ry="8" style="stroke:#2F5A66;stroke-width:0.5;" width="62.123" x="1004.4541" y="593.5781"/><text fill="#0A1B22" font-family="'Helvetica'" font-size="12" font-style="italic" lengthAdjust="spacing" textLength="42.2637" x="1014.3838" y="611.7168">&#171;infra&#187;</text><text fill="#0A1B22" font-family="'Helvetica'" font-size="12" lengthAdjust="spacing" textLength="48.123" x="1011.4541" y="625.6855">Grafana</text></g><g class="participant participant-head" data-entity-uid="part6" data-qualified-name="Admin" data-source-line="10" id="part6-head"><text fill="#000000" font-family="'Helvetica'" font-size="12" lengthAdjust="spacing" textLength="38.4551" x="1212.501" y="117.3418">Admin</text><ellipse cx="1234.7285" cy="61.7031" fill="url(#g1ag8la3mo1cg13)" filter="url(#f1ag8la3mo1cg1)" rx="16" ry="16" style="stroke:#3A6EA5;stroke-width:0.5;"/><path d="M1234.7285,81.7031 C1238.7285,81.7031 1241.7285,81.7031 1245.7285,77.7031 C1253.7285,77.7031 1261.7285,85.7031 1261.7285,93.7031 L1261.7285,97.7031 C1261.7285,101.7031 1257.7285,105.7031 1253.7285,105.7031 L1215.7285,105.7031 C1211.7285,105.7031 1207.7285,101.7031 1207.7285,97.7031 L1207.7285,93.7031 C1207.7285,85.7031 1215.7285,77.7031 1223.7285,77.7031 C1227.7285,81.7031 1230.7285,81.7031 1234.7285,81.7031" fill="url(#g1ag8la3mo1cg13)" filter="url(#f1ag8la3mo1cg1)" style="stroke:#3A6EA5;stroke-width:0.5;"/></g><g class="participant participant-tail" data-entity-uid="part6" data-qualified-name="Admin" data-source-line="10" id="part6-tail"><text fill="#000000" font-family="'Helvetica'" font-size="12" lengthAdjust="spacing" textLength="38.4551" x="1212.501" y="604.7168">Admin</text><ellipse cx="1234.7285" cy="624.0469" fill="url(#g1ag8la3mo1cg13)" filter="url(#f1ag8la3mo1cg1)" rx="16" ry="16" style="stroke:#3A6EA5;stroke-width:0.5;"/><path d="M1234.7285,644.0469 C1238.7285,644.0469 1241.7285,644.0469 1245.7285,640.0469 C1253.7285,640.0469 1261.7285,648.0469 1261.7285,656.0469 L1261.7285,660.0469 C1261.7285,664.0469 1257.7285,668.0469 1253.7285,668.0469 L1215.7285,668.0469 C1211.7285,668.0469 1207.7285,664.0469 1207.7285,660.0469 L1207.7285,656.0469 C1207.7285,648.0469 1215.7285,640.0469 1223.7285,640.0469 C1227.7285,644.0469 1230.7285,644.0469 1234.7285,644.0469" fill="url(#g1ag8la3mo1cg13)" filter="url(#f1ag8la3mo1cg1)" style="stroke:#3A6EA5;stroke-width:0.5;"/></g><path d="M5,143.1719 L5,192.1719 A8,8 0 0 0 13,200.1719 L473,200.1719 A8,8 0 0 0 481,192.1719 L481,145.1719 L471,135.1719 L13,135.1719 A8,8 0 0 0 5,143.1719" fill="#FEFFDD" filter="url(#f1ag8la3mo1cg1)" style="stroke:#181818;stroke-width:0.5;"/><path d="M471,135.1719 L471,141.1719 A4,4 0 0 0 475,145.1719 L481,145.1719 L471,135.1719" fill="#FEFFDD" style="stroke:#181818;stroke-width:0.5;"/><text fill="#000000" font-family="'Helvetica'" font-size="12" lengthAdjust="spacing" textLength="386.1738" x="11" y="151.3105">Every service publishes, every minute and only, to its dedicated</text><text fill="#000000" font-family="'Helvetica'" font-size="12" font-weight="700" lengthAdjust="spacing" textLength="163.8281" x="11" y="165.2793">metrics/&lt;ServiceName&gt;</text><text fill="#000000" font-family="'Helvetica'" font-size="12" lengthAdjust="spacing" textLength="235.6523" x="178.6426" y="165.2793">topic via mTLS, after verifying the peer</text><text fill="#000000" font-family="'Helvetica'" font-size="12" lengthAdjust="spacing" textLength="390.2988" x="11" y="179.248">certificate comes from an MQTT-Broker and is a valid X.509 cert.</text><text fill="#000000" font-family="'Helvetica'" font-size="12" lengthAdjust="spacing" textLength="455.6484" x="11" y="193.2168">Metrics carry aggregated statistics only: never personal data (RNF-SEC-01).</text><g class="message" data-entity-1="part1" data-entity-2="part2" data-source-line="19" id="msg1"><polygon fill="#333333" points="472.5879,225.0156,482.5879,229.0156,472.5879,233.0156,476.5879,229.0156" style="stroke:#333333;stroke-width:1;stroke-linejoin:miter;stroke-miterlimit:10;"/><line style="stroke:#333333;stroke-width:1;" x1="243.9033" x2="478.5879" y1="229.0156" y2="229.0156"/><text fill="#333333" font-family="'Helvetica'" font-size="12" lengthAdjust="spacing" textLength="195.9785" x="250.9033" y="224.1855">publish metrics/&lt;ServiceName&gt;</text></g><g class="message" data-entity-1="part2" data-entity-2="part3" data-source-line="20" id="msg2"><polygon fill="#333333" points="612.9316,252.9844,622.9316,256.9844,612.9316,260.9844,616.9316,256.9844" style="stroke:#333333;stroke-width:1;stroke-linejoin:miter;stroke-miterlimit:10;"/><line style="stroke:#333333;stroke-width:1;" x1="484.5879" x2="618.9316" y1="256.9844" y2="256.9844"/><text fill="#333333" font-family="'Helvetica'" font-size="12" lengthAdjust="spacing" textLength="116.3438" x="491.5879" y="252.1543">subscribe metrics/*</text></g><path d="M563.8125,271.9844 L618.7598,271.9844 L618.7598,277.9531 L608.7598,287.9531 L555.8125,287.9531 L555.8125,279.9844 A8,8 0 0 1 563.8125,271.9844" fill="#EEEEEE" style="stroke:#000000;stroke-width:1.5;"/><rect fill="none" height="100.875" rx="8" ry="8" style="stroke:#000000;stroke-width:1.5;" width="514.9414" x="555.8125" y="271.9844"/><text fill="#000000" font-family="'Helvetica'" font-size="12" font-weight="700" lengthAdjust="spacing" textLength="17.9473" x="570.8125" y="284.123">alt</text><text fill="#000000" font-family="'Helvetica'" font-size="12" font-weight="700" lengthAdjust="spacing" textLength="431.9941" x="633.7598" y="285.123">["service" field matches source topic (MT-F-02, Mosquitto ACL)]</text><g class="message" data-entity-1="part3" data-entity-2="part4" data-source-line="23" id="msg3"><polygon fill="#333333" points="749.3555,303.9219,759.3555,307.9219,749.3555,311.9219,753.3555,307.9219" style="stroke:#333333;stroke-width:1;stroke-linejoin:miter;stroke-miterlimit:10;"/><line style="stroke:#333333;stroke-width:1;" x1="624.9316" x2="755.3555" y1="307.9219" y2="307.9219"/><text fill="#333333" font-family="'Helvetica'" font-size="12" lengthAdjust="spacing" textLength="112.4238" x="631.9316" y="303.0918">insert (hypertable)</text></g><line style="stroke:#000000;stroke-width:1;stroke-dasharray:2,2;" x1="555.8125" x2="1070.7539" y1="316.9219" y2="316.9219"/><text fill="#000000" font-family="'Helvetica'" font-size="12" font-weight="700" lengthAdjust="spacing" textLength="111.0762" x="560.8125" y="328.0605">[field mismatch]</text><g class="message" data-entity-1="part3" data-entity-2="part3" data-source-line="25" id="msg4"><line style="stroke:#333333;stroke-width:1;" x1="624.9316" x2="666.9316" y1="351.8594" y2="351.8594"/><line style="stroke:#333333;stroke-width:1;" x1="666.9316" x2="666.9316" y1="351.8594" y2="364.8594"/><line style="stroke:#333333;stroke-width:1;" x1="625.9316" x2="666.9316" y1="364.8594" y2="364.8594"/><polygon fill="#333333" points="635.9316,360.8594,625.9316,364.8594,635.9316,368.8594,631.9316,364.8594" style="stroke:#333333;stroke-width:1;stroke-linejoin:miter;stroke-miterlimit:10;"/><text fill="#333333" font-family="'Helvetica'" font-size="12" lengthAdjust="spacing" textLength="43.7051" x="631.9316" y="347.0293">discard</text></g><path d="M766,392.8594 L766,413.8594 A8,8 0 0 0 774,421.8594 L993,421.8594 A8,8 0 0 0 1001,413.8594 L1001,394.8594 L991,384.8594 L774,384.8594 A8,8 0 0 0 766,392.8594" fill="#FEFFDD" filter="url(#f1ag8la3mo1cg1)" style="stroke:#181818;stroke-width:0.5;"/><path d="M991,384.8594 L991,390.8594 A4,4 0 0 0 995,394.8594 L1001,394.8594 L991,384.8594" fill="#FEFFDD" style="stroke:#181818;stroke-width:0.5;"/><text fill="#000000" font-family="'Helvetica'" font-size="12" lengthAdjust="spacing" textLength="104.2969" x="772" y="400.998">30-day retention,</text><text fill="#000000" font-family="'Helvetica'" font-size="12" lengthAdjust="spacing" textLength="214.043" x="772" y="414.9668">compression after 7 days (MT-F-03)</text><g class="message" data-entity-1="part6" data-entity-2="part5" data-source-line="33" id="msg5"><polygon fill="#333333" points="1048.0156,474.7031,1038.0156,478.7031,1048.0156,482.7031,1044.0156,478.7031" style="stroke:#333333;stroke-width:1;stroke-linejoin:miter;stroke-miterlimit:10;"/><line style="stroke:#333333;stroke-width:1;" x1="1042.0156" x2="1233.7285" y1="478.7031" y2="478.7031"/><text fill="#333333" font-family="'Helvetica'" font-size="12" lengthAdjust="spacing" textLength="103.7051" x="1054.0156" y="445.9355">open dashboards</text><text fill="#333333" font-family="'Helvetica'" font-size="12" lengthAdjust="spacing" textLength="169.1602" x="1054.0156" y="459.9043">(response time, throughput,</text><text fill="#333333" font-family="'Helvetica'" font-size="12" lengthAdjust="spacing" textLength="173.7129" x="1054.0156" y="473.873">active connections: MT-F-04)</text></g><g class="message" data-entity-1="part5" data-entity-2="part4" data-source-line="34" id="msg6"><polygon fill="#333333" points="772.3555,516.6406,762.3555,520.6406,772.3555,524.6406,768.3555,520.6406" style="stroke:#333333;stroke-width:1;stroke-linejoin:miter;stroke-miterlimit:10;"/><line style="stroke:#333333;stroke-width:1;" x1="766.3555" x2="1036.0156" y1="520.6406" y2="520.6406"/><text fill="#333333" font-family="'Helvetica'" font-size="12" lengthAdjust="spacing" textLength="184.7344" x="778.3555" y="501.8418">query raw / hourly-daily views,</text><text fill="#333333" font-family="'Helvetica'" font-size="12" lengthAdjust="spacing" textLength="251.6602" x="778.3555" y="515.8105">filtered by service &amp; metric name (UC-05)</text></g><g class="message" data-entity-1="part4" data-entity-2="part5" data-source-line="35" id="msg7"><polygon fill="#333333" points="1025.0156,544.6094,1035.0156,548.6094,1025.0156,552.6094,1029.0156,548.6094" style="stroke:#333333;stroke-width:1;stroke-linejoin:miter;stroke-miterlimit:10;"/><line style="stroke:#333333;stroke-width:1;stroke-dasharray:2,2;" x1="761.3555" x2="1031.0156" y1="548.6094" y2="548.6094"/><text fill="#333333" font-family="'Helvetica'" font-size="12" lengthAdjust="spacing" textLength="40.4648" x="768.3555" y="543.7793">results</text></g><g class="message" data-entity-1="part5" data-entity-2="part6" data-source-line="36" id="msg8"><polygon fill="#333333" points="1222.7285,572.5781,1232.7285,576.5781,1222.7285,580.5781,1226.7285,576.5781" style="stroke:#333333;stroke-width:1;stroke-linejoin:miter;stroke-miterlimit:10;"/><line style="stroke:#333333;stroke-width:1;stroke-dasharray:2,2;" x1="1037.0156" x2="1228.7285" y1="576.5781" y2="576.5781"/><text fill="#333333" font-family="'Helvetica'" font-size="12" lengthAdjust="spacing" textLength="122.3613" x="1044.0156" y="571.748">rendered dashboard</text></g><?plantuml-src RLHTRzCm57tthxZq0RLLqXN6XAYcIbktmSCw2LeG4aF8JMwQgpbsPZkjykztdO-s0zxYsFUSUyuzzXlIYQfIXCdax8_pjS99MHLA24zU8IpHMqeSt2cp5o8nIc7YoMW7WnNQ7INe7lNmLdjRnr-gJGGhJ2fBlevNU_997i6Dz78Z7SO_PALyzAXNtbYvnRYhZ-01_TxOftWfDV-t4IpGUieeaHxZgyhd9W2E1Y0TzAHmUUdQp_bSb9BF9rHAxM6m_BfUnzVMFA5zrB-MnZrNvBtvtPIt_xcOT6RbFwMjs7ZHoZIsgJciJihIJXGCrbIWIwJ2c-lcz7frS_qQzREL6IjhThll4oJP80-kqe9qSwJv4a8RZs1st6mlMG3Syhg6JZYKrKQHoz55WCq65rPS9NKAHgiw0c-0l8CKqyRCb276uw9LUNRP0J_80kVZCHykAO4TIIZMzwi8PEQPdO4fgqblmUTCYMWP93aE21B31a1cJS74SE9-qmSvaB2JYbBuERcOVcfA9mpH1okHbZkNswt5RMWHd9UUd0zxGSGCT137pDOPBHK4ws7uxU4kNjqkukcxqKGW4mM_X3Z48vxtivxrFi5_XOlk61SS1pq3LsrSOcc3Xwgn45BnE3lt1v0HgXGAoIbdGcSgopDfJHmkr_5TF7qVmI5_SBMu7x7k8mapXh0m6Ma6zJ3CQrR9mL8u4gWuNHq5kORbx-hJVbFY4DeqMD5bnz8szs2oDf40vzCubJLOzAZ33Ox274rHMdIEbzsuFxA_jUi5d8zEl6s26NZx4C_0bAYvmEKRm-JX9M2qaby7DeBl1GSmjwRQvcKLBZv7dNOXC5ftZyWCMfuF8z637brvhaAchTp36UJihgfP0AcQ8ufxntWPAMwP8xCvtecttRn0yt1X-9qJSZ4I3MBygdLkb9yZT-JbtLPXsDDf0toG9bu0?></g></svg>