<svg xmlns="http://www.w3.org/2000/svg" xmlns:xlink="http://www.w3.org/1999/xlink" contentStyleType="text/css" data-diagram-type="DESCRIPTION" height="475px" preserveAspectRatio="none" style="width:502px;height:475px;background:#FFFFFF;" version="1.1" viewBox="0 0 502 475" width="502px" zoomAndPan="magnify"><?plantuml 1.2026.6?><defs><linearGradient id="gh3bflgghvdya0" x1="0%" x2="100%" y1="0%" y2="100%"><stop offset="0%" stop-color="#C4D3E3"/><stop offset="100%" stop-color="#A9BDD6"/></linearGradient><filter height="300%" id="fh3bflgghvdya" width="300%" x="-1" y="-1"><feGaussianBlur result="blurOut" stdDeviation="2"/><feColorMatrix in="blurOut" result="blurOut2" type="matrix" values="0 0 0 0 0 0 0 0 0 0 0 0 0 0 0 0 0 0 .4 0"/><feOffset dx="4" dy="4" in="blurOut2" result="blurOut3"/><feBlend in="SourceGraphic" in2="blurOut3" mode="normal"/></filter><linearGradient id="gh3bflgghvdya1" x1="0%" x2="100%" y1="0%" y2="100%"><stop offset="0%" stop-color="#2A4A7F"/><stop offset="100%" stop-color="#1B3A6B"/></linearGradient><linearGradient id="gh3bflgghvdya2" x1="0%" x2="100%" y1="0%" y2="100%"><stop offset="0%" stop-color="#6FA3B0"/><stop offset="100%" stop-color="#4A7E8C"/></linearGradient><linearGradient id="gh3bflgghvdya3" x1="0%" x2="100%" y1="0%" y2="100%"><stop offset="0%" stop-color="#B7CEEA"/><stop offset="100%" stop-color="#7FA8D9"/></linearGradient></defs><g><g class="title" data-source-line="3"><text fill="#000000" font-family="'Helvetica'" font-size="14" font-weight="700" lengthAdjust="spacing" textLength="143.3223" x="176.2289" y="22.9951">Use Case Diagram</text></g><!--cluster RAM-USB--><g class="cluster" data-qualified-name="RAM-USB" data-source-line="27" id="ent0003"><rect fill="url(#gh3bflgghvdya0)" filter="url(#fh3bflgghvdya)" height="411" rx="8" ry="8" style="stroke:#3A5578;stroke-width:1;" width="386.28" x="96.5" y="44.2969"/><text fill="#1B2A3D" font-family="'Helvetica'" font-size="12" font-weight="700" lengthAdjust="spacing" textLength="62.9824" x="258.1488" y="57.4355">RAM-USB</text></g><!--entity UC1--><g class="entity" data-qualified-name="RAM-USB.UC1" data-source-line="29" id="ent0004"><ellipse cx="228.5276" cy="115.293" fill="url(#gh3bflgghvdya1)" rx="37.8076" ry="30.8461" style="stroke:#0A1B36;stroke-width:0.5;"/><text fill="#F0F0F0" font-family="'Helvetica'" font-size="12" font-style="italic" lengthAdjust="spacing" textLength="40.9863" x="208.0345" y="103.2534">&#171;user&#187;</text><text fill="#F0F0F0" font-family="'Helvetica'" font-size="12" lengthAdjust="spacing" textLength="36.7617" x="210.1468" y="117.2222">UC-01</text><text fill="#F0F0F0" font-family="'Helvetica'" font-size="12" lengthAdjust="spacing" textLength="49.9453" x="203.555" y="131.1909">Register</text></g><!--entity UC4--><g class="entity" data-qualified-name="RAM-USB.UC4" data-source-line="30" id="ent0005"><ellipse cx="228.5324" cy="306.2945" fill="url(#gh3bflgghvdya1)" rx="54.3724" ry="30.0477" style="stroke:#0A1B36;stroke-width:0.5;"/><text fill="#F0F0F0" font-family="'Helvetica'" font-size="12" font-style="italic" lengthAdjust="spacing" textLength="40.9863" x="208.0392" y="291.9609">&#171;user&#187;</text><text fill="#F0F0F0" font-family="'Helvetica'" font-size="12" lengthAdjust="spacing" textLength="36.7617" x="210.1515" y="305.9296">UC-04</text><text fill="#F0F0F0" font-family="'Helvetica'" font-size="12" lengthAdjust="spacing" textLength="79.5938" x="188.7355" y="319.8984">Restore a file</text></g><!--entity UC3--><g class="entity" data-qualified-name="RAM-USB.UC3" data-source-line="31" id="ent0006"><ellipse cx="228.5302" cy="211.2955" fill="url(#gh3bflgghvdya1)" rx="55.4802" ry="30.0086" style="stroke:#0A1B36;stroke-width:0.5;"/><text fill="#F0F0F0" font-family="'Helvetica'" font-size="12" font-style="italic" lengthAdjust="spacing" textLength="40.9863" x="208.037" y="196.9">&#171;user&#187;</text><text fill="#F0F0F0" font-family="'Helvetica'" font-size="12" lengthAdjust="spacing" textLength="36.7617" x="210.1493" y="210.8687">UC-03</text><text fill="#F0F0F0" font-family="'Helvetica'" font-size="12" lengthAdjust="spacing" textLength="81.4277" x="187.8163" y="224.8375">Back up a file</text></g><!--entity UC5--><g class="entity" data-qualified-name="RAM-USB.UC5" data-source-line="32" id="ent0007"><ellipse cx="228.5343" cy="401.2947" fill="url(#gh3bflgghvdya2)" rx="108.0343" ry="29.5078" style="stroke:#2F5A66;stroke-width:0.5;"/><text fill="#0A1B22" font-family="'Helvetica'" font-size="12" font-style="italic" lengthAdjust="spacing" textLength="52.4121" x="202.3283" y="386.0939">&#171;admin&#187;</text><text fill="#0A1B22" font-family="'Helvetica'" font-size="12" lengthAdjust="spacing" textLength="36.7617" x="210.1535" y="400.0627">UC-05</text><text fill="#0A1B22" font-family="'Helvetica'" font-size="12" lengthAdjust="spacing" textLength="166.0488" x="145.5099" y="414.0314">Consult operational metrics</text></g><!--entity UC2--><g class="entity" data-qualified-name="RAM-USB.UC2" data-source-line="34" id="ent0008"><ellipse cx="431.6771" cy="211.2925" fill="url(#gh3bflgghvdya1)" rx="35.1071" ry="28.6857" style="stroke:#0A1B36;stroke-width:0.5;"/><text fill="#F0F0F0" font-family="'Helvetica'" font-size="12" font-style="italic" lengthAdjust="spacing" textLength="40.9863" x="411.1839" y="201.9883">&#171;user&#187;</text><text fill="#F0F0F0" font-family="'Helvetica'" font-size="12" lengthAdjust="spacing" textLength="36.7617" x="413.2962" y="215.957">UC-02</text><text fill="#F0F0F0" font-family="'Helvetica'" font-size="12" lengthAdjust="spacing" textLength="32.584" x="415.3851" y="229.9258">Login</text></g><!--entity User--><g class="entity" data-qualified-name="User" data-source-line="24" id="ent0001"><ellipse cx="33" cy="142.3169" fill="url(#gh3bflgghvdya3)" filter="url(#fh3bflgghvdya)" rx="16" ry="16" style="stroke:#3A6EA5;stroke-width:0.5;"/><path d="M33,162.3169 C37,162.3169 40,162.3169 44,158.3169 C52,158.3169 60,166.3169 60,174.3169 L60,178.3169 C60,182.3169 56,186.3169 52,186.3169 L14,186.3169 C10,186.3169 6,182.3169 6,178.3169 L6,174.3169 C6,166.3169 14,158.3169 22,158.3169 C26,162.3169 29,162.3169 33,162.3169" fill="url(#gh3bflgghvdya3)" filter="url(#fh3bflgghvdya)" style="stroke:#3A6EA5;stroke-width:0.5;"/><text fill="#000000" font-family="'Helvetica'" font-size="12" lengthAdjust="spacing" textLength="27.3516" x="19.3242" y="197.9555">User</text></g><!--entity Admin--><g class="entity" data-qualified-name="Admin" data-source-line="25" id="ent0002"><ellipse cx="33" cy="380.3169" fill="url(#gh3bflgghvdya3)" filter="url(#fh3bflgghvdya)" rx="16" ry="16" style="stroke:#3A6EA5;stroke-width:0.5;"/><path d="M33,400.3169 C37,400.3169 40,400.3169 44,396.3169 C52,396.3169 60,404.3169 60,412.3169 L60,416.3169 C60,420.3169 56,424.3169 52,424.3169 L14,424.3169 C10,424.3169 6,420.3169 6,416.3169 L6,412.3169 C6,404.3169 14,396.3169 22,396.3169 C26,400.3169 29,400.3169 33,400.3169" fill="url(#gh3bflgghvdya3)" filter="url(#fh3bflgghvdya)" style="stroke:#3A6EA5;stroke-width:0.5;"/><text fill="#000000" font-family="'Helvetica'" font-size="12" lengthAdjust="spacing" textLength="38.4551" x="13.7725" y="435.9555">Admin</text></g><!--link User to UC1--><g class="link" data-entity-1="ent0001" data-entity-2="ent0004" data-link-type="association" data-source-line="37" id="lnk9"><path d="M60.6,135.9769 C97.45,135.9769 162.39,135.9769 199.8,135.9769" fill="none" id="User-UC1" style="stroke:#333333;stroke-width:1;"/></g><!--link User to UC3--><g class="link" data-entity-1="ent0001" data-entity-2="ent0006" data-link-type="association" data-source-line="38" id="lnk10"><path d="M60.6,191.0369 C93.45,191.0369 148.62,191.0369 186.71,191.0369" fill="none" id="User-UC3" style="stroke:#333333;stroke-width:1;"/></g><!--link User to UC4--><g class="link" data-entity-1="ent0001" data-entity-2="ent0005" data-link-type="association" data-source-line="39" id="lnk11"><path d="M32.78,201.2469 C32.78,243.6069 32.78,306.2969 32.78,306.2969 C32.78,306.2969 115.84,306.2969 173.75,306.2969" fill="none" id="User-UC4" style="stroke:#333333;stroke-width:1;"/></g><!--link User to UC2--><g class="link" data-entity-1="ent0001" data-entity-2="ent0008" data-link-type="association" data-source-line="40" id="lnk12"><path d="M60.73,163.7169 C151.16,163.7169 431.78,163.7169 431.78,163.7169 C431.78,163.7169 431.78,172.3369 431.78,182.2469" fill="none" id="User-UC2" style="stroke:#333333;stroke-width:1;"/></g><!--link Admin to UC5--><g class="link" data-entity-1="ent0002" data-entity-2="ent0007" data-link-type="association" data-source-line="41" id="lnk13"><path d="M60.6,401.2969 C76.71,401.2969 98.18,401.2969 120.38,401.2969" fill="none" id="Admin-UC5" style="stroke:#333333;stroke-width:1;"/></g><!--link UC3 to UC2--><g class="link" data-entity-1="ent0006" data-entity-2="ent0008" data-link-type="dependency" data-source-line="43" id="lnk14"><path d="M284.31,211.2969 C320.02,211.2969 360.28,211.2969 391.15,211.2969" fill="none" id="UC3-to-UC2" style="stroke:#333333;stroke-width:1;stroke-dasharray:7,7;"/><polygon fill="#333333" points="396.15,211.2969,387.15,207.2969,391.15,211.2969,387.15,215.2969,396.15,211.2969" style="stroke:#333333;stroke-width:1;stroke-linejoin:miter;stroke-miterlimit:10;"/><text fill="#333333" font-family="'Helvetica'" font-size="12" lengthAdjust="spacing" textLength="58.1602" x="341.23" y="223.4355">&#171;include&#187;</text></g><!--link UC4 to UC2--><g class="link" data-entity-1="ent0005" data-entity-2="ent0008" data-link-type="dependency" data-source-line="44" id="lnk15"><path d="M283.27,306.2969 C343.47,306.2969 431.78,306.2969 431.78,306.2969 C431.78,306.2969 431.78,273.2569 431.78,245.3169" fill="none" id="UC4-to-UC2" style="stroke:#333333;stroke-width:1;stroke-dasharray:7,7;"/><polygon fill="#333333" points="431.78,240.3169,427.78,249.3169,431.78,245.3169,435.78,249.3169,431.78,240.3169" style="stroke:#333333;stroke-width:1;stroke-linejoin:miter;stroke-miterlimit:10;"/><text fill="#333333" font-family="'Helvetica'" font-size="12" lengthAdjust="spacing" textLength="58.1602" x="331.52" y="318.4355">&#171;include&#187;</text></g><?plantuml-src VPDDRwCm48Rl_XMpoJbV66XtLKKoK4xjfQlS8bKMJ8bLnqQsELIh_lSTP-cMfcc5XCRZcVSPl-0VoZHwQ14UVNZHkEo7esOigA0HTXwXbFIgbEoSF3AcyIb0iE1KTmZGAeTDKDOm_wnCBwa4j38ONde4wyB1iibEh9Mc8zq_3A2GpNFdx63QqchhO5wc5R_bgxduMLHL7YkiQz6DkrnasTKrPMjhmfZR58dW5NkTC0QF3GrySqE1ssulanAHYgjwHVrSvCKvQIqedtyarUluN2R9zgZCLwYy5hnOh-O4lBqkpr59dOdy31NnIK8e9fj02Ve6RWn5937sxkFiGTmlTh-BsGaUR8VXWEwqWBS1OROh5-lDtZnWftn0DmFfOLTkuCsapzLfhFQ4H93mf3IEFUatFNnlukbXw3_sy6zwihqfhV633c1xT3B-IbB34ODJZHy5ClZlCIcyiZEDP6_kRAVCM9syuyZ2Q1ui5l6uavXFudGI9-payBz5Hjqq_7AvFQd-8jtnff1qjEBopby0?></g></svg>