<svg xmlns="http://www.w3.org/2000/svg" xmlns:xlink="http://www.w3.org/1999/xlink" contentStyleType="text/css" data-diagram-type="SEQUENCE" height="1052px" preserveAspectRatio="none" style="width:1249px;height:1052px;background:#FFFFFF;" version="1.1" viewBox="0 0 1249 1052" width="1249px" zoomAndPan="magnify"><?plantuml 1.2026.6?><defs><filter height="300%" id="foyp80u0q1kd9" width="300%" x="-1" y="-1"><feGaussianBlur result="blurOut" stdDeviation="2"/><feColorMatrix in="blurOut" result="blurOut2" type="matrix" values="0 0 0 0 0 0 0 0 0 0 0 0 0 0 0 0 0 0 .4 0"/><feOffset dx="4" dy="4" in="blurOut2" result="blurOut3"/><feBlend in="SourceGraphic" in2="blurOut3" mode="normal"/></filter><linearGradient id="goyp80u0q1kd90" x1="0%" x2="100%" y1="0%" y2="100%"><stop offset="0%" stop-color="#B7CEEA"/><stop offset="100%" stop-color="#7FA8D9"/></linearGradient><linearGradient id="goyp80u0q1kd91" x1="0%" x2="100%" y1="0%" y2="100%"><stop offset="0%" stop-color="#2A4A7F"/><stop offset="100%" stop-color="#1B3A6B"/></linearGradient></defs><g><g class="title" data-source-line="3"><text fill="#000000" font-family="'Helvetica'" font-size="14" font-weight="700" lengthAdjust="spacing" textLength="195.9316" x="523.3442" y="27.9951">UC-01: User Registration</text></g><rect fill="none" filter="url(#foyp80u0q1kd9)" height="551.375" rx="8" ry="8" style="stroke:#000000;stroke-width:1.5;" width="1118.6201" x="115" y="402.9219"/><rect fill="none" filter="url(#foyp80u0q1kd9)" height="352.5938" rx="8" ry="8" style="stroke:#000000;stroke-width:1.5;" width="1098.6201" x="125" y="594.7031"/><g class="participant-lifeline" data-entity-uid="part1" data-qualified-name="User" data-source-line="5" id="part1-lifeline"><g><title>User</title><rect fill="#000000" fill-opacity="0.00000" height="854.0313" width="8" x="158.5" y="117.2656"/><line style="stroke:#181818;stroke-width:0.5;stroke-dasharray:5,5;" x1="162" x2="162" y1="117.2656" y2="971.2969"/></g></g><g class="participant-lifeline" data-entity-uid="part2" data-qualified-name="EH" data-source-line="6" id="part2-lifeline"><g><title>..service..</title><rect fill="#000000" fill-opacity="0.00000" height="854.0313" width="8" x="377.459" y="117.2656"/><line style="stroke:#181818;stroke-width:0.5;stroke-dasharray:5,5;" x1="380.707" x2="380.707" y1="117.2656" y2="971.2969"/></g></g><g class="participant-lifeline" data-entity-uid="part3" data-qualified-name="SS" data-source-line="7" id="part3-lifeline"><g><title>..service..</title><rect fill="#000000" fill-opacity="0.00000" height="854.0313" width="8" x="570.3965" y="117.2656"/><line style="stroke:#181818;stroke-width:0.5;stroke-dasharray:5,5;" x1="574.2559" x2="574.2559" y1="117.2656" y2="971.2969"/></g></g><g class="participant-lifeline" data-entity-uid="part4" data-qualified-name="DV" data-source-line="8" id="part4-lifeline"><g><title>..service..</title><rect fill="#000000" fill-opacity="0.00000" height="854.0313" width="8" x="736.8086" y="117.2656"/><line style="stroke:#181818;stroke-width:0.5;stroke-dasharray:5,5;" x1="739.9111" x2="739.9111" y1="117.2656" y2="971.2969"/></g></g><g class="participant-lifeline" data-entity-uid="part5" data-qualified-name="ST" data-source-line="9" id="part5-lifeline"><g><title>..service..</title><rect fill="#000000" fill-opacity="0.00000" height="854.0313" width="8" x="1019.2715" y="117.2656"/><line style="stroke:#181818;stroke-width:0.5;stroke-dasharray:5,5;" x1="1022.9561" x2="1022.9561" y1="117.2656" y2="971.2969"/></g></g><g class="participant-lifeline" data-entity-uid="part6" data-qualified-name="NM" data-source-line="10" id="part6-lifeline"><g><title>..service..</title><rect fill="#000000" fill-opacity="0.00000" height="854.0313" width="8" x="1147.6035" y="117.2656"/><line style="stroke:#181818;stroke-width:0.5;stroke-dasharray:5,5;" x1="1151.5869" x2="1151.5869" y1="117.2656" y2="971.2969"/></g></g><g class="participant participant-head" data-entity-uid="part1" data-qualified-name="User" data-source-line="5" id="part1-head"><text fill="#000000" font-family="'Helvetica'" font-size="12" lengthAdjust="spacing" textLength="27.3516" x="145.8242" y="114.4355">User</text><ellipse cx="162.5" cy="58.7969" fill="url(#goyp80u0q1kd90)" filter="url(#foyp80u0q1kd9)" rx="16" ry="16" style="stroke:#3A6EA5;stroke-width:0.5;"/><path d="M162.5,78.7969 C166.5,78.7969 169.5,78.7969 173.5,74.7969 C181.5,74.7969 189.5,82.7969 189.5,90.7969 L189.5,94.7969 C189.5,98.7969 185.5,102.7969 181.5,102.7969 L143.5,102.7969 C139.5,102.7969 135.5,98.7969 135.5,94.7969 L135.5,90.7969 C135.5,82.7969 143.5,74.7969 151.5,74.7969 C155.5,78.7969 158.5,78.7969 162.5,78.7969" fill="url(#goyp80u0q1kd90)" filter="url(#foyp80u0q1kd9)" style="stroke:#3A6EA5;stroke-width:0.5;"/></g><g class="participant participant-tail" data-entity-uid="part1" data-qualified-name="User" data-source-line="5" id="part1-tail"><text fill="#000000" font-family="'Helvetica'" font-size="12" lengthAdjust="spacing" textLength="27.3516" x="145.8242" y="981.4355">User</text><ellipse cx="162.5" cy="1000.7656" fill="url(#goyp80u0q1kd90)" filter="url(#foyp80u0q1kd9)" rx="16" ry="16" style="stroke:#3A6EA5;stroke-width:0.5;"/><path d="M162.5,1020.7656 C166.5,1020.7656 169.5,1020.7656 173.5,1016.7656 C181.5,1016.7656 189.5,1024.7656 189.5,1032.7656 L189.5,1036.7656 C189.5,1040.7656 185.5,1044.7656 181.5,1044.7656 L143.5,1044.7656 C139.5,1044.7656 135.5,1040.7656 135.5,1036.7656 L135.5,1032.7656 C135.5,1024.7656 143.5,1016.7656 151.5,1016.7656 C155.5,1020.7656 158.5,1020.7656 162.5,1020.7656" fill="url(#goyp80u0q1kd90)" filter="url(#foyp80u0q1kd9)" style="stroke:#3A6EA5;stroke-width:0.5;"/></g><g class="participant participant-head" data-entity-uid="part2" data-qualified-name="EH" data-source-line="6" id="part2-head"><rect fill="url(#goyp80u0q1kd91)" filter="url(#foyp80u0q1kd9)" height="41.9375" rx="8" ry="8" style="stroke:#0A1B36;stroke-width:0.5;" width="74.5039" x="342.707" y="71.3281"/><text fill="#F0F0F0" font-family="'Helvetica'" font-size="12" font-style="italic" lengthAdjust="spacing" textLength="57.7969" x="351.0605" y="89.4668">&#171;service&#187;</text><text fill="#F0F0F0" font-family="'Helvetica'" font-size="12" lengthAdjust="spacing" textLength="60.5039" x="349.707" y="103.4355">Entry-Hub</text></g><g class="participant participant-tail" data-entity-uid="part2" data-qualified-name="EH" data-source-line="6" id="part2-tail"><rect fill="url(#goyp80u0q1kd91)" filter="url(#foyp80u0q1kd9)" height="41.9375" rx="8" ry="8" style="stroke:#0A1B36;stroke-width:0.5;" width="74.5039" x="342.707" y="970.2969"/><text fill="#F0F0F0" font-family="'Helvetica'" font-size="12" font-style="italic" lengthAdjust="spacing" textLength="57.7969" x="351.0605" y="988.4355">&#171;service&#187;</text><text fill="#F0F0F0" font-family="'Helvetica'" font-size="12" lengthAdjust="spacing" textLength="60.5039" x="349.707" y="1002.4043">Entry-Hub</text></g><g class="participant participant-head" data-entity-uid="part3" data-qualified-name="SS" data-source-line="7" id="part3-head"><rect fill="url(#goyp80u0q1kd91)" filter="url(#foyp80u0q1kd9)" height="41.9375" rx="8" ry="8" style="stroke:#0A1B36;stroke-width:0.5;" width="107.2813" x="519.2559" y="71.3281"/><text fill="#F0F0F0" font-family="'Helvetica'" font-size="12" font-style="italic" lengthAdjust="spacing" textLength="57.7969" x="543.998" y="89.4668">&#171;service&#187;</text><text fill="#F0F0F0" font-family="'Helvetica'" font-size="12" lengthAdjust="spacing" textLength="93.2813" x="526.2559" y="103.4355">Security-Switch</text></g><g class="participant participant-tail" data-entity-uid="part3" data-qualified-name="SS" data-source-line="7" id="part3-tail"><rect fill="url(#goyp80u0q1kd91)" filter="url(#foyp80u0q1kd9)" height="41.9375" rx="8" ry="8" style="stroke:#0A1B36;stroke-width:0.5;" width="107.2813" x="519.2559" y="970.2969"/><text fill="#F0F0F0" font-family="'Helvetica'" font-size="12" font-style="italic" lengthAdjust="spacing" textLength="57.7969" x="543.998" y="988.4355">&#171;service&#187;</text><text fill="#F0F0F0" font-family="'Helvetica'" font-size="12" lengthAdjust="spacing" textLength="93.2813" x="526.2559" y="1002.4043">Security-Switch</text></g><g class="participant participant-head" data-entity-uid="part4" data-qualified-name="DV" data-source-line="8" id="part4-head"><rect fill="url(#goyp80u0q1kd91)" filter="url(#foyp80u0q1kd9)" height="41.9375" rx="8" ry="8" style="stroke:#0A1B36;stroke-width:0.5;" width="106.7949" x="685.9111" y="71.3281"/><text fill="#F0F0F0" font-family="'Helvetica'" font-size="12" font-style="italic" lengthAdjust="spacing" textLength="57.7969" x="710.4102" y="89.4668">&#171;service&#187;</text><text fill="#F0F0F0" font-family="'Helvetica'" font-size="12" lengthAdjust="spacing" textLength="92.7949" x="692.9111" y="103.4355">Database-Vault</text></g><g class="participant participant-tail" data-entity-uid="part4" data-qualified-name="DV" data-source-line="8" id="part4-tail"><rect fill="url(#goyp80u0q1kd91)" filter="url(#foyp80u0q1kd9)" height="41.9375" rx="8" ry="8" style="stroke:#0A1B36;stroke-width:0.5;" width="106.7949" x="685.9111" y="970.2969"/><text fill="#F0F0F0" font-family="'Helvetica'" font-size="12" font-style="italic" lengthAdjust="spacing" textLength="57.7969" x="710.4102" y="988.4355">&#171;service&#187;</text><text fill="#F0F0F0" font-family="'Helvetica'" font-size="12" lengthAdjust="spacing" textLength="92.7949" x="692.9111" y="1002.4043">Database-Vault</text></g><g class="participant participant-head" data-entity-uid="part5" data-qualified-name="ST" data-source-line="9" id="part5-head"><rect fill="url(#goyp80u0q1kd91)" filter="url(#foyp80u0q1kd9)" height="41.9375" rx="8" ry="8" style="stroke:#0A1B36;stroke-width:0.5;" width="109.6309" x="966.9561" y="71.3281"/><text fill="#F0F0F0" font-family="'Helvetica'" font-size="12" font-style="italic" lengthAdjust="spacing" textLength="57.7969" x="992.873" y="89.4668">&#171;service&#187;</text><text fill="#F0F0F0" font-family="'Helvetica'" font-size="12" lengthAdjust="spacing" textLength="95.6309" x="973.9561" y="103.4355">Storage-Service</text></g><g class="participant participant-tail" data-entity-uid="part5" data-qualified-name="ST" data-source-line="9" id="part5-tail"><rect fill="url(#goyp80u0q1kd91)" filter="url(#foyp80u0q1kd9)" height="41.9375" rx="8" ry="8" style="stroke:#0A1B36;stroke-width:0.5;" width="109.6309" x="966.9561" y="970.2969"/><text fill="#F0F0F0" font-family="'Helvetica'" font-size="12" font-style="italic" lengthAdjust="spacing" textLength="57.7969" x="992.873" y="988.4355">&#171;service&#187;</text><text fill="#F0F0F0" font-family="'Helvetica'" font-size="12" lengthAdjust="spacing" textLength="95.6309" x="973.9561" y="1002.4043">Storage-Service</text></g><g class="participant participant-head" data-entity-uid="part6" data-qualified-name="NM" data-source-line="10" id="part6-head"><rect fill="url(#goyp80u0q1kd91)" filter="url(#foyp80u0q1kd9)" height="41.9375" rx="8" ry="8" style="stroke:#0A1B36;stroke-width:0.5;" width="121.0332" x="1089.5869" y="71.3281"/><text fill="#F0F0F0" font-family="'Helvetica'" font-size="12" font-style="italic" lengthAdjust="spacing" textLength="57.7969" x="1121.2051" y="89.4668">&#171;service&#187;</text><text fill="#F0F0F0" font-family="'Helvetica'" font-size="12" lengthAdjust="spacing" textLength="107.0332" x="1096.5869" y="103.4355">Network-Manager</text></g><g class="participant participant-tail" data-entity-uid="part6" data-qualified-name="NM" data-source-line="10" id="part6-tail"><rect fill="url(#goyp80u0q1kd91)" filter="url(#foyp80u0q1kd9)" height="41.9375" rx="8" ry="8" style="stroke:#0A1B36;stroke-width:0.5;" width="121.0332" x="1089.5869" y="970.2969"/><text fill="#F0F0F0" font-family="'Helvetica'" font-size="12" font-style="italic" lengthAdjust="spacing" textLength="57.7969" x="1121.2051" y="988.4355">&#171;service&#187;</text><text fill="#F0F0F0" font-family="'Helvetica'" font-size="12" lengthAdjust="spacing" textLength="107.0332" x="1096.5869" y="1002.4043">Network-Manager</text></g><path d="M5,140.2656 L5,161.2656 A8,8 0 0 0 13,169.2656 L309,169.2656 A8,8 0 0 0 317,161.2656 L317,142.2656 L307,132.2656 L13,132.2656 A8,8 0 0 0 5,140.2656" fill="#FEFFDD" filter="url(#foyp80u0q1kd9)" style="stroke:#181818;stroke-width:0.5;"/><path d="M307,132.2656 L307,138.2656 A4,4 0 0 0 311,142.2656 L317,142.2656 L307,132.2656" fill="#FEFFDD" style="stroke:#181818;stroke-width:0.5;"/><text fill="#000000" font-family="'Helvetica'" font-size="12" lengthAdjust="spacing" textLength="257.1621" x="11" y="148.4043">SSH keypair already generated client-side;</text><text fill="#000000" font-family="'Helvetica'" font-size="12" lengthAdjust="spacing" textLength="291.3809" x="11" y="162.373">the private key never leaves the client (CL-F-01)</text><g class="message" data-entity-1="part1" data-entity-2="part2" data-source-line="17" id="msg1"><polygon fill="#333333" points="369.459,208.1406,379.459,212.1406,369.459,216.1406,373.459,212.1406" style="stroke:#333333;stroke-width:1;stroke-linejoin:miter;stroke-miterlimit:10;"/><line style="stroke:#333333;stroke-width:1;" x1="162.5" x2="375.459" y1="212.1406" y2="212.1406"/><text fill="#333333" font-family="'Helvetica'" font-size="12" lengthAdjust="spacing" textLength="160.0898" x="169.5" y="193.3418">POST /api/register (HTTPS)</text><text fill="#333333" font-family="'Helvetica'" font-size="12" lengthAdjust="spacing" textLength="194.959" x="169.5" y="207.3105">email, password, SSH public key</text></g><g class="message" data-entity-1="part2" data-entity-2="part3" data-source-line="18" id="msg2"><polygon fill="#333333" points="562.3965,236.1094,572.3965,240.1094,562.3965,244.1094,566.3965,240.1094" style="stroke:#333333;stroke-width:1;stroke-linejoin:miter;stroke-miterlimit:10;"/><line style="stroke:#333333;stroke-width:1;" x1="381.459" x2="568.3965" y1="240.1094" y2="240.1094"/><text fill="#333333" font-family="'Helvetica'" font-size="12" lengthAdjust="spacing" textLength="142.4121" x="388.459" y="235.2793">forward request (mTLS)</text></g><g class="message" data-entity-1="part3" data-entity-2="part4" data-source-line="19" id="msg3"><polygon fill="#333333" points="728.8086,264.0781,738.8086,268.0781,728.8086,272.0781,732.8086,268.0781" style="stroke:#333333;stroke-width:1;stroke-linejoin:miter;stroke-miterlimit:10;"/><line style="stroke:#333333;stroke-width:1;" x1="574.3965" x2="734.8086" y1="268.0781" y2="268.0781"/><text fill="#333333" font-family="'Helvetica'" font-size="12" lengthAdjust="spacing" textLength="142.4121" x="581.3965" y="263.248">forward request (mTLS)</text></g><path d="M337,289.0781 L337,324.0781 A8,8 0 0 0 345,332.0781 L776,332.0781 A8,8 0 0 0 784,324.0781 L784,291.0781 L774,281.0781 L345,281.0781 A8,8 0 0 0 337,289.0781" fill="#FEFFDD" filter="url(#foyp80u0q1kd9)" style="stroke:#181818;stroke-width:0.5;"/><path d="M774,281.0781 L774,287.0781 A4,4 0 0 0 778,291.0781 L784,291.0781 L774,281.0781" fill="#FEFFDD" style="stroke:#181818;stroke-width:0.5;"/><text fill="#000000" font-family="'Helvetica'" font-size="12" lengthAdjust="spacing" textLength="343.9805" x="347.0649" y="297.2168">Each hop independently re-validates the input (DV-F-02).</text><text fill="#000000" font-family="'Helvetica'" font-size="12" lengthAdjust="spacing" textLength="315.5566" x="347.0649" y="311.1855">On failure: HTTP 400, request not forwarded further,</text><text fill="#000000" font-family="'Helvetica'" font-size="12" lengthAdjust="spacing" textLength="415.8691" x="347.0649" y="325.1543">issue logged without identifying the user (EH-F-06, SS-F-03, DV-F-20)</text><g class="message" data-entity-1="part4" data-entity-2="part4" data-source-line="27" id="msg4"><line style="stroke:#333333;stroke-width:1;" x1="740.8086" x2="782.8086" y1="374.9219" y2="374.9219"/><line style="stroke:#333333;stroke-width:1;" x1="782.8086" x2="782.8086" y1="374.9219" y2="387.9219"/><line style="stroke:#333333;stroke-width:1;" x1="741.8086" x2="782.8086" y1="387.9219" y2="387.9219"/><polygon fill="#333333" points="751.8086,383.9219,741.8086,387.9219,751.8086,391.9219,747.8086,387.9219" style="stroke:#333333;stroke-width:1;stroke-linejoin:miter;stroke-miterlimit:10;"/><text fill="#333333" font-family="'Helvetica'" font-size="12" lengthAdjust="spacing" textLength="225.2813" x="747.8086" y="356.123">hash email (SHA-256) &#183; encrypt email</text><text fill="#333333" font-family="'Helvetica'" font-size="12" lengthAdjust="spacing" textLength="157.2832" x="747.8086" y="370.0918">hash password (Argon2id)</text></g><path d="M123,402.9219 L177.9473,402.9219 L177.9473,408.8906 L167.9473,418.8906 L115,418.8906 L115,410.9219 A8,8 0 0 1 123,402.9219" fill="#EEEEEE" style="stroke:#000000;stroke-width:1.5;"/><rect fill="none" height="551.375" rx="8" ry="8" style="stroke:#000000;stroke-width:1.5;" width="1118.6201" x="115" y="402.9219"/><text fill="#000000" font-family="'Helvetica'" font-size="12" font-weight="700" lengthAdjust="spacing" textLength="17.9473" x="130" y="415.0605">alt</text><text fill="#000000" font-family="'Helvetica'" font-size="12" font-weight="700" lengthAdjust="spacing" textLength="255.457" x="192.9473" y="416.0605">[email or SSH key already registered]</text><g class="message" data-entity-1="part4" data-entity-2="part3" data-source-line="30" id="msg5"><polygon fill="#333333" points="585.3965,434.8594,575.3965,438.8594,585.3965,442.8594,581.3965,438.8594" style="stroke:#333333;stroke-width:1;stroke-linejoin:miter;stroke-miterlimit:10;"/><line style="stroke:#333333;stroke-width:1;stroke-dasharray:2,2;" x1="579.3965" x2="739.8086" y1="438.8594" y2="438.8594"/><text fill="#333333" font-family="'Helvetica'" font-size="12" lengthAdjust="spacing" textLength="72.2402" x="591.3965" y="434.0293">409 Conflict</text></g><g class="message" data-entity-1="part3" data-entity-2="part2" data-source-line="31" id="msg6"><polygon fill="#333333" points="392.459,462.8281,382.459,466.8281,392.459,470.8281,388.459,466.8281" style="stroke:#333333;stroke-width:1;stroke-linejoin:miter;stroke-miterlimit:10;"/><line style="stroke:#333333;stroke-width:1;stroke-dasharray:2,2;" x1="386.459" x2="573.3965" y1="466.8281" y2="466.8281"/><text fill="#333333" font-family="'Helvetica'" font-size="12" lengthAdjust="spacing" textLength="72.2402" x="398.459" y="461.998">409 Conflict</text></g><g class="message" data-entity-1="part2" data-entity-2="part1" data-source-line="32" id="msg7"><polygon fill="#333333" points="173.5,490.7969,163.5,494.7969,173.5,498.7969,169.5,494.7969" style="stroke:#333333;stroke-width:1;stroke-linejoin:miter;stroke-miterlimit:10;"/><line style="stroke:#333333;stroke-width:1;stroke-dasharray:2,2;" x1="167.5" x2="380.459" y1="494.7969" y2="494.7969"/><text fill="#333333" font-family="'Helvetica'" font-size="12" lengthAdjust="spacing" textLength="72.2402" x="179.5" y="489.9668">409 Conflict</text></g><line style="stroke:#000000;stroke-width:1;stroke-dasharray:2,2;" x1="115" x2="1233.6201" y1="503.7969" y2="503.7969"/><text fill="#000000" font-family="'Helvetica'" font-size="12" font-weight="700" lengthAdjust="spacing" textLength="94.9688" x="120" y="514.9355">[no duplicate]</text><g class="message" data-entity-1="part4" data-entity-2="part4" data-source-line="34" id="msg8"><line style="stroke:#333333;stroke-width:1;" x1="740.8086" x2="782.8086" y1="538.7344" y2="538.7344"/><line style="stroke:#333333;stroke-width:1;" x1="782.8086" x2="782.8086" y1="538.7344" y2="551.7344"/><line style="stroke:#333333;stroke-width:1;" x1="741.8086" x2="782.8086" y1="551.7344" y2="551.7344"/><polygon fill="#333333" points="751.8086,547.7344,741.8086,551.7344,751.8086,555.7344,747.8086,551.7344" style="stroke:#333333;stroke-width:1;stroke-linejoin:miter;stroke-miterlimit:10;"/><text fill="#333333" font-family="'Helvetica'" font-size="12" lengthAdjust="spacing" textLength="226.5" x="747.8086" y="533.9043">save user record (atomic transaction)</text></g><g class="message" data-entity-1="part4" data-entity-2="part5" data-source-line="35" id="msg9"><polygon fill="#333333" points="1011.2715,575.7031,1021.2715,579.7031,1011.2715,583.7031,1015.2715,579.7031" style="stroke:#333333;stroke-width:1;stroke-linejoin:miter;stroke-miterlimit:10;"/><line style="stroke:#333333;stroke-width:1;" x1="740.8086" x2="1017.2715" y1="579.7031" y2="579.7031"/><text fill="#333333" font-family="'Helvetica'" font-size="12" lengthAdjust="spacing" textLength="258.4629" x="747.8086" y="574.873">create POSIX user "user&lt;xxxxxx&gt;" (mTLS)</text></g><path d="M133,594.7031 L187.9473,594.7031 L187.9473,600.6719 L177.9473,610.6719 L125,610.6719 L125,602.7031 A8,8 0 0 1 133,594.7031" fill="#EEEEEE" style="stroke:#000000;stroke-width:1.5;"/><rect fill="none" height="352.5938" rx="8" ry="8" style="stroke:#000000;stroke-width:1.5;" width="1098.6201" x="125" y="594.7031"/><text fill="#000000" font-family="'Helvetica'" font-size="12" font-weight="700" lengthAdjust="spacing" textLength="17.9473" x="140" y="606.8418">alt</text><text fill="#000000" font-family="'Helvetica'" font-size="12" font-weight="700" lengthAdjust="spacing" textLength="179.1914" x="202.9473" y="607.8418">[POSIX user creation fails]</text><g class="message" data-entity-1="part5" data-entity-2="part4" data-source-line="38" id="msg10"><polygon fill="#333333" points="751.8086,626.6406,741.8086,630.6406,751.8086,634.6406,747.8086,630.6406" style="stroke:#333333;stroke-width:1;stroke-linejoin:miter;stroke-miterlimit:10;"/><line style="stroke:#333333;stroke-width:1;stroke-dasharray:2,2;" x1="745.8086" x2="1022.2715" y1="630.6406" y2="630.6406"/><text fill="#333333" font-family="'Helvetica'" font-size="12" lengthAdjust="spacing" textLength="38.168" x="757.8086" y="625.8105">failure</text></g><g class="message" data-entity-1="part4" data-entity-2="part4" data-source-line="39" id="msg11"><line style="stroke:#333333;stroke-width:1;" x1="740.8086" x2="782.8086" y1="658.6094" y2="658.6094"/><line style="stroke:#333333;stroke-width:1;" x1="782.8086" x2="782.8086" y1="658.6094" y2="671.6094"/><line style="stroke:#333333;stroke-width:1;" x1="741.8086" x2="782.8086" y1="671.6094" y2="671.6094"/><polygon fill="#333333" points="751.8086,667.6094,741.8086,671.6094,751.8086,675.6094,747.8086,671.6094" style="stroke:#333333;stroke-width:1;stroke-linejoin:miter;stroke-miterlimit:10;"/><text fill="#333333" font-family="'Helvetica'" font-size="12" lengthAdjust="spacing" textLength="259.9688" x="747.8086" y="653.7793">delete user record (compensating rollback)</text></g><g class="message" data-entity-1="part4" data-entity-2="part3" data-source-line="40" id="msg12"><polygon fill="#333333" points="585.3965,695.5781,575.3965,699.5781,585.3965,703.5781,581.3965,699.5781" style="stroke:#333333;stroke-width:1;stroke-linejoin:miter;stroke-miterlimit:10;"/><line style="stroke:#333333;stroke-width:1;stroke-dasharray:2,2;" x1="579.3965" x2="739.8086" y1="699.5781" y2="699.5781"/><text fill="#333333" font-family="'Helvetica'" font-size="12" lengthAdjust="spacing" textLength="106.5586" x="591.3965" y="694.748">registration failed</text></g><g class="message" data-entity-1="part3" data-entity-2="part2" data-source-line="41" id="msg13"><polygon fill="#333333" points="392.459,723.5469,382.459,727.5469,392.459,731.5469,388.459,727.5469" style="stroke:#333333;stroke-width:1;stroke-linejoin:miter;stroke-miterlimit:10;"/><line style="stroke:#333333;stroke-width:1;stroke-dasharray:2,2;" x1="386.459" x2="573.3965" y1="727.5469" y2="727.5469"/><text fill="#333333" font-family="'Helvetica'" font-size="12" lengthAdjust="spacing" textLength="21.8379" x="398.459" y="722.7168">5xx</text></g><g class="message" data-entity-1="part2" data-entity-2="part1" data-source-line="42" id="msg14"><polygon fill="#333333" points="173.5,751.5156,163.5,755.5156,173.5,759.5156,169.5,755.5156" style="stroke:#333333;stroke-width:1;stroke-linejoin:miter;stroke-miterlimit:10;"/><line style="stroke:#333333;stroke-width:1;stroke-dasharray:2,2;" x1="167.5" x2="380.459" y1="755.5156" y2="755.5156"/><text fill="#333333" font-family="'Helvetica'" font-size="12" lengthAdjust="spacing" textLength="21.8379" x="179.5" y="750.6855">5xx</text></g><line style="stroke:#000000;stroke-width:1;stroke-dasharray:2,2;" x1="125" x2="1223.6201" y1="764.5156" y2="764.5156"/><text fill="#000000" font-family="'Helvetica'" font-size="12" font-weight="700" lengthAdjust="spacing" textLength="63.3047" x="130" y="775.6543">[success]</text><g class="message" data-entity-1="part5" data-entity-2="part4" data-source-line="44" id="msg15"><polygon fill="#333333" points="751.8086,795.4531,741.8086,799.4531,751.8086,803.4531,747.8086,799.4531" style="stroke:#333333;stroke-width:1;stroke-linejoin:miter;stroke-miterlimit:10;"/><line style="stroke:#333333;stroke-width:1;stroke-dasharray:2,2;" x1="745.8086" x2="1022.2715" y1="799.4531" y2="799.4531"/><text fill="#333333" font-family="'Helvetica'" font-size="12" lengthAdjust="spacing" textLength="115.834" x="757.8086" y="794.623">POSIX user created</text></g><g class="message" data-entity-1="part4" data-entity-2="part3" data-source-line="45" id="msg16"><polygon fill="#333333" points="585.3965,823.4219,575.3965,827.4219,585.3965,831.4219,581.3965,827.4219" style="stroke:#333333;stroke-width:1;stroke-linejoin:miter;stroke-miterlimit:10;"/><line style="stroke:#333333;stroke-width:1;stroke-dasharray:2,2;" x1="579.3965" x2="739.8086" y1="827.4219" y2="827.4219"/><text fill="#333333" font-family="'Helvetica'" font-size="12" lengthAdjust="spacing" textLength="120.252" x="591.3965" y="822.5918">registration success</text></g><g class="message" data-entity-1="part3" data-entity-2="part6" data-source-line="46" id="msg17"><polygon fill="#333333" points="1139.6035,851.3906,1149.6035,855.3906,1139.6035,859.3906,1143.6035,855.3906" style="stroke:#333333;stroke-width:1;stroke-linejoin:miter;stroke-miterlimit:10;"/><line style="stroke:#333333;stroke-width:1;" x1="574.3965" x2="1145.6035" y1="855.3906" y2="855.3906"/><text fill="#333333" font-family="'Helvetica'" font-size="12" lengthAdjust="spacing" textLength="275.4199" x="581.3965" y="850.5605">create Headscale user + pre-auth key (mTLS)</text></g><g class="message" data-entity-1="part6" data-entity-2="part3" data-source-line="47" id="msg18"><polygon fill="#333333" points="585.3965,879.3594,575.3965,883.3594,585.3965,887.3594,581.3965,883.3594" style="stroke:#333333;stroke-width:1;stroke-linejoin:miter;stroke-miterlimit:10;"/><line style="stroke:#333333;stroke-width:1;stroke-dasharray:2,2;" x1="579.3965" x2="1150.6035" y1="883.3594" y2="883.3594"/><text fill="#333333" font-family="'Helvetica'" font-size="12" lengthAdjust="spacing" textLength="76.7813" x="591.3965" y="878.5293">pre-auth key</text></g><g class="message" data-entity-1="part3" data-entity-2="part2" data-source-line="48" id="msg19"><polygon fill="#333333" points="392.459,907.3281,382.459,911.3281,392.459,915.3281,388.459,911.3281" style="stroke:#333333;stroke-width:1;stroke-linejoin:miter;stroke-miterlimit:10;"/><line style="stroke:#333333;stroke-width:1;stroke-dasharray:2,2;" x1="386.459" x2="573.3965" y1="911.3281" y2="911.3281"/><text fill="#333333" font-family="'Helvetica'" font-size="12" lengthAdjust="spacing" textLength="168.9375" x="398.459" y="906.498">201 Created + pre-auth key</text></g><g class="message" data-entity-1="part2" data-entity-2="part1" data-source-line="49" id="msg20"><polygon fill="#333333" points="173.5,935.2969,163.5,939.2969,173.5,943.2969,169.5,939.2969" style="stroke:#333333;stroke-width:1;stroke-linejoin:miter;stroke-miterlimit:10;"/><line style="stroke:#333333;stroke-width:1;stroke-dasharray:2,2;" x1="167.5" x2="380.459" y1="939.2969" y2="939.2969"/><text fill="#333333" font-family="'Helvetica'" font-size="12" lengthAdjust="spacing" textLength="168.9375" x="179.5" y="934.4668">201 Created + pre-auth key</text></g><?plantuml-src VLHTRnen47o_Nx7b2LGk8JI9L1eXHGaLbVAbGg8-HAgCRm4hndUrVIJto_hUNzQn3n2GKXxGdNTsTcTsVH-KaRhCc7uwNsa-Aig5JXAll6Pwl4ex9prwT6pfEy-KyrPubPia4TBdDWQIGbYlf2g4yTGO66-hT5XE6YGS3OPqSG7CKadkztUH8vQbLRvAHw_Aotd4ZqQ7yTV2Yubmd3w9Kli8ltxw3ptw4pDEHtMufXyVnj-nVytjIteh3D9inD_Txk0JatkcVCahuOH-X_J2LI6K9Q4jYwoY6Hk6IvoHr8gDJvtA-0l0VivKMBL4B2IHuS2aMIpPnM2Df-RLJVeLlhSIDXc5caaI9v3sWw4zUhY7a6DHg6CRPu9GSpWUFunQpuONGkas5S8voCdQiSMYd6WbGz441A21ppsQvlPLs8mi_ohPeUvYV3Dg9OW10MiF8hPy60pRW4BSGCWvpVE2bCcuGEDGeYjafakXLGRDjKPbYX94rqz1OhTrXDHxGrCqNLhkKP11fvrEUrCJjTPzmD9fQS5YsqXJpfLCEf_DS8uLckSWLg6kcbRAp6AvClZM70n3jVDWHdZu57h6GxUpRJ4KhtNFXPjJT9AQe-5bsZqxRz6VtyH6sghmTUZPHDZQQMfUsbbkkYg3GKAlG8HBibgIpOAiXyOPL8Igwu6STZxJLMwcc9MFonL3SUHxeJ15XE9Mx0LPEuOYoie2x_1zLMGbpM7RQbSiozYsyFa2ou6RRHnkDMvtQvE2FUkHHDkODxRksuywjH7-BzxYhz_Oh0LHqBs5YvaWZFDrY5DWJ3VhLKyzdc-rcB5clzUap1TOAWSs3DRcMa-4V6bjCjSEsgrlLAIF7kzQUVRs5izsFQnFetckb9BT-tRtXQsu3zRVuOcN2j-JZPr3x8AJGg-4ViIdWLDH-ddSbPMb8HL96_vjp3jXtSu9NTMDxT7zG-z_mRWKuM8aVm40?></g></svg>