<svg xmlns="http://www.w3.org/2000/svg" xmlns:xlink="http://www.w3.org/1999/xlink" contentStyleType="text/css" data-diagram-type="CLASS" height="194px" preserveAspectRatio="none" style="width:614px;height:194px;background:#FFFFFF;" version="1.1" viewBox="0 0 614 194" width="614px" zoomAndPan="magnify"><?plantuml 1.2026.6?><defs><linearGradient id="gdrmz8ivkslwr0" x1="0%" x2="100%" y1="0%" y2="100%"><stop offset="0%" stop-color="#E8C766"/><stop offset="100%" stop-color="#C9A227"/></linearGradient><filter height="300%" id="fdrmz8ivkslwr" width="300%" x="-1" y="-1"><feGaussianBlur result="blurOut" stdDeviation="2"/><feColorMatrix in="blurOut" result="blurOut2" type="matrix" values="0 0 0 0 0 0 0 0 0 0 0 0 0 0 0 0 0 0 .4 0"/><feOffset dx="4" dy="4" in="blurOut2" result="blurOut3"/><feBlend in="SourceGraphic" in2="blurOut3" mode="normal"/></filter></defs><g><g class="title" data-source-line="3"><text fill="#000000" font-family="'Helvetica'" font-size="14" font-weight="700" lengthAdjust="spacing" textLength="397.6602" x="104.7346" y="22.9951">Database-Vault: User Record (Entity-Relationship)</text></g><!--class User--><g class="entity" data-qualified-name="User" data-source-line="19" id="ent0001"><rect fill="url(#gdrmz8ivkslwr0)" filter="url(#fdrmz8ivkslwr)" height="129.8125" rx="8" ry="8" style="stroke:#8B6F1A;stroke-width:0.5;" width="206.6426" x="7" y="44.2969"/><rect fill="url(#gdrmz8ivkslwr0)" height="30" rx="8" ry="8" style="stroke:url(#gdrmz8ivkslwr0);stroke-width:0.5;" width="206.6426" x="7" y="44.2969"/><rect fill="url(#gdrmz8ivkslwr0)" height="8" style="stroke:url(#gdrmz8ivkslwr0);stroke-width:0.5;" width="206.6426" x="7" y="66.2969"/><rect fill="none" height="129.8125" rx="8" ry="8" style="stroke:#8B6F1A;stroke-width:0.5;" width="206.6426" x="7" y="44.2969"/><ellipse cx="92.6455" cy="59.2969" fill="#ADD1B2" rx="10" ry="10" style="stroke:#181818;stroke-width:1;"/><path d="M95.083,63.7969 L89.6299,63.7969 L89.6299,55.0469 L95.083,55.0469 L95.083,56.5781 L91.3643,56.5781 L91.3643,58.4531 L94.7236,58.4531 L94.7236,59.9844 L91.3643,59.9844 L91.3643,62.2656 L95.083,62.2656 L95.083,63.7969 Z " fill="#000000"/><text fill="#1A1400" font-family="'Helvetica'" font-size="12" lengthAdjust="spacing" textLength="27.3516" x="111.6455" y="63.4512">User</text><line style="stroke:#8B6F1A;stroke-width:0.5;" x1="8" x2="212.6426" y1="74.2969" y2="74.2969"/><g data-visibility-modifier="IE_MANDATORY"><ellipse cx="18" cy="86.7813" fill="#000000" rx="3" ry="3" style="stroke:#000000;stroke-width:1;"/></g><text fill="#000000" font-family="'Helvetica'" font-size="12" lengthAdjust="spacing" textLength="138.1641" x="26" y="89.4355">email_hash : CHAR(64)</text><line style="stroke:#8B6F1A;stroke-width:1;" x1="8" x2="212.6426" y1="96.2656" y2="96.2656"/><text fill="#000000" font-family="'Helvetica'" font-size="12" lengthAdjust="spacing" textLength="150.3926" x="13" y="111.4043">email_encrypted : BYTEA</text><text fill="#000000" font-family="'Helvetica'" font-size="12" lengthAdjust="spacing" textLength="194.6426" x="13" y="125.373">password_hash : VARCHAR(255)</text><text fill="#000000" font-family="'Helvetica'" font-size="12" lengthAdjust="spacing" textLength="191.4316" x="13" y="139.3418">ssh_public_key : TEXT &#171;unique&#187;</text><text fill="#000000" font-family="'Helvetica'" font-size="12" lengthAdjust="spacing" textLength="168.1055" x="13" y="153.3105">posix_username : CHAR(10)</text><text fill="#000000" font-family="'Helvetica'" font-size="12" lengthAdjust="spacing" textLength="160.8223" x="13" y="167.2793">registered_at : TIMESTAMP</text></g><g class="entity" data-qualified-name="GMN2" data-source-line="30" id="ent0003"><path d="M253.52,70.2969 L253.52,105.1969 L214.01,109.1969 L253.52,113.1969 L253.52,148.1094 A8,8 0 0 0 261.52,156.1094 L591.1294,156.1094 A8,8 0 0 0 599.1294,148.1094 L599.1294,72.2969 L589.1294,62.2969 L261.52,62.2969 A8,8 0 0 0 253.52,70.2969" fill="#FEFFDD" filter="url(#fdrmz8ivkslwr)" style="stroke:#181818;stroke-width:0.5;"/><path d="M589.1294,62.2969 L589.1294,68.2969 A4,4 0 0 0 593.1294,72.2969 L599.1294,72.2969 L589.1294,62.2969" fill="#FEFFDD" style="stroke:#181818;stroke-width:0.5;"/><text fill="#000000" font-family="'Helvetica'" font-size="12" lengthAdjust="spacing" textLength="241.5996" x="259.52" y="78.4355">email_hash: SHA-256 of email (DV-F-03)</text><text fill="#000000" font-family="'Helvetica'" font-size="12" lengthAdjust="spacing" textLength="252.3574" x="259.52" y="92.4043">email_encrypted: AES-256-GCM (DV-F-04)</text><text fill="#000000" font-family="'Helvetica'" font-size="12" lengthAdjust="spacing" textLength="324.6094" x="259.52" y="106.373">password_hash: self-describing PHC string (algorithm,</text><text fill="#000000" font-family="'Helvetica'" font-size="12" lengthAdjust="spacing" textLength="276.0117" x="259.52" y="120.3418">cost params, salt, digest); Argon2id (DV-F-07)</text><text fill="#000000" font-family="'Helvetica'" font-size="12" lengthAdjust="spacing" textLength="253.8516" x="259.52" y="134.3105">ssh_public_key: unique per user (DV-F-12)</text><text fill="#000000" font-family="'Helvetica'" font-size="12" lengthAdjust="spacing" textLength="318.2754" x="259.52" y="148.2793">posix_username: "user" + 6 base-36 chars (DV-F-09)</text></g><?plantuml-src PLDTJzim57tFhxWh3pHRmze21J9KAPGm9gqIAWLjJvKRNnAhhftP3b1D---xTbC6uoMAxjSvzzpZ3q8Lik482-is4W_gPYsZo0ad4IwPOqjcCRbdZNGft5aqCCD26mxTN57H9fcXP4vePIjHnr5aLqBLpB0rACtHOWr7_LT1mzIg3KRxW6542fQj4KejEJomjP0RO1PSXM0hPf33-JblYOp7O1qQr6vJOqermj8OBbZfXwy9KLhmnS0Arp19eseqLb0J1w7-MsX_MskTDjYZEKgx0Fks2cZfHr4W26THFa3tgH951S8IhpOr7dzMx77ZDv8MdofY61_0ZMJAtKs_Wq75YGNaC-XiL-x0KZ-ZXKV10c8XcRL9E00D-ITNQNHJzm8n1XovA9ZVv6MALdZmIjqm1dv701UiMFbcnITQQWDx-UdaP3Jwl3SvouR34rz1HqJJPaylHbU3ZA9NMhasDiW6H_r-z2UAjcZGyUVl-Di47tYOZu1h9kIYOhQ252RNsQmxEeefaoJqsIPH5MPJUzufNFoSvnwd9g9Fn63NUP_DGlFm-DXtMrijwcOfHR5OuORoy_p7dFHkbFZLaDn-WhRYUT4G4-NTqu8F-hxTO2c2J_Y2ET_zRPhVphFfZT-6n4GmegmSw8UmoWjJJoQ5s-ii6HwFV3Q4eNjvdrmb_SFu_KefPFcjhqw-JgQxmY30cmt9ucITX1v4OSHIg19khYTaPUD_kqoMsWXNhNlKLsZh89pJzkXXIDSZVvTeNVm5CbDgDHHy1tJoNgiKjXfvtuDNfwqT3EDtegNGQS99Fy48Wk4FHr3GcxCxWBEOZi-z_p3w2m00?></g></svg>