<svg xmlns="http://www.w3.org/2000/svg" xmlns:xlink="http://www.w3.org/1999/xlink" contentStyleType="text/css" data-diagram-type="CLASS" height="194px" preserveAspectRatio="none" style="width:647px;height:194px;background:#FFFFFF;" version="1.1" viewBox="0 0 647 194" width="647px" zoomAndPan="magnify"><?plantuml 1.2026.6?><defs><linearGradient id="gt4nz09jd06390" x1="0%" x2="100%" y1="0%" y2="100%"><stop offset="0%" stop-color="#E8C766"/><stop offset="100%" stop-color="#C9A227"/></linearGradient><filter height="300%" id="ft4nz09jd0639" width="300%" x="-1" y="-1"><feGaussianBlur result="blurOut" stdDeviation="2"/><feColorMatrix in="blurOut" result="blurOut2" type="matrix" values="0 0 0 0 0 0 0 0 0 0 0 0 0 0 0 0 0 0 .4 0"/><feOffset dx="4" dy="4" in="blurOut2" result="blurOut3"/><feBlend in="SourceGraphic" in2="blurOut3" mode="normal"/></filter></defs><g><g class="title" data-source-line="3"><text fill="#000000" font-family="'Helvetica'" font-size="14" font-weight="700" lengthAdjust="spacing" textLength="397.6602" x="121.5096" y="22.9951">Database-Vault: User Record (Entity-Relationship)</text></g><!--class User--><g class="entity" data-qualified-name="User" data-source-line="19" id="ent0001"><rect fill="url(#gt4nz09jd06390)" filter="url(#ft4nz09jd0639)" height="129.8125" rx="8" ry="8" style="stroke:#8B6F1A;stroke-width:0.5;" width="239.7539" x="7" y="44.2969"/><rect fill="url(#gt4nz09jd06390)" height="30" rx="8" ry="8" style="stroke:url(#gt4nz09jd06390);stroke-width:0.5;" width="239.7539" x="7" y="44.2969"/><rect fill="url(#gt4nz09jd06390)" height="8" style="stroke:url(#gt4nz09jd06390);stroke-width:0.5;" width="239.7539" x="7" y="66.2969"/><rect fill="none" height="129.8125" rx="8" ry="8" style="stroke:#8B6F1A;stroke-width:0.5;" width="239.7539" x="7" y="44.2969"/><ellipse cx="109.2012" cy="59.2969" fill="#ADD1B2" rx="10" ry="10" style="stroke:#181818;stroke-width:1;"/><path d="M111.6387,63.7969 L106.1855,63.7969 L106.1855,55.0469 L111.6387,55.0469 L111.6387,56.5781 L107.9199,56.5781 L107.9199,58.4531 L111.2793,58.4531 L111.2793,59.9844 L107.9199,59.9844 L107.9199,62.2656 L111.6387,62.2656 L111.6387,63.7969 Z " fill="#000000"/><text fill="#1A1400" font-family="'Helvetica'" font-size="12" lengthAdjust="spacing" textLength="27.3516" x="128.2012" y="63.4512">User</text><line style="stroke:#8B6F1A;stroke-width:0.5;" x1="8" x2="245.7539" y1="74.2969" y2="74.2969"/><g data-visibility-modifier="IE_MANDATORY"><ellipse cx="18" cy="86.7813" fill="#000000" rx="3" ry="3" style="stroke:#000000;stroke-width:1;"/></g><text fill="#000000" font-family="'Helvetica'" font-size="12" lengthAdjust="spacing" textLength="138.1641" x="26" y="89.4355">email_hash : CHAR(64)</text><line style="stroke:#8B6F1A;stroke-width:1;" x1="8" x2="245.7539" y1="96.2656" y2="96.2656"/><text fill="#000000" font-family="'Helvetica'" font-size="12" lengthAdjust="spacing" textLength="150.3926" x="13" y="111.4043">email_encrypted : BYTEA</text><text fill="#000000" font-family="'Helvetica'" font-size="12" lengthAdjust="spacing" textLength="194.6426" x="13" y="125.373">password_hash : VARCHAR(255)</text><text fill="#000000" font-family="'Helvetica'" font-size="12" lengthAdjust="spacing" textLength="191.4316" x="13" y="139.3418">ssh_public_key : TEXT &#171;unique&#187;</text><text fill="#000000" font-family="'Helvetica'" font-size="12" lengthAdjust="spacing" textLength="227.7539" x="13" y="153.3105">posix_username : CHAR(10) &#171;unique&#187;</text><text fill="#000000" font-family="'Helvetica'" font-size="12" lengthAdjust="spacing" textLength="160.8223" x="13" y="167.2793">registered_at : TIMESTAMP</text></g><g class="entity" data-qualified-name="GMN2" data-source-line="30" id="ent0003"><path d="M287.07,70.2969 L287.07,105.1969 L247.2,109.1969 L287.07,113.1969 L287.07,148.1094 A8,8 0 0 0 295.07,156.1094 L624.6794,156.1094 A8,8 0 0 0 632.6794,148.1094 L632.6794,72.2969 L622.6794,62.2969 L295.07,62.2969 A8,8 0 0 0 287.07,70.2969" fill="#FEFFDD" filter="url(#ft4nz09jd0639)" style="stroke:#181818;stroke-width:0.5;"/><path d="M622.6794,62.2969 L622.6794,68.2969 A4,4 0 0 0 626.6794,72.2969 L632.6794,72.2969 L622.6794,62.2969" fill="#FEFFDD" style="stroke:#181818;stroke-width:0.5;"/><text fill="#000000" font-family="'Helvetica'" font-size="12" lengthAdjust="spacing" textLength="241.5996" x="293.07" y="78.4355">email_hash: SHA-256 of email (DV-F-03)</text><text fill="#000000" font-family="'Helvetica'" font-size="12" lengthAdjust="spacing" textLength="252.3574" x="293.07" y="92.4043">email_encrypted: AES-256-GCM (DV-F-04)</text><text fill="#000000" font-family="'Helvetica'" font-size="12" lengthAdjust="spacing" textLength="324.6094" x="293.07" y="106.373">password_hash: self-describing PHC string (algorithm,</text><text fill="#000000" font-family="'Helvetica'" font-size="12" lengthAdjust="spacing" textLength="276.0117" x="293.07" y="120.3418">cost params, salt, digest); Argon2id (DV-F-07)</text><text fill="#000000" font-family="'Helvetica'" font-size="12" lengthAdjust="spacing" textLength="253.8516" x="293.07" y="134.3105">ssh_public_key: unique per user (DV-F-12)</text><text fill="#000000" font-family="'Helvetica'" font-size="12" lengthAdjust="spacing" textLength="318.2754" x="293.07" y="148.2793">posix_username: "user" + 6 base-36 chars (DV-F-09)</text></g><?plantuml-src PLDHJzim47xFhxYL1vgjOMs10Xcg54eParO9bOAsfygDZyIgQsUs0qJJ_llERifWl4JHtNVVVVVT-ODGkQmvmjAwHk91LMza53dX9C8bSsp5B2Rth9OkXJkB1kQOQyEXErK4Qf8vIkQ4LhOKLHn5TYrKnGpRWD8SBLPmr7yLD4ojss2q3nWeKh1iWr1eoU61ROHiW5bm9O8jcK4Ev-Uy5J8UWtLeKBkcmfGmmX8D5wpmv1lgA2ruCB3SrKmILON62YhY8DH_0-rliTPfWptYKTg5jczHG4C_YXn1E8lo0RfFfSXB49PqjQdn-BDYZusVI5fyAabXV00taYbtD_iE1XKd5J2TGsSxSWTM-XajF0eMEkQIMPk41H39FxiAe-kg5uGnuCX5plmaBonQuS4hTmCD_8u0BbY-ziMAJxJK1lQcfvEJqUZptkGi6mvFF8AMYARDdbwChWOPHQ-qScria0sE-lteJnHjkq77hx_ZTnFkmBVv2BXXGYvBPaj8ONATpRkZevWoIKAVRH9LRfhAwqxXukTYwljK9FI95EmgxxDvA1uU7_jgQyjbLQ-ao9ThR2Y_cFvOaD-r4hzgijipQ2kUbpKfKVvwskQ3VlmMPh0GuMJuaZbFz6qslLraini_6FcAO4HHEj0FOQeNqLvN2hVNMJ8y7lbi24FtyZwvIlg7yVlfKiYcjnwTV9tCTi3WnPjXwThfYX9w6xaHAw4AkBcUq5KR_zjbij16k7BJexfSMmTXixP7RqIw7frwWTR5No0pXLP3mNUDJjxRbiBM1_y4m1lLOWV3-9r_ANJgiDrFC89m-uSZoEdvsLs3ivZkWFjJnEWl?></g></svg>