<svg xmlns="http://www.w3.org/2000/svg" xmlns:xlink="http://www.w3.org/1999/xlink" contentStyleType="text/css" data-diagram-type="CLASS" height="208px" preserveAspectRatio="none" style="width:607px;height:208px;background:#FFFFFF;" version="1.1" viewBox="0 0 607 208" width="607px" zoomAndPan="magnify"><?plantuml 1.2026.6?><defs><linearGradient id="gco5rxxjj7psr0" x1="0%" x2="100%" y1="0%" y2="100%"><stop offset="0%" stop-color="#E8C766"/><stop offset="100%" stop-color="#C9A227"/></linearGradient><filter height="300%" id="fco5rxxjj7psr" width="300%" x="-1" y="-1"><feGaussianBlur result="blurOut" stdDeviation="2"/><feColorMatrix in="blurOut" result="blurOut2" type="matrix" values="0 0 0 0 0 0 0 0 0 0 0 0 0 0 0 0 0 0 .4 0"/><feOffset dx="4" dy="4" in="blurOut2" result="blurOut3"/><feBlend in="SourceGraphic" in2="blurOut3" mode="normal"/></filter></defs><g><g class="title" data-source-line="3"><text fill="#000000" font-family="'Helvetica'" font-size="14" font-weight="700" lengthAdjust="spacing" textLength="397.6602" x="101.6476" y="22.9951">Database-Vault: User Record (Entity-Relationship)</text></g><!--class User--><g class="entity" data-qualified-name="User" data-source-line="19" id="ent0001"><rect fill="url(#gco5rxxjj7psr0)" filter="url(#fco5rxxjj7psr)" height="143.7813" rx="8" ry="8" style="stroke:#8B6F1A;stroke-width:0.5;" width="206.6426" x="7" y="44.2969"/><rect fill="url(#gco5rxxjj7psr0)" height="30" rx="8" ry="8" style="stroke:url(#gco5rxxjj7psr0);stroke-width:0.5;" width="206.6426" x="7" y="44.2969"/><rect fill="url(#gco5rxxjj7psr0)" height="8" style="stroke:url(#gco5rxxjj7psr0);stroke-width:0.5;" width="206.6426" x="7" y="66.2969"/><rect fill="none" height="143.7813" rx="8" ry="8" style="stroke:#8B6F1A;stroke-width:0.5;" width="206.6426" x="7" y="44.2969"/><ellipse cx="92.6455" cy="59.2969" fill="#ADD1B2" rx="10" ry="10" style="stroke:#181818;stroke-width:1;"/><path d="M95.083,63.7969 L89.6299,63.7969 L89.6299,55.0469 L95.083,55.0469 L95.083,56.5781 L91.3643,56.5781 L91.3643,58.4531 L94.7236,58.4531 L94.7236,59.9844 L91.3643,59.9844 L91.3643,62.2656 L95.083,62.2656 L95.083,63.7969 Z " fill="#000000"/><text fill="#1A1400" font-family="'Helvetica'" font-size="12" lengthAdjust="spacing" textLength="27.3516" x="111.6455" y="63.4512">User</text><line style="stroke:#8B6F1A;stroke-width:0.5;" x1="8" x2="212.6426" y1="74.2969" y2="74.2969"/><g data-visibility-modifier="IE_MANDATORY"><ellipse cx="18" cy="86.7813" fill="#000000" rx="3" ry="3" style="stroke:#000000;stroke-width:1;"/></g><text fill="#000000" font-family="'Helvetica'" font-size="12" lengthAdjust="spacing" textLength="138.1641" x="26" y="89.4355">email_hash : CHAR(64)</text><line style="stroke:#8B6F1A;stroke-width:1;" x1="8" x2="212.6426" y1="96.2656" y2="96.2656"/><text fill="#000000" font-family="'Helvetica'" font-size="12" lengthAdjust="spacing" textLength="150.3926" x="13" y="111.4043">email_encrypted : BYTEA</text><text fill="#000000" font-family="'Helvetica'" font-size="12" lengthAdjust="spacing" textLength="135.1816" x="13" y="125.373">password_salt : BYTEA</text><text fill="#000000" font-family="'Helvetica'" font-size="12" lengthAdjust="spacing" textLength="194.6426" x="13" y="139.3418">password_hash : VARCHAR(255)</text><text fill="#000000" font-family="'Helvetica'" font-size="12" lengthAdjust="spacing" textLength="191.4316" x="13" y="153.3105">ssh_public_key : TEXT &#171;unique&#187;</text><text fill="#000000" font-family="'Helvetica'" font-size="12" lengthAdjust="spacing" textLength="168.1055" x="13" y="167.2793">posix_username : CHAR(10)</text><text fill="#000000" font-family="'Helvetica'" font-size="12" lengthAdjust="spacing" textLength="160.8223" x="13" y="181.248">registered_at : TIMESTAMP</text></g><g class="entity" data-qualified-name="GMN2" data-source-line="31" id="ent0003"><path d="M253.68,77.2769 L253.68,112.1869 L213.94,116.1869 L253.68,120.1869 L253.68,155.0894 A8,8 0 0 0 261.68,163.0894 L584.9554,163.0894 A8,8 0 0 0 592.9554,155.0894 L592.9554,79.2769 L582.9554,69.2769 L261.68,69.2769 A8,8 0 0 0 253.68,77.2769" fill="#FEFFDD" filter="url(#fco5rxxjj7psr)" style="stroke:#181818;stroke-width:0.5;"/><path d="M582.9554,69.2769 L582.9554,75.2769 A4,4 0 0 0 586.9554,79.2769 L592.9554,79.2769 L582.9554,69.2769" fill="#FEFFDD" style="stroke:#181818;stroke-width:0.5;"/><text fill="#000000" font-family="'Helvetica'" font-size="12" lengthAdjust="spacing" textLength="241.5996" x="259.68" y="85.4155">email_hash: SHA-256 of email (DV-F-03)</text><text fill="#000000" font-family="'Helvetica'" font-size="12" lengthAdjust="spacing" textLength="252.3574" x="259.68" y="99.3843">email_encrypted: AES-256-GCM (DV-F-04)</text><text fill="#000000" font-family="'Helvetica'" font-size="12" lengthAdjust="spacing" textLength="223.8926" x="259.68" y="113.353">password_salt: per-user (DV-F-13/14)</text><text fill="#000000" font-family="'Helvetica'" font-size="12" lengthAdjust="spacing" textLength="215.6074" x="259.68" y="127.3218">password_hash: Argon2id (DV-F-07)</text><text fill="#000000" font-family="'Helvetica'" font-size="12" lengthAdjust="spacing" textLength="253.8516" x="259.68" y="141.2905">ssh_public_key: unique per user (DV-F-12)</text><text fill="#000000" font-family="'Helvetica'" font-size="12" lengthAdjust="spacing" textLength="318.2754" x="259.68" y="155.2593">posix_username: "user" + 6 base-36 chars (DV-F-09)</text></g><?plantuml-src RLFVJzim47xFNt4h3xGRWRP0W0XL2YN0f5L2fQ3jAJhYex7gsfdj0D6q_tss6nYClUJXxlFtu-xoYSjID8oWCBOLj5itQn55bbj1S8uMxz5GV8UDi2dS6j8mfr9f1lrSEb0RpqcWvKgQYjU3A38hBclKk0Qf61cguM3ufgXHhhfYj0qKA58mk2POAi7W0TTSj806R4LWAjJ4uFIKTKOc4p2MD2dRrfGw33UEXd5SUlArKnG6F1Ymj0qAHrMJDjmzOi3bFu6sDrXZbQOTnoEL3RBlKU12F_AIW5j3uW7wJnKlA-36-UfQaycUnCVM9nA6dYhdSB0BrmAblPrz0qsIEHUGpw6tYTo3U_LC1Xuv1iLIe35nM80Z-JkkfLPDlHEC8J1Yl4IVv9L5ITfzCzr00xyYW3CiL_wnP5Cbb8Qj_7Xwb2HxMzEJR3m-yWYtHD9Tz_WikHXbhdgXfErgesnqC1n6lwDeemOzl_wUtqsu0o_p6MYDN1GLcWfIc5vbytvoC72TE7QVJPDagTlQ-qxXxCSYzpgrC_ha71G6tOJ_K-yOxx9v81qV7dfMOwgYRku5BuiLjQw_oBylt1uQoNysRWsUGHd-N3JEeVHNrPaQ3VrpJKiUxeSLw5KNNsVvpIARNVkKRiW4cYyh2-eXH7nDuCsaS7ELnUF3n7T36VhdT_55FDmVV8oQGfRVU7HyEPsz0CDWtYLF_Nd6tco76UtlZTx3DjgPNYevvko5wkZZD5BOJC5JmblAyU33M5BeDM6PNo21SEhx2PJkRpCl0YS3jtRcBu-YFm00?></g></svg>