<svg xmlns="http://www.w3.org/2000/svg" xmlns:xlink="http://www.w3.org/1999/xlink" contentStyleType="text/css" data-diagram-type="DESCRIPTION" height="362px" preserveAspectRatio="none" style="width:1459px;height:362px;background:#FFFFFF;" version="1.1" viewBox="0 0 1459 362" width="1459px" zoomAndPan="magnify"><?plantuml 1.2026.6?><defs><filter height="300%" id="ff3ta5ykaf7sw" width="300%" x="-1" y="-1"><feGaussianBlur result="blurOut" stdDeviation="2"/><feColorMatrix in="blurOut" result="blurOut2" type="matrix" values="0 0 0 0 0 0 0 0 0 0 0 0 0 0 0 0 0 0 .4 0"/><feOffset dx="4" dy="4" in="blurOut2" result="blurOut3"/><feBlend in="SourceGraphic" in2="blurOut3" mode="normal"/></filter><linearGradient id="gf3ta5ykaf7sw0" x1="0%" x2="100%" y1="0%" y2="100%"><stop offset="0%" stop-color="#2A4A7F"/><stop offset="100%" stop-color="#1B3A6B"/></linearGradient><linearGradient id="gf3ta5ykaf7sw1" x1="0%" x2="100%" y1="0%" y2="100%"><stop offset="0%" stop-color="#DDE6ED"/><stop offset="100%" stop-color="#C3D2DC"/></linearGradient><linearGradient id="gf3ta5ykaf7sw2" x1="0%" x2="100%" y1="0%" y2="100%"><stop offset="0%" stop-color="#8B6FB0"/><stop offset="100%" stop-color="#6B4F94"/></linearGradient></defs><g><g class="title" data-source-line="3"><text fill="#000000" font-family="'Helvetica'" font-size="14" font-weight="700" lengthAdjust="spacing" textLength="107.8506" x="672.0747" y="22.9951">PKI Hierarchy</text></g><!--cluster Core request path--><g class="cluster" data-qualified-name="Core request path" data-source-line="25" id="ent0003"><path d="M14,158.1969 L126.6367,158.1969 A12,12 0 0 1 134.6367,166.1969 L141.6367,178.1656 L874,178.1656 A8,8 0 0 1 882,186.1656 L882,272.1369 A8,8 0 0 1 874,280.1369 L14,280.1369 A8,8 0 0 1 6,272.1369 L6,166.1969 A8,8 0 0 1 14,158.1969" fill="none" filter="url(#ff3ta5ykaf7sw)" style="stroke:#000000;stroke-width:1.5;"/><line style="stroke:#000000;stroke-width:1.5;" x1="6" x2="141.6367" y1="178.1656" y2="178.1656"/><text fill="#000000" font-family="'Helvetica'" font-size="12" font-weight="700" lengthAdjust="spacing" textLength="122.6367" x="10" y="171.3355">Core request path</text></g><!--cluster Monitoring pipeline--><g class="cluster" data-qualified-name="Monitoring pipeline" data-source-line="40" id="ent0013"><path d="M914,159.2169 L1036.5039,159.2169 A12,12 0 0 1 1044.5039,167.2169 L1051.5039,179.1856 L1436,179.1856 A8,8 0 0 1 1444,187.1856 L1444,271.1169 A8,8 0 0 1 1436,279.1169 L914,279.1169 A8,8 0 0 1 906,271.1169 L906,167.2169 A8,8 0 0 1 914,159.2169" fill="none" filter="url(#ff3ta5ykaf7sw)" style="stroke:#000000;stroke-width:1.5;"/><line style="stroke:#000000;stroke-width:1.5;" x1="906" x2="1051.5039" y1="179.1856" y2="179.1856"/><text fill="#000000" font-family="'Helvetica'" font-size="12" font-weight="700" lengthAdjust="spacing" textLength="132.5039" x="910" y="172.3555">Monitoring pipeline</text></g><!--entity EntryHub--><g class="entity" data-qualified-name="Core request path.EntryHub" data-source-line="27" id="ent0004"><rect fill="url(#gf3ta5ykaf7sw0)" filter="url(#ff3ta5ykaf7sw)" height="57.9375" rx="8" ry="8" style="stroke:#0A1B36;stroke-width:0.5;" width="108.373" x="29.81" y="198.1969"/><rect fill="url(#gf3ta5ykaf7sw0)" height="10" style="stroke:#0A1B36;stroke-width:0.5;" width="15" x="118.183" y="203.1969"/><rect fill="url(#gf3ta5ykaf7sw0)" height="2" style="stroke:#0A1B36;stroke-width:0.5;" width="4" x="116.183" y="205.1969"/><rect fill="url(#gf3ta5ykaf7sw0)" height="2" style="stroke:#0A1B36;stroke-width:0.5;" width="4" x="116.183" y="209.1969"/><text fill="#F0F0F0" font-family="'Helvetica'" font-size="12" font-style="italic" lengthAdjust="spacing" textLength="57.7969" x="50.0981" y="229.3355">&#171;service&#187;</text><text fill="#F0F0F0" font-family="'Helvetica'" font-size="12" font-weight="700" lengthAdjust="spacing" textLength="68.373" x="44.81" y="243.3043">Entry-Hub</text></g><!--entity SecuritySwitch--><g class="entity" data-qualified-name="Core request path.SecuritySwitch" data-source-line="28" id="ent0005"><rect fill="url(#gf3ta5ykaf7sw0)" filter="url(#ff3ta5ykaf7sw)" height="57.9375" rx="8" ry="8" style="stroke:#0A1B36;stroke-width:0.5;" width="146.2422" x="167.88" y="198.1969"/><rect fill="url(#gf3ta5ykaf7sw0)" height="10" style="stroke:#0A1B36;stroke-width:0.5;" width="15" x="294.1222" y="203.1969"/><rect fill="url(#gf3ta5ykaf7sw0)" height="2" style="stroke:#0A1B36;stroke-width:0.5;" width="4" x="292.1222" y="205.1969"/><rect fill="url(#gf3ta5ykaf7sw0)" height="2" style="stroke:#0A1B36;stroke-width:0.5;" width="4" x="292.1222" y="209.1969"/><text fill="#F0F0F0" font-family="'Helvetica'" font-size="12" font-style="italic" lengthAdjust="spacing" textLength="57.7969" x="207.1027" y="229.3355">&#171;service&#187;</text><text fill="#F0F0F0" font-family="'Helvetica'" font-size="12" font-weight="700" lengthAdjust="spacing" textLength="106.2422" x="182.88" y="243.3043">Security-Switch</text></g><!--entity DatabaseVault--><g class="entity" data-qualified-name="Core request path.DatabaseVault" data-source-line="29" id="ent0006"><rect fill="url(#gf3ta5ykaf7sw0)" filter="url(#ff3ta5ykaf7sw)" height="57.9375" rx="8" ry="8" style="stroke:#0A1B36;stroke-width:0.5;" width="144.6191" x="343.69" y="198.1969"/><rect fill="url(#gf3ta5ykaf7sw0)" height="10" style="stroke:#0A1B36;stroke-width:0.5;" width="15" x="468.3091" y="203.1969"/><rect fill="url(#gf3ta5ykaf7sw0)" height="2" style="stroke:#0A1B36;stroke-width:0.5;" width="4" x="466.3091" y="205.1969"/><rect fill="url(#gf3ta5ykaf7sw0)" height="2" style="stroke:#0A1B36;stroke-width:0.5;" width="4" x="466.3091" y="209.1969"/><text fill="#F0F0F0" font-family="'Helvetica'" font-size="12" font-style="italic" lengthAdjust="spacing" textLength="57.7969" x="382.1011" y="229.3355">&#171;service&#187;</text><text fill="#F0F0F0" font-family="'Helvetica'" font-size="12" font-weight="700" lengthAdjust="spacing" textLength="104.6191" x="358.69" y="243.3043">Database-Vault</text></g><!--entity StorageService--><g class="entity" data-qualified-name="Core request path.StorageService" data-source-line="30" id="ent0007"><rect fill="url(#gf3ta5ykaf7sw0)" filter="url(#ff3ta5ykaf7sw)" height="57.9375" rx="8" ry="8" style="stroke:#0A1B36;stroke-width:0.5;" width="148.2344" x="517.88" y="198.1969"/><rect fill="url(#gf3ta5ykaf7sw0)" height="10" style="stroke:#0A1B36;stroke-width:0.5;" width="15" x="646.1144" y="203.1969"/><rect fill="url(#gf3ta5ykaf7sw0)" height="2" style="stroke:#0A1B36;stroke-width:0.5;" width="4" x="644.1144" y="205.1969"/><rect fill="url(#gf3ta5ykaf7sw0)" height="2" style="stroke:#0A1B36;stroke-width:0.5;" width="4" x="644.1144" y="209.1969"/><text fill="#F0F0F0" font-family="'Helvetica'" font-size="12" font-style="italic" lengthAdjust="spacing" textLength="57.7969" x="558.0988" y="229.3355">&#171;service&#187;</text><text fill="#F0F0F0" font-family="'Helvetica'" font-size="12" font-weight="700" lengthAdjust="spacing" textLength="108.2344" x="532.88" y="243.3043">Storage-Service</text></g><!--entity NetworkManager--><g class="entity" data-qualified-name="Core request path.NetworkManager" data-source-line="31" id="ent0008"><rect fill="url(#gf3ta5ykaf7sw0)" filter="url(#ff3ta5ykaf7sw)" height="57.9375" rx="8" ry="8" style="stroke:#0A1B36;stroke-width:0.5;" width="161.4531" x="696.27" y="198.1969"/><rect fill="url(#gf3ta5ykaf7sw0)" height="10" style="stroke:#0A1B36;stroke-width:0.5;" width="15" x="837.7231" y="203.1969"/><rect fill="url(#gf3ta5ykaf7sw0)" height="2" style="stroke:#0A1B36;stroke-width:0.5;" width="4" x="835.7231" y="205.1969"/><rect fill="url(#gf3ta5ykaf7sw0)" height="2" style="stroke:#0A1B36;stroke-width:0.5;" width="4" x="835.7231" y="209.1969"/><text fill="#F0F0F0" font-family="'Helvetica'" font-size="12" font-style="italic" lengthAdjust="spacing" textLength="57.7969" x="743.0981" y="229.3355">&#171;service&#187;</text><text fill="#F0F0F0" font-family="'Helvetica'" font-size="12" font-weight="700" lengthAdjust="spacing" textLength="121.4531" x="711.27" y="243.3043">Network-Manager</text></g><!--entity MqttBroker--><g class="entity" data-qualified-name="Monitoring pipeline.MqttBroker" data-source-line="41" id="ent0014"><rect fill="url(#gf3ta5ykaf7sw0)" filter="url(#ff3ta5ykaf7sw)" height="71.9063" rx="8" ry="8" style="stroke:#0A1B36;stroke-width:0.5;" width="127.9258" x="922.04" y="191.2169"/><rect fill="url(#gf3ta5ykaf7sw0)" height="10" style="stroke:#0A1B36;stroke-width:0.5;" width="15" x="1029.9658" y="196.2169"/><rect fill="url(#gf3ta5ykaf7sw0)" height="2" style="stroke:#0A1B36;stroke-width:0.5;" width="4" x="1027.9658" y="198.2169"/><rect fill="url(#gf3ta5ykaf7sw0)" height="2" style="stroke:#0A1B36;stroke-width:0.5;" width="4" x="1027.9658" y="202.2169"/><text fill="#F0F0F0" font-family="'Helvetica'" font-size="12" font-style="italic" lengthAdjust="spacing" textLength="57.7969" x="952.1045" y="222.3555">&#171;service&#187;</text><text fill="#F0F0F0" font-family="'Helvetica'" font-size="12" font-weight="700" lengthAdjust="spacing" textLength="68.291" x="937.04" y="236.3243">Mosquitto</text><text fill="#F0F0F0" font-family="'Helvetica'" font-size="12" lengthAdjust="spacing" textLength="87.9258" x="937.04" y="250.293">[MQTT-Broker]</text></g><!--entity MetricsCollector--><g class="entity" data-qualified-name="Monitoring pipeline.MetricsCollector" data-source-line="42" id="ent0015"><rect fill="url(#gf3ta5ykaf7sw0)" filter="url(#ff3ta5ykaf7sw)" height="57.9375" rx="8" ry="8" style="stroke:#0A1B36;stroke-width:0.5;" width="155.5117" x="1080.24" y="198.1969"/><rect fill="url(#gf3ta5ykaf7sw0)" height="10" style="stroke:#0A1B36;stroke-width:0.5;" width="15" x="1215.7517" y="203.1969"/><rect fill="url(#gf3ta5ykaf7sw0)" height="2" style="stroke:#0A1B36;stroke-width:0.5;" width="4" x="1213.7517" y="205.1969"/><rect fill="url(#gf3ta5ykaf7sw0)" height="2" style="stroke:#0A1B36;stroke-width:0.5;" width="4" x="1213.7517" y="209.1969"/><text fill="#F0F0F0" font-family="'Helvetica'" font-size="12" font-style="italic" lengthAdjust="spacing" textLength="57.7969" x="1124.0974" y="229.3355">&#171;service&#187;</text><text fill="#F0F0F0" font-family="'Helvetica'" font-size="12" font-weight="700" lengthAdjust="spacing" textLength="115.5117" x="1095.24" y="243.3043">Metrics-Collector</text></g><!--entity MetricsVisualizer--><g class="entity" data-qualified-name="Monitoring pipeline.MetricsVisualizer" data-source-line="43" id="ent0016"><rect fill="url(#gf3ta5ykaf7sw0)" filter="url(#ff3ta5ykaf7sw)" height="71.9063" rx="8" ry="8" style="stroke:#0A1B36;stroke-width:0.5;" width="161.5352" x="1266.23" y="191.2169"/><rect fill="url(#gf3ta5ykaf7sw0)" height="10" style="stroke:#0A1B36;stroke-width:0.5;" width="15" x="1407.7652" y="196.2169"/><rect fill="url(#gf3ta5ykaf7sw0)" height="2" style="stroke:#0A1B36;stroke-width:0.5;" width="4" x="1405.7652" y="198.2169"/><rect fill="url(#gf3ta5ykaf7sw0)" height="2" style="stroke:#0A1B36;stroke-width:0.5;" width="4" x="1405.7652" y="202.2169"/><text fill="#F0F0F0" font-family="'Helvetica'" font-size="12" font-style="italic" lengthAdjust="spacing" textLength="57.7969" x="1313.0991" y="222.3555">&#171;service&#187;</text><text fill="#F0F0F0" font-family="'Helvetica'" font-size="12" font-weight="700" lengthAdjust="spacing" textLength="121.5352" x="1281.23" y="236.3243">Metrics-Visualizer</text><text fill="#F0F0F0" font-family="'Helvetica'" font-size="12" lengthAdjust="spacing" textLength="57.4863" x="1281.23" y="250.293">[Grafana]</text></g><!--entity LetsEncrypt--><g class="entity" data-qualified-name="LetsEncrypt" data-source-line="22" id="ent0001"><rect fill="url(#gf3ta5ykaf7sw1)" filter="url(#ff3ta5ykaf7sw)" height="57.9375" rx="8" ry="8" style="stroke:#5A6B78;stroke-width:0.5;" width="128.4355" x="19.78" y="51.2769"/><rect fill="url(#gf3ta5ykaf7sw1)" height="10" style="stroke:#5A6B78;stroke-width:0.5;" width="15" x="128.2155" y="56.2769"/><rect fill="url(#gf3ta5ykaf7sw1)" height="2" style="stroke:#5A6B78;stroke-width:0.5;" width="4" x="126.2155" y="58.2769"/><rect fill="url(#gf3ta5ykaf7sw1)" height="2" style="stroke:#5A6B78;stroke-width:0.5;" width="4" x="126.2155" y="62.2769"/><text fill="#14202B" font-family="'Helvetica'" font-size="12" font-style="italic" lengthAdjust="spacing" textLength="67.5059" x="45.2448" y="82.4155">&#171;publicCA&#187;</text><text fill="#14202B" font-family="'Helvetica'" font-size="12" font-weight="700" lengthAdjust="spacing" textLength="88.4355" x="34.78" y="96.3843">Let's Encrypt</text></g><!--entity PrivateCA--><g class="entity" data-qualified-name="PrivateCA" data-source-line="23" id="ent0002"><rect fill="url(#gf3ta5ykaf7sw2)" filter="url(#ff3ta5ykaf7sw)" height="71.9063" rx="8" ry="8" style="stroke:#4A2E68;stroke-width:0.5;" width="180.0566" x="556.97" y="44.2969"/><rect fill="url(#gf3ta5ykaf7sw2)" height="10" style="stroke:#4A2E68;stroke-width:0.5;" width="15" x="717.0266" y="49.2969"/><rect fill="url(#gf3ta5ykaf7sw2)" height="2" style="stroke:#4A2E68;stroke-width:0.5;" width="4" x="715.0266" y="51.2969"/><rect fill="url(#gf3ta5ykaf7sw2)" height="2" style="stroke:#4A2E68;stroke-width:0.5;" width="4" x="715.0266" y="55.2969"/><text fill="#F0F0F0" font-family="'Helvetica'" font-size="12" font-style="italic" lengthAdjust="spacing" textLength="93.9727" x="595.012" y="75.4355">&#171;certAuthority&#187;</text><text fill="#F0F0F0" font-family="'Helvetica'" font-size="12" font-weight="700" lengthAdjust="spacing" textLength="140.0566" x="571.97" y="89.4043">Certificate-Authority</text><text fill="#F0F0F0" font-family="'Helvetica'" font-size="12" lengthAdjust="spacing" textLength="138.1289" x="571.97" y="103.373">[smallstep/certificates]</text></g><!--link EntryHub to SecuritySwitch--><!--link SecuritySwitch to DatabaseVault--><!--link DatabaseVault to StorageService--><!--link StorageService to NetworkManager--><!--link MqttBroker to MetricsCollector--><!--link MetricsCollector to MetricsVisualizer--><!--link LetsEncrypt to EntryHub--><g class="link" data-entity-1="ent0001" data-entity-2="ent0004" data-link-type="dependency" data-source-line="49" id="lnk19"><path d="M84,109.5369 C84,135.0669 84,167.4369 84,192.9569" fill="none" id="LetsEncrypt-to-EntryHub" style="stroke:#333333;stroke-width:1;stroke-dasharray:7,7;"/><polygon fill="#333333" points="84,197.9569,88,188.9569,84,192.9569,80,188.9569,84,197.9569" style="stroke:#333333;stroke-width:1;stroke-linejoin:miter;stroke-miterlimit:10;"/></g><!--link PrivateCA to EntryHub--><g class="link" data-entity-1="ent0002" data-entity-2="ent0004" data-link-type="dependency" data-source-line="51" id="lnk20"><path d="M556.6,86.5069 C433.65,94.8969 221.19,114.1669 153,150.1969 C132.05,161.2669 117.1959,177.3042 104.9259,194.0442" fill="none" id="PrivateCA-to-EntryHub" style="stroke:#333333;stroke-width:1;stroke-dasharray:7,7;"/><polygon fill="#333333" points="101.97,198.0769,110.5168,193.1827,104.9259,194.0442,104.0644,188.4533,101.97,198.0769" style="stroke:#333333;stroke-width:1;stroke-linejoin:miter;stroke-miterlimit:10;"/></g><!--link PrivateCA to SecuritySwitch--><g class="link" data-entity-1="ent0002" data-entity-2="ent0005" data-link-type="dependency" data-source-line="52" id="lnk21"><path d="M556.68,88.7769 C490.77,97.0869 400.78,114.3869 329,150.1969 C305.34,162.0069 286.3823,178.0781 270.0623,194.4281" fill="none" id="PrivateCA-to-SecuritySwitch" style="stroke:#333333;stroke-width:1;stroke-dasharray:7,7;"/><polygon fill="#333333" points="266.53,197.9669,275.7191,194.4229,270.0623,194.4281,270.0571,188.7712,266.53,197.9669" style="stroke:#333333;stroke-width:1;stroke-linejoin:miter;stroke-miterlimit:10;"/></g><!--link PrivateCA to DatabaseVault--><g class="link" data-entity-1="ent0002" data-entity-2="ent0006" data-link-type="dependency" data-source-line="53" id="lnk22"><path d="M563.42,116.5469 C543.06,126.4169 521.75,137.8569 503,150.1969 C481.9,164.0869 464.1334,179.2926 447.8334,194.6126" fill="none" id="PrivateCA-to-DatabaseVault" style="stroke:#333333;stroke-width:1;stroke-dasharray:7,7;"/><polygon fill="#333333" points="444.19,198.0369,453.4875,194.7878,447.8334,194.6126,448.0086,188.9584,444.19,198.0369" style="stroke:#333333;stroke-width:1;stroke-linejoin:miter;stroke-miterlimit:10;"/></g><!--link PrivateCA to StorageService--><g class="link" data-entity-1="ent0002" data-entity-2="ent0007" data-link-type="dependency" data-source-line="54" id="lnk23"><path d="M633.55,116.6969 C624.07,141.6669 613.3244,169.9823 604.5144,193.1923" fill="none" id="PrivateCA-to-StorageService" style="stroke:#333333;stroke-width:1;stroke-dasharray:7,7;"/><polygon fill="#333333" points="602.74,197.8669,609.6735,190.8721,604.5144,193.1923,602.1942,188.0332,602.74,197.8669" style="stroke:#333333;stroke-width:1;stroke-linejoin:miter;stroke-miterlimit:10;"/></g><!--link PrivateCA to NetworkManager--><g class="link" data-entity-1="ent0002" data-entity-2="ent0008" data-link-type="dependency" data-source-line="55" id="lnk24"><path d="M678.8,116.6969 C701.2,141.6669 727.4504,170.9357 748.2804,194.1457" fill="none" id="PrivateCA-to-NetworkManager" style="stroke:#333333;stroke-width:1;stroke-dasharray:7,7;"/><polygon fill="#333333" points="751.62,197.8669,748.5857,188.4971,748.2804,194.1457,742.6318,193.8404,751.62,197.8669" style="stroke:#333333;stroke-width:1;stroke-linejoin:miter;stroke-miterlimit:10;"/></g><!--link PrivateCA to MqttBroker--><g class="link" data-entity-1="ent0002" data-entity-2="ent0014" data-link-type="dependency" data-source-line="56" id="lnk25"><path d="M737.29,102.2169 C779.6,113.6869 830.03,129.7569 873,150.1969 C896.27,161.2669 916.1309,173.7953 935.9509,187.8453" fill="none" id="PrivateCA-to-MqttBroker" style="stroke:#333333;stroke-width:1;stroke-dasharray:7,7;"/><polygon fill="#333333" points="940.03,190.7369,935.0009,182.2688,935.9509,187.8453,930.3744,188.7953,940.03,190.7369" style="stroke:#333333;stroke-width:1;stroke-linejoin:miter;stroke-miterlimit:10;"/></g><!--link PrivateCA to MetricsCollector--><g class="link" data-entity-1="ent0002" data-entity-2="ent0015" data-link-type="dependency" data-source-line="57" id="lnk26"><path d="M737.31,82.7969 C824.69,87.3169 959.09,102.3669 1065,150.1969 C1090.08,161.5269 1110.4081,177.9094 1127.7181,194.4794" fill="none" id="PrivateCA-to-MetricsCollector" style="stroke:#333333;stroke-width:1;stroke-dasharray:7,7;"/><polygon fill="#333333" points="1131.33,197.9369,1127.5946,188.8239,1127.7181,194.4794,1122.0626,194.6029,1131.33,197.9369" style="stroke:#333333;stroke-width:1;stroke-linejoin:miter;stroke-miterlimit:10;"/></g><!--link PrivateCA to MetricsVisualizer--><g class="link" data-entity-1="ent0002" data-entity-2="ent0016" data-link-type="dependency" data-source-line="58" id="lnk27"><path d="M737.43,85.4869 C882.54,93.3169 1160.27,112.7369 1251,150.1969 C1273.59,159.5269 1291.5208,172.4875 1308.5308,187.5875" fill="none" id="PrivateCA-to-MetricsVisualizer" style="stroke:#333333;stroke-width:1;stroke-dasharray:7,7;"/><polygon fill="#333333" points="1312.27,190.9069,1308.1949,181.9406,1308.5308,187.5875,1302.8839,187.9234,1312.27,190.9069" style="stroke:#333333;stroke-width:1;stroke-linejoin:miter;stroke-miterlimit:10;"/></g><!--link PrivateCA to PrivateCA--><g class="link" data-entity-1="ent0002" data-entity-2="ent0002" data-link-type="dependency" data-source-line="59" id="lnk28"><path d="M737.29,69.2569 C754.7,70.5469 767.03,74.2169 767.03,80.2469 C767.03,86.2769 759.6861,89.5646 742.2761,90.8646" fill="none" id="PrivateCA-to-PrivateCA" style="stroke:#333333;stroke-width:1;stroke-dasharray:7,7;"/><polygon fill="#333333" points="737.29,91.2369,746.5629,94.5556,742.2761,90.8646,745.9672,86.5778,737.29,91.2369" style="stroke:#333333;stroke-width:1;stroke-linejoin:miter;stroke-miterlimit:10;"/><text fill="#333333" font-family="'Helvetica'" font-size="11" lengthAdjust="spacing" textLength="59.8877" x="773.03" y="84.4573">self-signed</text></g><g class="legend" data-source-line="61"><rect fill="#DDDDDD" height="42.5938" rx="8" ry="8" style="stroke:#000000;stroke-width:1;" width="323.2227" x="564.3887" y="301.1369"/><text fill="#000000" font-family="'Helvetica'" font-size="14" lengthAdjust="spacing" textLength="313.2227" x="569.3887" y="319.132">every dashed arrow is a &#171;signs&#187; relationship</text><text fill="#000000" font-family="'Helvetica'" font-size="14" lengthAdjust="spacing" textLength="147.1299" x="569.3887" y="335.4289">(certificate issuance)</text></g><?plantuml-src ZLNRRjms47tNLqmt3x4NqJfscgGm30FhNRSfsiq5DlAI6WLDpQw8fKXvIDbLYm3zY7vXlwH3IRiIvJJjYzTpE7CuPtX4VgECr5M6yAlpjSPPMHKwIRpo6k7zJp_26uKaIEPrahYjCgKWKO2n6JeiuSNp0KZ2R0FuSWZEYUp3zzRuA_Kxml5naZo5ihhLIYxcfr0AtiLWvKde8oKHl3K8V__v5pYrCK8xcE1l7ed_vINmEOAhdSTY0WS_et_guD98gaj_E1liAMrHCe_nPsUxhSxFuOy4u4B8xOPiPRA5rPRWoN9v-UfoUVHayM9vibo434iPKhVwSlxgulLtZ0O17NRyxSdpaulaC-iuEvD8Vbxvt9BoDUzniD_wA8pe49G3oH7BO_aPA3CSysaGn3mBPb5h9ON7TC_Mgu3AeUDKuS7bWW9Dnd38mNka-Y57Gb2UcKHPeY3tZ0_8Wm1jfT2w1gx1jJ9SAHiHeM3M2718zpntRbqP7qYjQIhUlhiUL8NyKyxWN-Kv5YvbOMko1PCC1C614VSrtEeAOIqAfUl36InjsqsMxJhY12ktiEPEb6zF6t74nEgBeDqQw0-sGDeeiu4IANMeKNfBhTQ0DAop9Ea7DvbE8vTCfnFk7HXp7G93YyILNpoLwVGNyyaLF2DsONaa-nntqt2_9tNFqMB-s1r9KhBzn0PXih1yOeHt5JhkNVXyqjZJsmso9QW90A9sBjb5TVgckkr4D367mqDyN7M5iWgxfrSFoikygzsXBVXrXgNmubOuJ3-AIkyck0CRx3ywu3DYpUbLcxBhe4KxyEiCRz4_MDgcAs6uX3g63kt04SFdXF_i9vH-obN6dymDgKtkqv5ypXpDOvmVgUNqMFqZzaXQO8-rZlDZ8Nonz3PPMQEukB6yAb7pnzWQ9PhFohgxIdbl6tEkFbnVfnTajqYj8rTtthVnQ4Wn2NfIqgLyoxNVLJVc3j_3_uVZet9LS-5Hqz4F9DOixcR8rwT4XCmuQ7SygN4l8NlSth_KzFk50GylWDdiVE-K9Ea_tmYFuP5_uiNOBAF2s1hnuiW7yM8_bV72U2PVN1x8ZzVxw9GlORrEmxkBMP9etA39UCBD4mEPS7cu-CDh7Xur4OwDKns_78HQX8V3vQhaWeF1fSYflB6HU9Wm6tIa_m00?></g></svg>