<svg xmlns="http://www.w3.org/2000/svg" xmlns:xlink="http://www.w3.org/1999/xlink" contentStyleType="text/css" data-diagram-type="DESCRIPTION" height="625px" preserveAspectRatio="none" style="width:607px;height:625px;background:#FFFFFF;" version="1.1" viewBox="0 0 607 625" width="607px" zoomAndPan="magnify"><?plantuml 1.2026.6?><defs><filter height="300%" id="f16k0xy6mztyda" width="300%" x="-1" y="-1"><feGaussianBlur result="blurOut" stdDeviation="2"/><feColorMatrix in="blurOut" result="blurOut2" type="matrix" values="0 0 0 0 0 0 0 0 0 0 0 0 0 0 0 0 0 0 .4 0"/><feOffset dx="4" dy="4" in="blurOut2" result="blurOut3"/><feBlend in="SourceGraphic" in2="blurOut3" mode="normal"/></filter><linearGradient id="g16k0xy6mztyda0" x1="0%" x2="100%" y1="0%" y2="100%"><stop offset="0%" stop-color="#C9D6DE"/><stop offset="100%" stop-color="#A8BAC7"/></linearGradient><linearGradient id="g16k0xy6mztyda1" x1="0%" x2="100%" y1="0%" y2="100%"><stop offset="0%" stop-color="#9CC3E0"/><stop offset="100%" stop-color="#6FA0C9"/></linearGradient><linearGradient id="g16k0xy6mztyda2" x1="0%" x2="100%" y1="0%" y2="100%"><stop offset="0%" stop-color="#2A4A7F"/><stop offset="100%" stop-color="#1B3A6B"/></linearGradient><linearGradient id="g16k0xy6mztyda3" x1="0%" x2="100%" y1="0%" y2="100%"><stop offset="0%" stop-color="#8B6FB0"/><stop offset="100%" stop-color="#6B4F94"/></linearGradient></defs><g><g class="title" data-source-line="3"><text fill="#000000" font-family="'Helvetica'" font-size="14" font-weight="700" lengthAdjust="spacing" textLength="320.1748" x="139.9126" y="22.9951">Trust Zones: Mesh Network Reachability</text></g><!--cluster Unauthenticated User Zone--><g class="cluster" data-qualified-name="Unauthenticated User Zone" data-source-line="30" id="ent0001"><path d="M14,43.2969 L190.3398,43.2969 A12,12 0 0 1 198.3398,51.2969 L205.3398,63.2656 L200,63.2656 A8,8 0 0 1 208,71.2656 L208,169.1769 A8,8 0 0 1 200,177.1769 L14,177.1769 A8,8 0 0 1 6,169.1769 L6,51.2969 A8,8 0 0 1 14,43.2969" fill="none" filter="url(#f16k0xy6mztyda)" style="stroke:#000000;stroke-width:1.5;"/><line style="stroke:#000000;stroke-width:1.5;" x1="6" x2="205.3398" y1="63.2656" y2="63.2656"/><text fill="#000000" font-family="'Helvetica'" font-size="12" font-weight="700" lengthAdjust="spacing" textLength="186.3398" x="10" y="56.4355">Unauthenticated User Zone</text></g><!--cluster Authenticated User Zone--><g class="cluster" data-qualified-name="Authenticated User Zone" data-source-line="34" id="ent0003"><path d="M240,43.2969 L399.2422,43.2969 A12,12 0 0 1 407.2422,51.2969 L414.2422,63.2656 L409,63.2656 A8,8 0 0 1 417,71.2656 L417,169.1769 A8,8 0 0 1 409,177.1769 L240,177.1769 A8,8 0 0 1 232,169.1769 L232,51.2969 A8,8 0 0 1 240,43.2969" fill="none" filter="url(#f16k0xy6mztyda)" style="stroke:#000000;stroke-width:1.5;"/><line style="stroke:#000000;stroke-width:1.5;" x1="232" x2="414.2422" y1="63.2656" y2="63.2656"/><text fill="#000000" font-family="'Helvetica'" font-size="12" font-weight="700" lengthAdjust="spacing" textLength="169.2422" x="236" y="56.4355">Authenticated User Zone</text></g><!--cluster Internal Mesh--><g class="cluster" data-qualified-name="Internal Mesh" data-source-line="40" id="ent0006"><path d="M22,201.1769 L105.498,201.1769 A12,12 0 0 1 113.498,209.1769 L120.498,221.1456 L584,221.1456 A8,8 0 0 1 592,229.1456 L592,602.9269 A8,8 0 0 1 584,610.9269 L22,610.9269 A8,8 0 0 1 14,602.9269 L14,209.1769 A8,8 0 0 1 22,201.1769" fill="none" filter="url(#f16k0xy6mztyda)" style="stroke:#000000;stroke-width:1.5;"/><line style="stroke:#000000;stroke-width:1.5;" x1="14" x2="120.498" y1="221.1456" y2="221.1456"/><text fill="#000000" font-family="'Helvetica'" font-size="12" font-weight="700" lengthAdjust="spacing" textLength="93.498" x="18" y="214.3155">Internal Mesh</text></g><!--entity UnauthUser--><g class="entity" data-qualified-name="Unauthenticated User Zone.UnauthUser" data-source-line="31" id="ent0002"><polygon fill="url(#g16k0xy6mztyda0)" filter="url(#f16k0xy6mztyda)" points="64.13,85.2969,74.13,75.2969,191.8644,75.2969,191.8644,151.1719,181.8644,161.1719,64.13,161.1719,64.13,85.2969" style="stroke:#5C6E7A;stroke-width:0.5;stroke-linejoin:miter;stroke-miterlimit:10;"/><line style="stroke:#5C6E7A;stroke-width:0.5;" x1="181.8644" x2="191.8644" y1="85.2969" y2="75.2969"/><line style="stroke:#5C6E7A;stroke-width:0.5;" x1="64.13" x2="181.8644" y1="85.2969" y2="85.2969"/><line style="stroke:#5C6E7A;stroke-width:0.5;" x1="181.8644" x2="181.8644" y1="85.2969" y2="161.1719"/><text fill="#14202B" font-family="'Helvetica'" font-size="12" font-style="italic" lengthAdjust="spacing" textLength="85.7344" x="80.13" y="106.4355">&#171;userLimited&#187;</text><text fill="#14202B" font-family="'Helvetica'" font-size="12" font-weight="700" lengthAdjust="spacing" textLength="30.9434" x="83.4318" y="120.4043">User</text><text fill="#14202B" font-family="'Helvetica'" font-size="12" lengthAdjust="spacing" textLength="65.3555" x="83.4318" y="134.373">registered,</text><text fill="#14202B" font-family="'Helvetica'" font-size="12" lengthAdjust="spacing" textLength="79.1309" x="83.4318" y="148.3418">not logged in</text></g><!--entity AuthUser--><g class="entity" data-qualified-name="Authenticated User Zone.AuthUser" data-source-line="35" id="ent0004"><polygon fill="url(#g16k0xy6mztyda1)" filter="url(#f16k0xy6mztyda)" points="247.58,85.2969,257.58,75.2969,356.4159,75.2969,356.4159,151.1719,346.4159,161.1719,247.58,161.1719,247.58,85.2969" style="stroke:#2C5C8F;stroke-width:0.5;stroke-linejoin:miter;stroke-miterlimit:10;"/><line style="stroke:#2C5C8F;stroke-width:0.5;" x1="346.4159" x2="356.4159" y1="85.2969" y2="75.2969"/><line style="stroke:#2C5C8F;stroke-width:0.5;" x1="247.58" x2="346.4159" y1="85.2969" y2="85.2969"/><line style="stroke:#2C5C8F;stroke-width:0.5;" x1="346.4159" x2="346.4159" y1="85.2969" y2="161.1719"/><text fill="#0A1B2E" font-family="'Helvetica'" font-size="12" font-style="italic" lengthAdjust="spacing" textLength="62.1621" x="265.9169" y="106.4355">&#171;userFull&#187;</text><text fill="#0A1B2E" font-family="'Helvetica'" font-size="12" font-weight="700" lengthAdjust="spacing" textLength="30.9434" x="262.58" y="120.4043">User</text><text fill="#0A1B2E" font-family="'Helvetica'" font-size="12" lengthAdjust="spacing" textLength="61.541" x="262.58" y="134.373">registered</text><text fill="#0A1B2E" font-family="'Helvetica'" font-size="12" lengthAdjust="spacing" textLength="68.8359" x="262.58" y="148.3418">&amp; logged in</text></g><!--entity EntryHub--><g class="entity" data-qualified-name="Internal Mesh.EntryHub" data-source-line="41" id="ent0007"><polygon fill="url(#g16k0xy6mztyda2)" filter="url(#f16k0xy6mztyda)" points="110.81,243.1769,120.81,233.1769,219.183,233.1769,219.183,281.1144,209.183,291.1144,110.81,291.1144,110.81,243.1769" style="stroke:#0A1B36;stroke-width:0.5;stroke-linejoin:miter;stroke-miterlimit:10;"/><line style="stroke:#0A1B36;stroke-width:0.5;" x1="209.183" x2="219.183" y1="243.1769" y2="233.1769"/><line style="stroke:#0A1B36;stroke-width:0.5;" x1="110.81" x2="209.183" y1="243.1769" y2="243.1769"/><line style="stroke:#0A1B36;stroke-width:0.5;" x1="209.183" x2="209.183" y1="243.1769" y2="291.1144"/><text fill="#F0F0F0" font-family="'Helvetica'" font-size="12" font-style="italic" lengthAdjust="spacing" textLength="57.7969" x="131.0981" y="264.3155">&#171;service&#187;</text><text fill="#F0F0F0" font-family="'Helvetica'" font-size="12" font-weight="700" lengthAdjust="spacing" textLength="68.373" x="125.81" y="278.2843">Entry-Hub</text></g><!--entity StorageService--><g class="entity" data-qualified-name="Internal Mesh.StorageService" data-source-line="42" id="ent0008"><polygon fill="url(#g16k0xy6mztyda2)" filter="url(#f16k0xy6mztyda)" points="227.88,351.1169,237.88,341.1169,376.1144,341.1169,376.1144,389.0544,366.1144,399.0544,227.88,399.0544,227.88,351.1169" style="stroke:#0A1B36;stroke-width:0.5;stroke-linejoin:miter;stroke-miterlimit:10;"/><line style="stroke:#0A1B36;stroke-width:0.5;" x1="366.1144" x2="376.1144" y1="351.1169" y2="341.1169"/><line style="stroke:#0A1B36;stroke-width:0.5;" x1="227.88" x2="366.1144" y1="351.1169" y2="351.1169"/><line style="stroke:#0A1B36;stroke-width:0.5;" x1="366.1144" x2="366.1144" y1="351.1169" y2="399.0544"/><text fill="#F0F0F0" font-family="'Helvetica'" font-size="12" font-style="italic" lengthAdjust="spacing" textLength="57.7969" x="268.0988" y="372.2555">&#171;service&#187;</text><text fill="#F0F0F0" font-family="'Helvetica'" font-size="12" font-weight="700" lengthAdjust="spacing" textLength="108.2344" x="242.88" y="386.2243">Storage-Service</text></g><!--entity SecuritySwitch--><g class="entity" data-qualified-name="Internal Mesh.SecuritySwitch" data-source-line="43" id="ent0009"><polygon fill="url(#g16k0xy6mztyda2)" filter="url(#f16k0xy6mztyda)" points="51.88,351.1169,61.88,341.1169,198.1222,341.1169,198.1222,389.0544,188.1222,399.0544,51.88,399.0544,51.88,351.1169" style="stroke:#0A1B36;stroke-width:0.5;stroke-linejoin:miter;stroke-miterlimit:10;"/><line style="stroke:#0A1B36;stroke-width:0.5;" x1="188.1222" x2="198.1222" y1="351.1169" y2="341.1169"/><line style="stroke:#0A1B36;stroke-width:0.5;" x1="51.88" x2="188.1222" y1="351.1169" y2="351.1169"/><line style="stroke:#0A1B36;stroke-width:0.5;" x1="188.1222" x2="188.1222" y1="351.1169" y2="399.0544"/><text fill="#F0F0F0" font-family="'Helvetica'" font-size="12" font-style="italic" lengthAdjust="spacing" textLength="57.7969" x="91.1027" y="372.2555">&#171;service&#187;</text><text fill="#F0F0F0" font-family="'Helvetica'" font-size="12" font-weight="700" lengthAdjust="spacing" textLength="106.2422" x="66.88" y="386.2243">Security-Switch</text></g><!--entity DatabaseVault--><g class="entity" data-qualified-name="Internal Mesh.DatabaseVault" data-source-line="44" id="ent0010"><polygon fill="url(#g16k0xy6mztyda2)" filter="url(#f16k0xy6mztyda)" points="221.69,459.0469,231.69,449.0469,366.3091,449.0469,366.3091,496.9844,356.3091,506.9844,221.69,506.9844,221.69,459.0469" style="stroke:#0A1B36;stroke-width:0.5;stroke-linejoin:miter;stroke-miterlimit:10;"/><line style="stroke:#0A1B36;stroke-width:0.5;" x1="356.3091" x2="366.3091" y1="459.0469" y2="449.0469"/><line style="stroke:#0A1B36;stroke-width:0.5;" x1="221.69" x2="356.3091" y1="459.0469" y2="459.0469"/><line style="stroke:#0A1B36;stroke-width:0.5;" x1="356.3091" x2="356.3091" y1="459.0469" y2="506.9844"/><text fill="#F0F0F0" font-family="'Helvetica'" font-size="12" font-style="italic" lengthAdjust="spacing" textLength="57.7969" x="260.1011" y="480.1855">&#171;service&#187;</text><text fill="#F0F0F0" font-family="'Helvetica'" font-size="12" font-weight="700" lengthAdjust="spacing" textLength="104.6191" x="236.69" y="494.1543">Database-Vault</text></g><!--entity NetworkManager--><g class="entity" data-qualified-name="Internal Mesh.NetworkManager" data-source-line="45" id="ent0011"><polygon fill="url(#g16k0xy6mztyda2)" filter="url(#f16k0xy6mztyda)" points="30.27,459.0469,40.27,449.0469,191.7231,449.0469,191.7231,496.9844,181.7231,506.9844,30.27,506.9844,30.27,459.0469" style="stroke:#0A1B36;stroke-width:0.5;stroke-linejoin:miter;stroke-miterlimit:10;"/><line style="stroke:#0A1B36;stroke-width:0.5;" x1="181.7231" x2="191.7231" y1="459.0469" y2="449.0469"/><line style="stroke:#0A1B36;stroke-width:0.5;" x1="30.27" x2="181.7231" y1="459.0469" y2="459.0469"/><line style="stroke:#0A1B36;stroke-width:0.5;" x1="181.7231" x2="181.7231" y1="459.0469" y2="506.9844"/><text fill="#F0F0F0" font-family="'Helvetica'" font-size="12" font-style="italic" lengthAdjust="spacing" textLength="57.7969" x="77.0981" y="480.1855">&#171;service&#187;</text><text fill="#F0F0F0" font-family="'Helvetica'" font-size="12" font-weight="700" lengthAdjust="spacing" textLength="121.4531" x="45.27" y="494.1543">Network-Manager</text></g><!--entity CA--><g class="entity" data-qualified-name="Internal Mesh.CA" data-source-line="46" id="ent0012"><polygon fill="url(#g16k0xy6mztyda3)" filter="url(#f16k0xy6mztyda)" points="395.97,459.0469,405.97,449.0469,576.0266,449.0469,576.0266,496.9844,566.0266,506.9844,395.97,506.9844,395.97,459.0469" style="stroke:#4A2E68;stroke-width:0.5;stroke-linejoin:miter;stroke-miterlimit:10;"/><line style="stroke:#4A2E68;stroke-width:0.5;" x1="566.0266" x2="576.0266" y1="459.0469" y2="449.0469"/><line style="stroke:#4A2E68;stroke-width:0.5;" x1="395.97" x2="566.0266" y1="459.0469" y2="459.0469"/><line style="stroke:#4A2E68;stroke-width:0.5;" x1="566.0266" x2="566.0266" y1="459.0469" y2="506.9844"/><text fill="#F0F0F0" font-family="'Helvetica'" font-size="12" font-style="italic" lengthAdjust="spacing" textLength="93.9727" x="434.012" y="480.1855">&#171;certAuthority&#187;</text><text fill="#F0F0F0" font-family="'Helvetica'" font-size="12" font-weight="700" lengthAdjust="spacing" textLength="140.0566" x="410.97" y="494.1543">Certificate-Authority</text></g><g class="entity" data-qualified-name="Internal Mesh.GMN17" data-source-line="54" id="ent0018"><path d="M245.84,564.9869 L245.84,586.9244 A8,8 0 0 0 253.84,594.9244 L568.1564,594.9244 A8,8 0 0 0 576.1564,586.9244 L576.1564,566.9869 L566.1564,556.9869 L429.37,556.9869 L463.9,507.2869 L421.37,556.9869 L253.84,556.9869 A8,8 0 0 0 245.84,564.9869" fill="#FEFFDD" filter="url(#f16k0xy6mztyda)" style="stroke:#181818;stroke-width:0.5;"/><path d="M566.1564,556.9869 L566.1564,562.9869 A4,4 0 0 0 570.1564,566.9869 L576.1564,566.9869 L566.1564,556.9869" fill="#FEFFDD" style="stroke:#181818;stroke-width:0.5;"/><text fill="#000000" font-family="'Helvetica'" font-size="12" lengthAdjust="spacing" textLength="309.3164" x="251.84" y="573.1255">Certificate-Authority can reach, and be reached by,</text><text fill="#000000" font-family="'Helvetica'" font-size="12" lengthAdjust="spacing" textLength="222.8262" x="251.84" y="587.0943">every internal component (NM-F-04).</text></g><!--link UnauthUser to AuthUser--><!--link EntryHub to StorageService--><!--link SecuritySwitch to DatabaseVault--><!--link SecuritySwitch to DatabaseVault--><g class="link" data-entity-1="ent0009" data-entity-2="ent0010" data-link-type="dependency" data-source-line="65" id="lnk25"><path d="M184.6875,402.0156 C210.4775,417.2156 231.7948,430.5558 254.5348,445.7758" fill="none" id="SecuritySwitch-DatabaseVault-1" style="stroke:#333333;stroke-width:1;"/><polygon fill="#333333" points="180.38,399.4769,186.1025,407.4926,184.6875,402.0156,190.1645,400.6006,180.38,399.4769" style="stroke:#333333;stroke-width:1;stroke-linejoin:miter;stroke-miterlimit:10;"/><polygon fill="#333333" points="258.69,448.5569,253.4355,440.2268,254.5348,445.7758,248.9858,446.8751,258.69,448.5569" style="stroke:#333333;stroke-width:1;stroke-linejoin:miter;stroke-miterlimit:10;"/></g><!--link DatabaseVault to NetworkManager--><!--link NetworkManager to CA--><!--link UnauthUser to EntryHub--><g class="link" data-entity-1="ent0002" data-entity-2="ent0007" data-link-type="dependency" data-source-line="59" id="lnk20"><path d="M139,161.4269 C145.01,184.4669 151.03,207.5382 156.35,227.9682" fill="none" id="UnauthUser-to-EntryHub" style="stroke:#333333;stroke-width:1;"/><polygon fill="#333333" points="157.61,232.8069,159.2129,223.0893,156.35,227.9682,151.4711,225.1053,157.61,232.8069" style="stroke:#333333;stroke-width:1;stroke-linejoin:miter;stroke-miterlimit:10;"/></g><!--link AuthUser to EntryHub--><g class="link" data-entity-1="ent0004" data-entity-2="ent0007" data-link-type="dependency" data-source-line="60" id="lnk21"><path d="M261.27,161.4269 C239.02,184.4669 215.5525,208.7794 195.8325,229.2094" fill="none" id="AuthUser-to-EntryHub" style="stroke:#333333;stroke-width:1;"/><polygon fill="#333333" points="192.36,232.8069,201.4884,229.1094,195.8325,229.2094,195.7325,223.5534,192.36,232.8069" style="stroke:#333333;stroke-width:1;stroke-linejoin:miter;stroke-miterlimit:10;"/></g><!--link AuthUser to StorageService--><g class="link" data-entity-1="ent0004" data-entity-2="ent0008" data-link-type="dependency" data-source-line="61" id="lnk22"><path d="M302,161.6169 C302,212.7169 302,292.1569 302,335.8869" fill="none" id="AuthUser-to-StorageService" style="stroke:#333333;stroke-width:1;"/><polygon fill="#333333" points="302,340.8869,306,331.8869,302,335.8869,298,331.8869,302,340.8869" style="stroke:#333333;stroke-width:1;stroke-linejoin:miter;stroke-miterlimit:10;"/></g><!--link EntryHub to SecuritySwitch--><g class="link" data-entity-1="ent0007" data-entity-2="ent0009" data-link-type="dependency" data-source-line="63" id="lnk23"><path d="M154.28,291.5369 C148.54,306.7369 143.2554,320.7289 137.5154,335.9389" fill="none" id="EntryHub-to-SecuritySwitch" style="stroke:#333333;stroke-width:1;"/><polygon fill="#333333" points="135.75,340.6169,142.6701,333.6088,137.5154,335.9389,135.1853,330.7842,135.75,340.6169" style="stroke:#333333;stroke-width:1;stroke-linejoin:miter;stroke-miterlimit:10;"/></g><!--link StorageService to DatabaseVault--><g class="link" data-entity-1="ent0008" data-entity-2="ent0010" data-link-type="dependency" data-source-line="64" id="lnk24"><path d="M299.86,399.4769 C298.71,414.6769 297.6767,428.3511 296.5267,443.5711" fill="none" id="StorageService-to-DatabaseVault" style="stroke:#333333;stroke-width:1;"/><polygon fill="#333333" points="296.15,448.5569,300.8167,439.8838,296.5267,443.5711,292.8395,439.2811,296.15,448.5569" style="stroke:#333333;stroke-width:1;stroke-linejoin:miter;stroke-miterlimit:10;"/></g><!--link SecuritySwitch to NetworkManager--><g class="link" data-entity-1="ent0009" data-entity-2="ent0011" data-link-type="dependency" data-source-line="66" id="lnk26"><path d="M120.5945,404.4337 C118.5845,419.6337 117.4246,428.3799 115.4146,443.5999" fill="none" id="SecuritySwitch-NetworkManager" style="stroke:#333333;stroke-width:1;"/><polygon fill="#333333" points="121.25,399.4769,116.1047,407.8748,120.5945,404.4337,124.0356,408.9236,121.25,399.4769" style="stroke:#333333;stroke-width:1;stroke-linejoin:miter;stroke-miterlimit:10;"/><polygon fill="#333333" points="114.76,448.5569,119.9039,440.1581,115.4146,443.5999,111.9728,439.1106,114.76,448.5569" style="stroke:#333333;stroke-width:1;stroke-linejoin:miter;stroke-miterlimit:10;"/></g><?plantuml-src dLJXRjis4FwlfxWcm9eObksaJTeOXW55iT41JGeixNwi6GPQEik4AT8WgGHQCM0FqIVia_H8gxR4rTqm_p5ukllklky-yXcNcQXoX3-ChGKEDbKfeiXoAn3UwyfO-4r9D6EuHRE2ExHFIg_X5sJPYYsuuBQE8hFcSiCqAq6g70rkuCMe5THChbtmeXrCj5PFSoNjFVyJuUmiYfv3PL2_vIMtc8-1W9YjDAC3y0pZXQXmM6YiuSlVdw6IhB8hb9PdBgCF6etLF7FPsWqt2AQQJ5heqobyYW2kMROkjAfadYgXD1odLpUNDxFXSVBwEabVkGobSzJDrulqSlOgeQWRkucTlJmVdLz7VpNJpoiXnc1OYRkPOSbABcfW1YOJbbcbfzC-B2fB3763UbWgZR3dIkm8B62t9DmVyN9z3v6wIjCNiz7m-7AUZDAhaDHvUf6-ddT9ZPApw_EP9pMP4FeZSI5qBgqRIKacYC_Tk_SqKOvBBcdg5MeSKmRzEu69RSmDBBKg2QHbBJYHxB66bZ2d0xXHHCK2owaEXCgOe0ILhM59qt3h5suG0wHCbIND0qh2Nf8ITS5b0IHiR52WqxllqLt4emuYpoj3RHDIMT70DR4x8RmDMLtQeTFr56Z-Z4wQ2N8eUL2sku-1zaCuAQ7mfLzJl4FpYt5-C9J5B9WLqmuXT_BHPtn4NJyvoOYTM_PcWqoRxPoD0gJmNjtCxyKLqF0RMZ0h48u-TEy0VA1L-Tjwv8tWXpZgzLourtkG6WjkB67a_GVfEWbL59xOaJFd5irZ17U5ZB1lclo_bW_ofw1VqkssTR1hrHea_hZYEQdsk-R5oiQxcjOyFvCfDJdIlq_TAMQql3f-KorwFT_Hd-dODdKh_PwiGf3n_VPRKzH4c-2XKimgj_Zu_edRRFMjj8bkWmTARvXb2sOm_fLLmZQLtu8-Tg2mUOhZMoPfFjrKDj4cUA3qkwPj0DBadtSZejgTUE5EkW9HPa0xpEzme_Gkrp2xouVI0u9XVff4dgX5M2XhLGbgwO90l-_VrOp9xSlQ1oPpME3sH4PTr7rVvw-hV_syqNRl19pStSRpUFJoT41vICMkRsZXUBhJBah-FHh86UrrTnyxqaQ1Drr6LztGWVyj8z3yAm00?></g></svg>