<svg xmlns="http://www.w3.org/2000/svg" xmlns:xlink="http://www.w3.org/1999/xlink" contentStyleType="text/css" data-diagram-type="SEQUENCE" height="706px" preserveAspectRatio="none" style="width:1308px;height:706px;background:#FFFFFF;" version="1.1" viewBox="0 0 1308 706" width="1308px" zoomAndPan="magnify"><?plantuml 1.2026.6?><defs><filter height="300%" id="f1onkaui7mvnwm" width="300%" x="-1" y="-1"><feGaussianBlur result="blurOut" stdDeviation="2"/><feColorMatrix in="blurOut" result="blurOut2" type="matrix" values="0 0 0 0 0 0 0 0 0 0 0 0 0 0 0 0 0 0 .4 0"/><feOffset dx="4" dy="4" in="blurOut2" result="blurOut3"/><feBlend in="SourceGraphic" in2="blurOut3" mode="normal"/></filter><linearGradient id="g1onkaui7mvnwm0" x1="0%" x2="100%" y1="0%" y2="100%"><stop offset="0%" stop-color="#2A4A7F"/><stop offset="100%" stop-color="#1B3A6B"/></linearGradient><linearGradient id="g1onkaui7mvnwm1" x1="0%" x2="100%" y1="0%" y2="100%"><stop offset="0%" stop-color="#6FA3B0"/><stop offset="100%" stop-color="#4A7E8C"/></linearGradient><linearGradient id="g1onkaui7mvnwm2" x1="0%" x2="100%" y1="0%" y2="100%"><stop offset="0%" stop-color="#E8C766"/><stop offset="100%" stop-color="#C9A227"/></linearGradient><linearGradient id="g1onkaui7mvnwm3" x1="0%" x2="100%" y1="0%" y2="100%"><stop offset="0%" stop-color="#B7CEEA"/><stop offset="100%" stop-color="#7FA8D9"/></linearGradient></defs><g><g class="title" data-source-line="3"><text fill="#000000" font-family="'Helvetica'" font-size="14" font-weight="700" lengthAdjust="spacing" textLength="100.2422" x="600.8398" y="27.9951">Metrics Flow</text></g><rect fill="none" filter="url(#f1onkaui7mvnwm)" height="100.875" rx="8" ry="8" style="stroke:#000000;stroke-width:1.5;" width="514.9414" x="591.5059" y="299.9219"/><g class="participant-lifeline" data-entity-uid="part1" data-qualified-name="Services" data-source-line="5" id="part1-lifeline"><g><title>..service..</title><rect fill="#000000" fill-opacity="0.00000" height="502.3438" width="8" x="213.9033" y="120.1719"/><line style="stroke:#181818;stroke-width:0.5;stroke-dasharray:5,5;" x1="217" x2="217" y1="120.1719" y2="622.5156"/></g></g><g class="participant-lifeline" data-entity-uid="part2" data-qualified-name="Broker" data-source-line="6" id="part2-lifeline"><g><title>..infra..</title><rect fill="#000000" fill-opacity="0.00000" height="502.3438" width="8" x="454.5879" y="120.1719"/><line style="stroke:#181818;stroke-width:0.5;stroke-dasharray:5,5;" x1="457.8066" x2="457.8066" y1="120.1719" y2="622.5156"/></g></g><g class="participant-lifeline" data-entity-uid="part3" data-qualified-name="Collector" data-source-line="7" id="part3-lifeline"><g><title>..infra..</title><rect fill="#000000" fill-opacity="0.00000" height="502.3438" width="8" x="656.625" y="120.1719"/><line style="stroke:#181818;stroke-width:0.5;stroke-dasharray:5,5;" x1="660.5059" x2="660.5059" y1="120.1719" y2="622.5156"/></g></g><g class="participant-lifeline" data-entity-uid="part4" data-qualified-name="TSDB" data-source-line="8" id="part4-lifeline"><g><title>TimescaleDB</title><rect fill="#000000" fill-opacity="0.00000" height="502.3438" width="8" x="793.0488" y="120.1719"/><line style="stroke:#181818;stroke-width:0.5;stroke-dasharray:5,5;" x1="796.9844" x2="796.9844" y1="120.1719" y2="622.5156"/></g></g><g class="participant-lifeline" data-entity-uid="part5" data-qualified-name="Grafana" data-source-line="9" id="part5-lifeline"><g><title>..infra..</title><rect fill="#000000" fill-opacity="0.00000" height="502.3438" width="8" x="1068.709" y="120.1719"/><line style="stroke:#181818;stroke-width:0.5;stroke-dasharray:5,5;" x1="1072.1475" x2="1072.1475" y1="120.1719" y2="622.5156"/></g></g><g class="participant-lifeline" data-entity-uid="part6" data-qualified-name="Admin" data-source-line="10" id="part6-lifeline"><g><title>Admin</title><rect fill="#000000" fill-opacity="0.00000" height="502.3438" width="8" x="1266.4219" y="120.1719"/><line style="stroke:#181818;stroke-width:0.5;stroke-dasharray:5,5;" x1="1269.9219" x2="1269.9219" y1="120.1719" y2="622.5156"/></g></g><g class="participant participant-head" data-entity-uid="part1" data-qualified-name="Services" data-source-line="5" id="part1-head"><rect fill="url(#g1onkaui7mvnwm0)" filter="url(#f1onkaui7mvnwm)" height="69.875" rx="8" ry="8" style="stroke:#0A1B36;stroke-width:0.5;" width="358.8066" x="39" y="42.2969"/><rect fill="url(#g1onkaui7mvnwm0)" filter="url(#f1onkaui7mvnwm)" height="69.875" rx="8" ry="8" style="stroke:#0A1B36;stroke-width:0.5;" width="358.8066" x="35" y="46.2969"/><text fill="#F0F0F0" font-family="'Helvetica'" font-size="12" font-style="italic" lengthAdjust="spacing" textLength="57.7969" x="185.5049" y="64.4355">&#171;service&#187;</text><text fill="#F0F0F0" font-family="'Helvetica'" font-size="12" lengthAdjust="spacing" textLength="50.6016" x="189.1025" y="78.4043">Services</text><text fill="#F0F0F0" font-family="'Helvetica'" font-size="12" lengthAdjust="spacing" textLength="270.334" x="79.2363" y="92.373">(Entry-Hub, Security-Switch, Database-Vault,</text><text fill="#F0F0F0" font-family="'Helvetica'" font-size="12" lengthAdjust="spacing" textLength="344.8066" x="42" y="106.3418">Storage-Service, Network-Manager, Certificate-Authority)</text></g><g class="participant participant-tail" data-entity-uid="part1" data-qualified-name="Services" data-source-line="5" id="part1-tail"><rect fill="url(#g1onkaui7mvnwm0)" filter="url(#f1onkaui7mvnwm)" height="69.875" rx="8" ry="8" style="stroke:#0A1B36;stroke-width:0.5;" width="358.8066" x="39" y="621.5156"/><rect fill="url(#g1onkaui7mvnwm0)" filter="url(#f1onkaui7mvnwm)" height="69.875" rx="8" ry="8" style="stroke:#0A1B36;stroke-width:0.5;" width="358.8066" x="35" y="625.5156"/><text fill="#F0F0F0" font-family="'Helvetica'" font-size="12" font-style="italic" lengthAdjust="spacing" textLength="57.7969" x="185.5049" y="643.6543">&#171;service&#187;</text><text fill="#F0F0F0" font-family="'Helvetica'" font-size="12" lengthAdjust="spacing" textLength="50.6016" x="189.1025" y="657.623">Services</text><text fill="#F0F0F0" font-family="'Helvetica'" font-size="12" lengthAdjust="spacing" textLength="270.334" x="79.2363" y="671.5918">(Entry-Hub, Security-Switch, Database-Vault,</text><text fill="#F0F0F0" font-family="'Helvetica'" font-size="12" lengthAdjust="spacing" textLength="344.8066" x="42" y="685.5605">Storage-Service, Network-Manager, Certificate-Authority)</text></g><g class="participant participant-head" data-entity-uid="part2" data-qualified-name="Broker" data-source-line="6" id="part2-head"><rect fill="url(#g1onkaui7mvnwm1)" filter="url(#f1onkaui7mvnwm)" height="55.9063" rx="8" ry="8" style="stroke:#2F5A66;stroke-width:0.5;" width="92.5625" x="410.8066" y="60.2656"/><text fill="#0A1B22" font-family="'Helvetica'" font-size="12" font-style="italic" lengthAdjust="spacing" textLength="42.2637" x="435.9561" y="78.4043">&#171;infra&#187;</text><text fill="#0A1B22" font-family="'Helvetica'" font-size="12" lengthAdjust="spacing" textLength="78.5625" x="417.8066" y="92.373">MQTT-Broker</text><text fill="#0A1B22" font-family="'Helvetica'" font-size="12" lengthAdjust="spacing" textLength="68.6191" x="422.7783" y="106.3418">[Mosquitto]</text></g><g class="participant participant-tail" data-entity-uid="part2" data-qualified-name="Broker" data-source-line="6" id="part2-tail"><rect fill="url(#g1onkaui7mvnwm1)" filter="url(#f1onkaui7mvnwm)" height="55.9063" rx="8" ry="8" style="stroke:#2F5A66;stroke-width:0.5;" width="92.5625" x="410.8066" y="621.5156"/><text fill="#0A1B22" font-family="'Helvetica'" font-size="12" font-style="italic" lengthAdjust="spacing" textLength="42.2637" x="435.9561" y="639.6543">&#171;infra&#187;</text><text fill="#0A1B22" font-family="'Helvetica'" font-size="12" lengthAdjust="spacing" textLength="78.5625" x="417.8066" y="653.623">MQTT-Broker</text><text fill="#0A1B22" font-family="'Helvetica'" font-size="12" lengthAdjust="spacing" textLength="68.6191" x="422.7783" y="667.5918">[Mosquitto]</text></g><g class="participant participant-head" data-entity-uid="part3" data-qualified-name="Collector" data-source-line="7" id="part3-head"><rect fill="url(#g1onkaui7mvnwm1)" filter="url(#f1onkaui7mvnwm)" height="41.9375" rx="8" ry="8" style="stroke:#2F5A66;stroke-width:0.5;" width="115.2383" x="601.5059" y="74.2344"/><text fill="#0A1B22" font-family="'Helvetica'" font-size="12" font-style="italic" lengthAdjust="spacing" textLength="42.2637" x="637.9932" y="92.373">&#171;infra&#187;</text><text fill="#0A1B22" font-family="'Helvetica'" font-size="12" lengthAdjust="spacing" textLength="101.2383" x="608.5059" y="106.3418">Metrics-Collector</text></g><g class="participant participant-tail" data-entity-uid="part3" data-qualified-name="Collector" data-source-line="7" id="part3-tail"><rect fill="url(#g1onkaui7mvnwm1)" filter="url(#f1onkaui7mvnwm)" height="41.9375" rx="8" ry="8" style="stroke:#2F5A66;stroke-width:0.5;" width="115.2383" x="601.5059" y="621.5156"/><text fill="#0A1B22" font-family="'Helvetica'" font-size="12" font-style="italic" lengthAdjust="spacing" textLength="42.2637" x="637.9932" y="639.6543">&#171;infra&#187;</text><text fill="#0A1B22" font-family="'Helvetica'" font-size="12" lengthAdjust="spacing" textLength="101.2383" x="608.5059" y="653.623">Metrics-Collector</text></g><g class="participant participant-head" data-entity-uid="part4" data-qualified-name="TSDB" data-source-line="8" id="part4-head"><text fill="#000000" font-family="'Helvetica'" font-size="12" lengthAdjust="spacing" textLength="78.1289" x="754.9844" y="117.3418">TimescaleDB</text><path d="M779.0488,70.2031 C779.0488,60.2031 797.0488,60.2031 797.0488,60.2031 C797.0488,60.2031 815.0488,60.2031 815.0488,70.2031 L815.0488,96.2031 C815.0488,106.2031 797.0488,106.2031 797.0488,106.2031 C797.0488,106.2031 779.0488,106.2031 779.0488,96.2031 L779.0488,70.2031" fill="url(#g1onkaui7mvnwm2)" filter="url(#f1onkaui7mvnwm)" style="stroke:#8B6F1A;stroke-width:0.5;"/><path d="M779.0488,70.2031 C779.0488,80.2031 797.0488,80.2031 797.0488,80.2031 C797.0488,80.2031 815.0488,80.2031 815.0488,70.2031" fill="none" style="stroke:#8B6F1A;stroke-width:0.5;"/></g><g class="participant participant-tail" data-entity-uid="part4" data-qualified-name="TSDB" data-source-line="8" id="part4-tail"><text fill="#000000" font-family="'Helvetica'" font-size="12" lengthAdjust="spacing" textLength="78.1289" x="754.9844" y="632.6543">TimescaleDB</text><path d="M779.0488,645.4844 C779.0488,635.4844 797.0488,635.4844 797.0488,635.4844 C797.0488,635.4844 815.0488,635.4844 815.0488,645.4844 L815.0488,671.4844 C815.0488,681.4844 797.0488,681.4844 797.0488,681.4844 C797.0488,681.4844 779.0488,681.4844 779.0488,671.4844 L779.0488,645.4844" fill="url(#g1onkaui7mvnwm2)" filter="url(#f1onkaui7mvnwm)" style="stroke:#8B6F1A;stroke-width:0.5;"/><path d="M779.0488,645.4844 C779.0488,655.4844 797.0488,655.4844 797.0488,655.4844 C797.0488,655.4844 815.0488,655.4844 815.0488,645.4844" fill="none" style="stroke:#8B6F1A;stroke-width:0.5;"/></g><g class="participant participant-head" data-entity-uid="part5" data-qualified-name="Grafana" data-source-line="9" id="part5-head"><rect fill="url(#g1onkaui7mvnwm1)" filter="url(#f1onkaui7mvnwm)" height="41.9375" rx="8" ry="8" style="stroke:#2F5A66;stroke-width:0.5;" width="62.123" x="1040.1475" y="74.2344"/><text fill="#0A1B22" font-family="'Helvetica'" font-size="12" font-style="italic" lengthAdjust="spacing" textLength="42.2637" x="1050.0771" y="92.373">&#171;infra&#187;</text><text fill="#0A1B22" font-family="'Helvetica'" font-size="12" lengthAdjust="spacing" textLength="48.123" x="1047.1475" y="106.3418">Grafana</text></g><g class="participant participant-tail" data-entity-uid="part5" data-qualified-name="Grafana" data-source-line="9" id="part5-tail"><rect fill="url(#g1onkaui7mvnwm1)" filter="url(#f1onkaui7mvnwm)" height="41.9375" rx="8" ry="8" style="stroke:#2F5A66;stroke-width:0.5;" width="62.123" x="1040.1475" y="621.5156"/><text fill="#0A1B22" font-family="'Helvetica'" font-size="12" font-style="italic" lengthAdjust="spacing" textLength="42.2637" x="1050.0771" y="639.6543">&#171;infra&#187;</text><text fill="#0A1B22" font-family="'Helvetica'" font-size="12" lengthAdjust="spacing" textLength="48.123" x="1047.1475" y="653.623">Grafana</text></g><g class="participant participant-head" data-entity-uid="part6" data-qualified-name="Admin" data-source-line="10" id="part6-head"><text fill="#000000" font-family="'Helvetica'" font-size="12" lengthAdjust="spacing" textLength="38.4551" x="1248.1943" y="117.3418">Admin</text><ellipse cx="1270.4219" cy="61.7031" fill="url(#g1onkaui7mvnwm3)" filter="url(#f1onkaui7mvnwm)" rx="16" ry="16" style="stroke:#3A6EA5;stroke-width:0.5;"/><path d="M1270.4219,81.7031 C1274.4219,81.7031 1277.4219,81.7031 1281.4219,77.7031 C1289.4219,77.7031 1297.4219,85.7031 1297.4219,93.7031 L1297.4219,97.7031 C1297.4219,101.7031 1293.4219,105.7031 1289.4219,105.7031 L1251.4219,105.7031 C1247.4219,105.7031 1243.4219,101.7031 1243.4219,97.7031 L1243.4219,93.7031 C1243.4219,85.7031 1251.4219,77.7031 1259.4219,77.7031 C1263.4219,81.7031 1266.4219,81.7031 1270.4219,81.7031" fill="url(#g1onkaui7mvnwm3)" filter="url(#f1onkaui7mvnwm)" style="stroke:#3A6EA5;stroke-width:0.5;"/></g><g class="participant participant-tail" data-entity-uid="part6" data-qualified-name="Admin" data-source-line="10" id="part6-tail"><text fill="#000000" font-family="'Helvetica'" font-size="12" lengthAdjust="spacing" textLength="38.4551" x="1248.1943" y="632.6543">Admin</text><ellipse cx="1270.4219" cy="651.9844" fill="url(#g1onkaui7mvnwm3)" filter="url(#f1onkaui7mvnwm)" rx="16" ry="16" style="stroke:#3A6EA5;stroke-width:0.5;"/><path d="M1270.4219,671.9844 C1274.4219,671.9844 1277.4219,671.9844 1281.4219,667.9844 C1289.4219,667.9844 1297.4219,675.9844 1297.4219,683.9844 L1297.4219,687.9844 C1297.4219,691.9844 1293.4219,695.9844 1289.4219,695.9844 L1251.4219,695.9844 C1247.4219,695.9844 1243.4219,691.9844 1243.4219,687.9844 L1243.4219,683.9844 C1243.4219,675.9844 1251.4219,667.9844 1259.4219,667.9844 C1263.4219,671.9844 1266.4219,671.9844 1270.4219,671.9844" fill="url(#g1onkaui7mvnwm3)" filter="url(#f1onkaui7mvnwm)" style="stroke:#3A6EA5;stroke-width:0.5;"/></g><path d="M5,143.1719 L5,220.1719 A8,8 0 0 0 13,228.1719 L421,228.1719 A8,8 0 0 0 429,220.1719 L429,145.1719 L419,135.1719 L13,135.1719 A8,8 0 0 0 5,143.1719" fill="#FEFFDD" filter="url(#f1onkaui7mvnwm)" style="stroke:#181818;stroke-width:0.5;"/><path d="M419,135.1719 L419,141.1719 A4,4 0 0 0 423,145.1719 L429,145.1719 L419,135.1719" fill="#FEFFDD" style="stroke:#181818;stroke-width:0.5;"/><text fill="#000000" font-family="'Helvetica'" font-size="12" lengthAdjust="spacing" textLength="386.1738" x="11" y="151.3105">Every service publishes, every minute and only, to its dedicated</text><text fill="#000000" font-family="'Helvetica'" font-size="12" font-weight="700" lengthAdjust="spacing" textLength="163.8281" x="11" y="165.2793">metrics/&lt;ServiceName&gt;</text><text fill="#000000" font-family="'Helvetica'" font-size="12" lengthAdjust="spacing" textLength="235.6523" x="178.6426" y="165.2793">topic via mTLS, after verifying the peer</text><text fill="#000000" font-family="'Helvetica'" font-size="12" lengthAdjust="spacing" textLength="386.4844" x="11" y="179.248">certificate comes from an MQTT-Broker and is a valid X.509 cert</text><text fill="#000000" font-family="'Helvetica'" font-size="12" lengthAdjust="spacing" textLength="336.4688" x="11" y="193.2168">(EH-F-10, SS-F-07, DV-F-16, ST-F-12, NM-F-17, CA-F-03).</text><text fill="#000000" font-family="'Helvetica'" font-size="12" lengthAdjust="spacing" textLength="366.9316" x="11" y="207.1855">Metrics carry aggregated statistics only: never personal data</text><text fill="#000000" font-family="'Helvetica'" font-size="12" lengthAdjust="spacing" textLength="281.4199" x="11" y="221.1543">(EH-F-11, SS-F-08, DV-F-17, ST-F-13, NM-F-18).</text><g class="message" data-entity-1="part1" data-entity-2="part2" data-source-line="21" id="msg1"><polygon fill="#333333" points="446.5879,252.9531,456.5879,256.9531,446.5879,260.9531,450.5879,256.9531" style="stroke:#333333;stroke-width:1;stroke-linejoin:miter;stroke-miterlimit:10;"/><line style="stroke:#333333;stroke-width:1;" x1="217.9033" x2="452.5879" y1="256.9531" y2="256.9531"/><text fill="#333333" font-family="'Helvetica'" font-size="12" lengthAdjust="spacing" textLength="195.9785" x="224.9033" y="252.123">publish metrics/&lt;ServiceName&gt;</text></g><g class="message" data-entity-1="part2" data-entity-2="part3" data-source-line="22" id="msg2"><polygon fill="#333333" points="648.625,280.9219,658.625,284.9219,648.625,288.9219,652.625,284.9219" style="stroke:#333333;stroke-width:1;stroke-linejoin:miter;stroke-miterlimit:10;"/><line style="stroke:#333333;stroke-width:1;" x1="458.5879" x2="654.625" y1="284.9219" y2="284.9219"/><text fill="#333333" font-family="'Helvetica'" font-size="12" lengthAdjust="spacing" textLength="178.0371" x="465.5879" y="280.0918">subscribe metrics/* (MT-F-01)</text></g><path d="M599.5059,299.9219 L654.4531,299.9219 L654.4531,305.8906 L644.4531,315.8906 L591.5059,315.8906 L591.5059,307.9219 A8,8 0 0 1 599.5059,299.9219" fill="#EEEEEE" style="stroke:#000000;stroke-width:1.5;"/><rect fill="none" height="100.875" rx="8" ry="8" style="stroke:#000000;stroke-width:1.5;" width="514.9414" x="591.5059" y="299.9219"/><text fill="#000000" font-family="'Helvetica'" font-size="12" font-weight="700" lengthAdjust="spacing" textLength="17.9473" x="606.5059" y="312.0605">alt</text><text fill="#000000" font-family="'Helvetica'" font-size="12" font-weight="700" lengthAdjust="spacing" textLength="431.9941" x="669.4531" y="313.0605">["service" field matches source topic (MT-F-02, Mosquitto ACL)]</text><g class="message" data-entity-1="part3" data-entity-2="part4" data-source-line="25" id="msg3"><polygon fill="#333333" points="785.0488,331.8594,795.0488,335.8594,785.0488,339.8594,789.0488,335.8594" style="stroke:#333333;stroke-width:1;stroke-linejoin:miter;stroke-miterlimit:10;"/><line style="stroke:#333333;stroke-width:1;" x1="660.625" x2="791.0488" y1="335.8594" y2="335.8594"/><text fill="#333333" font-family="'Helvetica'" font-size="12" lengthAdjust="spacing" textLength="112.4238" x="667.625" y="331.0293">insert (hypertable)</text></g><line style="stroke:#000000;stroke-width:1;stroke-dasharray:2,2;" x1="591.5059" x2="1106.4473" y1="344.8594" y2="344.8594"/><text fill="#000000" font-family="'Helvetica'" font-size="12" font-weight="700" lengthAdjust="spacing" textLength="111.0762" x="596.5059" y="355.998">[field mismatch]</text><g class="message" data-entity-1="part3" data-entity-2="part3" data-source-line="27" id="msg4"><line style="stroke:#333333;stroke-width:1;" x1="660.625" x2="702.625" y1="379.7969" y2="379.7969"/><line style="stroke:#333333;stroke-width:1;" x1="702.625" x2="702.625" y1="379.7969" y2="392.7969"/><line style="stroke:#333333;stroke-width:1;" x1="661.625" x2="702.625" y1="392.7969" y2="392.7969"/><polygon fill="#333333" points="671.625,388.7969,661.625,392.7969,671.625,396.7969,667.625,392.7969" style="stroke:#333333;stroke-width:1;stroke-linejoin:miter;stroke-miterlimit:10;"/><text fill="#333333" font-family="'Helvetica'" font-size="12" lengthAdjust="spacing" textLength="43.7051" x="667.625" y="374.9668">discard</text></g><path d="M802,420.7969 L802,441.7969 A8,8 0 0 0 810,449.7969 L1029,449.7969 A8,8 0 0 0 1037,441.7969 L1037,422.7969 L1027,412.7969 L810,412.7969 A8,8 0 0 0 802,420.7969" fill="#FEFFDD" filter="url(#f1onkaui7mvnwm)" style="stroke:#181818;stroke-width:0.5;"/><path d="M1027,412.7969 L1027,418.7969 A4,4 0 0 0 1031,422.7969 L1037,422.7969 L1027,412.7969" fill="#FEFFDD" style="stroke:#181818;stroke-width:0.5;"/><text fill="#000000" font-family="'Helvetica'" font-size="12" lengthAdjust="spacing" textLength="104.2969" x="808" y="428.9355">30-day retention,</text><text fill="#000000" font-family="'Helvetica'" font-size="12" lengthAdjust="spacing" textLength="214.043" x="808" y="442.9043">compression after 7 days (MT-F-03)</text><g class="message" data-entity-1="part6" data-entity-2="part5" data-source-line="35" id="msg5"><polygon fill="#333333" points="1083.709,502.6406,1073.709,506.6406,1083.709,510.6406,1079.709,506.6406" style="stroke:#333333;stroke-width:1;stroke-linejoin:miter;stroke-miterlimit:10;"/><line style="stroke:#333333;stroke-width:1;" x1="1077.709" x2="1269.4219" y1="506.6406" y2="506.6406"/><text fill="#333333" font-family="'Helvetica'" font-size="12" lengthAdjust="spacing" textLength="103.7051" x="1089.709" y="473.873">open dashboards</text><text fill="#333333" font-family="'Helvetica'" font-size="12" lengthAdjust="spacing" textLength="169.1602" x="1089.709" y="487.8418">(response time, throughput,</text><text fill="#333333" font-family="'Helvetica'" font-size="12" lengthAdjust="spacing" textLength="173.7129" x="1089.709" y="501.8105">active connections: MT-F-04)</text></g><g class="message" data-entity-1="part5" data-entity-2="part4" data-source-line="36" id="msg6"><polygon fill="#333333" points="808.0488,544.5781,798.0488,548.5781,808.0488,552.5781,804.0488,548.5781" style="stroke:#333333;stroke-width:1;stroke-linejoin:miter;stroke-miterlimit:10;"/><line style="stroke:#333333;stroke-width:1;" x1="802.0488" x2="1071.709" y1="548.5781" y2="548.5781"/><text fill="#333333" font-family="'Helvetica'" font-size="12" lengthAdjust="spacing" textLength="184.7344" x="814.0488" y="529.7793">query raw / hourly-daily views,</text><text fill="#333333" font-family="'Helvetica'" font-size="12" lengthAdjust="spacing" textLength="251.6602" x="814.0488" y="543.748">filtered by service &amp; metric name (UC-05)</text></g><g class="message" data-entity-1="part4" data-entity-2="part5" data-source-line="37" id="msg7"><polygon fill="#333333" points="1060.709,572.5469,1070.709,576.5469,1060.709,580.5469,1064.709,576.5469" style="stroke:#333333;stroke-width:1;stroke-linejoin:miter;stroke-miterlimit:10;"/><line style="stroke:#333333;stroke-width:1;stroke-dasharray:2,2;" x1="797.0488" x2="1066.709" y1="576.5469" y2="576.5469"/><text fill="#333333" font-family="'Helvetica'" font-size="12" lengthAdjust="spacing" textLength="40.4648" x="804.0488" y="571.7168">results</text></g><g class="message" data-entity-1="part5" data-entity-2="part6" data-source-line="38" id="msg8"><polygon fill="#333333" points="1258.4219,600.5156,1268.4219,604.5156,1258.4219,608.5156,1262.4219,604.5156" style="stroke:#333333;stroke-width:1;stroke-linejoin:miter;stroke-miterlimit:10;"/><line style="stroke:#333333;stroke-width:1;stroke-dasharray:2,2;" x1="1072.709" x2="1264.4219" y1="604.5156" y2="604.5156"/><text fill="#333333" font-family="'Helvetica'" font-size="12" lengthAdjust="spacing" textLength="122.3613" x="1079.709" y="599.6855">rendered dashboard</text></g><?plantuml-src RLHTJnin47pthzZceKgYEmYb51eX90XG7WXIbRIgLAhAkTlBhV3PX-rBTF--w_j8GjitVysCPtViTwGJLQK8lvsl5HwLLQ64yEGLmXozfSJ1lJ9R8HAZ52QUZ7OmMA3TK8BkMG_ljBTr_52j8bXWKbdoTRpOaa_o26wbbolfCFukA-MZPxtmniernXq-WYVqMsDVuhdKl6uZcA7rb54YFSRNbSzD81mDG3heHU7oqhN3gojHIZwVK2crXy7ywt8PtrZpWlPP_vmRzrgHz-PN0s_N6Kmwi_8VQ6isdhKsZMqmkza1BErCmM191Rf4AhozQKul5xStRrc_M9cnisQt6nymoOPvS9qMf9iZpKW8RJo2sV1bUyi2u8xdDNJ6eQnMYboEBW9iDXXOCKhg58nMTGJU07a7AQPDCLEc68-BrkNnPKVy90ky6e_vS4a9R4X2iNnSH20pp-fCJ5bDUWq-Pqb4ooJ9la6G62u0PDOKB0m7rM_kGGuaRAIY57uSdKq-Dr1c6DuznFVnoOG3i-31v9o3yZsiVEALPHXyu63Cmu2tPjVXpEdeY95z8XDfsR9ShoskWpTmNdfoFkm5zrFGeIfyPUkCbWf2p_RA9xtoHQzytYkVzieNB8Xi8lH2Y5tqugi-HzE-1_3Veehk60Fs8Pg2grOkiRJ27MeCmtcGdfoCX92AGzFrU00PeKgXaFoMMDgPodBdsrPr62xKBkLmFNiSiScz76k7IB8iQIRrCCnhBWd7L-58eE8CTnBa6fM_qOStJucZRjDGb2wXbjQv1vErkGSudSIfhC6YHnt-YIYanHIbHUTuseNgd9jHkzx0wUYWoatyWsx_LAPWIjGCSFdAi7ZuRvYjv3-82y6lZsEUMrEjyx8Atmi_ADg4M6hTVLLJQ7K-ZaHFkg_AQnLUZfLRE8QSgwjgDa2gveU0MyTy6Ic-CkThjNzvxxlEWUOsm_3RB9wSZKJ36B-vEb-KFpstr-NTrc7Oqsb3lBCc_W00?></g></svg>