<svg xmlns="http://www.w3.org/2000/svg" xmlns:xlink="http://www.w3.org/1999/xlink" contentStyleType="text/css" data-diagram-type="SEQUENCE" height="1046px" preserveAspectRatio="none" style="width:1243px;height:1046px;background:#FFFFFF;" version="1.1" viewBox="0 0 1243 1046" width="1243px" zoomAndPan="magnify"><?plantuml 1.2026.6?><defs/><g><g class="title" data-source-line="3"><text fill="#000000" font-family="'Helvetica'" font-size="14" font-weight="700" lengthAdjust="spacing" textLength="195.9316" x="520.0942" y="27.9951">UC-01: User Registration</text></g><rect fill="none" height="551.375" rx="4" ry="4" style="stroke:#000000;stroke-width:1.5;" width="1114.1201" x="113" y="396.9219"/><rect fill="none" height="352.5938" rx="4" ry="4" style="stroke:#000000;stroke-width:1.5;" width="1094.1201" x="123" y="588.7031"/><g class="participant-lifeline" data-entity-uid="part1" data-qualified-name="User" data-source-line="5" id="part1-lifeline"><g><title>User</title><rect fill="#000000" fill-opacity="0.00000" height="848.0313" width="8" x="156.5" y="117.2656"/><line style="stroke:#181818;stroke-width:0.5;stroke-dasharray:5,5;" x1="160" x2="160" y1="117.2656" y2="965.2969"/></g></g><g class="participant-lifeline" data-entity-uid="part2" data-qualified-name="EH" data-source-line="6" id="part2-lifeline"><g><title>Entry-Hub</title><rect fill="#000000" fill-opacity="0.00000" height="848.0313" width="8" x="375.459" y="117.2656"/><line style="stroke:#181818;stroke-width:0.5;stroke-dasharray:5,5;" x1="379.207" x2="379.207" y1="117.2656" y2="965.2969"/></g></g><g class="participant-lifeline" data-entity-uid="part3" data-qualified-name="SS" data-source-line="7" id="part3-lifeline"><g><title>Security-Switch</title><rect fill="#000000" fill-opacity="0.00000" height="848.0313" width="8" x="568.3965" y="117.2656"/><line style="stroke:#181818;stroke-width:0.5;stroke-dasharray:5,5;" x1="571.7559" x2="571.7559" y1="117.2656" y2="965.2969"/></g></g><g class="participant-lifeline" data-entity-uid="part4" data-qualified-name="DV" data-source-line="8" id="part4-lifeline"><g><title>Database-Vault</title><rect fill="#000000" fill-opacity="0.00000" height="848.0313" width="8" x="734.8086" y="117.2656"/><line style="stroke:#181818;stroke-width:0.5;stroke-dasharray:5,5;" x1="738.4111" x2="738.4111" y1="117.2656" y2="965.2969"/></g></g><g class="participant-lifeline" data-entity-uid="part5" data-qualified-name="ST" data-source-line="9" id="part5-lifeline"><g><title>Storage-Service</title><rect fill="#000000" fill-opacity="0.00000" height="848.0313" width="8" x="1017.2715" y="117.2656"/><line style="stroke:#181818;stroke-width:0.5;stroke-dasharray:5,5;" x1="1020.4561" x2="1020.4561" y1="117.2656" y2="965.2969"/></g></g><g class="participant-lifeline" data-entity-uid="part6" data-qualified-name="NM" data-source-line="10" id="part6-lifeline"><g><title>Network-Manager</title><rect fill="#000000" fill-opacity="0.00000" height="848.0313" width="8" x="1142.6035" y="117.2656"/><line style="stroke:#181818;stroke-width:0.5;stroke-dasharray:5,5;" x1="1146.0869" x2="1146.0869" y1="117.2656" y2="965.2969"/></g></g><g class="participant participant-head" data-entity-uid="part1" data-qualified-name="User" data-source-line="5" id="part1-head"><text fill="#000000" font-family="'Helvetica'" font-size="12" lengthAdjust="spacing" textLength="27.3516" x="143.8242" y="114.4355">User</text><ellipse cx="160.5" cy="58.7969" fill="#E2E2F0" rx="16" ry="16" style="stroke:#181818;stroke-width:0.5;"/><path d="M160.5,78.7969 C164.5,78.7969 167.5,78.7969 171.5,74.7969 C179.5,74.7969 187.5,82.7969 187.5,90.7969 L187.5,94.7969 C187.5,98.7969 183.5,102.7969 179.5,102.7969 L141.5,102.7969 C137.5,102.7969 133.5,98.7969 133.5,94.7969 L133.5,90.7969 C133.5,82.7969 141.5,74.7969 149.5,74.7969 C153.5,78.7969 156.5,78.7969 160.5,78.7969" fill="#E2E2F0" style="stroke:#181818;stroke-width:0.5;"/></g><g class="participant participant-tail" data-entity-uid="part1" data-qualified-name="User" data-source-line="5" id="part1-tail"><text fill="#000000" font-family="'Helvetica'" font-size="12" lengthAdjust="spacing" textLength="27.3516" x="143.8242" y="975.4355">User</text><ellipse cx="160.5" cy="994.7656" fill="#E2E2F0" rx="16" ry="16" style="stroke:#181818;stroke-width:0.5;"/><path d="M160.5,1014.7656 C164.5,1014.7656 167.5,1014.7656 171.5,1010.7656 C179.5,1010.7656 187.5,1018.7656 187.5,1026.7656 L187.5,1030.7656 C187.5,1034.7656 183.5,1038.7656 179.5,1038.7656 L141.5,1038.7656 C137.5,1038.7656 133.5,1034.7656 133.5,1030.7656 L133.5,1026.7656 C133.5,1018.7656 141.5,1010.7656 149.5,1010.7656 C153.5,1014.7656 156.5,1014.7656 160.5,1014.7656" fill="#E2E2F0" style="stroke:#181818;stroke-width:0.5;"/></g><g class="participant participant-head" data-entity-uid="part2" data-qualified-name="EH" data-source-line="6" id="part2-head"><rect fill="#E2E2F0" height="27.9688" rx="4" ry="4" style="stroke:#181818;stroke-width:0.5;" width="74.5039" x="342.207" y="88.2969"/><text fill="#000000" font-family="'Helvetica'" font-size="12" lengthAdjust="spacing" textLength="60.5039" x="349.207" y="106.4355">Entry-Hub</text></g><g class="participant participant-tail" data-entity-uid="part2" data-qualified-name="EH" data-source-line="6" id="part2-tail"><rect fill="#E2E2F0" height="27.9688" rx="4" ry="4" style="stroke:#181818;stroke-width:0.5;" width="74.5039" x="342.207" y="964.2969"/><text fill="#000000" font-family="'Helvetica'" font-size="12" lengthAdjust="spacing" textLength="60.5039" x="349.207" y="982.4355">Entry-Hub</text></g><g class="participant participant-head" data-entity-uid="part3" data-qualified-name="SS" data-source-line="7" id="part3-head"><rect fill="#E2E2F0" height="27.9688" rx="4" ry="4" style="stroke:#181818;stroke-width:0.5;" width="107.2813" x="518.7559" y="88.2969"/><text fill="#000000" font-family="'Helvetica'" font-size="12" lengthAdjust="spacing" textLength="93.2813" x="525.7559" y="106.4355">Security-Switch</text></g><g class="participant participant-tail" data-entity-uid="part3" data-qualified-name="SS" data-source-line="7" id="part3-tail"><rect fill="#E2E2F0" height="27.9688" rx="4" ry="4" style="stroke:#181818;stroke-width:0.5;" width="107.2813" x="518.7559" y="964.2969"/><text fill="#000000" font-family="'Helvetica'" font-size="12" lengthAdjust="spacing" textLength="93.2813" x="525.7559" y="982.4355">Security-Switch</text></g><g class="participant participant-head" data-entity-uid="part4" data-qualified-name="DV" data-source-line="8" id="part4-head"><rect fill="#E2E2F0" height="27.9688" rx="4" ry="4" style="stroke:#181818;stroke-width:0.5;" width="106.7949" x="685.4111" y="88.2969"/><text fill="#000000" font-family="'Helvetica'" font-size="12" lengthAdjust="spacing" textLength="92.7949" x="692.4111" y="106.4355">Database-Vault</text></g><g class="participant participant-tail" data-entity-uid="part4" data-qualified-name="DV" data-source-line="8" id="part4-tail"><rect fill="#E2E2F0" height="27.9688" rx="4" ry="4" style="stroke:#181818;stroke-width:0.5;" width="106.7949" x="685.4111" y="964.2969"/><text fill="#000000" font-family="'Helvetica'" font-size="12" lengthAdjust="spacing" textLength="92.7949" x="692.4111" y="982.4355">Database-Vault</text></g><g class="participant participant-head" data-entity-uid="part5" data-qualified-name="ST" data-source-line="9" id="part5-head"><rect fill="#E2E2F0" height="27.9688" rx="4" ry="4" style="stroke:#181818;stroke-width:0.5;" width="109.6309" x="966.4561" y="88.2969"/><text fill="#000000" font-family="'Helvetica'" font-size="12" lengthAdjust="spacing" textLength="95.6309" x="973.4561" y="106.4355">Storage-Service</text></g><g class="participant participant-tail" data-entity-uid="part5" data-qualified-name="ST" data-source-line="9" id="part5-tail"><rect fill="#E2E2F0" height="27.9688" rx="4" ry="4" style="stroke:#181818;stroke-width:0.5;" width="109.6309" x="966.4561" y="964.2969"/><text fill="#000000" font-family="'Helvetica'" font-size="12" lengthAdjust="spacing" textLength="95.6309" x="973.4561" y="982.4355">Storage-Service</text></g><g class="participant participant-head" data-entity-uid="part6" data-qualified-name="NM" data-source-line="10" id="part6-head"><rect fill="#E2E2F0" height="27.9688" rx="4" ry="4" style="stroke:#181818;stroke-width:0.5;" width="121.0332" x="1086.0869" y="88.2969"/><text fill="#000000" font-family="'Helvetica'" font-size="12" lengthAdjust="spacing" textLength="107.0332" x="1093.0869" y="106.4355">Network-Manager</text></g><g class="participant participant-tail" data-entity-uid="part6" data-qualified-name="NM" data-source-line="10" id="part6-tail"><rect fill="#E2E2F0" height="27.9688" rx="4" ry="4" style="stroke:#181818;stroke-width:0.5;" width="121.0332" x="1086.0869" y="964.2969"/><text fill="#000000" font-family="'Helvetica'" font-size="12" lengthAdjust="spacing" textLength="107.0332" x="1093.0869" y="982.4355">Network-Manager</text></g><path d="M5,136.2656 L5,165.2656 A4,4 0 0 0 9,169.2656 L313,169.2656 A4,4 0 0 0 317,165.2656 L317,142.2656 L307,132.2656 L9,132.2656 A4,4 0 0 0 5,136.2656" fill="#FEFFDD" style="stroke:#181818;stroke-width:0.5;"/><path d="M307,132.2656 L307,140.2656 A2,2 0 0 0 309,142.2656 L317,142.2656 L307,132.2656" fill="#FEFFDD" style="stroke:#181818;stroke-width:0.5;"/><text fill="#000000" font-family="'Helvetica'" font-size="12" lengthAdjust="spacing" textLength="257.1621" x="11" y="148.4043">SSH keypair already generated client-side;</text><text fill="#000000" font-family="'Helvetica'" font-size="12" lengthAdjust="spacing" textLength="291.3809" x="11" y="162.373">the private key never leaves the client (CL-F-01)</text><g class="message" data-entity-1="part1" data-entity-2="part2" data-source-line="17" id="msg1"><polygon fill="#333333" points="367.459,205.1406,377.459,209.1406,367.459,213.1406,371.459,209.1406" style="stroke:#333333;stroke-width:1;stroke-linejoin:miter;stroke-miterlimit:10;"/><line style="stroke:#333333;stroke-width:1;" x1="160.5" x2="373.459" y1="209.1406" y2="209.1406"/><text fill="#333333" font-family="'Helvetica'" font-size="12" lengthAdjust="spacing" textLength="160.0898" x="167.5" y="190.3418">POST /api/register (HTTPS)</text><text fill="#333333" font-family="'Helvetica'" font-size="12" lengthAdjust="spacing" textLength="194.959" x="167.5" y="204.3105">email, password, SSH public key</text></g><g class="message" data-entity-1="part2" data-entity-2="part3" data-source-line="18" id="msg2"><polygon fill="#333333" points="560.3965,233.1094,570.3965,237.1094,560.3965,241.1094,564.3965,237.1094" style="stroke:#333333;stroke-width:1;stroke-linejoin:miter;stroke-miterlimit:10;"/><line style="stroke:#333333;stroke-width:1;" x1="379.459" x2="566.3965" y1="237.1094" y2="237.1094"/><text fill="#333333" font-family="'Helvetica'" font-size="12" lengthAdjust="spacing" textLength="142.4121" x="386.459" y="232.2793">forward request (mTLS)</text></g><g class="message" data-entity-1="part3" data-entity-2="part4" data-source-line="19" id="msg3"><polygon fill="#333333" points="726.8086,261.0781,736.8086,265.0781,726.8086,269.0781,730.8086,265.0781" style="stroke:#333333;stroke-width:1;stroke-linejoin:miter;stroke-miterlimit:10;"/><line style="stroke:#333333;stroke-width:1;" x1="572.3965" x2="732.8086" y1="265.0781" y2="265.0781"/><text fill="#333333" font-family="'Helvetica'" font-size="12" lengthAdjust="spacing" textLength="142.4121" x="579.3965" y="260.248">forward request (mTLS)</text></g><path d="M336,282.0781 L336,325.0781 A4,4 0 0 0 340,329.0781 L776,329.0781 A4,4 0 0 0 780,325.0781 L780,288.0781 L770,278.0781 L340,278.0781 A4,4 0 0 0 336,282.0781" fill="#FEFFDD" style="stroke:#181818;stroke-width:0.5;"/><path d="M770,278.0781 L770,286.0781 A2,2 0 0 0 772,288.0781 L780,288.0781 L770,278.0781" fill="#FEFFDD" style="stroke:#181818;stroke-width:0.5;"/><text fill="#000000" font-family="'Helvetica'" font-size="12" lengthAdjust="spacing" textLength="282.5215" x="346.0649" y="294.2168">Each hop independently re-validates the input.</text><text fill="#000000" font-family="'Helvetica'" font-size="12" lengthAdjust="spacing" textLength="315.5566" x="346.0649" y="308.1855">On failure: HTTP 400, request not forwarded further,</text><text fill="#000000" font-family="'Helvetica'" font-size="12" lengthAdjust="spacing" textLength="415.8691" x="346.0649" y="322.1543">issue logged without identifying the user (EH-F-06, SS-F-03, DV-F-02)</text><g class="message" data-entity-1="part4" data-entity-2="part4" data-source-line="27" id="msg4"><line style="stroke:#333333;stroke-width:1;" x1="738.8086" x2="780.8086" y1="368.9219" y2="368.9219"/><line style="stroke:#333333;stroke-width:1;" x1="780.8086" x2="780.8086" y1="368.9219" y2="381.9219"/><line style="stroke:#333333;stroke-width:1;" x1="739.8086" x2="780.8086" y1="381.9219" y2="381.9219"/><polygon fill="#333333" points="749.8086,377.9219,739.8086,381.9219,749.8086,385.9219,745.8086,381.9219" style="stroke:#333333;stroke-width:1;stroke-linejoin:miter;stroke-miterlimit:10;"/><text fill="#333333" font-family="'Helvetica'" font-size="12" lengthAdjust="spacing" textLength="225.2813" x="745.8086" y="350.123">hash email (SHA-256) &#183; encrypt email</text><text fill="#333333" font-family="'Helvetica'" font-size="12" lengthAdjust="spacing" textLength="157.2832" x="745.8086" y="364.0918">hash password (Argon2id)</text></g><path d="M117,396.9219 L175.9473,396.9219 L175.9473,402.8906 L165.9473,412.8906 L113,412.8906 L113,400.9219 A4,4 0 0 1 117,396.9219" fill="#EEEEEE" style="stroke:#000000;stroke-width:1.5;"/><rect fill="none" height="551.375" rx="4" ry="4" style="stroke:#000000;stroke-width:1.5;" width="1114.1201" x="113" y="396.9219"/><text fill="#000000" font-family="'Helvetica'" font-size="12" font-weight="700" lengthAdjust="spacing" textLength="17.9473" x="128" y="409.0605">alt</text><text fill="#000000" font-family="'Helvetica'" font-size="12" font-weight="700" lengthAdjust="spacing" textLength="255.457" x="190.9473" y="410.0605">[email or SSH key already registered]</text><g class="message" data-entity-1="part4" data-entity-2="part3" data-source-line="30" id="msg5"><polygon fill="#333333" points="583.3965,428.8594,573.3965,432.8594,583.3965,436.8594,579.3965,432.8594" style="stroke:#333333;stroke-width:1;stroke-linejoin:miter;stroke-miterlimit:10;"/><line style="stroke:#333333;stroke-width:1;stroke-dasharray:2,2;" x1="577.3965" x2="737.8086" y1="432.8594" y2="432.8594"/><text fill="#333333" font-family="'Helvetica'" font-size="12" lengthAdjust="spacing" textLength="72.2402" x="589.3965" y="428.0293">409 Conflict</text></g><g class="message" data-entity-1="part3" data-entity-2="part2" data-source-line="31" id="msg6"><polygon fill="#333333" points="390.459,456.8281,380.459,460.8281,390.459,464.8281,386.459,460.8281" style="stroke:#333333;stroke-width:1;stroke-linejoin:miter;stroke-miterlimit:10;"/><line style="stroke:#333333;stroke-width:1;stroke-dasharray:2,2;" x1="384.459" x2="571.3965" y1="460.8281" y2="460.8281"/><text fill="#333333" font-family="'Helvetica'" font-size="12" lengthAdjust="spacing" textLength="72.2402" x="396.459" y="455.998">409 Conflict</text></g><g class="message" data-entity-1="part2" data-entity-2="part1" data-source-line="32" id="msg7"><polygon fill="#333333" points="171.5,484.7969,161.5,488.7969,171.5,492.7969,167.5,488.7969" style="stroke:#333333;stroke-width:1;stroke-linejoin:miter;stroke-miterlimit:10;"/><line style="stroke:#333333;stroke-width:1;stroke-dasharray:2,2;" x1="165.5" x2="378.459" y1="488.7969" y2="488.7969"/><text fill="#333333" font-family="'Helvetica'" font-size="12" lengthAdjust="spacing" textLength="72.2402" x="177.5" y="483.9668">409 Conflict</text></g><line style="stroke:#000000;stroke-width:1;stroke-dasharray:2,2;" x1="113" x2="1227.1201" y1="497.7969" y2="497.7969"/><text fill="#000000" font-family="'Helvetica'" font-size="12" font-weight="700" lengthAdjust="spacing" textLength="94.9688" x="118" y="508.9355">[no duplicate]</text><g class="message" data-entity-1="part4" data-entity-2="part4" data-source-line="34" id="msg8"><line style="stroke:#333333;stroke-width:1;" x1="738.8086" x2="780.8086" y1="532.7344" y2="532.7344"/><line style="stroke:#333333;stroke-width:1;" x1="780.8086" x2="780.8086" y1="532.7344" y2="545.7344"/><line style="stroke:#333333;stroke-width:1;" x1="739.8086" x2="780.8086" y1="545.7344" y2="545.7344"/><polygon fill="#333333" points="749.8086,541.7344,739.8086,545.7344,749.8086,549.7344,745.8086,545.7344" style="stroke:#333333;stroke-width:1;stroke-linejoin:miter;stroke-miterlimit:10;"/><text fill="#333333" font-family="'Helvetica'" font-size="12" lengthAdjust="spacing" textLength="226.5" x="745.8086" y="527.9043">save user record (atomic transaction)</text></g><g class="message" data-entity-1="part4" data-entity-2="part5" data-source-line="35" id="msg9"><polygon fill="#333333" points="1009.2715,569.7031,1019.2715,573.7031,1009.2715,577.7031,1013.2715,573.7031" style="stroke:#333333;stroke-width:1;stroke-linejoin:miter;stroke-miterlimit:10;"/><line style="stroke:#333333;stroke-width:1;" x1="738.8086" x2="1015.2715" y1="573.7031" y2="573.7031"/><text fill="#333333" font-family="'Helvetica'" font-size="12" lengthAdjust="spacing" textLength="258.4629" x="745.8086" y="568.873">create POSIX user "user&lt;xxxxxx&gt;" (mTLS)</text></g><path d="M127,588.7031 L185.9473,588.7031 L185.9473,594.6719 L175.9473,604.6719 L123,604.6719 L123,592.7031 A4,4 0 0 1 127,588.7031" fill="#EEEEEE" style="stroke:#000000;stroke-width:1.5;"/><rect fill="none" height="352.5938" rx="4" ry="4" style="stroke:#000000;stroke-width:1.5;" width="1094.1201" x="123" y="588.7031"/><text fill="#000000" font-family="'Helvetica'" font-size="12" font-weight="700" lengthAdjust="spacing" textLength="17.9473" x="138" y="600.8418">alt</text><text fill="#000000" font-family="'Helvetica'" font-size="12" font-weight="700" lengthAdjust="spacing" textLength="179.1914" x="200.9473" y="601.8418">[POSIX user creation fails]</text><g class="message" data-entity-1="part5" data-entity-2="part4" data-source-line="38" id="msg10"><polygon fill="#333333" points="749.8086,620.6406,739.8086,624.6406,749.8086,628.6406,745.8086,624.6406" style="stroke:#333333;stroke-width:1;stroke-linejoin:miter;stroke-miterlimit:10;"/><line style="stroke:#333333;stroke-width:1;stroke-dasharray:2,2;" x1="743.8086" x2="1020.2715" y1="624.6406" y2="624.6406"/><text fill="#333333" font-family="'Helvetica'" font-size="12" lengthAdjust="spacing" textLength="38.168" x="755.8086" y="619.8105">failure</text></g><g class="message" data-entity-1="part4" data-entity-2="part4" data-source-line="39" id="msg11"><line style="stroke:#333333;stroke-width:1;" x1="738.8086" x2="780.8086" y1="652.6094" y2="652.6094"/><line style="stroke:#333333;stroke-width:1;" x1="780.8086" x2="780.8086" y1="652.6094" y2="665.6094"/><line style="stroke:#333333;stroke-width:1;" x1="739.8086" x2="780.8086" y1="665.6094" y2="665.6094"/><polygon fill="#333333" points="749.8086,661.6094,739.8086,665.6094,749.8086,669.6094,745.8086,665.6094" style="stroke:#333333;stroke-width:1;stroke-linejoin:miter;stroke-miterlimit:10;"/><text fill="#333333" font-family="'Helvetica'" font-size="12" lengthAdjust="spacing" textLength="259.9688" x="745.8086" y="647.7793">delete user record (compensating rollback)</text></g><g class="message" data-entity-1="part4" data-entity-2="part3" data-source-line="40" id="msg12"><polygon fill="#333333" points="583.3965,689.5781,573.3965,693.5781,583.3965,697.5781,579.3965,693.5781" style="stroke:#333333;stroke-width:1;stroke-linejoin:miter;stroke-miterlimit:10;"/><line style="stroke:#333333;stroke-width:1;stroke-dasharray:2,2;" x1="577.3965" x2="737.8086" y1="693.5781" y2="693.5781"/><text fill="#333333" font-family="'Helvetica'" font-size="12" lengthAdjust="spacing" textLength="106.5586" x="589.3965" y="688.748">registration failed</text></g><g class="message" data-entity-1="part3" data-entity-2="part2" data-source-line="41" id="msg13"><polygon fill="#333333" points="390.459,717.5469,380.459,721.5469,390.459,725.5469,386.459,721.5469" style="stroke:#333333;stroke-width:1;stroke-linejoin:miter;stroke-miterlimit:10;"/><line style="stroke:#333333;stroke-width:1;stroke-dasharray:2,2;" x1="384.459" x2="571.3965" y1="721.5469" y2="721.5469"/><text fill="#333333" font-family="'Helvetica'" font-size="12" lengthAdjust="spacing" textLength="21.8379" x="396.459" y="716.7168">5xx</text></g><g class="message" data-entity-1="part2" data-entity-2="part1" data-source-line="42" id="msg14"><polygon fill="#333333" points="171.5,745.5156,161.5,749.5156,171.5,753.5156,167.5,749.5156" style="stroke:#333333;stroke-width:1;stroke-linejoin:miter;stroke-miterlimit:10;"/><line style="stroke:#333333;stroke-width:1;stroke-dasharray:2,2;" x1="165.5" x2="378.459" y1="749.5156" y2="749.5156"/><text fill="#333333" font-family="'Helvetica'" font-size="12" lengthAdjust="spacing" textLength="21.8379" x="177.5" y="744.6855">5xx</text></g><line style="stroke:#000000;stroke-width:1;stroke-dasharray:2,2;" x1="123" x2="1217.1201" y1="758.5156" y2="758.5156"/><text fill="#000000" font-family="'Helvetica'" font-size="12" font-weight="700" lengthAdjust="spacing" textLength="63.3047" x="128" y="769.6543">[success]</text><g class="message" data-entity-1="part5" data-entity-2="part4" data-source-line="44" id="msg15"><polygon fill="#333333" points="749.8086,789.4531,739.8086,793.4531,749.8086,797.4531,745.8086,793.4531" style="stroke:#333333;stroke-width:1;stroke-linejoin:miter;stroke-miterlimit:10;"/><line style="stroke:#333333;stroke-width:1;stroke-dasharray:2,2;" x1="743.8086" x2="1020.2715" y1="793.4531" y2="793.4531"/><text fill="#333333" font-family="'Helvetica'" font-size="12" lengthAdjust="spacing" textLength="115.834" x="755.8086" y="788.623">POSIX user created</text></g><g class="message" data-entity-1="part4" data-entity-2="part3" data-source-line="45" id="msg16"><polygon fill="#333333" points="583.3965,817.4219,573.3965,821.4219,583.3965,825.4219,579.3965,821.4219" style="stroke:#333333;stroke-width:1;stroke-linejoin:miter;stroke-miterlimit:10;"/><line style="stroke:#333333;stroke-width:1;stroke-dasharray:2,2;" x1="577.3965" x2="737.8086" y1="821.4219" y2="821.4219"/><text fill="#333333" font-family="'Helvetica'" font-size="12" lengthAdjust="spacing" textLength="120.252" x="589.3965" y="816.5918">registration success</text></g><g class="message" data-entity-1="part3" data-entity-2="part6" data-source-line="46" id="msg17"><polygon fill="#333333" points="1134.6035,845.3906,1144.6035,849.3906,1134.6035,853.3906,1138.6035,849.3906" style="stroke:#333333;stroke-width:1;stroke-linejoin:miter;stroke-miterlimit:10;"/><line style="stroke:#333333;stroke-width:1;" x1="572.3965" x2="1140.6035" y1="849.3906" y2="849.3906"/><text fill="#333333" font-family="'Helvetica'" font-size="12" lengthAdjust="spacing" textLength="275.4199" x="579.3965" y="844.5605">create Headscale user + pre-auth key (mTLS)</text></g><g class="message" data-entity-1="part6" data-entity-2="part3" data-source-line="47" id="msg18"><polygon fill="#333333" points="583.3965,873.3594,573.3965,877.3594,583.3965,881.3594,579.3965,877.3594" style="stroke:#333333;stroke-width:1;stroke-linejoin:miter;stroke-miterlimit:10;"/><line style="stroke:#333333;stroke-width:1;stroke-dasharray:2,2;" x1="577.3965" x2="1145.6035" y1="877.3594" y2="877.3594"/><text fill="#333333" font-family="'Helvetica'" font-size="12" lengthAdjust="spacing" textLength="76.7813" x="589.3965" y="872.5293">pre-auth key</text></g><g class="message" data-entity-1="part3" data-entity-2="part2" data-source-line="48" id="msg19"><polygon fill="#333333" points="390.459,901.3281,380.459,905.3281,390.459,909.3281,386.459,905.3281" style="stroke:#333333;stroke-width:1;stroke-linejoin:miter;stroke-miterlimit:10;"/><line style="stroke:#333333;stroke-width:1;stroke-dasharray:2,2;" x1="384.459" x2="571.3965" y1="905.3281" y2="905.3281"/><text fill="#333333" font-family="'Helvetica'" font-size="12" lengthAdjust="spacing" textLength="168.9375" x="396.459" y="900.498">201 Created + pre-auth key</text></g><g class="message" data-entity-1="part2" data-entity-2="part1" data-source-line="49" id="msg20"><polygon fill="#333333" points="171.5,929.2969,161.5,933.2969,171.5,937.2969,167.5,933.2969" style="stroke:#333333;stroke-width:1;stroke-linejoin:miter;stroke-miterlimit:10;"/><line style="stroke:#333333;stroke-width:1;stroke-dasharray:2,2;" x1="165.5" x2="378.459" y1="933.2969" y2="933.2969"/><text fill="#333333" font-family="'Helvetica'" font-size="12" lengthAdjust="spacing" textLength="168.9375" x="177.5" y="928.4668">201 Created + pre-auth key</text></g><?plantuml-src VLJRRjf047ttLqnv0XKJGfD8fLMaY52vKcwgITI7IDMo7knLbhMx5n9_MT_xPPrT6nT8KnwGlNFcSiwSzJkXk7GPmcXqzCFOMkAeSciPHLPOYN0_YyV7KxWtgE4Rvi9OpQmeLHGnRaiT0b75j1LSL4nPwCsLrNMSk6KFc85viXzDaJijR1sdpyBo8c3IT1zpoInRCeFn0tFI1iZbmq4PwiroZ5FK6y6nARFOnzoWVIxrKtpD545rmDnSHv4gBKAvmNPueFu9F65TCQ61IOqigo57XSGKC-1IeBAn4Hb-8h0j42ejDXJpIQ3GLvB8DcX2iC53VtOLVo7j1X6g37pFA0egnkSa2apXxZPTm16hn94EkbAedomMT-dWKU6Q2Jc4YXb35B9X6B5oIocuRnfH0IgJfbHcLUfdfZFG-DEXeRxhnLKwY2X6YCk7jn4xEioJeLSOOCvu0KLPWL0PLZGuCP4rPSOR9aL6d1kEGbNEZYZXLi6AHdKQf-27XvFnUDXreWxRxYJaocdArKDA4yOu15dcEPsJ4OhIMH2-crZLGkMXYVDgzUU9b_7CI-0VFlX9_SDaLrZYkMLRC5D0q0_wQN8HJqxF1l3x5w3Ykgvi4tfK0RRL5_eNEY_LH6Ga2vCj2CZUhJKwMsnNXHcny5stQpWPVuHPgLQq8Hii5K9XqGSXlpiA1IyS154Q94QGkOhUIUssIKlDaCSQLJJoC3QpvPeiGNTI6RgFT2y7NGgvQmgSngOjazU-VczIU_x_yqludVSwCm1utZkua4a5mtuDnS5NZ3jJDLiFvpiZPYZH7Wp9opLPoL0rMgmkfLmo_ZJeChSAwfslIoWVDDwNylJb9PpjQzYS1l6CunpDwt4FYRMrt-o_LoTSfPlhlt8cv0N3cMo9lgSF0iRCsI9ufPNKfr9ILtyNyuhOP7mCisQmWtB_uFjVC5qAVp6YFm00?></g></svg>