<svg xmlns="http://www.w3.org/2000/svg" xmlns:xlink="http://www.w3.org/1999/xlink" contentStyleType="text/css" data-diagram-type="SEQUENCE" height="719px" preserveAspectRatio="none" style="width:918px;height:719px;background:#FFFFFF;" version="1.1" viewBox="0 0 918 719" width="918px" zoomAndPan="magnify"><?plantuml 1.2026.6?><defs><filter height="300%" id="fbrbomi4spufa" width="300%" x="-1" y="-1"><feGaussianBlur result="blurOut" stdDeviation="2"/><feColorMatrix in="blurOut" result="blurOut2" type="matrix" values="0 0 0 0 0 0 0 0 0 0 0 0 0 0 0 0 0 0 .4 0"/><feOffset dx="4" dy="4" in="blurOut2" result="blurOut3"/><feBlend in="SourceGraphic" in2="blurOut3" mode="normal"/></filter><linearGradient id="gbrbomi4spufa0" x1="0%" x2="100%" y1="0%" y2="100%"><stop offset="0%" stop-color="#B7CEEA"/><stop offset="100%" stop-color="#7FA8D9"/></linearGradient><linearGradient id="gbrbomi4spufa1" x1="0%" x2="100%" y1="0%" y2="100%"><stop offset="0%" stop-color="#2A4A7F"/><stop offset="100%" stop-color="#1B3A6B"/></linearGradient></defs><g><g class="title" data-source-line="3"><text fill="#000000" font-family="'Helvetica'" font-size="14" font-weight="700" lengthAdjust="spacing" textLength="100.7344" x="405.3745" y="27.9951">UC-02: Login</text></g><rect fill="none" filter="url(#fbrbomi4spufa)" height="255.6875" rx="8" ry="8" style="stroke:#000000;stroke-width:1.5;" width="892.4834" x="10" y="365.9531"/><g class="participant-lifeline" data-entity-uid="part1" data-qualified-name="User" data-source-line="5" id="part1-lifeline"><g><title>User</title><rect fill="#000000" fill-opacity="0.00000" height="521.375" width="8" x="43.5" y="117.2656"/><line style="stroke:#181818;stroke-width:0.5;stroke-dasharray:5,5;" x1="47" x2="47" y1="117.2656" y2="638.6406"/></g></g><g class="participant-lifeline" data-entity-uid="part2" data-qualified-name="EH" data-source-line="6" id="part2-lifeline"><g><title>..service..</title><rect fill="#000000" fill-opacity="0.00000" height="521.375" width="8" x="210.2813" y="117.2656"/><line style="stroke:#181818;stroke-width:0.5;stroke-dasharray:5,5;" x1="213.5293" x2="213.5293" y1="117.2656" y2="638.6406"/></g></g><g class="participant-lifeline" data-entity-uid="part3" data-qualified-name="SS" data-source-line="7" id="part3-lifeline"><g><title>..service..</title><rect fill="#000000" fill-opacity="0.00000" height="521.375" width="8" x="376.6934" y="117.2656"/><line style="stroke:#181818;stroke-width:0.5;stroke-dasharray:5,5;" x1="380.5527" x2="380.5527" y1="117.2656" y2="638.6406"/></g></g><g class="participant-lifeline" data-entity-uid="part4" data-qualified-name="DV" data-source-line="8" id="part4-lifeline"><g><title>..service..</title><rect fill="#000000" fill-opacity="0.00000" height="521.375" width="8" x="543.1055" y="117.2656"/><line style="stroke:#181818;stroke-width:0.5;stroke-dasharray:5,5;" x1="546.208" x2="546.208" y1="117.2656" y2="638.6406"/></g></g><g class="participant-lifeline" data-entity-uid="part5" data-qualified-name="NM" data-source-line="9" id="part5-lifeline"><g><title>..service..</title><rect fill="#000000" fill-opacity="0.00000" height="521.375" width="8" x="826.4668" y="117.2656"/><line style="stroke:#181818;stroke-width:0.5;stroke-dasharray:5,5;" x1="830.4502" x2="830.4502" y1="117.2656" y2="638.6406"/></g></g><g class="participant participant-head" data-entity-uid="part1" data-qualified-name="User" data-source-line="5" id="part1-head"><text fill="#000000" font-family="'Helvetica'" font-size="12" lengthAdjust="spacing" textLength="27.3516" x="30.8242" y="114.4355">User</text><ellipse cx="47.5" cy="58.7969" fill="url(#gbrbomi4spufa0)" filter="url(#fbrbomi4spufa)" rx="16" ry="16" style="stroke:#3A6EA5;stroke-width:0.5;"/><path d="M47.5,78.7969 C51.5,78.7969 54.5,78.7969 58.5,74.7969 C66.5,74.7969 74.5,82.7969 74.5,90.7969 L74.5,94.7969 C74.5,98.7969 70.5,102.7969 66.5,102.7969 L28.5,102.7969 C24.5,102.7969 20.5,98.7969 20.5,94.7969 L20.5,90.7969 C20.5,82.7969 28.5,74.7969 36.5,74.7969 C40.5,78.7969 43.5,78.7969 47.5,78.7969" fill="url(#gbrbomi4spufa0)" filter="url(#fbrbomi4spufa)" style="stroke:#3A6EA5;stroke-width:0.5;"/></g><g class="participant participant-tail" data-entity-uid="part1" data-qualified-name="User" data-source-line="5" id="part1-tail"><text fill="#000000" font-family="'Helvetica'" font-size="12" lengthAdjust="spacing" textLength="27.3516" x="30.8242" y="648.7793">User</text><ellipse cx="47.5" cy="668.1094" fill="url(#gbrbomi4spufa0)" filter="url(#fbrbomi4spufa)" rx="16" ry="16" style="stroke:#3A6EA5;stroke-width:0.5;"/><path d="M47.5,688.1094 C51.5,688.1094 54.5,688.1094 58.5,684.1094 C66.5,684.1094 74.5,692.1094 74.5,700.1094 L74.5,704.1094 C74.5,708.1094 70.5,712.1094 66.5,712.1094 L28.5,712.1094 C24.5,712.1094 20.5,708.1094 20.5,704.1094 L20.5,700.1094 C20.5,692.1094 28.5,684.1094 36.5,684.1094 C40.5,688.1094 43.5,688.1094 47.5,688.1094" fill="url(#gbrbomi4spufa0)" filter="url(#fbrbomi4spufa)" style="stroke:#3A6EA5;stroke-width:0.5;"/></g><g class="participant participant-head" data-entity-uid="part2" data-qualified-name="EH" data-source-line="6" id="part2-head"><rect fill="url(#gbrbomi4spufa1)" filter="url(#fbrbomi4spufa)" height="41.9375" rx="8" ry="8" style="stroke:#0A1B36;stroke-width:0.5;" width="74.5039" x="175.5293" y="71.3281"/><text fill="#F0F0F0" font-family="'Helvetica'" font-size="12" font-style="italic" lengthAdjust="spacing" textLength="57.7969" x="183.8828" y="89.4668">&#171;service&#187;</text><text fill="#F0F0F0" font-family="'Helvetica'" font-size="12" lengthAdjust="spacing" textLength="60.5039" x="182.5293" y="103.4355">Entry-Hub</text></g><g class="participant participant-tail" data-entity-uid="part2" data-qualified-name="EH" data-source-line="6" id="part2-tail"><rect fill="url(#gbrbomi4spufa1)" filter="url(#fbrbomi4spufa)" height="41.9375" rx="8" ry="8" style="stroke:#0A1B36;stroke-width:0.5;" width="74.5039" x="175.5293" y="637.6406"/><text fill="#F0F0F0" font-family="'Helvetica'" font-size="12" font-style="italic" lengthAdjust="spacing" textLength="57.7969" x="183.8828" y="655.7793">&#171;service&#187;</text><text fill="#F0F0F0" font-family="'Helvetica'" font-size="12" lengthAdjust="spacing" textLength="60.5039" x="182.5293" y="669.748">Entry-Hub</text></g><g class="participant participant-head" data-entity-uid="part3" data-qualified-name="SS" data-source-line="7" id="part3-head"><rect fill="url(#gbrbomi4spufa1)" filter="url(#fbrbomi4spufa)" height="41.9375" rx="8" ry="8" style="stroke:#0A1B36;stroke-width:0.5;" width="107.2813" x="325.5527" y="71.3281"/><text fill="#F0F0F0" font-family="'Helvetica'" font-size="12" font-style="italic" lengthAdjust="spacing" textLength="57.7969" x="350.2949" y="89.4668">&#171;service&#187;</text><text fill="#F0F0F0" font-family="'Helvetica'" font-size="12" lengthAdjust="spacing" textLength="93.2813" x="332.5527" y="103.4355">Security-Switch</text></g><g class="participant participant-tail" data-entity-uid="part3" data-qualified-name="SS" data-source-line="7" id="part3-tail"><rect fill="url(#gbrbomi4spufa1)" filter="url(#fbrbomi4spufa)" height="41.9375" rx="8" ry="8" style="stroke:#0A1B36;stroke-width:0.5;" width="107.2813" x="325.5527" y="637.6406"/><text fill="#F0F0F0" font-family="'Helvetica'" font-size="12" font-style="italic" lengthAdjust="spacing" textLength="57.7969" x="350.2949" y="655.7793">&#171;service&#187;</text><text fill="#F0F0F0" font-family="'Helvetica'" font-size="12" lengthAdjust="spacing" textLength="93.2813" x="332.5527" y="669.748">Security-Switch</text></g><g class="participant participant-head" data-entity-uid="part4" data-qualified-name="DV" data-source-line="8" id="part4-head"><rect fill="url(#gbrbomi4spufa1)" filter="url(#fbrbomi4spufa)" height="41.9375" rx="8" ry="8" style="stroke:#0A1B36;stroke-width:0.5;" width="106.7949" x="492.208" y="71.3281"/><text fill="#F0F0F0" font-family="'Helvetica'" font-size="12" font-style="italic" lengthAdjust="spacing" textLength="57.7969" x="516.707" y="89.4668">&#171;service&#187;</text><text fill="#F0F0F0" font-family="'Helvetica'" font-size="12" lengthAdjust="spacing" textLength="92.7949" x="499.208" y="103.4355">Database-Vault</text></g><g class="participant participant-tail" data-entity-uid="part4" data-qualified-name="DV" data-source-line="8" id="part4-tail"><rect fill="url(#gbrbomi4spufa1)" filter="url(#fbrbomi4spufa)" height="41.9375" rx="8" ry="8" style="stroke:#0A1B36;stroke-width:0.5;" width="106.7949" x="492.208" y="637.6406"/><text fill="#F0F0F0" font-family="'Helvetica'" font-size="12" font-style="italic" lengthAdjust="spacing" textLength="57.7969" x="516.707" y="655.7793">&#171;service&#187;</text><text fill="#F0F0F0" font-family="'Helvetica'" font-size="12" lengthAdjust="spacing" textLength="92.7949" x="499.208" y="669.748">Database-Vault</text></g><g class="participant participant-head" data-entity-uid="part5" data-qualified-name="NM" data-source-line="9" id="part5-head"><rect fill="url(#gbrbomi4spufa1)" filter="url(#fbrbomi4spufa)" height="41.9375" rx="8" ry="8" style="stroke:#0A1B36;stroke-width:0.5;" width="121.0332" x="768.4502" y="71.3281"/><text fill="#F0F0F0" font-family="'Helvetica'" font-size="12" font-style="italic" lengthAdjust="spacing" textLength="57.7969" x="800.0684" y="89.4668">&#171;service&#187;</text><text fill="#F0F0F0" font-family="'Helvetica'" font-size="12" lengthAdjust="spacing" textLength="107.0332" x="775.4502" y="103.4355">Network-Manager</text></g><g class="participant participant-tail" data-entity-uid="part5" data-qualified-name="NM" data-source-line="9" id="part5-tail"><rect fill="url(#gbrbomi4spufa1)" filter="url(#fbrbomi4spufa)" height="41.9375" rx="8" ry="8" style="stroke:#0A1B36;stroke-width:0.5;" width="121.0332" x="768.4502" y="637.6406"/><text fill="#F0F0F0" font-family="'Helvetica'" font-size="12" font-style="italic" lengthAdjust="spacing" textLength="57.7969" x="800.0684" y="655.7793">&#171;service&#187;</text><text fill="#F0F0F0" font-family="'Helvetica'" font-size="12" lengthAdjust="spacing" textLength="107.0332" x="775.4502" y="669.748">Network-Manager</text></g><g class="message" data-entity-1="part1" data-entity-2="part2" data-source-line="11" id="msg1"><polygon fill="#333333" points="202.2813,157.2031,212.2813,161.2031,202.2813,165.2031,206.2813,161.2031" style="stroke:#333333;stroke-width:1;stroke-linejoin:miter;stroke-miterlimit:10;"/><line style="stroke:#333333;stroke-width:1;" x1="47.5" x2="208.2813" y1="161.2031" y2="161.2031"/><text fill="#333333" font-family="'Helvetica'" font-size="12" lengthAdjust="spacing" textLength="142.7813" x="54.5" y="142.4043">POST /api/login (HTTPS)</text><text fill="#333333" font-family="'Helvetica'" font-size="12" lengthAdjust="spacing" textLength="97.9043" x="54.5" y="156.373">email, password</text></g><g class="message" data-entity-1="part2" data-entity-2="part3" data-source-line="12" id="msg2"><polygon fill="#333333" points="368.6934,185.1719,378.6934,189.1719,368.6934,193.1719,372.6934,189.1719" style="stroke:#333333;stroke-width:1;stroke-linejoin:miter;stroke-miterlimit:10;"/><line style="stroke:#333333;stroke-width:1;" x1="214.2813" x2="374.6934" y1="189.1719" y2="189.1719"/><text fill="#333333" font-family="'Helvetica'" font-size="12" lengthAdjust="spacing" textLength="142.4121" x="221.2813" y="184.3418">forward request (mTLS)</text></g><g class="message" data-entity-1="part3" data-entity-2="part4" data-source-line="13" id="msg3"><polygon fill="#333333" points="535.1055,213.1406,545.1055,217.1406,535.1055,221.1406,539.1055,217.1406" style="stroke:#333333;stroke-width:1;stroke-linejoin:miter;stroke-miterlimit:10;"/><line style="stroke:#333333;stroke-width:1;" x1="380.6934" x2="541.1055" y1="217.1406" y2="217.1406"/><text fill="#333333" font-family="'Helvetica'" font-size="12" lengthAdjust="spacing" textLength="142.4121" x="387.6934" y="212.3105">forward request (mTLS)</text></g><path d="M160,238.1406 L160,273.1406 A8,8 0 0 0 168,281.1406 L588,281.1406 A8,8 0 0 0 596,273.1406 L596,240.1406 L586,230.1406 L168,230.1406 A8,8 0 0 0 160,238.1406" fill="#FEFFDD" filter="url(#fbrbomi4spufa)" style="stroke:#181818;stroke-width:0.5;"/><path d="M586,230.1406 L586,236.1406 A4,4 0 0 0 590,240.1406 L596,240.1406 L586,230.1406" fill="#FEFFDD" style="stroke:#181818;stroke-width:0.5;"/><text fill="#000000" font-family="'Helvetica'" font-size="12" lengthAdjust="spacing" textLength="343.9805" x="166" y="246.2793">Each hop independently re-validates the input (DV-F-02).</text><text fill="#000000" font-family="'Helvetica'" font-size="12" lengthAdjust="spacing" textLength="315.5566" x="166" y="260.248">On failure: HTTP 400, request not forwarded further,</text><text fill="#000000" font-family="'Helvetica'" font-size="12" lengthAdjust="spacing" textLength="415.8691" x="166" y="274.2168">issue logged without identifying the user (EH-F-06, SS-F-03, DV-F-20)</text><g class="message" data-entity-1="part4" data-entity-2="part4" data-source-line="21" id="msg4"><line style="stroke:#333333;stroke-width:1;" x1="547.1055" x2="589.1055" y1="337.9531" y2="337.9531"/><line style="stroke:#333333;stroke-width:1;" x1="589.1055" x2="589.1055" y1="337.9531" y2="350.9531"/><line style="stroke:#333333;stroke-width:1;" x1="548.1055" x2="589.1055" y1="350.9531" y2="350.9531"/><polygon fill="#333333" points="558.1055,346.9531,548.1055,350.9531,558.1055,354.9531,554.1055,350.9531" style="stroke:#333333;stroke-width:1;stroke-linejoin:miter;stroke-miterlimit:10;"/><text fill="#333333" font-family="'Helvetica'" font-size="12" lengthAdjust="spacing" textLength="192.5742" x="554.1055" y="305.1855">retrieve salt via SHA-256(email)</text><text fill="#333333" font-family="'Helvetica'" font-size="12" lengthAdjust="spacing" textLength="269.3613" x="554.1055" y="319.1543">recompute Argon2id(password, salt, pepper)</text><text fill="#333333" font-family="'Helvetica'" font-size="12" lengthAdjust="spacing" textLength="156.8672" x="554.1055" y="333.123">compare with stored hash</text></g><path d="M18,365.9531 L72.9473,365.9531 L72.9473,371.9219 L62.9473,381.9219 L10,381.9219 L10,373.9531 A8,8 0 0 1 18,365.9531" fill="#EEEEEE" style="stroke:#000000;stroke-width:1.5;"/><rect fill="none" height="255.6875" rx="8" ry="8" style="stroke:#000000;stroke-width:1.5;" width="892.4834" x="10" y="365.9531"/><text fill="#000000" font-family="'Helvetica'" font-size="12" font-weight="700" lengthAdjust="spacing" textLength="17.9473" x="25" y="378.0918">alt</text><text fill="#000000" font-family="'Helvetica'" font-size="12" font-weight="700" lengthAdjust="spacing" textLength="266.6191" x="87.9473" y="379.0918">[nonexistent email or wrong password]</text><g class="message" data-entity-1="part4" data-entity-2="part3" data-source-line="24" id="msg5"><polygon fill="#333333" points="391.6934,397.8906,381.6934,401.8906,391.6934,405.8906,387.6934,401.8906" style="stroke:#333333;stroke-width:1;stroke-linejoin:miter;stroke-miterlimit:10;"/><line style="stroke:#333333;stroke-width:1;stroke-dasharray:2,2;" x1="385.6934" x2="546.1055" y1="401.8906" y2="401.8906"/><text fill="#333333" font-family="'Helvetica'" font-size="12" lengthAdjust="spacing" textLength="107.2852" x="397.6934" y="397.0605">401 Unauthorized</text></g><g class="message" data-entity-1="part3" data-entity-2="part2" data-source-line="25" id="msg6"><polygon fill="#333333" points="225.2813,425.8594,215.2813,429.8594,225.2813,433.8594,221.2813,429.8594" style="stroke:#333333;stroke-width:1;stroke-linejoin:miter;stroke-miterlimit:10;"/><line style="stroke:#333333;stroke-width:1;stroke-dasharray:2,2;" x1="219.2813" x2="379.6934" y1="429.8594" y2="429.8594"/><text fill="#333333" font-family="'Helvetica'" font-size="12" lengthAdjust="spacing" textLength="107.2852" x="231.2813" y="425.0293">401 Unauthorized</text></g><g class="message" data-entity-1="part2" data-entity-2="part1" data-source-line="26" id="msg7"><polygon fill="#333333" points="58.5,453.8281,48.5,457.8281,58.5,461.8281,54.5,457.8281" style="stroke:#333333;stroke-width:1;stroke-linejoin:miter;stroke-miterlimit:10;"/><line style="stroke:#333333;stroke-width:1;stroke-dasharray:2,2;" x1="52.5" x2="213.2813" y1="457.8281" y2="457.8281"/><text fill="#333333" font-family="'Helvetica'" font-size="12" lengthAdjust="spacing" textLength="107.2852" x="64.5" y="452.998">401 Unauthorized</text></g><line style="stroke:#000000;stroke-width:1;stroke-dasharray:2,2;" x1="10" x2="902.4834" y1="466.8281" y2="466.8281"/><text fill="#000000" font-family="'Helvetica'" font-size="12" font-weight="700" lengthAdjust="spacing" textLength="123.5273" x="15" y="477.9668">[valid credentials]</text><g class="message" data-entity-1="part4" data-entity-2="part3" data-source-line="28" id="msg8"><polygon fill="#333333" points="391.6934,497.7656,381.6934,501.7656,391.6934,505.7656,387.6934,501.7656" style="stroke:#333333;stroke-width:1;stroke-linejoin:miter;stroke-miterlimit:10;"/><line style="stroke:#333333;stroke-width:1;stroke-dasharray:2,2;" x1="385.6934" x2="546.1055" y1="501.7656" y2="501.7656"/><text fill="#333333" font-family="'Helvetica'" font-size="12" lengthAdjust="spacing" textLength="137.9883" x="397.6934" y="496.9355">authentication success</text></g><g class="message" data-entity-1="part3" data-entity-2="part5" data-source-line="29" id="msg9"><polygon fill="#333333" points="818.4668,525.7344,828.4668,529.7344,818.4668,533.7344,822.4668,529.7344" style="stroke:#333333;stroke-width:1;stroke-linejoin:miter;stroke-miterlimit:10;"/><line style="stroke:#333333;stroke-width:1;" x1="380.6934" x2="824.4668" y1="529.7344" y2="529.7344"/><text fill="#333333" font-family="'Helvetica'" font-size="12" lengthAdjust="spacing" textLength="201.082" x="387.6934" y="524.9043">grant ACL tag, 12h expiry (mTLS)</text></g><g class="message" data-entity-1="part5" data-entity-2="part3" data-source-line="30" id="msg10"><polygon fill="#333333" points="391.6934,553.7031,381.6934,557.7031,391.6934,561.7031,387.6934,557.7031" style="stroke:#333333;stroke-width:1;stroke-linejoin:miter;stroke-miterlimit:10;"/><line style="stroke:#333333;stroke-width:1;stroke-dasharray:2,2;" x1="385.6934" x2="829.4668" y1="557.7031" y2="557.7031"/><text fill="#333333" font-family="'Helvetica'" font-size="12" lengthAdjust="spacing" textLength="123.8438" x="397.6934" y="552.873">ACL grant confirmed</text></g><g class="message" data-entity-1="part3" data-entity-2="part2" data-source-line="31" id="msg11"><polygon fill="#333333" points="225.2813,581.6719,215.2813,585.6719,225.2813,589.6719,221.2813,585.6719" style="stroke:#333333;stroke-width:1;stroke-linejoin:miter;stroke-miterlimit:10;"/><line style="stroke:#333333;stroke-width:1;stroke-dasharray:2,2;" x1="219.2813" x2="379.6934" y1="585.6719" y2="585.6719"/><text fill="#333333" font-family="'Helvetica'" font-size="12" lengthAdjust="spacing" textLength="44.0332" x="231.2813" y="580.8418">200 OK</text></g><g class="message" data-entity-1="part2" data-entity-2="part1" data-source-line="32" id="msg12"><polygon fill="#333333" points="58.5,609.6406,48.5,613.6406,58.5,617.6406,54.5,613.6406" style="stroke:#333333;stroke-width:1;stroke-linejoin:miter;stroke-miterlimit:10;"/><line style="stroke:#333333;stroke-width:1;stroke-dasharray:2,2;" x1="52.5" x2="213.2813" y1="613.6406" y2="613.6406"/><text fill="#333333" font-family="'Helvetica'" font-size="12" lengthAdjust="spacing" textLength="44.0332" x="64.5" y="608.8105">200 OK</text></g><?plantuml-src TP9DRzim38Rl-XLSJmbW9sxMzH0K0OesGu3r2t2Iqu21bHbRc29v-aYQ_VfINXsWQtCn1FCX-RualoWZTQm8HgFnBnyEcaPjt6eXWWgQO7MJ5vCftDbQ6I5G1kjWvSc95brGKhLe0fpDJN27V16Vpm0zp1TmTSNCJacQpTwJ9SdeL3ZavLu5sNHyMPxcRp7WCthArnXrwF3RzMdyWSBUkj_vFHgioNNym_qxNYJvaC-Ip2ayFPPB66EhnZfPXC5YkNmgXpyDRL7f35hqdYjMWcdEOQbJs5YtHrU1ep-HV831TdbN3WN7c61r9mbXR22mE-u_NsIC2e0voWOQsu8o5RN47nFqWJFp7MfLOI0FeI4Ejv4BtQxpxxoHuOXJ7mriM6HqD8Ka6owA8Zlsv5wz3gfW4nrNSHcdAUyZ0Tkj-JzleR5SMAM-QdDGfkxQnJIamNoHkbrcx3izlYRD_9WKGy5AKmiIWXttlXq5fsX7u547s2c4Sd6TJxvT3hfnybWTIRjb9mJNhhPcegf1F-Aio-AHKzkIOpQHwAZJ29ulZ_Ksw1k-Gvty6NfHFh1kwAe3d-RUMJPmN1eaMNc_julY75O68pjswY-bSDfPVmgVXDFIETnTp2S0QK_GhGaaYqiJHEt_wvhu594Ob3NWevJa_LllMRhEATGkNU_rpHq4h3CudpH0BwroX_vo8777aWdyboAjsIYt_U1bKXJm-EE3WxVVl3ln2W00?></g></svg>