<svg xmlns="http://www.w3.org/2000/svg" xmlns:xlink="http://www.w3.org/1999/xlink" contentStyleType="text/css" data-diagram-type="SEQUENCE" height="716px" preserveAspectRatio="none" style="width:916px;height:716px;background:#FFFFFF;" version="1.1" viewBox="0 0 916 716" width="916px" zoomAndPan="magnify"><?plantuml 1.2026.6?><defs/><g><g class="title" data-source-line="3"><text fill="#000000" font-family="'Helvetica'" font-size="14" font-weight="700" lengthAdjust="spacing" textLength="100.7344" x="404.6245" y="27.9951">UC-02: Login</text></g><rect fill="none" height="255.6875" rx="4" ry="4" style="stroke:#000000;stroke-width:1.5;" width="890.9834" x="10" y="362.9531"/><g class="participant-lifeline" data-entity-uid="part1" data-qualified-name="User" data-source-line="5" id="part1-lifeline"><g><title>User</title><rect fill="#000000" fill-opacity="0.00000" height="518.375" width="8" x="43.5" y="117.2656"/><line style="stroke:#181818;stroke-width:0.5;stroke-dasharray:5,5;" x1="47" x2="47" y1="117.2656" y2="635.6406"/></g></g><g class="participant-lifeline" data-entity-uid="part2" data-qualified-name="EH" data-source-line="6" id="part2-lifeline"><g><title>Entry-Hub</title><rect fill="#000000" fill-opacity="0.00000" height="518.375" width="8" x="210.2813" y="117.2656"/><line style="stroke:#181818;stroke-width:0.5;stroke-dasharray:5,5;" x1="214.0293" x2="214.0293" y1="117.2656" y2="635.6406"/></g></g><g class="participant-lifeline" data-entity-uid="part3" data-qualified-name="SS" data-source-line="7" id="part3-lifeline"><g><title>Security-Switch</title><rect fill="#000000" fill-opacity="0.00000" height="518.375" width="8" x="376.6934" y="117.2656"/><line style="stroke:#181818;stroke-width:0.5;stroke-dasharray:5,5;" x1="380.0527" x2="380.0527" y1="117.2656" y2="635.6406"/></g></g><g class="participant-lifeline" data-entity-uid="part4" data-qualified-name="DV" data-source-line="8" id="part4-lifeline"><g><title>Database-Vault</title><rect fill="#000000" fill-opacity="0.00000" height="518.375" width="8" x="543.1055" y="117.2656"/><line style="stroke:#181818;stroke-width:0.5;stroke-dasharray:5,5;" x1="546.708" x2="546.708" y1="117.2656" y2="635.6406"/></g></g><g class="participant-lifeline" data-entity-uid="part5" data-qualified-name="NM" data-source-line="9" id="part5-lifeline"><g><title>Network-Manager</title><rect fill="#000000" fill-opacity="0.00000" height="518.375" width="8" x="826.4668" y="117.2656"/><line style="stroke:#181818;stroke-width:0.5;stroke-dasharray:5,5;" x1="829.9502" x2="829.9502" y1="117.2656" y2="635.6406"/></g></g><g class="participant participant-head" data-entity-uid="part1" data-qualified-name="User" data-source-line="5" id="part1-head"><text fill="#000000" font-family="'Helvetica'" font-size="12" lengthAdjust="spacing" textLength="27.3516" x="30.8242" y="114.4355">User</text><ellipse cx="47.5" cy="58.7969" fill="#E2E2F0" rx="16" ry="16" style="stroke:#181818;stroke-width:0.5;"/><path d="M47.5,78.7969 C51.5,78.7969 54.5,78.7969 58.5,74.7969 C66.5,74.7969 74.5,82.7969 74.5,90.7969 L74.5,94.7969 C74.5,98.7969 70.5,102.7969 66.5,102.7969 L28.5,102.7969 C24.5,102.7969 20.5,98.7969 20.5,94.7969 L20.5,90.7969 C20.5,82.7969 28.5,74.7969 36.5,74.7969 C40.5,78.7969 43.5,78.7969 47.5,78.7969" fill="#E2E2F0" style="stroke:#181818;stroke-width:0.5;"/></g><g class="participant participant-tail" data-entity-uid="part1" data-qualified-name="User" data-source-line="5" id="part1-tail"><text fill="#000000" font-family="'Helvetica'" font-size="12" lengthAdjust="spacing" textLength="27.3516" x="30.8242" y="645.7793">User</text><ellipse cx="47.5" cy="665.1094" fill="#E2E2F0" rx="16" ry="16" style="stroke:#181818;stroke-width:0.5;"/><path d="M47.5,685.1094 C51.5,685.1094 54.5,685.1094 58.5,681.1094 C66.5,681.1094 74.5,689.1094 74.5,697.1094 L74.5,701.1094 C74.5,705.1094 70.5,709.1094 66.5,709.1094 L28.5,709.1094 C24.5,709.1094 20.5,705.1094 20.5,701.1094 L20.5,697.1094 C20.5,689.1094 28.5,681.1094 36.5,681.1094 C40.5,685.1094 43.5,685.1094 47.5,685.1094" fill="#E2E2F0" style="stroke:#181818;stroke-width:0.5;"/></g><g class="participant participant-head" data-entity-uid="part2" data-qualified-name="EH" data-source-line="6" id="part2-head"><rect fill="#E2E2F0" height="27.9688" rx="4" ry="4" style="stroke:#181818;stroke-width:0.5;" width="74.5039" x="177.0293" y="88.2969"/><text fill="#000000" font-family="'Helvetica'" font-size="12" lengthAdjust="spacing" textLength="60.5039" x="184.0293" y="106.4355">Entry-Hub</text></g><g class="participant participant-tail" data-entity-uid="part2" data-qualified-name="EH" data-source-line="6" id="part2-tail"><rect fill="#E2E2F0" height="27.9688" rx="4" ry="4" style="stroke:#181818;stroke-width:0.5;" width="74.5039" x="177.0293" y="634.6406"/><text fill="#000000" font-family="'Helvetica'" font-size="12" lengthAdjust="spacing" textLength="60.5039" x="184.0293" y="652.7793">Entry-Hub</text></g><g class="participant participant-head" data-entity-uid="part3" data-qualified-name="SS" data-source-line="7" id="part3-head"><rect fill="#E2E2F0" height="27.9688" rx="4" ry="4" style="stroke:#181818;stroke-width:0.5;" width="107.2813" x="327.0527" y="88.2969"/><text fill="#000000" font-family="'Helvetica'" font-size="12" lengthAdjust="spacing" textLength="93.2813" x="334.0527" y="106.4355">Security-Switch</text></g><g class="participant participant-tail" data-entity-uid="part3" data-qualified-name="SS" data-source-line="7" id="part3-tail"><rect fill="#E2E2F0" height="27.9688" rx="4" ry="4" style="stroke:#181818;stroke-width:0.5;" width="107.2813" x="327.0527" y="634.6406"/><text fill="#000000" font-family="'Helvetica'" font-size="12" lengthAdjust="spacing" textLength="93.2813" x="334.0527" y="652.7793">Security-Switch</text></g><g class="participant participant-head" data-entity-uid="part4" data-qualified-name="DV" data-source-line="8" id="part4-head"><rect fill="#E2E2F0" height="27.9688" rx="4" ry="4" style="stroke:#181818;stroke-width:0.5;" width="106.7949" x="493.708" y="88.2969"/><text fill="#000000" font-family="'Helvetica'" font-size="12" lengthAdjust="spacing" textLength="92.7949" x="500.708" y="106.4355">Database-Vault</text></g><g class="participant participant-tail" data-entity-uid="part4" data-qualified-name="DV" data-source-line="8" id="part4-tail"><rect fill="#E2E2F0" height="27.9688" rx="4" ry="4" style="stroke:#181818;stroke-width:0.5;" width="106.7949" x="493.708" y="634.6406"/><text fill="#000000" font-family="'Helvetica'" font-size="12" lengthAdjust="spacing" textLength="92.7949" x="500.708" y="652.7793">Database-Vault</text></g><g class="participant participant-head" data-entity-uid="part5" data-qualified-name="NM" data-source-line="9" id="part5-head"><rect fill="#E2E2F0" height="27.9688" rx="4" ry="4" style="stroke:#181818;stroke-width:0.5;" width="121.0332" x="769.9502" y="88.2969"/><text fill="#000000" font-family="'Helvetica'" font-size="12" lengthAdjust="spacing" textLength="107.0332" x="776.9502" y="106.4355">Network-Manager</text></g><g class="participant participant-tail" data-entity-uid="part5" data-qualified-name="NM" data-source-line="9" id="part5-tail"><rect fill="#E2E2F0" height="27.9688" rx="4" ry="4" style="stroke:#181818;stroke-width:0.5;" width="121.0332" x="769.9502" y="634.6406"/><text fill="#000000" font-family="'Helvetica'" font-size="12" lengthAdjust="spacing" textLength="107.0332" x="776.9502" y="652.7793">Network-Manager</text></g><g class="message" data-entity-1="part1" data-entity-2="part2" data-source-line="11" id="msg1"><polygon fill="#333333" points="202.2813,157.2031,212.2813,161.2031,202.2813,165.2031,206.2813,161.2031" style="stroke:#333333;stroke-width:1;stroke-linejoin:miter;stroke-miterlimit:10;"/><line style="stroke:#333333;stroke-width:1;" x1="47.5" x2="208.2813" y1="161.2031" y2="161.2031"/><text fill="#333333" font-family="'Helvetica'" font-size="12" lengthAdjust="spacing" textLength="142.7813" x="54.5" y="142.4043">POST /api/login (HTTPS)</text><text fill="#333333" font-family="'Helvetica'" font-size="12" lengthAdjust="spacing" textLength="97.9043" x="54.5" y="156.373">email, password</text></g><g class="message" data-entity-1="part2" data-entity-2="part3" data-source-line="12" id="msg2"><polygon fill="#333333" points="368.6934,185.1719,378.6934,189.1719,368.6934,193.1719,372.6934,189.1719" style="stroke:#333333;stroke-width:1;stroke-linejoin:miter;stroke-miterlimit:10;"/><line style="stroke:#333333;stroke-width:1;" x1="214.2813" x2="374.6934" y1="189.1719" y2="189.1719"/><text fill="#333333" font-family="'Helvetica'" font-size="12" lengthAdjust="spacing" textLength="142.4121" x="221.2813" y="184.3418">forward request (mTLS)</text></g><g class="message" data-entity-1="part3" data-entity-2="part4" data-source-line="13" id="msg3"><polygon fill="#333333" points="535.1055,213.1406,545.1055,217.1406,535.1055,221.1406,539.1055,217.1406" style="stroke:#333333;stroke-width:1;stroke-linejoin:miter;stroke-miterlimit:10;"/><line style="stroke:#333333;stroke-width:1;" x1="380.6934" x2="541.1055" y1="217.1406" y2="217.1406"/><text fill="#333333" font-family="'Helvetica'" font-size="12" lengthAdjust="spacing" textLength="142.4121" x="387.6934" y="212.3105">forward request (mTLS)</text></g><path d="M162,234.1406 L162,277.1406 A4,4 0 0 0 166,281.1406 L594,281.1406 A4,4 0 0 0 598,277.1406 L598,240.1406 L588,230.1406 L166,230.1406 A4,4 0 0 0 162,234.1406" fill="#FEFFDD" style="stroke:#181818;stroke-width:0.5;"/><path d="M588,230.1406 L588,238.1406 A2,2 0 0 0 590,240.1406 L598,240.1406 L588,230.1406" fill="#FEFFDD" style="stroke:#181818;stroke-width:0.5;"/><text fill="#000000" font-family="'Helvetica'" font-size="12" lengthAdjust="spacing" textLength="282.5215" x="168" y="246.2793">Each hop independently re-validates the input.</text><text fill="#000000" font-family="'Helvetica'" font-size="12" lengthAdjust="spacing" textLength="315.5566" x="168" y="260.248">On failure: HTTP 400, request not forwarded further,</text><text fill="#000000" font-family="'Helvetica'" font-size="12" lengthAdjust="spacing" textLength="415.8691" x="168" y="274.2168">issue logged without identifying the user (EH-F-06, SS-F-03, DV-F-02)</text><g class="message" data-entity-1="part4" data-entity-2="part4" data-source-line="21" id="msg4"><line style="stroke:#333333;stroke-width:1;" x1="547.1055" x2="589.1055" y1="334.9531" y2="334.9531"/><line style="stroke:#333333;stroke-width:1;" x1="589.1055" x2="589.1055" y1="334.9531" y2="347.9531"/><line style="stroke:#333333;stroke-width:1;" x1="548.1055" x2="589.1055" y1="347.9531" y2="347.9531"/><polygon fill="#333333" points="558.1055,343.9531,548.1055,347.9531,558.1055,351.9531,554.1055,347.9531" style="stroke:#333333;stroke-width:1;stroke-linejoin:miter;stroke-miterlimit:10;"/><text fill="#333333" font-family="'Helvetica'" font-size="12" lengthAdjust="spacing" textLength="192.5742" x="554.1055" y="302.1855">retrieve salt via SHA-256(email)</text><text fill="#333333" font-family="'Helvetica'" font-size="12" lengthAdjust="spacing" textLength="269.3613" x="554.1055" y="316.1543">recompute Argon2id(password, salt, pepper)</text><text fill="#333333" font-family="'Helvetica'" font-size="12" lengthAdjust="spacing" textLength="156.8672" x="554.1055" y="330.123">compare with stored hash</text></g><path d="M14,362.9531 L72.9473,362.9531 L72.9473,368.9219 L62.9473,378.9219 L10,378.9219 L10,366.9531 A4,4 0 0 1 14,362.9531" fill="#EEEEEE" style="stroke:#000000;stroke-width:1.5;"/><rect fill="none" height="255.6875" rx="4" ry="4" style="stroke:#000000;stroke-width:1.5;" width="890.9834" x="10" y="362.9531"/><text fill="#000000" font-family="'Helvetica'" font-size="12" font-weight="700" lengthAdjust="spacing" textLength="17.9473" x="25" y="375.0918">alt</text><text fill="#000000" font-family="'Helvetica'" font-size="12" font-weight="700" lengthAdjust="spacing" textLength="266.6191" x="87.9473" y="376.0918">[nonexistent email or wrong password]</text><g class="message" data-entity-1="part4" data-entity-2="part3" data-source-line="24" id="msg5"><polygon fill="#333333" points="391.6934,394.8906,381.6934,398.8906,391.6934,402.8906,387.6934,398.8906" style="stroke:#333333;stroke-width:1;stroke-linejoin:miter;stroke-miterlimit:10;"/><line style="stroke:#333333;stroke-width:1;stroke-dasharray:2,2;" x1="385.6934" x2="546.1055" y1="398.8906" y2="398.8906"/><text fill="#333333" font-family="'Helvetica'" font-size="12" lengthAdjust="spacing" textLength="107.2852" x="397.6934" y="394.0605">401 Unauthorized</text></g><g class="message" data-entity-1="part3" data-entity-2="part2" data-source-line="25" id="msg6"><polygon fill="#333333" points="225.2813,422.8594,215.2813,426.8594,225.2813,430.8594,221.2813,426.8594" style="stroke:#333333;stroke-width:1;stroke-linejoin:miter;stroke-miterlimit:10;"/><line style="stroke:#333333;stroke-width:1;stroke-dasharray:2,2;" x1="219.2813" x2="379.6934" y1="426.8594" y2="426.8594"/><text fill="#333333" font-family="'Helvetica'" font-size="12" lengthAdjust="spacing" textLength="107.2852" x="231.2813" y="422.0293">401 Unauthorized</text></g><g class="message" data-entity-1="part2" data-entity-2="part1" data-source-line="26" id="msg7"><polygon fill="#333333" points="58.5,450.8281,48.5,454.8281,58.5,458.8281,54.5,454.8281" style="stroke:#333333;stroke-width:1;stroke-linejoin:miter;stroke-miterlimit:10;"/><line style="stroke:#333333;stroke-width:1;stroke-dasharray:2,2;" x1="52.5" x2="213.2813" y1="454.8281" y2="454.8281"/><text fill="#333333" font-family="'Helvetica'" font-size="12" lengthAdjust="spacing" textLength="107.2852" x="64.5" y="449.998">401 Unauthorized</text></g><line style="stroke:#000000;stroke-width:1;stroke-dasharray:2,2;" x1="10" x2="900.9834" y1="463.8281" y2="463.8281"/><text fill="#000000" font-family="'Helvetica'" font-size="12" font-weight="700" lengthAdjust="spacing" textLength="123.5273" x="15" y="474.9668">[valid credentials]</text><g class="message" data-entity-1="part4" data-entity-2="part3" data-source-line="28" id="msg8"><polygon fill="#333333" points="391.6934,494.7656,381.6934,498.7656,391.6934,502.7656,387.6934,498.7656" style="stroke:#333333;stroke-width:1;stroke-linejoin:miter;stroke-miterlimit:10;"/><line style="stroke:#333333;stroke-width:1;stroke-dasharray:2,2;" x1="385.6934" x2="546.1055" y1="498.7656" y2="498.7656"/><text fill="#333333" font-family="'Helvetica'" font-size="12" lengthAdjust="spacing" textLength="137.9883" x="397.6934" y="493.9355">authentication success</text></g><g class="message" data-entity-1="part3" data-entity-2="part5" data-source-line="29" id="msg9"><polygon fill="#333333" points="818.4668,522.7344,828.4668,526.7344,818.4668,530.7344,822.4668,526.7344" style="stroke:#333333;stroke-width:1;stroke-linejoin:miter;stroke-miterlimit:10;"/><line style="stroke:#333333;stroke-width:1;" x1="380.6934" x2="824.4668" y1="526.7344" y2="526.7344"/><text fill="#333333" font-family="'Helvetica'" font-size="12" lengthAdjust="spacing" textLength="201.082" x="387.6934" y="521.9043">grant ACL tag, 12h expiry (mTLS)</text></g><g class="message" data-entity-1="part5" data-entity-2="part3" data-source-line="30" id="msg10"><polygon fill="#333333" points="391.6934,550.7031,381.6934,554.7031,391.6934,558.7031,387.6934,554.7031" style="stroke:#333333;stroke-width:1;stroke-linejoin:miter;stroke-miterlimit:10;"/><line style="stroke:#333333;stroke-width:1;stroke-dasharray:2,2;" x1="385.6934" x2="829.4668" y1="554.7031" y2="554.7031"/><text fill="#333333" font-family="'Helvetica'" font-size="12" lengthAdjust="spacing" textLength="123.8438" x="397.6934" y="549.873">ACL grant confirmed</text></g><g class="message" data-entity-1="part3" data-entity-2="part2" data-source-line="31" id="msg11"><polygon fill="#333333" points="225.2813,578.6719,215.2813,582.6719,225.2813,586.6719,221.2813,582.6719" style="stroke:#333333;stroke-width:1;stroke-linejoin:miter;stroke-miterlimit:10;"/><line style="stroke:#333333;stroke-width:1;stroke-dasharray:2,2;" x1="219.2813" x2="379.6934" y1="582.6719" y2="582.6719"/><text fill="#333333" font-family="'Helvetica'" font-size="12" lengthAdjust="spacing" textLength="44.0332" x="231.2813" y="577.8418">200 OK</text></g><g class="message" data-entity-1="part2" data-entity-2="part1" data-source-line="32" id="msg12"><polygon fill="#333333" points="58.5,606.6406,48.5,610.6406,58.5,614.6406,54.5,610.6406" style="stroke:#333333;stroke-width:1;stroke-linejoin:miter;stroke-miterlimit:10;"/><line style="stroke:#333333;stroke-width:1;stroke-dasharray:2,2;" x1="52.5" x2="213.2813" y1="610.6406" y2="610.6406"/><text fill="#333333" font-family="'Helvetica'" font-size="12" lengthAdjust="spacing" textLength="44.0332" x="64.5" y="605.8105">200 OK</text></g><?plantuml-src TLBBRjim4BppAxOvsO1aAsgQWmy1ZDY5W3eFGBPF1OgDj9Q8qgJAXnttwxjK8mDkqWj1S6SuCxlxIUfAXPfWCfd-SFwaQDA5lHB2Iwy8DlTfbizWPHgfXS3A6miRHrPqQBsiP8VQmzLIUtjAY_1o1UXWMLnMIwg2bVwKbaVfgxR7bEKbPe4UNz1HkiMWV0zPR2yXZ-IFnlvC7r1ZGxR7F3u84Ur0UiUoC8Fdft8DK-paL4NBC2hMw-To_5tJ7gLAe4Fd-9TQC9evPScSdR57j3LO-XN8UHZjrwjoBBZ6YCNs_mYXZISm1zPV5aaq3B34geNMT21rJHtneRqwCJCze98rUdBWM-9o5_o42KyQTcmjM9f1D0itMPQSbLXXKASQTi4oroPCayu50WxPy3ltjJN1WungSdUIkkb5GcpDQ5caNzFiDk6qyV8vEesNV2pONvGW8JZdaDQIjv8E10wLXuD4A8jvcd-v7VLDv6PQgioU_HFCRMDqBklHqDYaPt6ZgUl8CZOYqLBl4Hpl3_jjqRMyJIhcq_GgdMVVqFyEl617QpZ0ULGGRQN3j6woQzXe39pOojyKot5Imm9yK8wZvdA_9ny0I3c2VZXGiRdOGLJk7zM8ZvKAlJGQNAWgSkvD-uxta36DZNiwlr-1noQ1wxm5UksaFGtx0X5t_Z82_r8getVIxjzboRCCdhwzI_3spBCJVm00?></g></svg>