<svg xmlns="http://www.w3.org/2000/svg" xmlns:xlink="http://www.w3.org/1999/xlink" contentStyleType="text/css" data-diagram-type="SEQUENCE" height="575px" preserveAspectRatio="none" style="width:748px;height:575px;background:#FFFFFF;" version="1.1" viewBox="0 0 748 575" width="748px" zoomAndPan="magnify"><?plantuml 1.2026.6?><defs/><g><g class="title" data-source-line="3"><text fill="#000000" font-family="'Helvetica'" font-size="14" font-weight="700" lengthAdjust="spacing" textLength="207.3135" x="267.0918" y="27.9951">UC-03 &#8212; Backing Up a File</text></g><rect fill="none" height="185.7188" rx="4" ry="4" style="stroke:#000000;stroke-width:1.5;" width="362.1533" x="173" y="293.0469"/><g class="participant-lifeline" data-entity-uid="part1" data-qualified-name="User" data-source-line="5" id="part1-lifeline"><g><title>User</title><rect fill="#000000" fill-opacity="0.00000" height="379.5" width="8" x="195.6758" y="116.2656"/><line style="stroke:#181818;stroke-width:0.5;stroke-dasharray:5,5;" x1="199" x2="199" y1="116.2656" y2="495.7656"/></g></g><g class="participant-lifeline" data-entity-uid="part2" data-qualified-name="ST" data-source-line="6" id="part2-lifeline"><g><title>Storage-Service</title><rect fill="#000000" fill-opacity="0.00000" height="379.5" width="8" x="466.3379" y="116.2656"/><line style="stroke:#181818;stroke-width:0.5;stroke-dasharray:5,5;" x1="469.5225" x2="469.5225" y1="116.2656" y2="495.7656"/></g></g><g class="participant-lifeline" data-entity-uid="part3" data-qualified-name="DV" data-source-line="7" id="part3-lifeline"><g><title>Database-Vault</title><rect fill="#000000" fill-opacity="0.00000" height="379.5" width="8" x="680.0996" y="116.2656"/><line style="stroke:#181818;stroke-width:0.5;stroke-dasharray:5,5;" x1="683.7021" x2="683.7021" y1="116.2656" y2="495.7656"/></g></g><g class="participant participant-head" data-entity-uid="part1" data-qualified-name="User" data-source-line="5" id="part1-head"><text fill="#000000" font-family="'Helvetica'" font-size="12" lengthAdjust="spacing" textLength="27.3516" x="183" y="113.4355">User</text><ellipse cx="199.6758" cy="50.7969" fill="#E2E2F0" rx="8" ry="8" style="stroke:#181818;stroke-width:0.5;"/><path d="M199.6758,58.7969 L199.6758,85.7969 M186.6758,66.7969 L212.6758,66.7969 M199.6758,85.7969 L186.6758,100.7969 M199.6758,85.7969 L212.6758,100.7969" fill="none" style="stroke:#181818;stroke-width:0.5;"/></g><g class="participant participant-tail" data-entity-uid="part1" data-qualified-name="User" data-source-line="5" id="part1-tail"><text fill="#000000" font-family="'Helvetica'" font-size="12" lengthAdjust="spacing" textLength="27.3516" x="183" y="505.9043">User</text><ellipse cx="199.6758" cy="517.2344" fill="#E2E2F0" rx="8" ry="8" style="stroke:#181818;stroke-width:0.5;"/><path d="M199.6758,525.2344 L199.6758,552.2344 M186.6758,533.2344 L212.6758,533.2344 M199.6758,552.2344 L186.6758,567.2344 M199.6758,552.2344 L212.6758,567.2344" fill="none" style="stroke:#181818;stroke-width:0.5;"/></g><g class="participant participant-head" data-entity-uid="part2" data-qualified-name="ST" data-source-line="6" id="part2-head"><rect fill="#E2E2F0" height="27.9688" rx="4" ry="4" style="stroke:#181818;stroke-width:0.5;" width="109.6309" x="415.5225" y="87.2969"/><text fill="#000000" font-family="'Helvetica'" font-size="12" lengthAdjust="spacing" textLength="95.6309" x="422.5225" y="105.4355">Storage-Service</text></g><g class="participant participant-tail" data-entity-uid="part2" data-qualified-name="ST" data-source-line="6" id="part2-tail"><rect fill="#E2E2F0" height="27.9688" rx="4" ry="4" style="stroke:#181818;stroke-width:0.5;" width="109.6309" x="415.5225" y="494.7656"/><text fill="#000000" font-family="'Helvetica'" font-size="12" lengthAdjust="spacing" textLength="95.6309" x="422.5225" y="512.9043">Storage-Service</text></g><g class="participant participant-head" data-entity-uid="part3" data-qualified-name="DV" data-source-line="7" id="part3-head"><rect fill="#E2E2F0" height="27.9688" rx="4" ry="4" style="stroke:#181818;stroke-width:0.5;" width="106.7949" x="630.7021" y="87.2969"/><text fill="#000000" font-family="'Helvetica'" font-size="12" lengthAdjust="spacing" textLength="92.7949" x="637.7021" y="105.4355">Database-Vault</text></g><g class="participant participant-tail" data-entity-uid="part3" data-qualified-name="DV" data-source-line="7" id="part3-tail"><rect fill="#E2E2F0" height="27.9688" rx="4" ry="4" style="stroke:#181818;stroke-width:0.5;" width="106.7949" x="630.7021" y="494.7656"/><text fill="#000000" font-family="'Helvetica'" font-size="12" lengthAdjust="spacing" textLength="92.7949" x="637.7021" y="512.9043">Database-Vault</text></g><path d="M5,135.2656 L5,164.2656 A4,4 0 0 0 9,168.2656 L391,168.2656 A4,4 0 0 0 395,164.2656 L395,141.2656 L385,131.2656 L9,131.2656 A4,4 0 0 0 5,135.2656" fill="#FEFFDD" style="stroke:#181818;stroke-width:0.5;"/><path d="M385,131.2656 L385,139.2656 A2,2 0 0 0 387,141.2656 L395,141.2656 L385,131.2656" fill="#FEFFDD" style="stroke:#181818;stroke-width:0.5;"/><text fill="#000000" font-family="'Helvetica'" font-size="12" lengthAdjust="spacing" textLength="364.2891" x="11" y="147.4043">Preconditions: user authenticated (UC-02, active ACL grant);</text><text fill="#000000" font-family="'Helvetica'" font-size="12" lengthAdjust="spacing" textLength="369.2754" x="11" y="161.373">holds the SSH private key generated at registration (CL-F-01)</text><g class="message" data-entity-1="part1" data-entity-2="part2" data-source-line="14" id="msg1"><polygon fill="#333333" points="458.3379,204.1406,468.3379,208.1406,458.3379,212.1406,462.3379,208.1406" style="stroke:#333333;stroke-width:1;stroke-linejoin:miter;stroke-miterlimit:10;"/><line style="stroke:#333333;stroke-width:1;" x1="199.6758" x2="464.3379" y1="208.1406" y2="208.1406"/><text fill="#333333" font-family="'Helvetica'" font-size="12" lengthAdjust="spacing" textLength="168.9551" x="206.6758" y="189.3418">SFTP connect, SSH key auth</text><text fill="#333333" font-family="'Helvetica'" font-size="12" lengthAdjust="spacing" textLength="246.6621" x="206.6758" y="203.3105">(Storage-Service resolved via MagicDNS)</text></g><g class="message" data-entity-1="part2" data-entity-2="part3" data-source-line="15" id="msg2"><polygon fill="#333333" points="672.0996,246.0781,682.0996,250.0781,672.0996,254.0781,676.0996,250.0781" style="stroke:#333333;stroke-width:1;stroke-linejoin:miter;stroke-miterlimit:10;"/><line style="stroke:#333333;stroke-width:1;" x1="470.3379" x2="678.0996" y1="250.0781" y2="250.0781"/><text fill="#333333" font-family="'Helvetica'" font-size="12" lengthAdjust="spacing" textLength="159.3574" x="477.3379" y="231.2793">AuthorizedKeysCommand:</text><text fill="#333333" font-family="'Helvetica'" font-size="12" lengthAdjust="spacing" textLength="189.7617" x="477.3379" y="245.248">fetch current public key (mTLS)</text></g><g class="message" data-entity-1="part3" data-entity-2="part2" data-source-line="16" id="msg3"><polygon fill="#333333" points="481.3379,274.0469,471.3379,278.0469,481.3379,282.0469,477.3379,278.0469" style="stroke:#333333;stroke-width:1;stroke-linejoin:miter;stroke-miterlimit:10;"/><line style="stroke:#333333;stroke-width:1;stroke-dasharray:2,2;" x1="475.3379" x2="683.0996" y1="278.0469" y2="278.0469"/><text fill="#333333" font-family="'Helvetica'" font-size="12" lengthAdjust="spacing" textLength="137.0039" x="487.3379" y="273.2168">current SSH public key</text></g><path d="M177,293.0469 L235.9473,293.0469 L235.9473,299.0156 L225.9473,309.0156 L173,309.0156 L173,297.0469 A4,4 0 0 1 177,293.0469" fill="#EEEEEE" style="stroke:#000000;stroke-width:1.5;"/><rect fill="none" height="185.7188" rx="4" ry="4" style="stroke:#000000;stroke-width:1.5;" width="362.1533" x="173" y="293.0469"/><text fill="#000000" font-family="'Helvetica'" font-size="12" font-weight="700" lengthAdjust="spacing" textLength="17.9473" x="188" y="305.1855">alt</text><text fill="#000000" font-family="'Helvetica'" font-size="12" font-weight="700" lengthAdjust="spacing" textLength="217.4121" x="250.9473" y="306.1855">[key valid and ACL grant active]</text><g class="message" data-entity-1="part2" data-entity-2="part1" data-source-line="19" id="msg4"><polygon fill="#333333" points="210.6758,338.9531,200.6758,342.9531,210.6758,346.9531,206.6758,342.9531" style="stroke:#333333;stroke-width:1;stroke-linejoin:miter;stroke-miterlimit:10;"/><line style="stroke:#333333;stroke-width:1;stroke-dasharray:2,2;" x1="204.6758" x2="469.3379" y1="342.9531" y2="342.9531"/><text fill="#333333" font-family="'Helvetica'" font-size="12" lengthAdjust="spacing" textLength="149.9707" x="216.6758" y="324.1543">SFTP session established</text><text fill="#333333" font-family="'Helvetica'" font-size="12" lengthAdjust="spacing" textLength="233.4258" x="216.6758" y="338.123">(chroot: /storage/user&lt;xxxxxx&gt;/data/)</text></g><g class="message" data-entity-1="part1" data-entity-2="part2" data-source-line="20" id="msg5"><polygon fill="#333333" points="458.3379,380.8906,468.3379,384.8906,458.3379,388.8906,462.3379,384.8906" style="stroke:#333333;stroke-width:1;stroke-linejoin:miter;stroke-miterlimit:10;"/><line style="stroke:#333333;stroke-width:1;" x1="199.6758" x2="464.3379" y1="384.8906" y2="384.8906"/><text fill="#333333" font-family="'Helvetica'" font-size="12" lengthAdjust="spacing" textLength="80.7598" x="206.6758" y="366.0918">restic backup</text><text fill="#333333" font-family="'Helvetica'" font-size="12" lengthAdjust="spacing" textLength="184.8867" x="206.6758" y="380.0605">(already encrypted client-side)</text></g><g class="message" data-entity-1="part2" data-entity-2="part1" data-source-line="21" id="msg6"><polygon fill="#333333" points="210.6758,408.8594,200.6758,412.8594,210.6758,416.8594,206.6758,412.8594" style="stroke:#333333;stroke-width:1;stroke-linejoin:miter;stroke-miterlimit:10;"/><line style="stroke:#333333;stroke-width:1;stroke-dasharray:2,2;" x1="204.6758" x2="469.3379" y1="412.8594" y2="412.8594"/><text fill="#333333" font-family="'Helvetica'" font-size="12" lengthAdjust="spacing" textLength="103.0313" x="216.6758" y="408.0293">backup persisted</text></g><line style="stroke:#000000;stroke-width:1;stroke-dasharray:2,2;" x1="173" x2="535.1533" y1="421.8594" y2="421.8594"/><text fill="#000000" font-family="'Helvetica'" font-size="12" font-weight="700" lengthAdjust="spacing" textLength="258.8672" x="178" y="432.998">[stale key, expired/missing ACL grant,</text><text fill="#000000" font-family="'Helvetica'" font-size="12" font-weight="700" lengthAdjust="spacing" textLength="225.1816" x="178" y="446.9668">or non-SFTP connection attempt]</text><g class="message" data-entity-1="part2" data-entity-2="part1" data-source-line="23" id="msg7"><polygon fill="#333333" points="210.6758,466.7656,200.6758,470.7656,210.6758,474.7656,206.6758,470.7656" style="stroke:#333333;stroke-width:1;stroke-linejoin:miter;stroke-miterlimit:10;"/><line style="stroke:#333333;stroke-width:1;stroke-dasharray:2,2;" x1="204.6758" x2="469.3379" y1="470.7656" y2="470.7656"/><text fill="#333333" font-family="'Helvetica'" font-size="12" lengthAdjust="spacing" textLength="173.2852" x="216.6758" y="465.9355">SFTP authentication rejected</text></g><?plantuml-src RPB1ZjCm48RlVefXJutKD0lS2bffQLKXKT1AQNkgX5nxI8PrRCjseWqd7e8dv4aOPxlLBf1Rh9b__c_-UKLMcLuZB1RLrvX6WmlVTqQ8HCaWx5VbzLlu_VCNV93gdcm3UmyIDcHG2AcI2x2F68IN8P4YBss2gvgVPODbZM4WXLSW8zIxbpLhcUH9HYmFiZTfAbaVXB0k8RW1px80Tm6LiveIEHkNqFCho3wrQ5bB9jGmonxVp87Tq81mkzf24tX6yOxRMsTq12w7klu8Fj30FN2F8pHeCKm2Ca70XcBYNvu2izMst9JNhmk1LaDs94Hs0-KDOy0Iwitk3jYLHPNcat0MpAwETlONF4j7PmOUCv24px8XjVvI5uA5M6vzOBbRRdI1Vg3-X6DSkQwJLY-FzXicrOBgGs1OyFt9a9ecpRhTbYMukNooz5GrKLugEIAJffP16c9IvhdivxmmNbBsma8JuvakOenv5nWv9aEnHSrigWtEfILKyH6ood6yVvY-cqfpf5N1UY-MnVoS59puV7hF6j84b7e4j2gCFkzV6MBhPIIDnJzk7ll0OuYS46g19YAmApF5E0Tyy1HGLnsnOxxF2z_yQFawhRFbyxmob4m9Ev_-J_xik79jmE_SbUTQBVu0?></g></svg>