<svg xmlns="http://www.w3.org/2000/svg" xmlns:xlink="http://www.w3.org/1999/xlink" contentStyleType="text/css" data-diagram-type="SEQUENCE" height="580px" preserveAspectRatio="none" style="width:751px;height:580px;background:#FFFFFF;" version="1.1" viewBox="0 0 751 580" width="751px" zoomAndPan="magnify"><?plantuml 1.2026.6?><defs><filter height="300%" id="fopy0cidfqrz" width="300%" x="-1" y="-1"><feGaussianBlur result="blurOut" stdDeviation="2"/><feColorMatrix in="blurOut" result="blurOut2" type="matrix" values="0 0 0 0 0 0 0 0 0 0 0 0 0 0 0 0 0 0 .4 0"/><feOffset dx="4" dy="4" in="blurOut2" result="blurOut3"/><feBlend in="SourceGraphic" in2="blurOut3" mode="normal"/></filter><linearGradient id="gopy0cidfqrz0" x1="0%" x2="100%" y1="0%" y2="100%"><stop offset="0%" stop-color="#B7CEEA"/><stop offset="100%" stop-color="#7FA8D9"/></linearGradient><linearGradient id="gopy0cidfqrz1" x1="0%" x2="100%" y1="0%" y2="100%"><stop offset="0%" stop-color="#2A4A7F"/><stop offset="100%" stop-color="#1B3A6B"/></linearGradient></defs><g><g class="title" data-source-line="3"><text fill="#000000" font-family="'Helvetica'" font-size="14" font-weight="700" lengthAdjust="spacing" textLength="194.0381" x="275.3916" y="27.9951">UC-03: Backing Up a File</text></g><rect fill="none" filter="url(#fopy0cidfqrz)" height="185.7188" rx="8" ry="8" style="stroke:#000000;stroke-width:1.5;" width="374.4775" x="164" y="297.0469"/><g class="participant-lifeline" data-entity-uid="part1" data-qualified-name="User" data-source-line="5" id="part1-lifeline"><g><title>User</title><rect fill="#000000" fill-opacity="0.00000" height="382.5" width="8" x="197.5" y="117.2656"/><line style="stroke:#181818;stroke-width:0.5;stroke-dasharray:5,5;" x1="201" x2="201" y1="117.2656" y2="499.7656"/></g></g><g class="participant-lifeline" data-entity-uid="part2" data-qualified-name="ST" data-source-line="6" id="part2-lifeline"><g><title>..service..</title><rect fill="#000000" fill-opacity="0.00000" height="382.5" width="8" x="468.1621" y="117.2656"/><line style="stroke:#181818;stroke-width:0.5;stroke-dasharray:5,5;" x1="471.8467" x2="471.8467" y1="117.2656" y2="499.7656"/></g></g><g class="participant-lifeline" data-entity-uid="part3" data-qualified-name="DV" data-source-line="7" id="part3-lifeline"><g><title>..service..</title><rect fill="#000000" fill-opacity="0.00000" height="382.5" width="8" x="681.9238" y="117.2656"/><line style="stroke:#181818;stroke-width:0.5;stroke-dasharray:5,5;" x1="685.0264" x2="685.0264" y1="117.2656" y2="499.7656"/></g></g><g class="participant participant-head" data-entity-uid="part1" data-qualified-name="User" data-source-line="5" id="part1-head"><text fill="#000000" font-family="'Helvetica'" font-size="12" lengthAdjust="spacing" textLength="27.3516" x="184.8242" y="114.4355">User</text><ellipse cx="201.5" cy="58.7969" fill="url(#gopy0cidfqrz0)" filter="url(#fopy0cidfqrz)" rx="16" ry="16" style="stroke:#3A6EA5;stroke-width:0.5;"/><path d="M201.5,78.7969 C205.5,78.7969 208.5,78.7969 212.5,74.7969 C220.5,74.7969 228.5,82.7969 228.5,90.7969 L228.5,94.7969 C228.5,98.7969 224.5,102.7969 220.5,102.7969 L182.5,102.7969 C178.5,102.7969 174.5,98.7969 174.5,94.7969 L174.5,90.7969 C174.5,82.7969 182.5,74.7969 190.5,74.7969 C194.5,78.7969 197.5,78.7969 201.5,78.7969" fill="url(#gopy0cidfqrz0)" filter="url(#fopy0cidfqrz)" style="stroke:#3A6EA5;stroke-width:0.5;"/></g><g class="participant participant-tail" data-entity-uid="part1" data-qualified-name="User" data-source-line="5" id="part1-tail"><text fill="#000000" font-family="'Helvetica'" font-size="12" lengthAdjust="spacing" textLength="27.3516" x="184.8242" y="509.9043">User</text><ellipse cx="201.5" cy="529.2344" fill="url(#gopy0cidfqrz0)" filter="url(#fopy0cidfqrz)" rx="16" ry="16" style="stroke:#3A6EA5;stroke-width:0.5;"/><path d="M201.5,549.2344 C205.5,549.2344 208.5,549.2344 212.5,545.2344 C220.5,545.2344 228.5,553.2344 228.5,561.2344 L228.5,565.2344 C228.5,569.2344 224.5,573.2344 220.5,573.2344 L182.5,573.2344 C178.5,573.2344 174.5,569.2344 174.5,565.2344 L174.5,561.2344 C174.5,553.2344 182.5,545.2344 190.5,545.2344 C194.5,549.2344 197.5,549.2344 201.5,549.2344" fill="url(#gopy0cidfqrz0)" filter="url(#fopy0cidfqrz)" style="stroke:#3A6EA5;stroke-width:0.5;"/></g><g class="participant participant-head" data-entity-uid="part2" data-qualified-name="ST" data-source-line="6" id="part2-head"><rect fill="url(#gopy0cidfqrz1)" filter="url(#fopy0cidfqrz)" height="41.9375" rx="8" ry="8" style="stroke:#0A1B36;stroke-width:0.5;" width="109.6309" x="415.8467" y="71.3281"/><text fill="#F0F0F0" font-family="'Helvetica'" font-size="12" font-style="italic" lengthAdjust="spacing" textLength="57.7969" x="441.7637" y="89.4668">&#171;service&#187;</text><text fill="#F0F0F0" font-family="'Helvetica'" font-size="12" lengthAdjust="spacing" textLength="95.6309" x="422.8467" y="103.4355">Storage-Service</text></g><g class="participant participant-tail" data-entity-uid="part2" data-qualified-name="ST" data-source-line="6" id="part2-tail"><rect fill="url(#gopy0cidfqrz1)" filter="url(#fopy0cidfqrz)" height="41.9375" rx="8" ry="8" style="stroke:#0A1B36;stroke-width:0.5;" width="109.6309" x="415.8467" y="498.7656"/><text fill="#F0F0F0" font-family="'Helvetica'" font-size="12" font-style="italic" lengthAdjust="spacing" textLength="57.7969" x="441.7637" y="516.9043">&#171;service&#187;</text><text fill="#F0F0F0" font-family="'Helvetica'" font-size="12" lengthAdjust="spacing" textLength="95.6309" x="422.8467" y="530.873">Storage-Service</text></g><g class="participant participant-head" data-entity-uid="part3" data-qualified-name="DV" data-source-line="7" id="part3-head"><rect fill="url(#gopy0cidfqrz1)" filter="url(#fopy0cidfqrz)" height="41.9375" rx="8" ry="8" style="stroke:#0A1B36;stroke-width:0.5;" width="106.7949" x="631.0264" y="71.3281"/><text fill="#F0F0F0" font-family="'Helvetica'" font-size="12" font-style="italic" lengthAdjust="spacing" textLength="57.7969" x="655.5254" y="89.4668">&#171;service&#187;</text><text fill="#F0F0F0" font-family="'Helvetica'" font-size="12" lengthAdjust="spacing" textLength="92.7949" x="638.0264" y="103.4355">Database-Vault</text></g><g class="participant participant-tail" data-entity-uid="part3" data-qualified-name="DV" data-source-line="7" id="part3-tail"><rect fill="url(#gopy0cidfqrz1)" filter="url(#fopy0cidfqrz)" height="41.9375" rx="8" ry="8" style="stroke:#0A1B36;stroke-width:0.5;" width="106.7949" x="631.0264" y="498.7656"/><text fill="#F0F0F0" font-family="'Helvetica'" font-size="12" font-style="italic" lengthAdjust="spacing" textLength="57.7969" x="655.5254" y="516.9043">&#171;service&#187;</text><text fill="#F0F0F0" font-family="'Helvetica'" font-size="12" lengthAdjust="spacing" textLength="92.7949" x="638.0264" y="530.873">Database-Vault</text></g><path d="M5,140.2656 L5,161.2656 A8,8 0 0 0 13,169.2656 L387,169.2656 A8,8 0 0 0 395,161.2656 L395,142.2656 L385,132.2656 L13,132.2656 A8,8 0 0 0 5,140.2656" fill="#FEFFDD" filter="url(#fopy0cidfqrz)" style="stroke:#181818;stroke-width:0.5;"/><path d="M385,132.2656 L385,138.2656 A4,4 0 0 0 389,142.2656 L395,142.2656 L385,132.2656" fill="#FEFFDD" style="stroke:#181818;stroke-width:0.5;"/><text fill="#000000" font-family="'Helvetica'" font-size="12" lengthAdjust="spacing" textLength="364.2891" x="11" y="148.4043">Preconditions: user authenticated (UC-02, active ACL grant);</text><text fill="#000000" font-family="'Helvetica'" font-size="12" lengthAdjust="spacing" textLength="369.2754" x="11" y="162.373">holds the SSH private key generated at registration (CL-F-01)</text><g class="message" data-entity-1="part1" data-entity-2="part2" data-source-line="14" id="msg1"><polygon fill="#333333" points="460.1621,208.1406,470.1621,212.1406,460.1621,216.1406,464.1621,212.1406" style="stroke:#333333;stroke-width:1;stroke-linejoin:miter;stroke-miterlimit:10;"/><line style="stroke:#333333;stroke-width:1;" x1="201.5" x2="466.1621" y1="212.1406" y2="212.1406"/><text fill="#333333" font-family="'Helvetica'" font-size="12" lengthAdjust="spacing" textLength="168.9551" x="208.5" y="193.3418">SFTP connect, SSH key auth</text><text fill="#333333" font-family="'Helvetica'" font-size="12" lengthAdjust="spacing" textLength="246.6621" x="208.5" y="207.3105">(Storage-Service resolved via MagicDNS)</text></g><g class="message" data-entity-1="part2" data-entity-2="part3" data-source-line="15" id="msg2"><polygon fill="#333333" points="673.9238,250.0781,683.9238,254.0781,673.9238,258.0781,677.9238,254.0781" style="stroke:#333333;stroke-width:1;stroke-linejoin:miter;stroke-miterlimit:10;"/><line style="stroke:#333333;stroke-width:1;" x1="472.1621" x2="679.9238" y1="254.0781" y2="254.0781"/><text fill="#333333" font-family="'Helvetica'" font-size="12" lengthAdjust="spacing" textLength="159.3574" x="479.1621" y="235.2793">AuthorizedKeysCommand:</text><text fill="#333333" font-family="'Helvetica'" font-size="12" lengthAdjust="spacing" textLength="189.7617" x="479.1621" y="249.248">fetch current public key (mTLS)</text></g><g class="message" data-entity-1="part3" data-entity-2="part2" data-source-line="16" id="msg3"><polygon fill="#333333" points="483.1621,278.0469,473.1621,282.0469,483.1621,286.0469,479.1621,282.0469" style="stroke:#333333;stroke-width:1;stroke-linejoin:miter;stroke-miterlimit:10;"/><line style="stroke:#333333;stroke-width:1;stroke-dasharray:2,2;" x1="477.1621" x2="684.9238" y1="282.0469" y2="282.0469"/><text fill="#333333" font-family="'Helvetica'" font-size="12" lengthAdjust="spacing" textLength="137.0039" x="489.1621" y="277.2168">current SSH public key</text></g><path d="M172,297.0469 L226.9473,297.0469 L226.9473,303.0156 L216.9473,313.0156 L164,313.0156 L164,305.0469 A8,8 0 0 1 172,297.0469" fill="#EEEEEE" style="stroke:#000000;stroke-width:1.5;"/><rect fill="none" height="185.7188" rx="8" ry="8" style="stroke:#000000;stroke-width:1.5;" width="374.4775" x="164" y="297.0469"/><text fill="#000000" font-family="'Helvetica'" font-size="12" font-weight="700" lengthAdjust="spacing" textLength="17.9473" x="179" y="309.1855">alt</text><text fill="#000000" font-family="'Helvetica'" font-size="12" font-weight="700" lengthAdjust="spacing" textLength="217.4121" x="241.9473" y="310.1855">[key valid and ACL grant active]</text><g class="message" data-entity-1="part2" data-entity-2="part1" data-source-line="19" id="msg4"><polygon fill="#333333" points="212.5,342.9531,202.5,346.9531,212.5,350.9531,208.5,346.9531" style="stroke:#333333;stroke-width:1;stroke-linejoin:miter;stroke-miterlimit:10;"/><line style="stroke:#333333;stroke-width:1;stroke-dasharray:2,2;" x1="206.5" x2="471.1621" y1="346.9531" y2="346.9531"/><text fill="#333333" font-family="'Helvetica'" font-size="12" lengthAdjust="spacing" textLength="149.9707" x="218.5" y="328.1543">SFTP session established</text><text fill="#333333" font-family="'Helvetica'" font-size="12" lengthAdjust="spacing" textLength="233.4258" x="218.5" y="342.123">(chroot: /storage/user&lt;xxxxxx&gt;/data/)</text></g><g class="message" data-entity-1="part1" data-entity-2="part2" data-source-line="20" id="msg5"><polygon fill="#333333" points="460.1621,384.8906,470.1621,388.8906,460.1621,392.8906,464.1621,388.8906" style="stroke:#333333;stroke-width:1;stroke-linejoin:miter;stroke-miterlimit:10;"/><line style="stroke:#333333;stroke-width:1;" x1="201.5" x2="466.1621" y1="388.8906" y2="388.8906"/><text fill="#333333" font-family="'Helvetica'" font-size="12" lengthAdjust="spacing" textLength="80.7598" x="208.5" y="370.0918">restic backup</text><text fill="#333333" font-family="'Helvetica'" font-size="12" lengthAdjust="spacing" textLength="184.8867" x="208.5" y="384.0605">(already encrypted client-side)</text></g><g class="message" data-entity-1="part2" data-entity-2="part1" data-source-line="21" id="msg6"><polygon fill="#333333" points="212.5,412.8594,202.5,416.8594,212.5,420.8594,208.5,416.8594" style="stroke:#333333;stroke-width:1;stroke-linejoin:miter;stroke-miterlimit:10;"/><line style="stroke:#333333;stroke-width:1;stroke-dasharray:2,2;" x1="206.5" x2="471.1621" y1="416.8594" y2="416.8594"/><text fill="#333333" font-family="'Helvetica'" font-size="12" lengthAdjust="spacing" textLength="103.0313" x="218.5" y="412.0293">backup persisted</text></g><line style="stroke:#000000;stroke-width:1;stroke-dasharray:2,2;" x1="164" x2="538.4775" y1="425.8594" y2="425.8594"/><text fill="#000000" font-family="'Helvetica'" font-size="12" font-weight="700" lengthAdjust="spacing" textLength="258.8672" x="169" y="436.998">[stale key, expired/missing ACL grant,</text><text fill="#000000" font-family="'Helvetica'" font-size="12" font-weight="700" lengthAdjust="spacing" textLength="292.0137" x="169" y="450.9668">or non-SFTP connection attempt (ST-F-04)]</text><g class="message" data-entity-1="part2" data-entity-2="part1" data-source-line="23" id="msg7"><polygon fill="#333333" points="212.5,470.7656,202.5,474.7656,212.5,478.7656,208.5,474.7656" style="stroke:#333333;stroke-width:1;stroke-linejoin:miter;stroke-miterlimit:10;"/><line style="stroke:#333333;stroke-width:1;stroke-dasharray:2,2;" x1="206.5" x2="471.1621" y1="474.7656" y2="474.7656"/><text fill="#333333" font-family="'Helvetica'" font-size="12" lengthAdjust="spacing" textLength="173.2852" x="218.5" y="469.9355">SFTP authentication rejected</text></g><?plantuml-src RL9DYzim4BthLqpt54CSRpzExXBO9eH2qxBWP4-1eaXJPxgo92JPRFhhEtAoOREjRnRpthoFUKTMcLuZp6RLpvYE1cU-xumGYP91s2xAsuyrV97gYMmBMmyILcHG2AcI2x2D68IN8P4YBss2cuQVPOjbWs4WXJSW8pGRkBkBfuVv_7f-APFSouZbe-nD6iUNZrVZmhg4u0OyhmDu2AYSrPJ8sLX3pwyW-tH0oxmoeOP95lvX2goI1eJxnHhQmFkApmm_EACZy3WqpLVmWGR6m1CUeKMBOIIG2GAs51F_yXQOBDRbghnzNmYq6h8Y8R8QAEVPNWtDQlC0hCgYIjEHE1DcLJixUHCAKqTd1bupa8JliYMr_D4KWecOZktNSCz05-WFwczuZ0lNTTBgUcT_OL87K7q8R1PylpUanasJRhDc2WQNBv9UfaQNbqckpgGHCaX3x9JzNF8v1yOXPIrCD7eykuiOOyu28rTcA1vGipTr2Cwb6gfuCbdbEkwUnszUQQwtAfZlAYpspqt1di-gzymXJK2fZu1MXQFF-Ij3BBsCfB7uHyq91nv3v8PG2pGHWLMPiSOfuBEdWBhgY1NptLxyJNUMhzOwMxxkAvkIAM7d4qoQJIxwK_7_35wTMKO5_CtuhC1gyHS0?></g></svg>