<svg xmlns="http://www.w3.org/2000/svg" xmlns:xlink="http://www.w3.org/1999/xlink" contentStyleType="text/css" data-diagram-type="SEQUENCE" height="714px" preserveAspectRatio="none" style="width:906px;height:714px;background:#FFFFFF;" version="1.1" viewBox="0 0 906 714" width="906px" zoomAndPan="magnify"><?plantuml 1.2026.6?><defs/><g><g class="title" data-source-line="3"><text fill="#000000" font-family="'Helvetica'" font-size="14" font-weight="700" lengthAdjust="spacing" textLength="114.0098" x="392.5747" y="27.9951">UC-02 &#8212; Login</text></g><rect fill="none" height="255.6875" rx="4" ry="4" style="stroke:#000000;stroke-width:1.5;" width="880.1592" x="10" y="361.9531"/><g class="participant-lifeline" data-entity-uid="part1" data-qualified-name="User" data-source-line="5" id="part1-lifeline"><g><title>User</title><rect fill="#000000" fill-opacity="0.00000" height="518.375" width="8" x="32.6758" y="116.2656"/><line style="stroke:#181818;stroke-width:0.5;stroke-dasharray:5,5;" x1="36" x2="36" y1="116.2656" y2="634.6406"/></g></g><g class="participant-lifeline" data-entity-uid="part2" data-qualified-name="EH" data-source-line="6" id="part2-lifeline"><g><title>Entry-Hub</title><rect fill="#000000" fill-opacity="0.00000" height="518.375" width="8" x="199.457" y="116.2656"/><line style="stroke:#181818;stroke-width:0.5;stroke-dasharray:5,5;" x1="203.2051" x2="203.2051" y1="116.2656" y2="634.6406"/></g></g><g class="participant-lifeline" data-entity-uid="part3" data-qualified-name="SS" data-source-line="7" id="part3-lifeline"><g><title>Security-Switch</title><rect fill="#000000" fill-opacity="0.00000" height="518.375" width="8" x="365.8691" y="116.2656"/><line style="stroke:#181818;stroke-width:0.5;stroke-dasharray:5,5;" x1="369.2285" x2="369.2285" y1="116.2656" y2="634.6406"/></g></g><g class="participant-lifeline" data-entity-uid="part4" data-qualified-name="DV" data-source-line="8" id="part4-lifeline"><g><title>Database-Vault</title><rect fill="#000000" fill-opacity="0.00000" height="518.375" width="8" x="532.2813" y="116.2656"/><line style="stroke:#181818;stroke-width:0.5;stroke-dasharray:5,5;" x1="535.8838" x2="535.8838" y1="116.2656" y2="634.6406"/></g></g><g class="participant-lifeline" data-entity-uid="part5" data-qualified-name="NM" data-source-line="9" id="part5-lifeline"><g><title>Network-Manager</title><rect fill="#000000" fill-opacity="0.00000" height="518.375" width="8" x="815.6426" y="116.2656"/><line style="stroke:#181818;stroke-width:0.5;stroke-dasharray:5,5;" x1="819.126" x2="819.126" y1="116.2656" y2="634.6406"/></g></g><g class="participant participant-head" data-entity-uid="part1" data-qualified-name="User" data-source-line="5" id="part1-head"><text fill="#000000" font-family="'Helvetica'" font-size="12" lengthAdjust="spacing" textLength="27.3516" x="20" y="113.4355">User</text><ellipse cx="36.6758" cy="50.7969" fill="#E2E2F0" rx="8" ry="8" style="stroke:#181818;stroke-width:0.5;"/><path d="M36.6758,58.7969 L36.6758,85.7969 M23.6758,66.7969 L49.6758,66.7969 M36.6758,85.7969 L23.6758,100.7969 M36.6758,85.7969 L49.6758,100.7969" fill="none" style="stroke:#181818;stroke-width:0.5;"/></g><g class="participant participant-tail" data-entity-uid="part1" data-qualified-name="User" data-source-line="5" id="part1-tail"><text fill="#000000" font-family="'Helvetica'" font-size="12" lengthAdjust="spacing" textLength="27.3516" x="20" y="644.7793">User</text><ellipse cx="36.6758" cy="656.1094" fill="#E2E2F0" rx="8" ry="8" style="stroke:#181818;stroke-width:0.5;"/><path d="M36.6758,664.1094 L36.6758,691.1094 M23.6758,672.1094 L49.6758,672.1094 M36.6758,691.1094 L23.6758,706.1094 M36.6758,691.1094 L49.6758,706.1094" fill="none" style="stroke:#181818;stroke-width:0.5;"/></g><g class="participant participant-head" data-entity-uid="part2" data-qualified-name="EH" data-source-line="6" id="part2-head"><rect fill="#E2E2F0" height="27.9688" rx="4" ry="4" style="stroke:#181818;stroke-width:0.5;" width="74.5039" x="166.2051" y="87.2969"/><text fill="#000000" font-family="'Helvetica'" font-size="12" lengthAdjust="spacing" textLength="60.5039" x="173.2051" y="105.4355">Entry-Hub</text></g><g class="participant participant-tail" data-entity-uid="part2" data-qualified-name="EH" data-source-line="6" id="part2-tail"><rect fill="#E2E2F0" height="27.9688" rx="4" ry="4" style="stroke:#181818;stroke-width:0.5;" width="74.5039" x="166.2051" y="633.6406"/><text fill="#000000" font-family="'Helvetica'" font-size="12" lengthAdjust="spacing" textLength="60.5039" x="173.2051" y="651.7793">Entry-Hub</text></g><g class="participant participant-head" data-entity-uid="part3" data-qualified-name="SS" data-source-line="7" id="part3-head"><rect fill="#E2E2F0" height="27.9688" rx="4" ry="4" style="stroke:#181818;stroke-width:0.5;" width="107.2813" x="316.2285" y="87.2969"/><text fill="#000000" font-family="'Helvetica'" font-size="12" lengthAdjust="spacing" textLength="93.2813" x="323.2285" y="105.4355">Security-Switch</text></g><g class="participant participant-tail" data-entity-uid="part3" data-qualified-name="SS" data-source-line="7" id="part3-tail"><rect fill="#E2E2F0" height="27.9688" rx="4" ry="4" style="stroke:#181818;stroke-width:0.5;" width="107.2813" x="316.2285" y="633.6406"/><text fill="#000000" font-family="'Helvetica'" font-size="12" lengthAdjust="spacing" textLength="93.2813" x="323.2285" y="651.7793">Security-Switch</text></g><g class="participant participant-head" data-entity-uid="part4" data-qualified-name="DV" data-source-line="8" id="part4-head"><rect fill="#E2E2F0" height="27.9688" rx="4" ry="4" style="stroke:#181818;stroke-width:0.5;" width="106.7949" x="482.8838" y="87.2969"/><text fill="#000000" font-family="'Helvetica'" font-size="12" lengthAdjust="spacing" textLength="92.7949" x="489.8838" y="105.4355">Database-Vault</text></g><g class="participant participant-tail" data-entity-uid="part4" data-qualified-name="DV" data-source-line="8" id="part4-tail"><rect fill="#E2E2F0" height="27.9688" rx="4" ry="4" style="stroke:#181818;stroke-width:0.5;" width="106.7949" x="482.8838" y="633.6406"/><text fill="#000000" font-family="'Helvetica'" font-size="12" lengthAdjust="spacing" textLength="92.7949" x="489.8838" y="651.7793">Database-Vault</text></g><g class="participant participant-head" data-entity-uid="part5" data-qualified-name="NM" data-source-line="9" id="part5-head"><rect fill="#E2E2F0" height="27.9688" rx="4" ry="4" style="stroke:#181818;stroke-width:0.5;" width="121.0332" x="759.126" y="87.2969"/><text fill="#000000" font-family="'Helvetica'" font-size="12" lengthAdjust="spacing" textLength="107.0332" x="766.126" y="105.4355">Network-Manager</text></g><g class="participant participant-tail" data-entity-uid="part5" data-qualified-name="NM" data-source-line="9" id="part5-tail"><rect fill="#E2E2F0" height="27.9688" rx="4" ry="4" style="stroke:#181818;stroke-width:0.5;" width="121.0332" x="759.126" y="633.6406"/><text fill="#000000" font-family="'Helvetica'" font-size="12" lengthAdjust="spacing" textLength="107.0332" x="766.126" y="651.7793">Network-Manager</text></g><g class="message" data-entity-1="part1" data-entity-2="part2" data-source-line="11" id="msg1"><polygon fill="#333333" points="191.457,156.2031,201.457,160.2031,191.457,164.2031,195.457,160.2031" style="stroke:#333333;stroke-width:1;stroke-linejoin:miter;stroke-miterlimit:10;"/><line style="stroke:#333333;stroke-width:1;" x1="36.6758" x2="197.457" y1="160.2031" y2="160.2031"/><text fill="#333333" font-family="'Helvetica'" font-size="12" lengthAdjust="spacing" textLength="142.7813" x="43.6758" y="141.4043">POST /api/login (HTTPS)</text><text fill="#333333" font-family="'Helvetica'" font-size="12" lengthAdjust="spacing" textLength="97.9043" x="43.6758" y="155.373">email, password</text></g><g class="message" data-entity-1="part2" data-entity-2="part3" data-source-line="12" id="msg2"><polygon fill="#333333" points="357.8691,184.1719,367.8691,188.1719,357.8691,192.1719,361.8691,188.1719" style="stroke:#333333;stroke-width:1;stroke-linejoin:miter;stroke-miterlimit:10;"/><line style="stroke:#333333;stroke-width:1;" x1="203.457" x2="363.8691" y1="188.1719" y2="188.1719"/><text fill="#333333" font-family="'Helvetica'" font-size="12" lengthAdjust="spacing" textLength="142.4121" x="210.457" y="183.3418">forward request (mTLS)</text></g><g class="message" data-entity-1="part3" data-entity-2="part4" data-source-line="13" id="msg3"><polygon fill="#333333" points="524.2813,212.1406,534.2813,216.1406,524.2813,220.1406,528.2813,216.1406" style="stroke:#333333;stroke-width:1;stroke-linejoin:miter;stroke-miterlimit:10;"/><line style="stroke:#333333;stroke-width:1;" x1="369.8691" x2="530.2813" y1="216.1406" y2="216.1406"/><text fill="#333333" font-family="'Helvetica'" font-size="12" lengthAdjust="spacing" textLength="142.4121" x="376.8691" y="211.3105">forward request (mTLS)</text></g><path d="M151,233.1406 L151,276.1406 A4,4 0 0 0 155,280.1406 L583,280.1406 A4,4 0 0 0 587,276.1406 L587,239.1406 L577,229.1406 L155,229.1406 A4,4 0 0 0 151,233.1406" fill="#FEFFDD" style="stroke:#181818;stroke-width:0.5;"/><path d="M577,229.1406 L577,237.1406 A2,2 0 0 0 579,239.1406 L587,239.1406 L577,229.1406" fill="#FEFFDD" style="stroke:#181818;stroke-width:0.5;"/><text fill="#000000" font-family="'Helvetica'" font-size="12" lengthAdjust="spacing" textLength="282.5215" x="157" y="245.2793">Each hop independently re-validates the input.</text><text fill="#000000" font-family="'Helvetica'" font-size="12" lengthAdjust="spacing" textLength="315.5566" x="157" y="259.248">On failure: HTTP 400, request not forwarded further,</text><text fill="#000000" font-family="'Helvetica'" font-size="12" lengthAdjust="spacing" textLength="415.8691" x="157" y="273.2168">issue logged without identifying the user (EH-F-06, SS-F-03, DV-F-02)</text><g class="message" data-entity-1="part4" data-entity-2="part4" data-source-line="21" id="msg4"><line style="stroke:#333333;stroke-width:1;" x1="536.2813" x2="578.2813" y1="333.9531" y2="333.9531"/><line style="stroke:#333333;stroke-width:1;" x1="578.2813" x2="578.2813" y1="333.9531" y2="346.9531"/><line style="stroke:#333333;stroke-width:1;" x1="537.2813" x2="578.2813" y1="346.9531" y2="346.9531"/><polygon fill="#333333" points="547.2813,342.9531,537.2813,346.9531,547.2813,350.9531,543.2813,346.9531" style="stroke:#333333;stroke-width:1;stroke-linejoin:miter;stroke-miterlimit:10;"/><text fill="#333333" font-family="'Helvetica'" font-size="12" lengthAdjust="spacing" textLength="192.5742" x="543.2813" y="301.1855">retrieve salt via SHA-256(email)</text><text fill="#333333" font-family="'Helvetica'" font-size="12" lengthAdjust="spacing" textLength="269.3613" x="543.2813" y="315.1543">recompute Argon2id(password, salt, pepper)</text><text fill="#333333" font-family="'Helvetica'" font-size="12" lengthAdjust="spacing" textLength="156.8672" x="543.2813" y="329.123">compare with stored hash</text></g><path d="M14,361.9531 L72.9473,361.9531 L72.9473,367.9219 L62.9473,377.9219 L10,377.9219 L10,365.9531 A4,4 0 0 1 14,361.9531" fill="#EEEEEE" style="stroke:#000000;stroke-width:1.5;"/><rect fill="none" height="255.6875" rx="4" ry="4" style="stroke:#000000;stroke-width:1.5;" width="880.1592" x="10" y="361.9531"/><text fill="#000000" font-family="'Helvetica'" font-size="12" font-weight="700" lengthAdjust="spacing" textLength="17.9473" x="25" y="374.0918">alt</text><text fill="#000000" font-family="'Helvetica'" font-size="12" font-weight="700" lengthAdjust="spacing" textLength="266.6191" x="87.9473" y="375.0918">[nonexistent email or wrong password]</text><g class="message" data-entity-1="part4" data-entity-2="part3" data-source-line="24" id="msg5"><polygon fill="#333333" points="380.8691,393.8906,370.8691,397.8906,380.8691,401.8906,376.8691,397.8906" style="stroke:#333333;stroke-width:1;stroke-linejoin:miter;stroke-miterlimit:10;"/><line style="stroke:#333333;stroke-width:1;stroke-dasharray:2,2;" x1="374.8691" x2="535.2813" y1="397.8906" y2="397.8906"/><text fill="#333333" font-family="'Helvetica'" font-size="12" lengthAdjust="spacing" textLength="107.2852" x="386.8691" y="393.0605">401 Unauthorized</text></g><g class="message" data-entity-1="part3" data-entity-2="part2" data-source-line="25" id="msg6"><polygon fill="#333333" points="214.457,421.8594,204.457,425.8594,214.457,429.8594,210.457,425.8594" style="stroke:#333333;stroke-width:1;stroke-linejoin:miter;stroke-miterlimit:10;"/><line style="stroke:#333333;stroke-width:1;stroke-dasharray:2,2;" x1="208.457" x2="368.8691" y1="425.8594" y2="425.8594"/><text fill="#333333" font-family="'Helvetica'" font-size="12" lengthAdjust="spacing" textLength="107.2852" x="220.457" y="421.0293">401 Unauthorized</text></g><g class="message" data-entity-1="part2" data-entity-2="part1" data-source-line="26" id="msg7"><polygon fill="#333333" points="47.6758,449.8281,37.6758,453.8281,47.6758,457.8281,43.6758,453.8281" style="stroke:#333333;stroke-width:1;stroke-linejoin:miter;stroke-miterlimit:10;"/><line style="stroke:#333333;stroke-width:1;stroke-dasharray:2,2;" x1="41.6758" x2="202.457" y1="453.8281" y2="453.8281"/><text fill="#333333" font-family="'Helvetica'" font-size="12" lengthAdjust="spacing" textLength="107.2852" x="53.6758" y="448.998">401 Unauthorized</text></g><line style="stroke:#000000;stroke-width:1;stroke-dasharray:2,2;" x1="10" x2="890.1592" y1="462.8281" y2="462.8281"/><text fill="#000000" font-family="'Helvetica'" font-size="12" font-weight="700" lengthAdjust="spacing" textLength="123.5273" x="15" y="473.9668">[valid credentials]</text><g class="message" data-entity-1="part4" data-entity-2="part3" data-source-line="28" id="msg8"><polygon fill="#333333" points="380.8691,493.7656,370.8691,497.7656,380.8691,501.7656,376.8691,497.7656" style="stroke:#333333;stroke-width:1;stroke-linejoin:miter;stroke-miterlimit:10;"/><line style="stroke:#333333;stroke-width:1;stroke-dasharray:2,2;" x1="374.8691" x2="535.2813" y1="497.7656" y2="497.7656"/><text fill="#333333" font-family="'Helvetica'" font-size="12" lengthAdjust="spacing" textLength="137.9883" x="386.8691" y="492.9355">authentication success</text></g><g class="message" data-entity-1="part3" data-entity-2="part5" data-source-line="29" id="msg9"><polygon fill="#333333" points="807.6426,521.7344,817.6426,525.7344,807.6426,529.7344,811.6426,525.7344" style="stroke:#333333;stroke-width:1;stroke-linejoin:miter;stroke-miterlimit:10;"/><line style="stroke:#333333;stroke-width:1;" x1="369.8691" x2="813.6426" y1="525.7344" y2="525.7344"/><text fill="#333333" font-family="'Helvetica'" font-size="12" lengthAdjust="spacing" textLength="201.082" x="376.8691" y="520.9043">grant ACL tag, 12h expiry (mTLS)</text></g><g class="message" data-entity-1="part5" data-entity-2="part3" data-source-line="30" id="msg10"><polygon fill="#333333" points="380.8691,549.7031,370.8691,553.7031,380.8691,557.7031,376.8691,553.7031" style="stroke:#333333;stroke-width:1;stroke-linejoin:miter;stroke-miterlimit:10;"/><line style="stroke:#333333;stroke-width:1;stroke-dasharray:2,2;" x1="374.8691" x2="818.6426" y1="553.7031" y2="553.7031"/><text fill="#333333" font-family="'Helvetica'" font-size="12" lengthAdjust="spacing" textLength="123.8438" x="386.8691" y="548.873">ACL grant confirmed</text></g><g class="message" data-entity-1="part3" data-entity-2="part2" data-source-line="31" id="msg11"><polygon fill="#333333" points="214.457,577.6719,204.457,581.6719,214.457,585.6719,210.457,581.6719" style="stroke:#333333;stroke-width:1;stroke-linejoin:miter;stroke-miterlimit:10;"/><line style="stroke:#333333;stroke-width:1;stroke-dasharray:2,2;" x1="208.457" x2="368.8691" y1="581.6719" y2="581.6719"/><text fill="#333333" font-family="'Helvetica'" font-size="12" lengthAdjust="spacing" textLength="44.0332" x="220.457" y="576.8418">200 OK</text></g><g class="message" data-entity-1="part2" data-entity-2="part1" data-source-line="32" id="msg12"><polygon fill="#333333" points="47.6758,605.6406,37.6758,609.6406,47.6758,613.6406,43.6758,609.6406" style="stroke:#333333;stroke-width:1;stroke-linejoin:miter;stroke-miterlimit:10;"/><line style="stroke:#333333;stroke-width:1;stroke-dasharray:2,2;" x1="41.6758" x2="202.457" y1="609.6406" y2="609.6406"/><text fill="#333333" font-family="'Helvetica'" font-size="12" lengthAdjust="spacing" textLength="44.0332" x="53.6758" y="604.8105">200 OK</text></g><?plantuml-src TLBBRjim4BppAxOvsO1aAsgQGmu1ZDY5W3fn0Da-5IWsqbeYIfCg7tRSKpyYNzWlwLAD3RX9BmJ1dU7CxEu7gIiLQeBHQFpD-OEYKHUsIWWllI9OtQLP3hz_lS3SD58BWPKt5bQEhEZGUbd93hM7Yvdszf0MuUa2qC6iEA-ML0Kh_I4jzz9NROyfotFC53q-eQDqZK7v7Z9TdqCUoE-D_PxUeyQ6R8zvk1SYse7qbcNX1XuNvHB6sCcnYfPXK2oNZ-NmgwOjIfL0XyxnBxLWD7FAaZaRO_TeQx3q8v3pCDWkv-LGS8qHq_N_4K8RJs1sh3yhacWOO8PL2wtfGEgQEk93UtLWPhf39MlqvC2tnEKk-14J5XesR2rOke5e5gwoB3afiS9HdMhO1CjScp1DEXS8E6J3xzpNrWGFCgh9pK7gfXS9iJM3MP5-JhFhXDF6oyVeD5xoeM1_KOA4u9p7j9QybRGZSAWyx2H2MKpI_DFre6yYDzDIPRRids1Y6wDpMG-EZKrw5ZUQkeuiOoCIBVKUmV7-iDyMNSlRf68-JS_IUVOD_U_02xQtXWESHWNHLdgSrbLs2IkDWHDR-PDYEKxgk03lbEEekTploJi0KewW7mvKR2vs49NxHpNYOwL2Buq65wgAd7lLlkKzP4nZuvvExkRWiKdWCc-1dZjf3yTzWOWxVHc1VocLqHjfjs-ov5a6Yozl4hm-y-p47m00?></g></svg>