<svg xmlns="http://www.w3.org/2000/svg" xmlns:xlink="http://www.w3.org/1999/xlink" contentStyleType="text/css" data-diagram-type="SEQUENCE" height="1044px" preserveAspectRatio="none" style="width:1243px;height:1044px;background:#FFFFFF;" version="1.1" viewBox="0 0 1243 1044" width="1243px" zoomAndPan="magnify"><?plantuml 1.2026.6?><defs/><g><g class="title" data-source-line="3"><text fill="#000000" font-family="'Helvetica'" font-size="14" font-weight="700" lengthAdjust="spacing" textLength="209.207" x="513.5444" y="27.9951">UC-01 &#8212; User Registration</text></g><rect fill="none" height="551.375" rx="4" ry="4" style="stroke:#000000;stroke-width:1.5;" width="1103.2959" x="124" y="395.9219"/><rect fill="none" height="352.5938" rx="4" ry="4" style="stroke:#000000;stroke-width:1.5;" width="1083.2959" x="134" y="587.7031"/><g class="participant-lifeline" data-entity-uid="part1" data-qualified-name="User" data-source-line="5" id="part1-lifeline"><g><title>User</title><rect fill="#000000" fill-opacity="0.00000" height="848.0313" width="8" x="156.6758" y="116.2656"/><line style="stroke:#181818;stroke-width:0.5;stroke-dasharray:5,5;" x1="160" x2="160" y1="116.2656" y2="964.2969"/></g></g><g class="participant-lifeline" data-entity-uid="part2" data-qualified-name="EH" data-source-line="6" id="part2-lifeline"><g><title>Entry-Hub</title><rect fill="#000000" fill-opacity="0.00000" height="848.0313" width="8" x="375.6348" y="116.2656"/><line style="stroke:#181818;stroke-width:0.5;stroke-dasharray:5,5;" x1="379.3828" x2="379.3828" y1="116.2656" y2="964.2969"/></g></g><g class="participant-lifeline" data-entity-uid="part3" data-qualified-name="SS" data-source-line="7" id="part3-lifeline"><g><title>Security-Switch</title><rect fill="#000000" fill-opacity="0.00000" height="848.0313" width="8" x="568.5723" y="116.2656"/><line style="stroke:#181818;stroke-width:0.5;stroke-dasharray:5,5;" x1="571.9316" x2="571.9316" y1="116.2656" y2="964.2969"/></g></g><g class="participant-lifeline" data-entity-uid="part4" data-qualified-name="DV" data-source-line="8" id="part4-lifeline"><g><title>Database-Vault</title><rect fill="#000000" fill-opacity="0.00000" height="848.0313" width="8" x="734.9844" y="116.2656"/><line style="stroke:#181818;stroke-width:0.5;stroke-dasharray:5,5;" x1="738.5869" x2="738.5869" y1="116.2656" y2="964.2969"/></g></g><g class="participant-lifeline" data-entity-uid="part5" data-qualified-name="ST" data-source-line="9" id="part5-lifeline"><g><title>Storage-Service</title><rect fill="#000000" fill-opacity="0.00000" height="848.0313" width="8" x="1017.4473" y="116.2656"/><line style="stroke:#181818;stroke-width:0.5;stroke-dasharray:5,5;" x1="1020.6318" x2="1020.6318" y1="116.2656" y2="964.2969"/></g></g><g class="participant-lifeline" data-entity-uid="part6" data-qualified-name="NM" data-source-line="10" id="part6-lifeline"><g><title>Network-Manager</title><rect fill="#000000" fill-opacity="0.00000" height="848.0313" width="8" x="1142.7793" y="116.2656"/><line style="stroke:#181818;stroke-width:0.5;stroke-dasharray:5,5;" x1="1146.2627" x2="1146.2627" y1="116.2656" y2="964.2969"/></g></g><g class="participant participant-head" data-entity-uid="part1" data-qualified-name="User" data-source-line="5" id="part1-head"><text fill="#000000" font-family="'Helvetica'" font-size="12" lengthAdjust="spacing" textLength="27.3516" x="144" y="113.4355">User</text><ellipse cx="160.6758" cy="50.7969" fill="#E2E2F0" rx="8" ry="8" style="stroke:#181818;stroke-width:0.5;"/><path d="M160.6758,58.7969 L160.6758,85.7969 M147.6758,66.7969 L173.6758,66.7969 M160.6758,85.7969 L147.6758,100.7969 M160.6758,85.7969 L173.6758,100.7969" fill="none" style="stroke:#181818;stroke-width:0.5;"/></g><g class="participant participant-tail" data-entity-uid="part1" data-qualified-name="User" data-source-line="5" id="part1-tail"><text fill="#000000" font-family="'Helvetica'" font-size="12" lengthAdjust="spacing" textLength="27.3516" x="144" y="974.4355">User</text><ellipse cx="160.6758" cy="985.7656" fill="#E2E2F0" rx="8" ry="8" style="stroke:#181818;stroke-width:0.5;"/><path d="M160.6758,993.7656 L160.6758,1020.7656 M147.6758,1001.7656 L173.6758,1001.7656 M160.6758,1020.7656 L147.6758,1035.7656 M160.6758,1020.7656 L173.6758,1035.7656" fill="none" style="stroke:#181818;stroke-width:0.5;"/></g><g class="participant participant-head" data-entity-uid="part2" data-qualified-name="EH" data-source-line="6" id="part2-head"><rect fill="#E2E2F0" height="27.9688" rx="4" ry="4" style="stroke:#181818;stroke-width:0.5;" width="74.5039" x="342.3828" y="87.2969"/><text fill="#000000" font-family="'Helvetica'" font-size="12" lengthAdjust="spacing" textLength="60.5039" x="349.3828" y="105.4355">Entry-Hub</text></g><g class="participant participant-tail" data-entity-uid="part2" data-qualified-name="EH" data-source-line="6" id="part2-tail"><rect fill="#E2E2F0" height="27.9688" rx="4" ry="4" style="stroke:#181818;stroke-width:0.5;" width="74.5039" x="342.3828" y="963.2969"/><text fill="#000000" font-family="'Helvetica'" font-size="12" lengthAdjust="spacing" textLength="60.5039" x="349.3828" y="981.4355">Entry-Hub</text></g><g class="participant participant-head" data-entity-uid="part3" data-qualified-name="SS" data-source-line="7" id="part3-head"><rect fill="#E2E2F0" height="27.9688" rx="4" ry="4" style="stroke:#181818;stroke-width:0.5;" width="107.2813" x="518.9316" y="87.2969"/><text fill="#000000" font-family="'Helvetica'" font-size="12" lengthAdjust="spacing" textLength="93.2813" x="525.9316" y="105.4355">Security-Switch</text></g><g class="participant participant-tail" data-entity-uid="part3" data-qualified-name="SS" data-source-line="7" id="part3-tail"><rect fill="#E2E2F0" height="27.9688" rx="4" ry="4" style="stroke:#181818;stroke-width:0.5;" width="107.2813" x="518.9316" y="963.2969"/><text fill="#000000" font-family="'Helvetica'" font-size="12" lengthAdjust="spacing" textLength="93.2813" x="525.9316" y="981.4355">Security-Switch</text></g><g class="participant participant-head" data-entity-uid="part4" data-qualified-name="DV" data-source-line="8" id="part4-head"><rect fill="#E2E2F0" height="27.9688" rx="4" ry="4" style="stroke:#181818;stroke-width:0.5;" width="106.7949" x="685.5869" y="87.2969"/><text fill="#000000" font-family="'Helvetica'" font-size="12" lengthAdjust="spacing" textLength="92.7949" x="692.5869" y="105.4355">Database-Vault</text></g><g class="participant participant-tail" data-entity-uid="part4" data-qualified-name="DV" data-source-line="8" id="part4-tail"><rect fill="#E2E2F0" height="27.9688" rx="4" ry="4" style="stroke:#181818;stroke-width:0.5;" width="106.7949" x="685.5869" y="963.2969"/><text fill="#000000" font-family="'Helvetica'" font-size="12" lengthAdjust="spacing" textLength="92.7949" x="692.5869" y="981.4355">Database-Vault</text></g><g class="participant participant-head" data-entity-uid="part5" data-qualified-name="ST" data-source-line="9" id="part5-head"><rect fill="#E2E2F0" height="27.9688" rx="4" ry="4" style="stroke:#181818;stroke-width:0.5;" width="109.6309" x="966.6318" y="87.2969"/><text fill="#000000" font-family="'Helvetica'" font-size="12" lengthAdjust="spacing" textLength="95.6309" x="973.6318" y="105.4355">Storage-Service</text></g><g class="participant participant-tail" data-entity-uid="part5" data-qualified-name="ST" data-source-line="9" id="part5-tail"><rect fill="#E2E2F0" height="27.9688" rx="4" ry="4" style="stroke:#181818;stroke-width:0.5;" width="109.6309" x="966.6318" y="963.2969"/><text fill="#000000" font-family="'Helvetica'" font-size="12" lengthAdjust="spacing" textLength="95.6309" x="973.6318" y="981.4355">Storage-Service</text></g><g class="participant participant-head" data-entity-uid="part6" data-qualified-name="NM" data-source-line="10" id="part6-head"><rect fill="#E2E2F0" height="27.9688" rx="4" ry="4" style="stroke:#181818;stroke-width:0.5;" width="121.0332" x="1086.2627" y="87.2969"/><text fill="#000000" font-family="'Helvetica'" font-size="12" lengthAdjust="spacing" textLength="107.0332" x="1093.2627" y="105.4355">Network-Manager</text></g><g class="participant participant-tail" data-entity-uid="part6" data-qualified-name="NM" data-source-line="10" id="part6-tail"><rect fill="#E2E2F0" height="27.9688" rx="4" ry="4" style="stroke:#181818;stroke-width:0.5;" width="121.0332" x="1086.2627" y="963.2969"/><text fill="#000000" font-family="'Helvetica'" font-size="12" lengthAdjust="spacing" textLength="107.0332" x="1093.2627" y="981.4355">Network-Manager</text></g><path d="M5,135.2656 L5,164.2656 A4,4 0 0 0 9,168.2656 L313,168.2656 A4,4 0 0 0 317,164.2656 L317,141.2656 L307,131.2656 L9,131.2656 A4,4 0 0 0 5,135.2656" fill="#FEFFDD" style="stroke:#181818;stroke-width:0.5;"/><path d="M307,131.2656 L307,139.2656 A2,2 0 0 0 309,141.2656 L317,141.2656 L307,131.2656" fill="#FEFFDD" style="stroke:#181818;stroke-width:0.5;"/><text fill="#000000" font-family="'Helvetica'" font-size="12" lengthAdjust="spacing" textLength="257.1621" x="11" y="147.4043">SSH keypair already generated client-side;</text><text fill="#000000" font-family="'Helvetica'" font-size="12" lengthAdjust="spacing" textLength="291.3809" x="11" y="161.373">the private key never leaves the client (CL-F-01)</text><g class="message" data-entity-1="part1" data-entity-2="part2" data-source-line="17" id="msg1"><polygon fill="#333333" points="367.6348,204.1406,377.6348,208.1406,367.6348,212.1406,371.6348,208.1406" style="stroke:#333333;stroke-width:1;stroke-linejoin:miter;stroke-miterlimit:10;"/><line style="stroke:#333333;stroke-width:1;" x1="160.6758" x2="373.6348" y1="208.1406" y2="208.1406"/><text fill="#333333" font-family="'Helvetica'" font-size="12" lengthAdjust="spacing" textLength="160.0898" x="167.6758" y="189.3418">POST /api/register (HTTPS)</text><text fill="#333333" font-family="'Helvetica'" font-size="12" lengthAdjust="spacing" textLength="194.959" x="167.6758" y="203.3105">email, password, SSH public key</text></g><g class="message" data-entity-1="part2" data-entity-2="part3" data-source-line="18" id="msg2"><polygon fill="#333333" points="560.5723,232.1094,570.5723,236.1094,560.5723,240.1094,564.5723,236.1094" style="stroke:#333333;stroke-width:1;stroke-linejoin:miter;stroke-miterlimit:10;"/><line style="stroke:#333333;stroke-width:1;" x1="379.6348" x2="566.5723" y1="236.1094" y2="236.1094"/><text fill="#333333" font-family="'Helvetica'" font-size="12" lengthAdjust="spacing" textLength="142.4121" x="386.6348" y="231.2793">forward request (mTLS)</text></g><g class="message" data-entity-1="part3" data-entity-2="part4" data-source-line="19" id="msg3"><polygon fill="#333333" points="726.9844,260.0781,736.9844,264.0781,726.9844,268.0781,730.9844,264.0781" style="stroke:#333333;stroke-width:1;stroke-linejoin:miter;stroke-miterlimit:10;"/><line style="stroke:#333333;stroke-width:1;" x1="572.5723" x2="732.9844" y1="264.0781" y2="264.0781"/><text fill="#333333" font-family="'Helvetica'" font-size="12" lengthAdjust="spacing" textLength="142.4121" x="579.5723" y="259.248">forward request (mTLS)</text></g><path d="M336,281.0781 L336,324.0781 A4,4 0 0 0 340,328.0781 L776,328.0781 A4,4 0 0 0 780,324.0781 L780,287.0781 L770,277.0781 L340,277.0781 A4,4 0 0 0 336,281.0781" fill="#FEFFDD" style="stroke:#181818;stroke-width:0.5;"/><path d="M770,277.0781 L770,285.0781 A2,2 0 0 0 772,287.0781 L780,287.0781 L770,277.0781" fill="#FEFFDD" style="stroke:#181818;stroke-width:0.5;"/><text fill="#000000" font-family="'Helvetica'" font-size="12" lengthAdjust="spacing" textLength="282.5215" x="346.0649" y="293.2168">Each hop independently re-validates the input.</text><text fill="#000000" font-family="'Helvetica'" font-size="12" lengthAdjust="spacing" textLength="315.5566" x="346.0649" y="307.1855">On failure: HTTP 400, request not forwarded further,</text><text fill="#000000" font-family="'Helvetica'" font-size="12" lengthAdjust="spacing" textLength="415.8691" x="346.0649" y="321.1543">issue logged without identifying the user (EH-F-06, SS-F-03, DV-F-02)</text><g class="message" data-entity-1="part4" data-entity-2="part4" data-source-line="27" id="msg4"><line style="stroke:#333333;stroke-width:1;" x1="738.9844" x2="780.9844" y1="367.9219" y2="367.9219"/><line style="stroke:#333333;stroke-width:1;" x1="780.9844" x2="780.9844" y1="367.9219" y2="380.9219"/><line style="stroke:#333333;stroke-width:1;" x1="739.9844" x2="780.9844" y1="380.9219" y2="380.9219"/><polygon fill="#333333" points="749.9844,376.9219,739.9844,380.9219,749.9844,384.9219,745.9844,380.9219" style="stroke:#333333;stroke-width:1;stroke-linejoin:miter;stroke-miterlimit:10;"/><text fill="#333333" font-family="'Helvetica'" font-size="12" lengthAdjust="spacing" textLength="225.2813" x="745.9844" y="349.123">hash email (SHA-256) &#183; encrypt email</text><text fill="#333333" font-family="'Helvetica'" font-size="12" lengthAdjust="spacing" textLength="157.2832" x="745.9844" y="363.0918">hash password (Argon2id)</text></g><path d="M128,395.9219 L186.9473,395.9219 L186.9473,401.8906 L176.9473,411.8906 L124,411.8906 L124,399.9219 A4,4 0 0 1 128,395.9219" fill="#EEEEEE" style="stroke:#000000;stroke-width:1.5;"/><rect fill="none" height="551.375" rx="4" ry="4" style="stroke:#000000;stroke-width:1.5;" width="1103.2959" x="124" y="395.9219"/><text fill="#000000" font-family="'Helvetica'" font-size="12" font-weight="700" lengthAdjust="spacing" textLength="17.9473" x="139" y="408.0605">alt</text><text fill="#000000" font-family="'Helvetica'" font-size="12" font-weight="700" lengthAdjust="spacing" textLength="255.457" x="201.9473" y="409.0605">[email or SSH key already registered]</text><g class="message" data-entity-1="part4" data-entity-2="part3" data-source-line="30" id="msg5"><polygon fill="#333333" points="583.5723,427.8594,573.5723,431.8594,583.5723,435.8594,579.5723,431.8594" style="stroke:#333333;stroke-width:1;stroke-linejoin:miter;stroke-miterlimit:10;"/><line style="stroke:#333333;stroke-width:1;stroke-dasharray:2,2;" x1="577.5723" x2="737.9844" y1="431.8594" y2="431.8594"/><text fill="#333333" font-family="'Helvetica'" font-size="12" lengthAdjust="spacing" textLength="72.2402" x="589.5723" y="427.0293">409 Conflict</text></g><g class="message" data-entity-1="part3" data-entity-2="part2" data-source-line="31" id="msg6"><polygon fill="#333333" points="390.6348,455.8281,380.6348,459.8281,390.6348,463.8281,386.6348,459.8281" style="stroke:#333333;stroke-width:1;stroke-linejoin:miter;stroke-miterlimit:10;"/><line style="stroke:#333333;stroke-width:1;stroke-dasharray:2,2;" x1="384.6348" x2="571.5723" y1="459.8281" y2="459.8281"/><text fill="#333333" font-family="'Helvetica'" font-size="12" lengthAdjust="spacing" textLength="72.2402" x="396.6348" y="454.998">409 Conflict</text></g><g class="message" data-entity-1="part2" data-entity-2="part1" data-source-line="32" id="msg7"><polygon fill="#333333" points="171.6758,483.7969,161.6758,487.7969,171.6758,491.7969,167.6758,487.7969" style="stroke:#333333;stroke-width:1;stroke-linejoin:miter;stroke-miterlimit:10;"/><line style="stroke:#333333;stroke-width:1;stroke-dasharray:2,2;" x1="165.6758" x2="378.6348" y1="487.7969" y2="487.7969"/><text fill="#333333" font-family="'Helvetica'" font-size="12" lengthAdjust="spacing" textLength="72.2402" x="177.6758" y="482.9668">409 Conflict</text></g><line style="stroke:#000000;stroke-width:1;stroke-dasharray:2,2;" x1="124" x2="1227.2959" y1="496.7969" y2="496.7969"/><text fill="#000000" font-family="'Helvetica'" font-size="12" font-weight="700" lengthAdjust="spacing" textLength="94.9688" x="129" y="507.9355">[no duplicate]</text><g class="message" data-entity-1="part4" data-entity-2="part4" data-source-line="34" id="msg8"><line style="stroke:#333333;stroke-width:1;" x1="738.9844" x2="780.9844" y1="531.7344" y2="531.7344"/><line style="stroke:#333333;stroke-width:1;" x1="780.9844" x2="780.9844" y1="531.7344" y2="544.7344"/><line style="stroke:#333333;stroke-width:1;" x1="739.9844" x2="780.9844" y1="544.7344" y2="544.7344"/><polygon fill="#333333" points="749.9844,540.7344,739.9844,544.7344,749.9844,548.7344,745.9844,544.7344" style="stroke:#333333;stroke-width:1;stroke-linejoin:miter;stroke-miterlimit:10;"/><text fill="#333333" font-family="'Helvetica'" font-size="12" lengthAdjust="spacing" textLength="226.5" x="745.9844" y="526.9043">save user record (atomic transaction)</text></g><g class="message" data-entity-1="part4" data-entity-2="part5" data-source-line="35" id="msg9"><polygon fill="#333333" points="1009.4473,568.7031,1019.4473,572.7031,1009.4473,576.7031,1013.4473,572.7031" style="stroke:#333333;stroke-width:1;stroke-linejoin:miter;stroke-miterlimit:10;"/><line style="stroke:#333333;stroke-width:1;" x1="738.9844" x2="1015.4473" y1="572.7031" y2="572.7031"/><text fill="#333333" font-family="'Helvetica'" font-size="12" lengthAdjust="spacing" textLength="258.4629" x="745.9844" y="567.873">create POSIX user "user&lt;xxxxxx&gt;" (mTLS)</text></g><path d="M138,587.7031 L196.9473,587.7031 L196.9473,593.6719 L186.9473,603.6719 L134,603.6719 L134,591.7031 A4,4 0 0 1 138,587.7031" fill="#EEEEEE" style="stroke:#000000;stroke-width:1.5;"/><rect fill="none" height="352.5938" rx="4" ry="4" style="stroke:#000000;stroke-width:1.5;" width="1083.2959" x="134" y="587.7031"/><text fill="#000000" font-family="'Helvetica'" font-size="12" font-weight="700" lengthAdjust="spacing" textLength="17.9473" x="149" y="599.8418">alt</text><text fill="#000000" font-family="'Helvetica'" font-size="12" font-weight="700" lengthAdjust="spacing" textLength="179.1914" x="211.9473" y="600.8418">[POSIX user creation fails]</text><g class="message" data-entity-1="part5" data-entity-2="part4" data-source-line="38" id="msg10"><polygon fill="#333333" points="749.9844,619.6406,739.9844,623.6406,749.9844,627.6406,745.9844,623.6406" style="stroke:#333333;stroke-width:1;stroke-linejoin:miter;stroke-miterlimit:10;"/><line style="stroke:#333333;stroke-width:1;stroke-dasharray:2,2;" x1="743.9844" x2="1020.4473" y1="623.6406" y2="623.6406"/><text fill="#333333" font-family="'Helvetica'" font-size="12" lengthAdjust="spacing" textLength="38.168" x="755.9844" y="618.8105">failure</text></g><g class="message" data-entity-1="part4" data-entity-2="part4" data-source-line="39" id="msg11"><line style="stroke:#333333;stroke-width:1;" x1="738.9844" x2="780.9844" y1="651.6094" y2="651.6094"/><line style="stroke:#333333;stroke-width:1;" x1="780.9844" x2="780.9844" y1="651.6094" y2="664.6094"/><line style="stroke:#333333;stroke-width:1;" x1="739.9844" x2="780.9844" y1="664.6094" y2="664.6094"/><polygon fill="#333333" points="749.9844,660.6094,739.9844,664.6094,749.9844,668.6094,745.9844,664.6094" style="stroke:#333333;stroke-width:1;stroke-linejoin:miter;stroke-miterlimit:10;"/><text fill="#333333" font-family="'Helvetica'" font-size="12" lengthAdjust="spacing" textLength="259.9688" x="745.9844" y="646.7793">delete user record (compensating rollback)</text></g><g class="message" data-entity-1="part4" data-entity-2="part3" data-source-line="40" id="msg12"><polygon fill="#333333" points="583.5723,688.5781,573.5723,692.5781,583.5723,696.5781,579.5723,692.5781" style="stroke:#333333;stroke-width:1;stroke-linejoin:miter;stroke-miterlimit:10;"/><line style="stroke:#333333;stroke-width:1;stroke-dasharray:2,2;" x1="577.5723" x2="737.9844" y1="692.5781" y2="692.5781"/><text fill="#333333" font-family="'Helvetica'" font-size="12" lengthAdjust="spacing" textLength="106.5586" x="589.5723" y="687.748">registration failed</text></g><g class="message" data-entity-1="part3" data-entity-2="part2" data-source-line="41" id="msg13"><polygon fill="#333333" points="390.6348,716.5469,380.6348,720.5469,390.6348,724.5469,386.6348,720.5469" style="stroke:#333333;stroke-width:1;stroke-linejoin:miter;stroke-miterlimit:10;"/><line style="stroke:#333333;stroke-width:1;stroke-dasharray:2,2;" x1="384.6348" x2="571.5723" y1="720.5469" y2="720.5469"/><text fill="#333333" font-family="'Helvetica'" font-size="12" lengthAdjust="spacing" textLength="21.8379" x="396.6348" y="715.7168">5xx</text></g><g class="message" data-entity-1="part2" data-entity-2="part1" data-source-line="42" id="msg14"><polygon fill="#333333" points="171.6758,744.5156,161.6758,748.5156,171.6758,752.5156,167.6758,748.5156" style="stroke:#333333;stroke-width:1;stroke-linejoin:miter;stroke-miterlimit:10;"/><line style="stroke:#333333;stroke-width:1;stroke-dasharray:2,2;" x1="165.6758" x2="378.6348" y1="748.5156" y2="748.5156"/><text fill="#333333" font-family="'Helvetica'" font-size="12" lengthAdjust="spacing" textLength="21.8379" x="177.6758" y="743.6855">5xx</text></g><line style="stroke:#000000;stroke-width:1;stroke-dasharray:2,2;" x1="134" x2="1217.2959" y1="757.5156" y2="757.5156"/><text fill="#000000" font-family="'Helvetica'" font-size="12" font-weight="700" lengthAdjust="spacing" textLength="63.3047" x="139" y="768.6543">[success]</text><g class="message" data-entity-1="part5" data-entity-2="part4" data-source-line="44" id="msg15"><polygon fill="#333333" points="749.9844,788.4531,739.9844,792.4531,749.9844,796.4531,745.9844,792.4531" style="stroke:#333333;stroke-width:1;stroke-linejoin:miter;stroke-miterlimit:10;"/><line style="stroke:#333333;stroke-width:1;stroke-dasharray:2,2;" x1="743.9844" x2="1020.4473" y1="792.4531" y2="792.4531"/><text fill="#333333" font-family="'Helvetica'" font-size="12" lengthAdjust="spacing" textLength="115.834" x="755.9844" y="787.623">POSIX user created</text></g><g class="message" data-entity-1="part4" data-entity-2="part3" data-source-line="45" id="msg16"><polygon fill="#333333" points="583.5723,816.4219,573.5723,820.4219,583.5723,824.4219,579.5723,820.4219" style="stroke:#333333;stroke-width:1;stroke-linejoin:miter;stroke-miterlimit:10;"/><line style="stroke:#333333;stroke-width:1;stroke-dasharray:2,2;" x1="577.5723" x2="737.9844" y1="820.4219" y2="820.4219"/><text fill="#333333" font-family="'Helvetica'" font-size="12" lengthAdjust="spacing" textLength="120.252" x="589.5723" y="815.5918">registration success</text></g><g class="message" data-entity-1="part3" data-entity-2="part6" data-source-line="46" id="msg17"><polygon fill="#333333" points="1134.7793,844.3906,1144.7793,848.3906,1134.7793,852.3906,1138.7793,848.3906" style="stroke:#333333;stroke-width:1;stroke-linejoin:miter;stroke-miterlimit:10;"/><line style="stroke:#333333;stroke-width:1;" x1="572.5723" x2="1140.7793" y1="848.3906" y2="848.3906"/><text fill="#333333" font-family="'Helvetica'" font-size="12" lengthAdjust="spacing" textLength="275.4199" x="579.5723" y="843.5605">create Headscale user + pre-auth key (mTLS)</text></g><g class="message" data-entity-1="part6" data-entity-2="part3" data-source-line="47" id="msg18"><polygon fill="#333333" points="583.5723,872.3594,573.5723,876.3594,583.5723,880.3594,579.5723,876.3594" style="stroke:#333333;stroke-width:1;stroke-linejoin:miter;stroke-miterlimit:10;"/><line style="stroke:#333333;stroke-width:1;stroke-dasharray:2,2;" x1="577.5723" x2="1145.7793" y1="876.3594" y2="876.3594"/><text fill="#333333" font-family="'Helvetica'" font-size="12" lengthAdjust="spacing" textLength="76.7813" x="589.5723" y="871.5293">pre-auth key</text></g><g class="message" data-entity-1="part3" data-entity-2="part2" data-source-line="48" id="msg19"><polygon fill="#333333" points="390.6348,900.3281,380.6348,904.3281,390.6348,908.3281,386.6348,904.3281" style="stroke:#333333;stroke-width:1;stroke-linejoin:miter;stroke-miterlimit:10;"/><line style="stroke:#333333;stroke-width:1;stroke-dasharray:2,2;" x1="384.6348" x2="571.5723" y1="904.3281" y2="904.3281"/><text fill="#333333" font-family="'Helvetica'" font-size="12" lengthAdjust="spacing" textLength="168.9375" x="396.6348" y="899.498">201 Created + pre-auth key</text></g><g class="message" data-entity-1="part2" data-entity-2="part1" data-source-line="49" id="msg20"><polygon fill="#333333" points="171.6758,928.2969,161.6758,932.2969,171.6758,936.2969,167.6758,932.2969" style="stroke:#333333;stroke-width:1;stroke-linejoin:miter;stroke-miterlimit:10;"/><line style="stroke:#333333;stroke-width:1;stroke-dasharray:2,2;" x1="165.6758" x2="378.6348" y1="932.2969" y2="932.2969"/><text fill="#333333" font-family="'Helvetica'" font-size="12" lengthAdjust="spacing" textLength="168.9375" x="177.6758" y="927.4668">201 Created + pre-auth key</text></g><?plantuml-src VLJBRjD05DtxAovP9I9EGsWhKL2bAWqoKb_2QSMY4fgCR-nH9sCpZxJUyH7y2ti-XI_XpjWnIKh98hBddliuvvxnAw6uT1d2Q7JmrTXQugXoAnb5LbY9S3kDns_Wz_SVS6jGmsVCXR6QML6gA6BSbZe4eeffAxYecBBGcochwpXnYnum0xDaDveYTrhOEauVXUL5mAJfBkQSMRPW1kCxvgGDaFExlJBKc-KOfwZNWcDJPhwBkKBxMEg7-98fWkg0kRgC8bLQX7ADxV10_HDumBfYGWEJ6bbMGuuAYIbcmAL0PMCZCdnFO5iWL5giAUQJGA6l996jqOHWWuV-z2B-IF8D8bGP-9vH55ICJqaKE86RwtGE1wmI1pheIg5-Cf_Vf8DxXIicv10gPWnHo8PXnCejfE2-QKG5g4oQKfbbgH-Ppa3ZDuU6-gxc5-aWeXWXpkzUHcpfC4k6Nc606UC556K5GcLOqU34HDQK6Q-P51bnRZWALJaxeeHh1KiQrMay0Jyy78x7mwuJTTXq9o6NJbEk7bAQCCOXo3BFwPoCK9JEWl3TnB8MAWzDd5UhFqkyZCTU0l_mra_g7oRRmXBF3Tk2cGA2Vj1FaxDuSdGyW5y_0HNNTMMRqBqAi8s-q3_JUQac8YDPc6n1GFPkhT7POhCgp8Y5xxfPm-7u7KnBjQGDsM2f40gBtWlvtL4eU64lYD8WCOBCLVHEQhTDMcg6FDQeef67iPajLsG9kfFAq7saUpdeKiXT9y1fRDeoUUtJboQrv_y_F8NVQQyp0u3dlOKBcLGmxDTG77p5k3DLi_LmlZLYXXBjtf2yN96L35MZnUfIoWNZ3uCkSwEWtlgwXF91urqfZvwUmjckXirf4Cyupj4y7tUVM5lxnVuxTS9LkhhyAsT2NZ2SoPReQ_eWOCoSBO9NMabzAYLrzRSnpuXDw3ixRGRRA_SFlly5qwNm5oFw0m00?></g></svg>