<svg xmlns="http://www.w3.org/2000/svg" xmlns:xlink="http://www.w3.org/1999/xlink" contentStyleType="text/css" data-diagram-type="SEQUENCE" height="577px" preserveAspectRatio="none" style="width:748px;height:577px;background:#FFFFFF;" version="1.1" viewBox="0 0 748 577" width="748px" zoomAndPan="magnify"><?plantuml 1.2026.6?><defs/><g><g class="title" data-source-line="3"><text fill="#000000" font-family="'Helvetica'" font-size="14" font-weight="700" lengthAdjust="spacing" textLength="194.0381" x="273.6416" y="27.9951">UC-03: Backing Up a File</text></g><rect fill="none" height="185.7188" rx="4" ry="4" style="stroke:#000000;stroke-width:1.5;" width="372.9775" x="162" y="294.0469"/><g class="participant-lifeline" data-entity-uid="part1" data-qualified-name="User" data-source-line="5" id="part1-lifeline"><g><title>User</title><rect fill="#000000" fill-opacity="0.00000" height="379.5" width="8" x="195.5" y="117.2656"/><line style="stroke:#181818;stroke-width:0.5;stroke-dasharray:5,5;" x1="199" x2="199" y1="117.2656" y2="496.7656"/></g></g><g class="participant-lifeline" data-entity-uid="part2" data-qualified-name="ST" data-source-line="6" id="part2-lifeline"><g><title>Storage-Service</title><rect fill="#000000" fill-opacity="0.00000" height="379.5" width="8" x="466.1621" y="117.2656"/><line style="stroke:#181818;stroke-width:0.5;stroke-dasharray:5,5;" x1="469.3467" x2="469.3467" y1="117.2656" y2="496.7656"/></g></g><g class="participant-lifeline" data-entity-uid="part3" data-qualified-name="DV" data-source-line="7" id="part3-lifeline"><g><title>Database-Vault</title><rect fill="#000000" fill-opacity="0.00000" height="379.5" width="8" x="679.9238" y="117.2656"/><line style="stroke:#181818;stroke-width:0.5;stroke-dasharray:5,5;" x1="683.5264" x2="683.5264" y1="117.2656" y2="496.7656"/></g></g><g class="participant participant-head" data-entity-uid="part1" data-qualified-name="User" data-source-line="5" id="part1-head"><text fill="#000000" font-family="'Helvetica'" font-size="12" lengthAdjust="spacing" textLength="27.3516" x="182.8242" y="114.4355">User</text><ellipse cx="199.5" cy="58.7969" fill="#E2E2F0" rx="16" ry="16" style="stroke:#181818;stroke-width:0.5;"/><path d="M199.5,78.7969 C203.5,78.7969 206.5,78.7969 210.5,74.7969 C218.5,74.7969 226.5,82.7969 226.5,90.7969 L226.5,94.7969 C226.5,98.7969 222.5,102.7969 218.5,102.7969 L180.5,102.7969 C176.5,102.7969 172.5,98.7969 172.5,94.7969 L172.5,90.7969 C172.5,82.7969 180.5,74.7969 188.5,74.7969 C192.5,78.7969 195.5,78.7969 199.5,78.7969" fill="#E2E2F0" style="stroke:#181818;stroke-width:0.5;"/></g><g class="participant participant-tail" data-entity-uid="part1" data-qualified-name="User" data-source-line="5" id="part1-tail"><text fill="#000000" font-family="'Helvetica'" font-size="12" lengthAdjust="spacing" textLength="27.3516" x="182.8242" y="506.9043">User</text><ellipse cx="199.5" cy="526.2344" fill="#E2E2F0" rx="16" ry="16" style="stroke:#181818;stroke-width:0.5;"/><path d="M199.5,546.2344 C203.5,546.2344 206.5,546.2344 210.5,542.2344 C218.5,542.2344 226.5,550.2344 226.5,558.2344 L226.5,562.2344 C226.5,566.2344 222.5,570.2344 218.5,570.2344 L180.5,570.2344 C176.5,570.2344 172.5,566.2344 172.5,562.2344 L172.5,558.2344 C172.5,550.2344 180.5,542.2344 188.5,542.2344 C192.5,546.2344 195.5,546.2344 199.5,546.2344" fill="#E2E2F0" style="stroke:#181818;stroke-width:0.5;"/></g><g class="participant participant-head" data-entity-uid="part2" data-qualified-name="ST" data-source-line="6" id="part2-head"><rect fill="#E2E2F0" height="27.9688" rx="4" ry="4" style="stroke:#181818;stroke-width:0.5;" width="109.6309" x="415.3467" y="88.2969"/><text fill="#000000" font-family="'Helvetica'" font-size="12" lengthAdjust="spacing" textLength="95.6309" x="422.3467" y="106.4355">Storage-Service</text></g><g class="participant participant-tail" data-entity-uid="part2" data-qualified-name="ST" data-source-line="6" id="part2-tail"><rect fill="#E2E2F0" height="27.9688" rx="4" ry="4" style="stroke:#181818;stroke-width:0.5;" width="109.6309" x="415.3467" y="495.7656"/><text fill="#000000" font-family="'Helvetica'" font-size="12" lengthAdjust="spacing" textLength="95.6309" x="422.3467" y="513.9043">Storage-Service</text></g><g class="participant participant-head" data-entity-uid="part3" data-qualified-name="DV" data-source-line="7" id="part3-head"><rect fill="#E2E2F0" height="27.9688" rx="4" ry="4" style="stroke:#181818;stroke-width:0.5;" width="106.7949" x="630.5264" y="88.2969"/><text fill="#000000" font-family="'Helvetica'" font-size="12" lengthAdjust="spacing" textLength="92.7949" x="637.5264" y="106.4355">Database-Vault</text></g><g class="participant participant-tail" data-entity-uid="part3" data-qualified-name="DV" data-source-line="7" id="part3-tail"><rect fill="#E2E2F0" height="27.9688" rx="4" ry="4" style="stroke:#181818;stroke-width:0.5;" width="106.7949" x="630.5264" y="495.7656"/><text fill="#000000" font-family="'Helvetica'" font-size="12" lengthAdjust="spacing" textLength="92.7949" x="637.5264" y="513.9043">Database-Vault</text></g><path d="M5,136.2656 L5,165.2656 A4,4 0 0 0 9,169.2656 L391,169.2656 A4,4 0 0 0 395,165.2656 L395,142.2656 L385,132.2656 L9,132.2656 A4,4 0 0 0 5,136.2656" fill="#FEFFDD" style="stroke:#181818;stroke-width:0.5;"/><path d="M385,132.2656 L385,140.2656 A2,2 0 0 0 387,142.2656 L395,142.2656 L385,132.2656" fill="#FEFFDD" style="stroke:#181818;stroke-width:0.5;"/><text fill="#000000" font-family="'Helvetica'" font-size="12" lengthAdjust="spacing" textLength="364.2891" x="11" y="148.4043">Preconditions: user authenticated (UC-02, active ACL grant);</text><text fill="#000000" font-family="'Helvetica'" font-size="12" lengthAdjust="spacing" textLength="369.2754" x="11" y="162.373">holds the SSH private key generated at registration (CL-F-01)</text><g class="message" data-entity-1="part1" data-entity-2="part2" data-source-line="14" id="msg1"><polygon fill="#333333" points="458.1621,205.1406,468.1621,209.1406,458.1621,213.1406,462.1621,209.1406" style="stroke:#333333;stroke-width:1;stroke-linejoin:miter;stroke-miterlimit:10;"/><line style="stroke:#333333;stroke-width:1;" x1="199.5" x2="464.1621" y1="209.1406" y2="209.1406"/><text fill="#333333" font-family="'Helvetica'" font-size="12" lengthAdjust="spacing" textLength="168.9551" x="206.5" y="190.3418">SFTP connect, SSH key auth</text><text fill="#333333" font-family="'Helvetica'" font-size="12" lengthAdjust="spacing" textLength="246.6621" x="206.5" y="204.3105">(Storage-Service resolved via MagicDNS)</text></g><g class="message" data-entity-1="part2" data-entity-2="part3" data-source-line="15" id="msg2"><polygon fill="#333333" points="671.9238,247.0781,681.9238,251.0781,671.9238,255.0781,675.9238,251.0781" style="stroke:#333333;stroke-width:1;stroke-linejoin:miter;stroke-miterlimit:10;"/><line style="stroke:#333333;stroke-width:1;" x1="470.1621" x2="677.9238" y1="251.0781" y2="251.0781"/><text fill="#333333" font-family="'Helvetica'" font-size="12" lengthAdjust="spacing" textLength="159.3574" x="477.1621" y="232.2793">AuthorizedKeysCommand:</text><text fill="#333333" font-family="'Helvetica'" font-size="12" lengthAdjust="spacing" textLength="189.7617" x="477.1621" y="246.248">fetch current public key (mTLS)</text></g><g class="message" data-entity-1="part3" data-entity-2="part2" data-source-line="16" id="msg3"><polygon fill="#333333" points="481.1621,275.0469,471.1621,279.0469,481.1621,283.0469,477.1621,279.0469" style="stroke:#333333;stroke-width:1;stroke-linejoin:miter;stroke-miterlimit:10;"/><line style="stroke:#333333;stroke-width:1;stroke-dasharray:2,2;" x1="475.1621" x2="682.9238" y1="279.0469" y2="279.0469"/><text fill="#333333" font-family="'Helvetica'" font-size="12" lengthAdjust="spacing" textLength="137.0039" x="487.1621" y="274.2168">current SSH public key</text></g><path d="M166,294.0469 L224.9473,294.0469 L224.9473,300.0156 L214.9473,310.0156 L162,310.0156 L162,298.0469 A4,4 0 0 1 166,294.0469" fill="#EEEEEE" style="stroke:#000000;stroke-width:1.5;"/><rect fill="none" height="185.7188" rx="4" ry="4" style="stroke:#000000;stroke-width:1.5;" width="372.9775" x="162" y="294.0469"/><text fill="#000000" font-family="'Helvetica'" font-size="12" font-weight="700" lengthAdjust="spacing" textLength="17.9473" x="177" y="306.1855">alt</text><text fill="#000000" font-family="'Helvetica'" font-size="12" font-weight="700" lengthAdjust="spacing" textLength="217.4121" x="239.9473" y="307.1855">[key valid and ACL grant active]</text><g class="message" data-entity-1="part2" data-entity-2="part1" data-source-line="19" id="msg4"><polygon fill="#333333" points="210.5,339.9531,200.5,343.9531,210.5,347.9531,206.5,343.9531" style="stroke:#333333;stroke-width:1;stroke-linejoin:miter;stroke-miterlimit:10;"/><line style="stroke:#333333;stroke-width:1;stroke-dasharray:2,2;" x1="204.5" x2="469.1621" y1="343.9531" y2="343.9531"/><text fill="#333333" font-family="'Helvetica'" font-size="12" lengthAdjust="spacing" textLength="149.9707" x="216.5" y="325.1543">SFTP session established</text><text fill="#333333" font-family="'Helvetica'" font-size="12" lengthAdjust="spacing" textLength="233.4258" x="216.5" y="339.123">(chroot: /storage/user&lt;xxxxxx&gt;/data/)</text></g><g class="message" data-entity-1="part1" data-entity-2="part2" data-source-line="20" id="msg5"><polygon fill="#333333" points="458.1621,381.8906,468.1621,385.8906,458.1621,389.8906,462.1621,385.8906" style="stroke:#333333;stroke-width:1;stroke-linejoin:miter;stroke-miterlimit:10;"/><line style="stroke:#333333;stroke-width:1;" x1="199.5" x2="464.1621" y1="385.8906" y2="385.8906"/><text fill="#333333" font-family="'Helvetica'" font-size="12" lengthAdjust="spacing" textLength="80.7598" x="206.5" y="367.0918">restic backup</text><text fill="#333333" font-family="'Helvetica'" font-size="12" lengthAdjust="spacing" textLength="184.8867" x="206.5" y="381.0605">(already encrypted client-side)</text></g><g class="message" data-entity-1="part2" data-entity-2="part1" data-source-line="21" id="msg6"><polygon fill="#333333" points="210.5,409.8594,200.5,413.8594,210.5,417.8594,206.5,413.8594" style="stroke:#333333;stroke-width:1;stroke-linejoin:miter;stroke-miterlimit:10;"/><line style="stroke:#333333;stroke-width:1;stroke-dasharray:2,2;" x1="204.5" x2="469.1621" y1="413.8594" y2="413.8594"/><text fill="#333333" font-family="'Helvetica'" font-size="12" lengthAdjust="spacing" textLength="103.0313" x="216.5" y="409.0293">backup persisted</text></g><line style="stroke:#000000;stroke-width:1;stroke-dasharray:2,2;" x1="162" x2="534.9775" y1="422.8594" y2="422.8594"/><text fill="#000000" font-family="'Helvetica'" font-size="12" font-weight="700" lengthAdjust="spacing" textLength="258.8672" x="167" y="433.998">[stale key, expired/missing ACL grant,</text><text fill="#000000" font-family="'Helvetica'" font-size="12" font-weight="700" lengthAdjust="spacing" textLength="225.1816" x="167" y="447.9668">or non-SFTP connection attempt]</text><g class="message" data-entity-1="part2" data-entity-2="part1" data-source-line="23" id="msg7"><polygon fill="#333333" points="210.5,467.7656,200.5,471.7656,210.5,475.7656,206.5,471.7656" style="stroke:#333333;stroke-width:1;stroke-linejoin:miter;stroke-miterlimit:10;"/><line style="stroke:#333333;stroke-width:1;stroke-dasharray:2,2;" x1="204.5" x2="469.1621" y1="471.7656" y2="471.7656"/><text fill="#333333" font-family="'Helvetica'" font-size="12" lengthAdjust="spacing" textLength="173.2852" x="216.5" y="466.9355">SFTP authentication rejected</text></g><?plantuml-src RP91Rzim38Nl-XLSJmaGnzrsIuS2NO9WmBAXW9kS0WoCn3bSPKcGPAFPhn_bfa6xpJSBvEFx-FYEdRQz8PZFwnyfdopDGzzPfJ9dIx1TLjSV5_0PzIEx5hO14DPiIIdKsKVO9eegOCoiEQ3BSDN8CxPKDHG7rdG5cA1vU5kpmem7J5JjiBTvB5djb78-4_Y1ph80zv6qTuOpUvSMqCihO9-Fv4GBCncO58CVPY1kU22uMswWZJ9ZUYFjHszD0Yc7fla28V8WFV189sZ9KHm5C4EabbEMNva2a-McMbVNxwUAd87YIAdY1gfRmO05DEk7Un1NZdIUZS95iBZQkybVy2ATl1rapC08tx1blVhUJ9K8YTng9t9tqkWZ_oRpbKvfwRiEdLditK_A-WYwZr5W8VG7otgSDEaUDY8XpTMBfPUgaV9IAH7PFBOCQ5b8XUUod_F2P4d5YmYDZ6UwH2cLNL2Ic2od8nbXqyVeVLv0dPuXwnB7fwVnkwsDH5fFHU_DieHVaeA3d4yVH0Dj93Gd8AVZAPJzQyjYlKfiQFgFc-S-21IJ94H6aKq4uigECSw0dW97CdN7ubZkyy8tspkvJkTTzJgl0eKvKnVo_ybV7LUfZVHBkifSPzGV?></g></svg>