<svg xmlns="http://www.w3.org/2000/svg" xmlns:xlink="http://www.w3.org/1999/xlink" contentStyleType="text/css" data-diagram-type="DESCRIPTION" height="872px" preserveAspectRatio="none" style="width:773px;height:872px;background:#FFFFFF;" version="1.1" viewBox="0 0 773 872" width="773px" zoomAndPan="magnify"><?plantuml 1.2026.6?><defs/><g><g class="title" data-source-line="3"><text fill="#000000" font-family="'Helvetica'" font-size="14" font-weight="700" lengthAdjust="spacing" textLength="148.8662" x="308.5669" y="22.9951">Container Diagram</text></g><!--cluster RAM-USB System--><g class="cluster" data-qualified-name="RAM-USB System" data-source-line="26" id="ent0003"><rect fill="none" height="655.44" rx="6" ry="6" style="stroke:#181818;stroke-width:1;" width="662" x="97" y="202.7269"/><text fill="#000000" font-family="'Helvetica'" font-size="12" font-weight="700" lengthAdjust="spacing" textLength="117.1465" x="369.4268" y="215.8655">RAM-USB System</text></g><!--entity EntryHub--><g class="entity" data-qualified-name="RAM-USB System.EntryHub" data-source-line="28" id="ent0004"><rect fill="#E8F1FC" height="85.875" rx="6" ry="6" style="stroke:#2C5C8F;stroke-width:0.5;" width="153.666" x="113.17" y="241.7169"/><rect fill="#E8F1FC" height="10" style="stroke:#2C5C8F;stroke-width:0.5;" width="15" x="246.836" y="246.7169"/><rect fill="#E8F1FC" height="2" style="stroke:#2C5C8F;stroke-width:0.5;" width="4" x="244.836" y="248.7169"/><rect fill="#E8F1FC" height="2" style="stroke:#2C5C8F;stroke-width:0.5;" width="4" x="244.836" y="252.7169"/><text fill="#000000" font-family="'Helvetica'" font-size="12" font-style="italic" lengthAdjust="spacing" textLength="57.7969" x="156.1046" y="272.8555">&#171;service&#187;</text><text fill="#000000" font-family="'Helvetica'" font-size="12" font-weight="700" lengthAdjust="spacing" textLength="68.373" x="128.17" y="286.8243">Entry-Hub</text><text fill="#000000" font-family="'Helvetica'" font-size="12" lengthAdjust="spacing" textLength="26.0039" x="128.17" y="300.793">[Go]</text><text fill="#000000" font-family="'Helvetica'" font-size="12" lengthAdjust="spacing" textLength="113.666" x="128.17" y="314.7618">Public API gateway</text></g><!--entity SecuritySwitch--><g class="entity" data-qualified-name="RAM-USB System.SecuritySwitch" data-source-line="29" id="ent0005"><rect fill="#E8F1FC" height="85.875" rx="6" ry="6" style="stroke:#2C5C8F;stroke-width:0.5;" width="168.8242" x="127.59" y="417.5769"/><rect fill="#E8F1FC" height="10" style="stroke:#2C5C8F;stroke-width:0.5;" width="15" x="276.4142" y="422.5769"/><rect fill="#E8F1FC" height="2" style="stroke:#2C5C8F;stroke-width:0.5;" width="4" x="274.4142" y="424.5769"/><rect fill="#E8F1FC" height="2" style="stroke:#2C5C8F;stroke-width:0.5;" width="4" x="274.4142" y="428.5769"/><text fill="#000000" font-family="'Helvetica'" font-size="12" font-style="italic" lengthAdjust="spacing" textLength="57.7969" x="178.1037" y="448.7155">&#171;service&#187;</text><text fill="#000000" font-family="'Helvetica'" font-size="12" font-weight="700" lengthAdjust="spacing" textLength="106.2422" x="142.59" y="462.6843">Security-Switch</text><text fill="#000000" font-family="'Helvetica'" font-size="12" lengthAdjust="spacing" textLength="26.0039" x="142.59" y="476.653">[Go]</text><text fill="#000000" font-family="'Helvetica'" font-size="12" lengthAdjust="spacing" textLength="128.8242" x="142.59" y="490.6218">Request re-validation</text></g><!--entity DatabaseVault--><g class="entity" data-qualified-name="RAM-USB System.DatabaseVault" data-source-line="30" id="ent0006"><rect fill="#E8F1FC" height="99.8438" rx="6" ry="6" style="stroke:#2C5C8F;stroke-width:0.5;" width="172.5449" x="125.73" y="573.4469"/><rect fill="#E8F1FC" height="10" style="stroke:#2C5C8F;stroke-width:0.5;" width="15" x="278.2749" y="578.4469"/><rect fill="#E8F1FC" height="2" style="stroke:#2C5C8F;stroke-width:0.5;" width="4" x="276.2749" y="580.4469"/><rect fill="#E8F1FC" height="2" style="stroke:#2C5C8F;stroke-width:0.5;" width="4" x="276.2749" y="584.4469"/><text fill="#000000" font-family="'Helvetica'" font-size="12" font-style="italic" lengthAdjust="spacing" textLength="57.7969" x="178.104" y="604.5855">&#171;service&#187;</text><text fill="#000000" font-family="'Helvetica'" font-size="12" font-weight="700" lengthAdjust="spacing" textLength="104.6191" x="140.73" y="618.5543">Database-Vault</text><text fill="#000000" font-family="'Helvetica'" font-size="12" lengthAdjust="spacing" textLength="26.0039" x="140.73" y="632.523">[Go]</text><text fill="#000000" font-family="'Helvetica'" font-size="12" lengthAdjust="spacing" textLength="132.5449" x="140.73" y="646.4918">Re-validation, identity</text><text fill="#000000" font-family="'Helvetica'" font-size="12" lengthAdjust="spacing" textLength="100.8691" x="140.73" y="660.4605">storage &amp; crypto</text></g><!--entity StorageService--><g class="entity" data-qualified-name="RAM-USB System.StorageService" data-source-line="31" id="ent0007"><rect fill="#E8F1FC" height="85.875" rx="6" ry="6" style="stroke:#2C5C8F;stroke-width:0.5;" width="198.0977" x="112.95" y="756.2969"/><rect fill="#E8F1FC" height="10" style="stroke:#2C5C8F;stroke-width:0.5;" width="15" x="291.0477" y="761.2969"/><rect fill="#E8F1FC" height="2" style="stroke:#2C5C8F;stroke-width:0.5;" width="4" x="289.0477" y="763.2969"/><rect fill="#E8F1FC" height="2" style="stroke:#2C5C8F;stroke-width:0.5;" width="4" x="289.0477" y="767.2969"/><text fill="#000000" font-family="'Helvetica'" font-size="12" font-style="italic" lengthAdjust="spacing" textLength="57.7969" x="178.1004" y="787.4355">&#171;service&#187;</text><text fill="#000000" font-family="'Helvetica'" font-size="12" font-weight="700" lengthAdjust="spacing" textLength="108.2344" x="127.95" y="801.4043">Storage-Service</text><text fill="#000000" font-family="'Helvetica'" font-size="12" lengthAdjust="spacing" textLength="62.7188" x="127.95" y="815.373">[Go, SFTP]</text><text fill="#000000" font-family="'Helvetica'" font-size="12" lengthAdjust="spacing" textLength="158.0977" x="127.95" y="829.3418">Encrypted backup storage</text></g><!--entity NetworkManager--><g class="entity" data-qualified-name="RAM-USB System.NetworkManager" data-source-line="32" id="ent0008"><rect fill="#E8F1FC" height="85.875" rx="6" ry="6" style="stroke:#2C5C8F;stroke-width:0.5;" width="195.7598" x="463.12" y="417.5769"/><rect fill="#E8F1FC" height="10" style="stroke:#2C5C8F;stroke-width:0.5;" width="15" x="638.8798" y="422.5769"/><rect fill="#E8F1FC" height="2" style="stroke:#2C5C8F;stroke-width:0.5;" width="4" x="636.8798" y="424.5769"/><rect fill="#E8F1FC" height="2" style="stroke:#2C5C8F;stroke-width:0.5;" width="4" x="636.8798" y="428.5769"/><text fill="#000000" font-family="'Helvetica'" font-size="12" font-style="italic" lengthAdjust="spacing" textLength="57.7969" x="527.1014" y="448.7155">&#171;service&#187;</text><text fill="#000000" font-family="'Helvetica'" font-size="12" font-weight="700" lengthAdjust="spacing" textLength="121.4531" x="478.12" y="462.6843">Network-Manager</text><text fill="#000000" font-family="'Helvetica'" font-size="12" lengthAdjust="spacing" textLength="26.0039" x="478.12" y="476.653">[Go]</text><text fill="#000000" font-family="'Helvetica'" font-size="12" lengthAdjust="spacing" textLength="155.7598" x="478.12" y="490.6218">Mesh &amp; ACL orchestration</text></g><!--entity Postgres--><g class="entity" data-qualified-name="RAM-USB System.Postgres" data-source-line="34" id="ent0009"><path d="M354.09,604.8969 C354.09,594.8969 427.0021,594.8969 427.0021,594.8969 C427.0021,594.8969 499.9142,594.8969 499.9142,604.8969 L499.9142,641.8344 C499.9142,651.8344 427.0021,651.8344 427.0021,651.8344 C427.0021,651.8344 354.09,651.8344 354.09,641.8344 L354.09,604.8969" fill="#FFF3D6" style="stroke:#B58900;stroke-width:0.5;"/><path d="M354.09,604.8969 C354.09,614.8969 427.0021,614.8969 427.0021,614.8969 C427.0021,614.8969 499.9142,614.8969 499.9142,604.8969" fill="none" style="stroke:#B58900;stroke-width:0.5;"/><text fill="#000000" font-family="'Helvetica'" font-size="12" font-weight="700" lengthAdjust="spacing" textLength="79.0547" x="364.09" y="630.0355">PostgreSQL</text><text fill="#000000" font-family="'Helvetica'" font-size="12" lengthAdjust="spacing" textLength="125.8242" x="364.09" y="644.0043">User identity records</text></g><!--entity CA--><g class="entity" data-qualified-name="RAM-USB System.CA" data-source-line="36" id="ent0010"><rect fill="#F0F0F0" height="85.875" rx="6" ry="6" style="stroke:#666666;stroke-width:0.5;" width="193.8262" x="297.09" y="241.7169"/><rect fill="#F0F0F0" height="10" style="stroke:#666666;stroke-width:0.5;" width="15" x="470.9162" y="246.7169"/><rect fill="#F0F0F0" height="2" style="stroke:#666666;stroke-width:0.5;" width="4" x="468.9162" y="248.7169"/><rect fill="#F0F0F0" height="2" style="stroke:#666666;stroke-width:0.5;" width="4" x="468.9162" y="252.7169"/><text fill="#000000" font-family="'Helvetica'" font-size="12" font-style="italic" lengthAdjust="spacing" textLength="42.2637" x="367.8713" y="272.8555">&#171;infra&#187;</text><text fill="#000000" font-family="'Helvetica'" font-size="12" font-weight="700" lengthAdjust="spacing" textLength="140.0566" x="312.09" y="286.8243">Certificate-Authority</text><text fill="#000000" font-family="'Helvetica'" font-size="12" lengthAdjust="spacing" textLength="138.1289" x="312.09" y="300.793">[smallstep/certificates]</text><text fill="#000000" font-family="'Helvetica'" font-size="12" lengthAdjust="spacing" textLength="153.8262" x="312.09" y="314.7618">mTLS issuance &amp; rotation</text></g><!--entity Observability--><g class="entity" data-qualified-name="RAM-USB System.Observability" data-source-line="37" id="ent0011"><rect fill="#F0F0F0" height="99.8438" rx="6" ry="6" style="stroke:#666666;stroke-width:0.5;" width="221.9102" x="521.04" y="234.7269"/><rect fill="#F0F0F0" height="10" style="stroke:#666666;stroke-width:0.5;" width="15" x="722.9502" y="239.7269"/><rect fill="#F0F0F0" height="2" style="stroke:#666666;stroke-width:0.5;" width="4" x="720.9502" y="241.7269"/><rect fill="#F0F0F0" height="2" style="stroke:#666666;stroke-width:0.5;" width="4" x="720.9502" y="245.7269"/><text fill="#000000" font-family="'Helvetica'" font-size="12" font-style="italic" lengthAdjust="spacing" textLength="42.2637" x="605.8632" y="265.8655">&#171;infra&#187;</text><text fill="#000000" font-family="'Helvetica'" font-size="12" font-weight="700" lengthAdjust="spacing" textLength="90.3984" x="536.04" y="279.8343">Observability</text><text fill="#000000" font-family="'Helvetica'" font-size="12" lengthAdjust="spacing" textLength="176.6191" x="536.04" y="293.803">[Mosquitto, Metrics-Collector,</text><text fill="#000000" font-family="'Helvetica'" font-size="12" lengthAdjust="spacing" textLength="138.5625" x="536.04" y="307.7718">Grafana, TimescaleDB]</text><text fill="#000000" font-family="'Helvetica'" font-size="12" lengthAdjust="spacing" textLength="181.9102" x="536.04" y="321.7405">Metrics pipeline &amp; dashboards</text></g><!--entity User--><g class="entity" data-qualified-name="User" data-source-line="23" id="ent0001"><ellipse cx="52" cy="59.2969" fill="#F1F1F1" rx="16" ry="16" style="stroke:#181818;stroke-width:0.5;"/><path d="M52,79.2969 C56,79.2969 59,79.2969 63,75.2969 C71,75.2969 79,83.2969 79,91.2969 L79,95.2969 C79,99.2969 75,103.2969 71,103.2969 L33,103.2969 C29,103.2969 25,99.2969 25,95.2969 L25,91.2969 C25,83.2969 33,75.2969 41,75.2969 C45,79.2969 48,79.2969 52,79.2969" fill="#F1F1F1" style="stroke:#181818;stroke-width:0.5;"/><text fill="#000000" font-family="'Helvetica'" font-size="12" lengthAdjust="spacing" textLength="27.3516" x="26.9424" y="114.9355">User</text><text fill="#000000" font-family="'Helvetica'" font-size="12" lengthAdjust="spacing" textLength="50.1152" x="26.9424" y="128.9043">[Person]</text></g><!--entity Admin--><g class="entity" data-qualified-name="Admin" data-source-line="24" id="ent0002"><ellipse cx="632" cy="59.2969" fill="#F1F1F1" rx="16" ry="16" style="stroke:#181818;stroke-width:0.5;"/><path d="M632,79.2969 C636,79.2969 639,79.2969 643,75.2969 C651,75.2969 659,83.2969 659,91.2969 L659,95.2969 C659,99.2969 655,103.2969 651,103.2969 L613,103.2969 C609,103.2969 605,99.2969 605,95.2969 L605,91.2969 C605,83.2969 613,75.2969 621,75.2969 C625,79.2969 628,79.2969 632,79.2969" fill="#F1F1F1" style="stroke:#181818;stroke-width:0.5;"/><text fill="#000000" font-family="'Helvetica'" font-size="12" lengthAdjust="spacing" textLength="38.4551" x="606.9424" y="114.9355">Admin</text><text fill="#000000" font-family="'Helvetica'" font-size="12" lengthAdjust="spacing" textLength="50.1152" x="606.9424" y="128.9043">[Person]</text></g><!--link User to EntryHub--><g class="link" data-entity-1="ent0001" data-entity-2="ent0004" data-link-type="dependency" data-source-line="40" id="lnk12"><path d="M79.93,127.7969 C103.24,160.8069 133.5065,203.6521 157.3165,237.3821" fill="none" id="User-to-EntryHub" style="stroke:#333333;stroke-width:1;"/><polygon fill="#333333" points="160.2,241.4669,158.2776,231.8075,157.3165,237.3821,151.7419,236.421,160.2,241.4669" style="stroke:#333333;stroke-width:1;stroke-linejoin:miter;stroke-miterlimit:10;"/><text fill="#333333" font-family="'Helvetica'" font-size="11" font-weight="700" lengthAdjust="spacing" textLength="40.1973" x="164.7405" y="170.9373">HTTPS</text><text fill="#333333" font-family="'Helvetica'" font-size="11" lengthAdjust="spacing" textLength="125.6782" x="122" y="183.742">register / login / health</text></g><!--link EntryHub to SecuritySwitch--><g class="link" data-entity-1="ent0004" data-entity-2="ent0005" data-link-type="dependency" data-source-line="41" id="lnk13"><path d="M195.33,327.7369 C198.76,354.8669 202.582,385.0765 206.022,412.2465" fill="none" id="EntryHub-to-SecuritySwitch" style="stroke:#333333;stroke-width:1;"/><polygon fill="#333333" points="206.65,417.2069,209.4879,407.7757,206.022,412.2465,201.5512,408.7806,206.65,417.2069" style="stroke:#333333;stroke-width:1;stroke-linejoin:miter;stroke-miterlimit:10;"/><text fill="#333333" font-family="'Helvetica'" font-size="11" font-weight="700" lengthAdjust="spacing" textLength="33.897" x="203.97" y="380.2873">mTLS</text></g><!--link SecuritySwitch to DatabaseVault--><g class="link" data-entity-1="ent0005" data-entity-2="ent0006" data-link-type="dependency" data-source-line="42" id="lnk14"><path d="M212,503.7769 C212,524.9969 212,545.8369 212,567.9769" fill="none" id="SecuritySwitch-to-DatabaseVault" style="stroke:#333333;stroke-width:1;"/><polygon fill="#333333" points="212,572.9769,216,563.9769,212,567.9769,208,563.9769,212,572.9769" style="stroke:#333333;stroke-width:1;stroke-linejoin:miter;stroke-miterlimit:10;"/><text fill="#333333" font-family="'Helvetica'" font-size="11" font-weight="700" lengthAdjust="spacing" textLength="33.897" x="213" y="542.6573">mTLS</text></g><!--link DatabaseVault to Postgres--><g class="link" data-entity-1="ent0006" data-entity-2="ent0009" data-link-type="dependency" data-source-line="43" id="lnk15"><path d="M298.52,623.3669 C316.84,623.3669 331,623.3669 348.77,623.3669" fill="none" id="DatabaseVault-to-Postgres" style="stroke:#333333;stroke-width:1;"/><polygon fill="#333333" points="353.77,623.3669,344.77,619.3669,348.77,623.3669,344.77,627.3669,353.77,623.3669" style="stroke:#333333;stroke-width:1;stroke-linejoin:miter;stroke-miterlimit:10;"/><text fill="#333333" font-family="'Helvetica'" font-size="11" font-weight="700" lengthAdjust="spacing" textLength="24.2827" x="314.18" y="617.5773">SQL</text></g><!--link DatabaseVault to StorageService--><g class="link" data-entity-1="ent0006" data-entity-2="ent0007" data-link-type="dependency" data-source-line="44" id="lnk16"><path d="M212,678.7269 C212,704.6269 212,726.0369 212,750.8269" fill="none" id="DatabaseVault-StorageService" style="stroke:#333333;stroke-width:1;"/><polygon fill="#333333" points="212,673.7269,208,682.7269,212,678.7269,216,682.7269,212,673.7269" style="stroke:#333333;stroke-width:1;stroke-linejoin:miter;stroke-miterlimit:10;"/><polygon fill="#333333" points="212,755.8269,216,746.8269,212,750.8269,208,746.8269,212,755.8269" style="stroke:#333333;stroke-width:1;stroke-linejoin:miter;stroke-miterlimit:10;"/><text fill="#333333" font-family="'Helvetica'" font-size="11" font-weight="700" lengthAdjust="spacing" textLength="33.897" x="294.8555" y="712.5073">mTLS</text><text fill="#333333" font-family="'Helvetica'" font-size="11" lengthAdjust="spacing" textLength="197.6079" x="213" y="725.312">create POSIX user / fetch public key</text></g><!--link SecuritySwitch to NetworkManager--><g class="link" data-entity-1="ent0005" data-entity-2="ent0008" data-link-type="dependency" data-source-line="45" id="lnk17"><path d="M296.48,460.5069 C346.61,460.5069 405.39,460.5069 457.76,460.5069" fill="none" id="SecuritySwitch-to-NetworkManager" style="stroke:#333333;stroke-width:1;"/><polygon fill="#333333" points="462.76,460.5069,453.76,456.5069,457.76,460.5069,453.76,464.5069,462.76,460.5069" style="stroke:#333333;stroke-width:1;stroke-linejoin:miter;stroke-miterlimit:10;"/><text fill="#333333" font-family="'Helvetica'" font-size="11" font-weight="700" lengthAdjust="spacing" textLength="33.897" x="363.0429" y="441.7173">mTLS</text><text fill="#333333" font-family="'Helvetica'" font-size="11" lengthAdjust="spacing" textLength="135.4429" x="312.27" y="454.522">ACL grant / pre-auth key</text></g><!--link EntryHub to NetworkManager--><g class="link" data-entity-1="ent0004" data-entity-2="ent0008" data-link-type="dependency" data-source-line="46" id="lnk18"><path d="M267.11,327.1369 C272.13,329.6869 277.12,332.1869 282,334.5769 C341.36,363.6069 404.3885,391.9444 458.1785,415.4544" fill="none" id="EntryHub-to-NetworkManager" style="stroke:#333333;stroke-width:1;"/><polygon fill="#333333" points="462.76,417.4569,456.1152,410.1873,458.1785,415.4544,452.9113,417.5177,462.76,417.4569" style="stroke:#333333;stroke-width:1;stroke-linejoin:miter;stroke-miterlimit:10;"/><text fill="#333333" font-family="'Helvetica'" font-size="11" font-weight="700" lengthAdjust="spacing" textLength="145.8896" x="397.09" y="373.7873">Headscale coordination</text><text fill="#333333" font-family="'Helvetica'" font-size="11" lengthAdjust="spacing" textLength="95.6914" x="422.1891" y="386.592">(reverse-proxied)</text></g><!--link User to StorageService--><g class="link" data-entity-1="ent0001" data-entity-2="ent0007" data-link-type="dependency" data-source-line="48" id="lnk19"><path d="M35.52,132.1869 C22.32,171.3369 6,230.5069 6,283.6469 C6,283.6469 6,283.6469 6,624.3669 C6,685.6769 55.5402,727.3916 108.2202,755.8316" fill="none" id="User-to-StorageService" style="stroke:#333333;stroke-width:1;"/><polygon fill="#333333" points="112.62,758.2069,106.6006,750.4116,108.2202,755.8316,102.8002,757.4512,112.62,758.2069" style="stroke:#333333;stroke-width:1;stroke-linejoin:miter;stroke-miterlimit:10;"/><text fill="#333333" font-family="'Helvetica'" font-size="11" font-weight="700" lengthAdjust="spacing" textLength="31.002" x="36.5732" y="458.2173">SFTP</text><text fill="#333333" font-family="'Helvetica'" font-size="11" lengthAdjust="spacing" textLength="90.1484" x="7" y="471.022">backup / restore</text></g><!--link Admin to Observability--><g class="link" data-entity-1="ent0002" data-entity-2="ent0011" data-link-type="dependency" data-source-line="50" id="lnk20"><path d="M632,132.1069 C632,162.4869 632,197.9669 632,229.4469" fill="none" id="Admin-to-Observability" style="stroke:#333333;stroke-width:1;"/><polygon fill="#333333" points="632,234.4469,636,225.4469,632,229.4469,628,225.4469,632,234.4469" style="stroke:#333333;stroke-width:1;stroke-linejoin:miter;stroke-miterlimit:10;"/><text fill="#333333" font-family="'Helvetica'" font-size="11" font-weight="700" lengthAdjust="spacing" textLength="40.1973" x="644.9587" y="170.9373">HTTPS</text><text fill="#333333" font-family="'Helvetica'" font-size="11" lengthAdjust="spacing" textLength="64.1147" x="633" y="183.742">dashboards</text></g><?plantuml-src VPLjRzem4CVVvrFSc3Hjg2bzKAjkgYfHMjfAPMKDdIQDQZBEDLW4ExMTCZRjk-zi4XBI1tX1PD_zxkb_uPsGFCrZXEtjpYzZbobkP_ay3G8hR8hGKz8o8L73cM29PlCWC3CXCqQF85MC1ZFOtwaTQYPdxl3We7ROrLej-iIAn1-4tTswlSfbt5FQnTZTg-EvccTAehJ7nmRra-1uSW9_0u1JncT9uPSg3U_FZ_gx_PwxKJf6NPpkzGvwH_tWtyj88HyqUmtOtt7V9l3GVpQ0CRDimWo-WkdtzyyEcvZJWwFFEpk42HYtTD2we_B6ykSGjL7olWNCW3ighxlnNCZ6lJyB0etSCfdGe5gttK5u5vr2j3GMvorAYEAkwuLMktqkhLw6b_catIRQXReVos4-IGM7xl0A4cPnmPQUxYt946gTRz8YvBaMTXb62s7vj6BUucEEneB6y8cbWZeabFJOqcNbyHRyh6Xh-9tbgQspQymj437P4t0i3NMA9GWVWEjbPfMFLr8yvCrQLjvXj38eucr1r1yDAUgvz52COK8JpZCeegsAMZqNhcz5-OfseVGi73193hggQe1cIfbtUzUWD9zIytJLjCAhSDhWKu2r_eW_LCOc6gDlrmxj5BHk40s3amID9nPsvfb0UgYjU12Sb11sSpjLRbW-JJDdQKgwoZgyiZ6K-dnq7O4m9cUIk-vhPQlKUrrOxraprit4rS4c8YrZ39Hvp8MrrFS1MYsu2MbXKdHBi3MM5vezK0-sO2JcQ3XByUpKzywRGYOoJEb5HJd4p4mdYfNbRaIg9KJxvtiKnceXmvDAz5-WtRuSZOQHIqjZ8gXm3Hr8LI8a_KwHfNOQhErBG4FU3kFQqsu7ZPlIOLEVDVlDYr2BP6h9lXoSD_LZRbWUhrFP56M57fEKaMO7mvlewWVanbVsW2wjRFKocE7oMS9b1WqnrhbElVG7GTFjG4QxpqX0dbNrwGtA9RBO3vLKGa8Lqgl8SJzgVA8N7uQPLhy5nf_AiRrSfbjPvrPiQeUKxxOLWy2_CjUztrJ5niWh_GJ_0G00?></g></svg>