<svg xmlns="http://www.w3.org/2000/svg" xmlns:xlink="http://www.w3.org/1999/xlink" contentStyleType="text/css" data-diagram-type="DESCRIPTION" height="616px" preserveAspectRatio="none" style="width:1620px;height:616px;background:#FFFFFF;" version="1.1" viewBox="0 0 1620 616" width="1620px" zoomAndPan="magnify"><?plantuml 1.2026.6?><defs/><g><g class="title" data-source-line="3"><text fill="#000000" font-family="'Helvetica'" font-size="14" font-weight="700" lengthAdjust="spacing" textLength="167.125" x="723.0425" y="22.9951">Deployment Diagram</text></g><!--cluster Proxmox--><g class="cluster" data-qualified-name="Proxmox" data-source-line="36" id="ent0003"><polygon fill="none" points="401.21,104.3911,411.21,94.3911,1595.21,94.3911,1595.21,489.1811,1585.21,499.1811,401.21,499.1811,401.21,104.3911" style="stroke:#181818;stroke-width:1;stroke-linejoin:miter;stroke-miterlimit:10;"/><line style="stroke:#181818;stroke-width:1;" x1="1585.21" x2="1595.21" y1="104.3911" y2="94.3911"/><line style="stroke:#181818;stroke-width:1;" x1="401.21" x2="1585.21" y1="104.3911" y2="104.3911"/><line style="stroke:#181818;stroke-width:1;" x1="1585.21" x2="1585.21" y1="104.3911" y2="499.1811"/><text fill="#000000" font-family="'Helvetica'" font-size="12" font-weight="700" lengthAdjust="spacing" textLength="116.1914" x="936.1143" y="118.5298">Proxmox VE Host</text></g><!--cluster KVMGroup--><g class="cluster" data-qualified-name="Proxmox.KVMGroup" data-source-line="38" id="ent0004"><rect fill="#FDFDFD" height="319.79" rx="6" ry="6" style="stroke:#AAAAAA;stroke-width:1;stroke-dasharray:7,7;" width="359" x="441.21" y="147.3911"/><text fill="#000000" font-family="'Helvetica'" font-size="12" font-weight="700" lengthAdjust="spacing" textLength="148.3242" x="546.5479" y="160.5298">KVM Virtual Machines</text><text fill="#000000" font-family="'Helvetica'" font-size="12" font-weight="700" lengthAdjust="spacing" textLength="94.4004" x="573.5098" y="174.4985">(RNF-ORG-04)</text></g><!--cluster LXCGroup--><g class="cluster" data-qualified-name="Proxmox.LXCGroup" data-source-line="44" id="ent0008"><rect fill="#FDFDFD" height="298.78" rx="6" ry="6" style="stroke:#AAAAAA;stroke-width:1;stroke-dasharray:7,7;" width="739" x="824.21" y="168.4011"/><text fill="#000000" font-family="'Helvetica'" font-size="12" font-weight="700" lengthAdjust="spacing" textLength="103.166" x="1142.127" y="181.5398">LXC Containers</text></g><!--entity StorageService--><g class="entity" data-qualified-name="Proxmox.KVMGroup.StorageService" data-source-line="39" id="ent0005"><polygon fill="#E8F1FC" points="457.1,233.3911,467.1,223.3911,605.3344,223.3911,605.3344,285.2974,595.3344,295.2974,457.1,295.2974,457.1,233.3911" style="stroke:#2C5C8F;stroke-width:0.5;stroke-linejoin:miter;stroke-miterlimit:10;"/><line style="stroke:#2C5C8F;stroke-width:0.5;" x1="595.3344" x2="605.3344" y1="233.3911" y2="223.3911"/><line style="stroke:#2C5C8F;stroke-width:0.5;" x1="457.1" x2="595.3344" y1="233.3911" y2="233.3911"/><line style="stroke:#2C5C8F;stroke-width:0.5;" x1="595.3344" x2="595.3344" y1="233.3911" y2="295.2974"/><text fill="#000000" font-family="'Helvetica'" font-size="12" font-style="italic" lengthAdjust="spacing" textLength="57.7969" x="497.3188" y="254.5298">&#171;service&#187;</text><text fill="#000000" font-family="'Helvetica'" font-size="12" font-weight="700" lengthAdjust="spacing" textLength="108.2344" x="472.1" y="268.4985">Storage-Service</text><text fill="#000000" font-family="'Helvetica'" font-size="12" lengthAdjust="spacing" textLength="62.7188" x="472.1" y="282.4673">[Go, SFTP]</text></g><!--entity DatabaseVault--><g class="entity" data-qualified-name="Proxmox.KVMGroup.DatabaseVault" data-source-line="40" id="ent0006"><polygon fill="#E8F1FC" points="639.9,233.3911,649.9,223.3911,784.5191,223.3911,784.5191,285.2974,774.5191,295.2974,639.9,295.2974,639.9,233.3911" style="stroke:#2C5C8F;stroke-width:0.5;stroke-linejoin:miter;stroke-miterlimit:10;"/><line style="stroke:#2C5C8F;stroke-width:0.5;" x1="774.5191" x2="784.5191" y1="233.3911" y2="223.3911"/><line style="stroke:#2C5C8F;stroke-width:0.5;" x1="639.9" x2="774.5191" y1="233.3911" y2="233.3911"/><line style="stroke:#2C5C8F;stroke-width:0.5;" x1="774.5191" x2="774.5191" y1="233.3911" y2="295.2974"/><text fill="#000000" font-family="'Helvetica'" font-size="12" font-style="italic" lengthAdjust="spacing" textLength="57.7969" x="678.3111" y="254.5298">&#171;service&#187;</text><text fill="#000000" font-family="'Helvetica'" font-size="12" font-weight="700" lengthAdjust="spacing" textLength="104.6191" x="654.9" y="268.4985">Database-Vault</text><text fill="#000000" font-family="'Helvetica'" font-size="12" lengthAdjust="spacing" textLength="26.0039" x="654.9" y="282.4673">[Go]</text></g><!--entity NetworkManager--><g class="entity" data-qualified-name="Proxmox.KVMGroup.NetworkManager" data-source-line="41" id="ent0007"><polygon fill="#E8F1FC" points="457.49,389.2811,467.49,379.2811,618.9431,379.2811,618.9431,441.1874,608.9431,451.1874,457.49,451.1874,457.49,389.2811" style="stroke:#2C5C8F;stroke-width:0.5;stroke-linejoin:miter;stroke-miterlimit:10;"/><line style="stroke:#2C5C8F;stroke-width:0.5;" x1="608.9431" x2="618.9431" y1="389.2811" y2="379.2811"/><line style="stroke:#2C5C8F;stroke-width:0.5;" x1="457.49" x2="608.9431" y1="389.2811" y2="389.2811"/><line style="stroke:#2C5C8F;stroke-width:0.5;" x1="608.9431" x2="608.9431" y1="389.2811" y2="451.1874"/><text fill="#000000" font-family="'Helvetica'" font-size="12" font-style="italic" lengthAdjust="spacing" textLength="57.7969" x="504.3181" y="410.4198">&#171;service&#187;</text><text fill="#000000" font-family="'Helvetica'" font-size="12" font-weight="700" lengthAdjust="spacing" textLength="121.4531" x="472.49" y="424.3885">Network-Manager</text><text fill="#000000" font-family="'Helvetica'" font-size="12" lengthAdjust="spacing" textLength="95.9297" x="472.49" y="438.3573">[Go, Headscale]</text></g><!--entity EntryHub--><g class="entity" data-qualified-name="Proxmox.LXCGroup.EntryHub" data-source-line="45" id="ent0009"><polygon fill="#E8F1FC" points="840.6,226.4011,850.6,216.4011,989.8188,216.4011,989.8188,292.2761,979.8188,302.2761,840.6,302.2761,840.6,226.4011" style="stroke:#B58900;stroke-width:0.5;stroke-linejoin:miter;stroke-miterlimit:10;"/><line style="stroke:#B58900;stroke-width:0.5;" x1="979.8188" x2="989.8188" y1="226.4011" y2="216.4011"/><line style="stroke:#B58900;stroke-width:0.5;" x1="840.6" x2="979.8188" y1="226.4011" y2="226.4011"/><line style="stroke:#B58900;stroke-width:0.5;" x1="979.8188" x2="979.8188" y1="226.4011" y2="302.2761"/><text fill="#000000" font-family="'Helvetica'" font-size="12" font-style="italic" lengthAdjust="spacing" textLength="50.918" x="884.7504" y="247.5398">&#171;public&#187;</text><text fill="#000000" font-family="'Helvetica'" font-size="12" font-weight="700" lengthAdjust="spacing" textLength="68.373" x="855.6" y="261.5085">Entry-Hub</text><text fill="#000000" font-family="'Helvetica'" font-size="12" lengthAdjust="spacing" textLength="26.0039" x="855.6" y="275.4773">[Go]</text><text fill="#000000" font-family="'Helvetica'" font-size="12" lengthAdjust="spacing" textLength="109.2188" x="855.6" y="289.446">public HTTPS :443</text></g><!--entity SecuritySwitch--><g class="entity" data-qualified-name="Proxmox.LXCGroup.SecuritySwitch" data-source-line="46" id="ent0010"><polygon fill="#E8F1FC" points="1025.09,233.3911,1035.09,223.3911,1171.3322,223.3911,1171.3322,285.2974,1161.3322,295.2974,1025.09,295.2974,1025.09,233.3911" style="stroke:#2C5C8F;stroke-width:0.5;stroke-linejoin:miter;stroke-miterlimit:10;"/><line style="stroke:#2C5C8F;stroke-width:0.5;" x1="1161.3322" x2="1171.3322" y1="233.3911" y2="223.3911"/><line style="stroke:#2C5C8F;stroke-width:0.5;" x1="1025.09" x2="1161.3322" y1="233.3911" y2="233.3911"/><line style="stroke:#2C5C8F;stroke-width:0.5;" x1="1161.3322" x2="1161.3322" y1="233.3911" y2="295.2974"/><text fill="#000000" font-family="'Helvetica'" font-size="12" font-style="italic" lengthAdjust="spacing" textLength="57.7969" x="1064.3127" y="254.5298">&#171;service&#187;</text><text fill="#000000" font-family="'Helvetica'" font-size="12" font-weight="700" lengthAdjust="spacing" textLength="106.2422" x="1040.09" y="268.4985">Security-Switch</text><text fill="#000000" font-family="'Helvetica'" font-size="12" lengthAdjust="spacing" textLength="26.0039" x="1040.09" y="282.4673">[Go]</text></g><!--entity CA--><g class="entity" data-qualified-name="Proxmox.LXCGroup.CA" data-source-line="47" id="ent0011"><polygon fill="#F0F0F0" points="1206.19,233.3911,1216.19,223.3911,1386.2466,223.3911,1386.2466,285.2974,1376.2466,295.2974,1206.19,295.2974,1206.19,233.3911" style="stroke:#666666;stroke-width:0.5;stroke-linejoin:miter;stroke-miterlimit:10;"/><line style="stroke:#666666;stroke-width:0.5;" x1="1376.2466" x2="1386.2466" y1="233.3911" y2="223.3911"/><line style="stroke:#666666;stroke-width:0.5;" x1="1206.19" x2="1376.2466" y1="233.3911" y2="233.3911"/><line style="stroke:#666666;stroke-width:0.5;" x1="1376.2466" x2="1376.2466" y1="233.3911" y2="295.2974"/><text fill="#000000" font-family="'Helvetica'" font-size="12" font-style="italic" lengthAdjust="spacing" textLength="42.2637" x="1270.0865" y="254.5298">&#171;infra&#187;</text><text fill="#000000" font-family="'Helvetica'" font-size="12" font-weight="700" lengthAdjust="spacing" textLength="140.0566" x="1221.19" y="268.4985">Certificate-Authority</text><text fill="#000000" font-family="'Helvetica'" font-size="12" lengthAdjust="spacing" textLength="138.1289" x="1221.19" y="282.4673">[smallstep/certificates]</text></g><!--entity Mosquitto--><g class="entity" data-qualified-name="Proxmox.LXCGroup.Mosquitto" data-source-line="48" id="ent0012"><polygon fill="#F0F0F0" points="1420.82,233.3911,1430.82,223.3911,1547.6149,223.3911,1547.6149,285.2974,1537.6149,295.2974,1420.82,295.2974,1420.82,233.3911" style="stroke:#666666;stroke-width:0.5;stroke-linejoin:miter;stroke-miterlimit:10;"/><line style="stroke:#666666;stroke-width:0.5;" x1="1537.6149" x2="1547.6149" y1="233.3911" y2="223.3911"/><line style="stroke:#666666;stroke-width:0.5;" x1="1420.82" x2="1537.6149" y1="233.3911" y2="233.3911"/><line style="stroke:#666666;stroke-width:0.5;" x1="1537.6149" x2="1537.6149" y1="233.3911" y2="295.2974"/><text fill="#000000" font-family="'Helvetica'" font-size="12" font-style="italic" lengthAdjust="spacing" textLength="42.2637" x="1458.0856" y="254.5298">&#171;infra&#187;</text><text fill="#000000" font-family="'Helvetica'" font-size="12" font-weight="700" lengthAdjust="spacing" textLength="68.291" x="1435.82" y="268.4985">Mosquitto</text><text fill="#000000" font-family="'Helvetica'" font-size="12" lengthAdjust="spacing" textLength="86.7949" x="1435.82" y="282.4673">[MQTT broker]</text></g><!--entity MetricsCollector--><g class="entity" data-qualified-name="Proxmox.LXCGroup.MetricsCollector" data-source-line="49" id="ent0013"><polygon fill="#F0F0F0" points="1020.46,389.2811,1030.46,379.2811,1175.9717,379.2811,1175.9717,441.1874,1165.9717,451.1874,1020.46,451.1874,1020.46,389.2811" style="stroke:#666666;stroke-width:0.5;stroke-linejoin:miter;stroke-miterlimit:10;"/><line style="stroke:#666666;stroke-width:0.5;" x1="1165.9717" x2="1175.9717" y1="389.2811" y2="379.2811"/><line style="stroke:#666666;stroke-width:0.5;" x1="1020.46" x2="1165.9717" y1="389.2811" y2="389.2811"/><line style="stroke:#666666;stroke-width:0.5;" x1="1165.9717" x2="1165.9717" y1="389.2811" y2="451.1874"/><text fill="#000000" font-family="'Helvetica'" font-size="12" font-style="italic" lengthAdjust="spacing" textLength="42.2637" x="1072.084" y="410.4198">&#171;infra&#187;</text><text fill="#000000" font-family="'Helvetica'" font-size="12" font-weight="700" lengthAdjust="spacing" textLength="115.5117" x="1035.46" y="424.3885">Metrics-Collector</text><text fill="#000000" font-family="'Helvetica'" font-size="12" lengthAdjust="spacing" textLength="26.0039" x="1035.46" y="438.3573">[Go]</text></g><!--entity Grafana--><g class="entity" data-qualified-name="Proxmox.LXCGroup.Grafana" data-source-line="50" id="ent0014"><polygon fill="#F0F0F0" points="1211.45,389.2811,1221.45,379.2811,1372.9852,379.2811,1372.9852,441.1874,1362.9852,451.1874,1211.45,451.1874,1211.45,389.2811" style="stroke:#666666;stroke-width:0.5;stroke-linejoin:miter;stroke-miterlimit:10;"/><line style="stroke:#666666;stroke-width:0.5;" x1="1362.9852" x2="1372.9852" y1="389.2811" y2="379.2811"/><line style="stroke:#666666;stroke-width:0.5;" x1="1211.45" x2="1362.9852" y1="389.2811" y2="389.2811"/><line style="stroke:#666666;stroke-width:0.5;" x1="1362.9852" x2="1362.9852" y1="389.2811" y2="451.1874"/><text fill="#000000" font-family="'Helvetica'" font-size="12" font-style="italic" lengthAdjust="spacing" textLength="42.2637" x="1266.0857" y="410.4198">&#171;infra&#187;</text><text fill="#000000" font-family="'Helvetica'" font-size="12" font-weight="700" lengthAdjust="spacing" textLength="121.5352" x="1226.45" y="424.3885">Metrics-Visualizer</text><text fill="#000000" font-family="'Helvetica'" font-size="12" lengthAdjust="spacing" textLength="57.4863" x="1226.45" y="438.3573">[Grafana]</text></g><!--entity UserClient--><g class="entity" data-qualified-name="UserClient" data-source-line="32" id="ent0001"><polygon fill="#FAFAFA" points="163.04,226.4011,173.04,216.4011,373.3896,216.4011,373.3896,292.2761,363.3896,302.2761,163.04,302.2761,163.04,226.4011" style="stroke:#999999;stroke-width:0.5;stroke-linejoin:miter;stroke-miterlimit:10;"/><line style="stroke:#999999;stroke-width:0.5;" x1="363.3896" x2="373.3896" y1="226.4011" y2="216.4011"/><line style="stroke:#999999;stroke-width:0.5;" x1="163.04" x2="363.3896" y1="226.4011" y2="226.4011"/><line style="stroke:#999999;stroke-width:0.5;" x1="363.3896" x2="363.3896" y1="226.4011" y2="302.2761"/><text fill="#000000" font-family="'Helvetica'" font-size="12" font-style="italic" lengthAdjust="spacing" textLength="64.6113" x="230.9091" y="247.5398">&#171;external&#187;</text><text fill="#000000" font-family="'Helvetica'" font-size="12" font-weight="700" lengthAdjust="spacing" textLength="75.375" x="178.04" y="261.5085">User-Client</text><text fill="#000000" font-family="'Helvetica'" font-size="12" lengthAdjust="spacing" textLength="99.2402" x="178.04" y="275.4773">[laptop/desktop]</text><text fill="#000000" font-family="'Helvetica'" font-size="12" lengthAdjust="spacing" textLength="170.3496" x="178.04" y="289.446">restic + SSH key + Tailscale</text></g><!--entity Mesh--><g class="entity" data-qualified-name="Mesh" data-source-line="34" id="ent0002"><path d="M107.3812,387.6902 C112.7059,379.0837 117.6633,379.5229 123.0697,387.6135 C126.7748,382.2175 131.6832,381.7884 135.1451,387.8694 C139.4052,381.1018 146.603,381.5166 150.7978,387.9468 C153.6929,381.8608 159.4181,380.7591 164.003,385.9719 C169.1266,379.8503 175.3136,380.0027 178.1616,388.219 C181.6989,380.7073 185.706,380.2556 190.9216,386.6826 C195.8601,380.4603 201.1254,380.6123 205.859,386.9267 C210.5872,380.615 215.2604,378.5102 220.5643,386.3275 C224.91,381.9568 229.4973,381.6612 232.4609,387.8801 C236.7969,381.3135 241.3016,380.6283 246.7813,386.5708 C250.9953,379.9531 256.9326,380.8146 260.8504,386.8989 C266.0195,379.1232 271.3115,378.6705 276.3312,387.0421 C280.4453,381.2814 285.5616,382.5997 288.6021,388.2016 C292.9107,381.731 298.585,382.0664 301.9806,389.1058 C308.6202,390.7378 311.1502,396.0665 305.6924,401.3622 C312.8192,405.1466 314.5276,410.878 307.2854,416.2046 C312.9956,421.4518 312.1762,427.6694 305.3596,431.3207 C310.978,436.8612 309.9911,441.916 302.1845,444.1282 C299.3815,450.3254 293.2524,450.4121 289.5227,445.1524 C287.5334,453.602 280.2374,453.8742 274.9392,448.6925 C270.8307,456.0981 265.0884,455.2625 260.2296,449.5327 C257.0995,454.87 251.0969,455.3189 247.6331,449.9244 C244.6933,457.3146 238.9784,458.8429 233.6846,452.2772 C229.498,460.1741 223.0923,459.8895 218.5726,452.6089 C215.0047,459.3109 210.8502,460.4185 204.8309,455.5102 C198.8351,461.3855 194.527,459.4577 191.1932,452.6482 C186.6846,459.0111 180.772,457.2911 178.1299,450.7575 C172.5916,457.3478 167.6037,455.6264 163.5117,449.1407 C160.3653,456.2269 154.2035,455.8232 150.4418,449.7519 C144.3456,456.0733 138.0232,453.8296 134.7738,446.4876 C130.851,452.413 125.5396,451.5677 122.067,445.9904 C117.6301,453.0256 110.5361,452.5668 107.1512,444.9216 C99.2512,441.5266 99.3075,436.863 104.3502,430.8852 C98.3731,426.929 97.091,421.485 103.9144,417.1234 C96.4516,412.3056 98.474,406.7494 104.9243,402.9209 C97.4046,396.8965 100.2104,391.3449 107.3812,387.6902" fill="#EAF7EA" style="stroke:#2E7D32;stroke-width:0.5;"/><text fill="#000000" font-family="'Helvetica'" font-size="12" font-weight="700" lengthAdjust="spacing" textLength="141.7207" x="113.87" y="405.4198">Headscale Mesh VPN</text><text fill="#000000" font-family="'Helvetica'" font-size="12" lengthAdjust="spacing" textLength="135.9258" x="113.87" y="419.3885">private network, mTLS</text><text fill="#000000" font-family="'Helvetica'" font-size="12" lengthAdjust="spacing" textLength="180.6797" x="113.87" y="433.3573">certs from private CA, TLS 1.3</text></g><g class="entity" data-qualified-name="GMN18" data-source-line="59" id="ent0019"><path d="M6,555.1811 L6,595.0874 A6,6 0 0 0 12,601.0874 L396.4277,601.0874 A6,6 0 0 0 402.4277,595.0874 L402.4277,559.1811 L392.4277,549.1811 L208.21,549.1811 L204.21,451.6711 L200.21,549.1811 L12,549.1811 A6,6 0 0 0 6,555.1811" fill="#FEFFDD" style="stroke:#181818;stroke-width:0.5;"/><path d="M392.4277,549.1811 L392.4277,556.1811 A3,3 0 0 0 395.4277,559.1811 L402.4277,559.1811 L392.4277,549.1811" fill="#FEFFDD" style="stroke:#181818;stroke-width:0.5;"/><text fill="#000000" font-family="'Helvetica'" font-size="12" lengthAdjust="spacing" textLength="222.75" x="12" y="565.3198">Only Entry-Hub is publicly reachable.</text><text fill="#000000" font-family="'Helvetica'" font-size="12" lengthAdjust="spacing" textLength="296.5313" x="12" y="579.2885">Every other node communicates exclusively over</text><text fill="#000000" font-family="'Helvetica'" font-size="12" lengthAdjust="spacing" textLength="375.4277" x="12" y="593.2573">the mesh, mutually authenticated with private-CA certificates.</text></g><!--link UserClient to EntryHub--><g class="link" data-entity-1="ent0001" data-entity-2="ent0009" data-link-type="dependency" data-source-line="54" id="lnk15"><path d="M288.16,216.0411 C308.51,177.6411 344.07,124.0311 393.21,100.1311 C474.55,60.5811 719.68,58.9611 800.21,100.1311 C847.42,124.2711 877.5769,173.2989 895.6569,211.6289" fill="none" id="UserClient-to-EntryHub" style="stroke:#333333;stroke-width:1;"/><polygon fill="#333333" points="897.79,216.1511,897.5682,206.3048,895.6569,211.6289,890.3327,209.7177,897.79,216.1511" style="stroke:#333333;stroke-width:1;stroke-linejoin:miter;stroke-miterlimit:10;"/><text fill="#333333" font-family="'Helvetica'" font-size="11" lengthAdjust="spacing" textLength="155.8799" x="529.71" y="54.6016">HTTPS :443 (public internet)</text><text fill="#333333" font-family="'Helvetica'" font-size="11" lengthAdjust="spacing" textLength="96.9053" x="559.1973" y="67.4063">Let's Encrypt cert</text></g><!--link UserClient to Mesh--><g class="link" data-entity-1="ent0001" data-entity-2="ent0002" data-link-type="dependency" data-source-line="55" id="lnk16"><path d="M162.74,297.7411 C151.45,305.8211 141.46,315.5511 134.21,327.2811 C123.1,345.2411 130.4935,360.2708 146.8335,375.5108" fill="none" id="UserClient-to-Mesh" style="stroke:#333333;stroke-width:1;stroke-dasharray:7,7;"/><polygon fill="#333333" points="150.49,378.9211,146.6366,369.8574,146.8335,375.5108,141.1801,375.7077,150.49,378.9211" style="stroke:#333333;stroke-width:1;stroke-linejoin:miter;stroke-miterlimit:10;"/><text fill="#333333" font-family="'Helvetica'" font-size="11" lengthAdjust="spacing" textLength="111.7993" x="143.3257" y="338.4916">joins after bootstrap</text><text fill="#333333" font-family="'Helvetica'" font-size="11" lengthAdjust="spacing" textLength="128.0308" x="135.21" y="351.2963">(pre-auth key, CL-F-04)</text></g><!--link Proxmox to Mesh--><g class="link" data-entity-1="ent0003" data-entity-2="ent0002" data-link-type="dependency" data-source-line="56" id="lnk17"><path d="M399.0658,291.5695 C398.9333,291.8514 400.702,288.0184 400.5657,288.2995 C400.2931,288.8618 400.0129,289.4225 399.7247,289.9805 C397.4194,294.4442 394.61,298.7336 391.21,302.2811 C373.47,320.7911 361.59,314.7511 339.21,327.2811 C310.99,343.0711 284.7967,359.6373 260.0267,376.0673" fill="none" id="Proxmox-Mesh" style="stroke:#333333;stroke-width:1;"/><polygon fill="#333333" points="401.1661,287.0321,393.7556,293.5193,399.0658,291.5695,401.0155,296.8798,401.1661,287.0321" style="stroke:#333333;stroke-width:1;stroke-linejoin:miter;stroke-miterlimit:10;"/><polygon fill="#333333" points="255.86,378.8311,265.5711,377.1897,260.0267,376.0673,261.149,370.5229,255.86,378.8311" style="stroke:#333333;stroke-width:1;stroke-linejoin:miter;stroke-miterlimit:10;"/><text fill="#333333" font-family="'Helvetica'" font-size="11" lengthAdjust="spacing" textLength="100.2192" x="340.21" y="338.4916">mTLS (private CA)</text><text fill="#333333" font-family="'Helvetica'" font-size="11" lengthAdjust="spacing" textLength="40.8203" x="369.9095" y="351.2963">TLS 1.3</text></g><?plantuml-src dPLRSzf6583VzIjEdOSchYK3Der3F9uX0fcPWkC6odIcP3gBT80jgrrbTsMRPlpVUrON32HCfvKUB9_Bjtkk_C1bBF848GZE_pHs8p38ybHudkLM8FGm4sgJehJGusofMUfvPirbnkWJf4hGO0ONxHsXPdBjXEt6Zh2hjNgCbBHZ_ZT2ixbhhtAPX4fBrD1i7UAlhmtg1nxZpGryzG0-i7Yzh5o4ql2gVnKrez1fb4vGLz9Ms0wl8k_v6rgMpmMF_nliG_lgNQD1qY6NE5dnU2tH66W5xUySmEL2isFygE7UG_xFnVCT5ZvPr9A9exYkUmznxufd3nSBbIT7Gkv6R_lVC5hzjxsB5Z4yTnCuEJtzZUhWXu9JAvoUpkGVWcLMPUVK06lw-tacDHhBO_W9nkC1h753NnF6XOcPm1DW1XoX1C1kQ9vNtexE621B2diOeLd1zFxE7PLf_i0iWaJxgFJw3DB9S3oJCMfhOA5L2hL5s3q3qa4pk2XET9GwWdkjdbBr1DC-39InXRwMVVKeVesnPN99Xv_yCXt1b6kRCm4Z5g-ex6OcNt-wY_oFdsxznkMRmftCRYcL6RmIP14apAmmUU--EztYUJ-dR7UYddkBx0FKwHnRfTaI_N7PtKLARzKPZAF9_UU2NbbK1h0p27kW7hDipWpwKvOBMt5AGgqgD4S1TsLQ_H6JT9pUtcHRZ19McLLM1xJdWmGEVmyXf6bdb0jj2dyI_UzazQNL6t-Gp-lmg2cAEOR1P78_XixbPLdmmf3iu6NGzxEESQwvtVZZHsxZrLwsQbsfEfgkaDgEBtXC_UPtSxjIpgS0cPG9OIncv_6BZIdXOHUsgs4FDrBcIywjLGLYzEja0dEjrgXBlwtwc3jQpMFZqzWAIh_IUo5LsgtoNo1JRgZZQK5N5CqMLEqILVspHtXs-s5dgdtDbolhtxoKeRDJ87XTrOnBD_fetypa4EsFhcgntcGMNDfsUK6Y7cLmKow33lobk3J05kGDSwMiiPfbD9QPHfzH9TpIEODmw4TkGhrwkAzzX_6t6BSzw2xRbK7Ng7Q6MnKacYlATmfgKUuFW8zIR63RWy0Db96GL2Ej1pQdNqsowp-Wte2oAxfWaTjOfMakopu0VA8VMiCVaDmKMP83MK9APz1Aozso8OqBX68lV1AWLbpLsysd7jfjhC13cO2xiVSF?></g></svg>