<svg xmlns="http://www.w3.org/2000/svg" xmlns:xlink="http://www.w3.org/1999/xlink" contentStyleType="text/css" data-diagram-type="DESCRIPTION" height="758px" preserveAspectRatio="none" style="width:1169px;height:758px;background:#FFFFFF;" version="1.1" viewBox="0 0 1169 758" width="1169px" zoomAndPan="magnify"><?plantuml 1.2026.6?><defs/><g><g class="title" data-source-line="3"><text fill="#000000" font-family="'Helvetica'" font-size="14" font-weight="700" lengthAdjust="spacing" textLength="167.125" x="497.5225" y="22.9951">Deployment Diagram</text></g><!--cluster Proxmox--><g class="cluster" data-qualified-name="Proxmox" data-source-line="48" id="ent0005"><polygon fill="none" points="18.17,267.0769,28.17,257.0769,1144.17,257.0769,1144.17,639.8569,1134.17,649.8569,18.17,649.8569,18.17,267.0769" style="stroke:#181818;stroke-width:1;stroke-linejoin:miter;stroke-miterlimit:10;"/><line style="stroke:#181818;stroke-width:1;" x1="1134.17" x2="1144.17" y1="267.0769" y2="257.0769"/><line style="stroke:#181818;stroke-width:1;" x1="18.17" x2="1134.17" y1="267.0769" y2="267.0769"/><line style="stroke:#181818;stroke-width:1;" x1="1134.17" x2="1134.17" y1="267.0769" y2="649.8569"/><text fill="#000000" font-family="'Helvetica'" font-size="12" font-weight="700" lengthAdjust="spacing" textLength="116.1914" x="519.0743" y="281.2155">Proxmox VE Host</text></g><!--cluster LXCGroup--><g class="cluster" data-qualified-name="Proxmox.LXCGroup" data-source-line="50" id="ent0006"><rect fill="#FDFDFD" height="149.87" rx="6" ry="6" style="stroke:#AAAAAA;stroke-width:1;stroke-dasharray:7,7;" width="1078" x="42.17" y="302.0769"/><text fill="#000000" font-family="'Helvetica'" font-size="12" font-weight="700" lengthAdjust="spacing" textLength="103.166" x="529.587" y="315.2155">LXC Containers</text></g><!--cluster KVMGroup--><g class="cluster" data-qualified-name="Proxmox.KVMGroup" data-source-line="67" id="ent0018"><rect fill="#FDFDFD" height="149.91" rx="6" ry="6" style="stroke:#AAAAAA;stroke-width:1;stroke-dasharray:7,7;" width="562" x="42.17" y="475.9469"/><text fill="#000000" font-family="'Helvetica'" font-size="12" font-weight="700" lengthAdjust="spacing" textLength="148.3242" x="249.0079" y="489.0855">KVM Virtual Machines</text><text fill="#000000" font-family="'Helvetica'" font-size="12" font-weight="700" lengthAdjust="spacing" textLength="94.4004" x="275.9698" y="503.0543">(RNF-ORG-04)</text></g><!--entity EntryHub--><g class="entity" data-qualified-name="Proxmox.LXCGroup.EntryHub" data-source-line="52" id="ent0007"><polygon fill="#E8F1FC" points="66.52,352.0769,76.52,342.0769,175.8188,342.0769,175.8188,417.9519,165.8188,427.9519,66.52,427.9519,66.52,352.0769" style="stroke:#B58900;stroke-width:0.5;stroke-linejoin:miter;stroke-miterlimit:10;"/><line style="stroke:#B58900;stroke-width:0.5;" x1="165.8188" x2="175.8188" y1="352.0769" y2="342.0769"/><line style="stroke:#B58900;stroke-width:0.5;" x1="66.52" x2="165.8188" y1="352.0769" y2="352.0769"/><line style="stroke:#B58900;stroke-width:0.5;" x1="165.8188" x2="165.8188" y1="352.0769" y2="427.9519"/><text fill="#000000" font-family="'Helvetica'" font-size="12" font-style="italic" lengthAdjust="spacing" textLength="50.918" x="90.7104" y="373.2155">&#171;public&#187;</text><text fill="#000000" font-family="'Helvetica'" font-size="12" font-weight="700" lengthAdjust="spacing" textLength="68.373" x="81.52" y="387.1843">Entry-Hub</text><text fill="#000000" font-family="'Helvetica'" font-size="12" lengthAdjust="spacing" textLength="26.0039" x="81.52" y="401.153">[Go]</text><text fill="#000000" font-family="'Helvetica'" font-size="12" lengthAdjust="spacing" textLength="69.2988" x="81.52" y="415.1218">HTTPS :443</text></g><!--entity SecuritySwitch--><g class="entity" data-qualified-name="Proxmox.LXCGroup.SecuritySwitch" data-source-line="53" id="ent0008"><polygon fill="#E8F1FC" points="206.05,359.0569,216.05,349.0569,352.2922,349.0569,352.2922,410.9631,342.2922,420.9631,206.05,420.9631,206.05,359.0569" style="stroke:#2C5C8F;stroke-width:0.5;stroke-linejoin:miter;stroke-miterlimit:10;"/><line style="stroke:#2C5C8F;stroke-width:0.5;" x1="342.2922" x2="352.2922" y1="359.0569" y2="349.0569"/><line style="stroke:#2C5C8F;stroke-width:0.5;" x1="206.05" x2="342.2922" y1="359.0569" y2="359.0569"/><line style="stroke:#2C5C8F;stroke-width:0.5;" x1="342.2922" x2="342.2922" y1="359.0569" y2="420.9631"/><text fill="#000000" font-family="'Helvetica'" font-size="12" font-style="italic" lengthAdjust="spacing" textLength="57.7969" x="245.2727" y="380.1955">&#171;service&#187;</text><text fill="#000000" font-family="'Helvetica'" font-size="12" font-weight="700" lengthAdjust="spacing" textLength="106.2422" x="221.05" y="394.1643">Security-Switch</text><text fill="#000000" font-family="'Helvetica'" font-size="12" lengthAdjust="spacing" textLength="26.0039" x="221.05" y="408.133">[Go]</text></g><!--entity CA--><g class="entity" data-qualified-name="Proxmox.LXCGroup.CA" data-source-line="54" id="ent0009"><polygon fill="#F0F0F0" points="382.14,359.0569,392.14,349.0569,562.1966,349.0569,562.1966,410.9631,552.1966,420.9631,382.14,420.9631,382.14,359.0569" style="stroke:#666666;stroke-width:0.5;stroke-linejoin:miter;stroke-miterlimit:10;"/><line style="stroke:#666666;stroke-width:0.5;" x1="552.1966" x2="562.1966" y1="359.0569" y2="349.0569"/><line style="stroke:#666666;stroke-width:0.5;" x1="382.14" x2="552.1966" y1="359.0569" y2="359.0569"/><line style="stroke:#666666;stroke-width:0.5;" x1="552.1966" x2="552.1966" y1="359.0569" y2="420.9631"/><text fill="#000000" font-family="'Helvetica'" font-size="12" font-style="italic" lengthAdjust="spacing" textLength="42.2637" x="446.0365" y="380.1955">&#171;infra&#187;</text><text fill="#000000" font-family="'Helvetica'" font-size="12" font-weight="700" lengthAdjust="spacing" textLength="140.0566" x="397.14" y="394.1643">Certificate-Authority</text><text fill="#000000" font-family="'Helvetica'" font-size="12" lengthAdjust="spacing" textLength="138.1289" x="397.14" y="408.133">[smallstep/certificates]</text></g><!--entity Mosquitto--><g class="entity" data-qualified-name="Proxmox.LXCGroup.Mosquitto" data-source-line="55" id="ent0010"><polygon fill="#F0F0F0" points="591.77,359.0569,601.77,349.0569,718.5649,349.0569,718.5649,410.9631,708.5649,420.9631,591.77,420.9631,591.77,359.0569" style="stroke:#666666;stroke-width:0.5;stroke-linejoin:miter;stroke-miterlimit:10;"/><line style="stroke:#666666;stroke-width:0.5;" x1="708.5649" x2="718.5649" y1="359.0569" y2="349.0569"/><line style="stroke:#666666;stroke-width:0.5;" x1="591.77" x2="708.5649" y1="359.0569" y2="359.0569"/><line style="stroke:#666666;stroke-width:0.5;" x1="708.5649" x2="708.5649" y1="359.0569" y2="420.9631"/><text fill="#000000" font-family="'Helvetica'" font-size="12" font-style="italic" lengthAdjust="spacing" textLength="42.2637" x="629.0356" y="380.1955">&#171;infra&#187;</text><text fill="#000000" font-family="'Helvetica'" font-size="12" font-weight="700" lengthAdjust="spacing" textLength="68.291" x="606.77" y="394.1643">Mosquitto</text><text fill="#000000" font-family="'Helvetica'" font-size="12" lengthAdjust="spacing" textLength="86.7949" x="606.77" y="408.133">[MQTT broker]</text></g><!--entity MetricsCollector--><g class="entity" data-qualified-name="Proxmox.LXCGroup.MetricsCollector" data-source-line="56" id="ent0011"><polygon fill="#F0F0F0" points="748.41,359.0569,758.41,349.0569,903.9217,349.0569,903.9217,410.9631,893.9217,420.9631,748.41,420.9631,748.41,359.0569" style="stroke:#666666;stroke-width:0.5;stroke-linejoin:miter;stroke-miterlimit:10;"/><line style="stroke:#666666;stroke-width:0.5;" x1="893.9217" x2="903.9217" y1="359.0569" y2="349.0569"/><line style="stroke:#666666;stroke-width:0.5;" x1="748.41" x2="893.9217" y1="359.0569" y2="359.0569"/><line style="stroke:#666666;stroke-width:0.5;" x1="893.9217" x2="893.9217" y1="359.0569" y2="420.9631"/><text fill="#000000" font-family="'Helvetica'" font-size="12" font-style="italic" lengthAdjust="spacing" textLength="42.2637" x="800.034" y="380.1955">&#171;infra&#187;</text><text fill="#000000" font-family="'Helvetica'" font-size="12" font-weight="700" lengthAdjust="spacing" textLength="115.5117" x="763.41" y="394.1643">Metrics-Collector</text><text fill="#000000" font-family="'Helvetica'" font-size="12" lengthAdjust="spacing" textLength="26.0039" x="763.41" y="408.133">[Go]</text></g><!--entity Grafana--><g class="entity" data-qualified-name="Proxmox.LXCGroup.Grafana" data-source-line="57" id="ent0012"><polygon fill="#F0F0F0" points="934.4,359.0569,944.4,349.0569,1095.9352,349.0569,1095.9352,410.9631,1085.9352,420.9631,934.4,420.9631,934.4,359.0569" style="stroke:#666666;stroke-width:0.5;stroke-linejoin:miter;stroke-miterlimit:10;"/><line style="stroke:#666666;stroke-width:0.5;" x1="1085.9352" x2="1095.9352" y1="359.0569" y2="349.0569"/><line style="stroke:#666666;stroke-width:0.5;" x1="934.4" x2="1085.9352" y1="359.0569" y2="359.0569"/><line style="stroke:#666666;stroke-width:0.5;" x1="1085.9352" x2="1085.9352" y1="359.0569" y2="420.9631"/><text fill="#000000" font-family="'Helvetica'" font-size="12" font-style="italic" lengthAdjust="spacing" textLength="42.2637" x="989.0357" y="380.1955">&#171;infra&#187;</text><text fill="#000000" font-family="'Helvetica'" font-size="12" font-weight="700" lengthAdjust="spacing" textLength="121.5352" x="949.4" y="394.1643">Metrics-Visualizer</text><text fill="#000000" font-family="'Helvetica'" font-size="12" lengthAdjust="spacing" textLength="57.4863" x="949.4" y="408.133">[Grafana]</text></g><!--entity DatabaseVault--><g class="entity" data-qualified-name="Proxmox.KVMGroup.DatabaseVault" data-source-line="69" id="ent0019"><polygon fill="#E8F1FC" points="65.86,539.9469,75.86,529.9469,210.4791,529.9469,210.4791,591.8531,200.4791,601.8531,65.86,601.8531,65.86,539.9469" style="stroke:#2C5C8F;stroke-width:0.5;stroke-linejoin:miter;stroke-miterlimit:10;"/><line style="stroke:#2C5C8F;stroke-width:0.5;" x1="200.4791" x2="210.4791" y1="539.9469" y2="529.9469"/><line style="stroke:#2C5C8F;stroke-width:0.5;" x1="65.86" x2="200.4791" y1="539.9469" y2="539.9469"/><line style="stroke:#2C5C8F;stroke-width:0.5;" x1="200.4791" x2="200.4791" y1="539.9469" y2="601.8531"/><text fill="#000000" font-family="'Helvetica'" font-size="12" font-style="italic" lengthAdjust="spacing" textLength="57.7969" x="104.2711" y="561.0855">&#171;service&#187;</text><text fill="#000000" font-family="'Helvetica'" font-size="12" font-weight="700" lengthAdjust="spacing" textLength="104.6191" x="80.86" y="575.0543">Database-Vault</text><text fill="#000000" font-family="'Helvetica'" font-size="12" lengthAdjust="spacing" textLength="26.0039" x="80.86" y="589.023">[Go]</text></g><!--entity StorageService--><g class="entity" data-qualified-name="Proxmox.KVMGroup.StorageService" data-source-line="70" id="ent0020"><polygon fill="#E8F1FC" points="240.05,539.9469,250.05,529.9469,388.2844,529.9469,388.2844,591.8531,378.2844,601.8531,240.05,601.8531,240.05,539.9469" style="stroke:#2C5C8F;stroke-width:0.5;stroke-linejoin:miter;stroke-miterlimit:10;"/><line style="stroke:#2C5C8F;stroke-width:0.5;" x1="378.2844" x2="388.2844" y1="539.9469" y2="529.9469"/><line style="stroke:#2C5C8F;stroke-width:0.5;" x1="240.05" x2="378.2844" y1="539.9469" y2="539.9469"/><line style="stroke:#2C5C8F;stroke-width:0.5;" x1="378.2844" x2="378.2844" y1="539.9469" y2="601.8531"/><text fill="#000000" font-family="'Helvetica'" font-size="12" font-style="italic" lengthAdjust="spacing" textLength="57.7969" x="280.2687" y="561.0855">&#171;service&#187;</text><text fill="#000000" font-family="'Helvetica'" font-size="12" font-weight="700" lengthAdjust="spacing" textLength="108.2344" x="255.05" y="575.0543">Storage-Service</text><text fill="#000000" font-family="'Helvetica'" font-size="12" lengthAdjust="spacing" textLength="62.7188" x="255.05" y="589.023">[Go, SFTP]</text></g><!--entity NetworkManager--><g class="entity" data-qualified-name="Proxmox.KVMGroup.NetworkManager" data-source-line="71" id="ent0021"><polygon fill="#E8F1FC" points="418.44,539.9469,428.44,529.9469,579.8931,529.9469,579.8931,591.8531,569.8931,601.8531,418.44,601.8531,418.44,539.9469" style="stroke:#2C5C8F;stroke-width:0.5;stroke-linejoin:miter;stroke-miterlimit:10;"/><line style="stroke:#2C5C8F;stroke-width:0.5;" x1="569.8931" x2="579.8931" y1="539.9469" y2="529.9469"/><line style="stroke:#2C5C8F;stroke-width:0.5;" x1="418.44" x2="569.8931" y1="539.9469" y2="539.9469"/><line style="stroke:#2C5C8F;stroke-width:0.5;" x1="569.8931" x2="569.8931" y1="539.9469" y2="601.8531"/><text fill="#000000" font-family="'Helvetica'" font-size="12" font-style="italic" lengthAdjust="spacing" textLength="57.7969" x="465.2681" y="561.0855">&#171;service&#187;</text><text fill="#000000" font-family="'Helvetica'" font-size="12" font-weight="700" lengthAdjust="spacing" textLength="121.4531" x="433.44" y="575.0543">Network-Manager</text><text fill="#000000" font-family="'Helvetica'" font-size="12" lengthAdjust="spacing" textLength="95.9297" x="433.44" y="589.023">[Go, Headscale]</text></g><!--entity UserClient--><g class="entity" data-qualified-name="UserClient" data-source-line="33" id="ent0001"><polygon fill="#FAFAFA" points="16,53.2969,26,43.2969,226.3496,43.2969,226.3496,119.1719,216.3496,129.1719,16,129.1719,16,53.2969" style="stroke:#999999;stroke-width:0.5;stroke-linejoin:miter;stroke-miterlimit:10;"/><line style="stroke:#999999;stroke-width:0.5;" x1="216.3496" x2="226.3496" y1="53.2969" y2="43.2969"/><line style="stroke:#999999;stroke-width:0.5;" x1="16" x2="216.3496" y1="53.2969" y2="53.2969"/><line style="stroke:#999999;stroke-width:0.5;" x1="216.3496" x2="216.3496" y1="53.2969" y2="129.1719"/><text fill="#000000" font-family="'Helvetica'" font-size="12" font-style="italic" lengthAdjust="spacing" textLength="64.6113" x="83.8691" y="74.4355">&#171;external&#187;</text><text fill="#000000" font-family="'Helvetica'" font-size="12" font-weight="700" lengthAdjust="spacing" textLength="75.375" x="31" y="88.4043">User-Client</text><text fill="#000000" font-family="'Helvetica'" font-size="12" lengthAdjust="spacing" textLength="99.2402" x="31" y="102.373">[laptop/desktop]</text><text fill="#000000" font-family="'Helvetica'" font-size="12" lengthAdjust="spacing" textLength="170.3496" x="31" y="116.3418">restic + SSH key + Tailscale</text></g><!--entity Mesh--><g class="entity" data-qualified-name="Mesh" data-source-line="35" id="ent0002"><path d="M494.3412,58.686 C499.6659,50.0794 504.6233,50.5186 510.0297,58.6093 C513.7348,53.2132 518.6432,52.7841 522.1051,58.8652 C526.3652,52.0976 533.563,52.5123 537.7578,58.9426 C540.6529,52.8566 546.3781,51.7549 550.963,56.9677 C556.0866,50.8461 562.2736,50.9984 565.1216,59.2148 C568.6589,51.703 572.666,51.2513 577.8816,57.6783 C582.8201,51.4561 588.0854,51.6081 592.819,57.9224 C597.5472,51.6108 602.2204,49.506 607.5243,57.3232 C611.87,52.9525 616.4573,52.657 619.4209,58.8759 C623.7569,52.3092 628.2616,51.624 633.7413,57.5666 C637.9553,50.9489 643.8926,51.8104 647.8104,57.8947 C652.9795,50.1189 658.2715,49.6662 663.2912,58.0379 C667.4053,52.2771 672.5216,53.5954 675.5621,59.1974 C679.8707,52.7267 685.545,53.0622 688.9406,60.1016 C695.5802,61.7336 698.1102,67.0623 692.6524,72.3579 C699.7792,76.1424 701.4876,81.8737 694.2454,87.2003 C699.9556,92.4476 699.1362,98.6651 692.3196,102.3165 C697.938,107.857 696.9511,112.9117 689.1445,115.124 C686.3415,121.3211 680.2124,121.4079 676.4827,116.1482 C674.4934,124.5978 667.1974,124.87 661.8992,119.6883 C657.7907,127.0938 652.0484,126.2582 647.1896,120.5285 C644.0595,125.8658 638.0569,126.3147 634.5931,120.9202 C631.6533,128.3103 625.9384,129.8387 620.6446,123.2729 C616.458,131.1699 610.0523,130.8853 605.5326,123.6046 C601.9647,130.3067 597.8102,131.4143 591.7909,126.506 C585.7951,132.3813 581.487,130.4534 578.1532,123.6439 C573.6446,130.0069 567.732,128.2868 565.0899,121.7533 C559.5516,128.3435 554.5637,126.6222 550.4717,120.1365 C547.3253,127.2227 541.1635,126.8189 537.4018,120.7477 C531.3056,127.069 524.9832,124.8253 521.7338,117.4833 C517.811,123.4088 512.4996,122.5635 509.027,116.9861 C504.5901,124.0214 497.4961,123.5626 494.1112,115.9173 C486.2112,112.5224 486.2675,107.8587 491.3102,101.8809 C485.3331,97.9247 484.051,92.4807 490.8744,88.1192 C483.4116,83.3013 485.434,77.7452 491.8843,73.9166 C484.3646,67.8922 487.1704,62.3407 494.3412,58.686" fill="#EAF7EA" style="stroke:#2E7D32;stroke-width:0.5;"/><text fill="#000000" font-family="'Helvetica'" font-size="12" font-weight="700" lengthAdjust="spacing" textLength="141.7207" x="500.83" y="76.4155">Headscale Mesh VPN</text><text fill="#000000" font-family="'Helvetica'" font-size="12" lengthAdjust="spacing" textLength="135.9258" x="500.83" y="90.3843">private network, mTLS</text><text fill="#000000" font-family="'Helvetica'" font-size="12" lengthAdjust="spacing" textLength="180.6797" x="500.83" y="104.353">certs from private CA, TLS 1.3</text></g><!--entity VGap1--><g class="entity" data-qualified-name="VGap1" data-source-line="40" id="ent0003"><rect fill="none" height="61.9063" rx="6" ry="6" style="stroke:none;stroke-width:0.5;" width="28.2207" x="137.06" y="179.1669"/><text fill="#FFFFFF" font-family="'Helvetica'" font-size="12" lengthAdjust="spacing" textLength="8.2207" x="147.06" y="200.3055">X</text><text fill="#FFFFFF" font-family="'Helvetica'" font-size="12" lengthAdjust="spacing" textLength="8.2207" x="147.06" y="214.2743">X</text><text fill="#FFFFFF" font-family="'Helvetica'" font-size="12" lengthAdjust="spacing" textLength="8.2207" x="147.06" y="228.243">X</text></g><!--entity HGap1--><g class="entity" data-qualified-name="HGap1" data-source-line="46" id="ent0004"><rect fill="none" height="33.9688" rx="6" ry="6" style="stroke:none;stroke-width:0.5;" width="200" x="256.17" y="69.2469"/><text fill="#FFFFFF" font-family="'Helvetica'" font-size="12" lengthAdjust="spacing" text-decoration="underline" textLength="6" x="266.17" y="90.3855">_</text><text fill="#FFFFFF" font-family="'Helvetica'" font-size="12" lengthAdjust="spacing" text-decoration="underline" textLength="6" x="272.17" y="90.3855">_</text><text fill="#FFFFFF" font-family="'Helvetica'" font-size="12" lengthAdjust="spacing" text-decoration="underline" textLength="6" x="278.17" y="90.3855">_</text><text fill="#FFFFFF" font-family="'Helvetica'" font-size="12" lengthAdjust="spacing" text-decoration="underline" textLength="6" x="284.17" y="90.3855">_</text><text fill="#FFFFFF" font-family="'Helvetica'" font-size="12" lengthAdjust="spacing" text-decoration="underline" textLength="6" x="290.17" y="90.3855">_</text><text fill="#FFFFFF" font-family="'Helvetica'" font-size="12" lengthAdjust="spacing" text-decoration="underline" textLength="6" x="296.17" y="90.3855">_</text><text fill="#FFFFFF" font-family="'Helvetica'" font-size="12" lengthAdjust="spacing" text-decoration="underline" textLength="6" x="302.17" y="90.3855">_</text><text fill="#FFFFFF" font-family="'Helvetica'" font-size="12" lengthAdjust="spacing" text-decoration="underline" textLength="6" x="308.17" y="90.3855">_</text><text fill="#FFFFFF" font-family="'Helvetica'" font-size="12" lengthAdjust="spacing" text-decoration="underline" textLength="6" x="314.17" y="90.3855">_</text><text fill="#FFFFFF" font-family="'Helvetica'" font-size="12" lengthAdjust="spacing" text-decoration="underline" textLength="6" x="320.17" y="90.3855">_</text><text fill="#FFFFFF" font-family="'Helvetica'" font-size="12" lengthAdjust="spacing" text-decoration="underline" textLength="6" x="326.17" y="90.3855">_</text><text fill="#FFFFFF" font-family="'Helvetica'" font-size="12" lengthAdjust="spacing" text-decoration="underline" textLength="6" x="332.17" y="90.3855">_</text><text fill="#FFFFFF" font-family="'Helvetica'" font-size="12" lengthAdjust="spacing" text-decoration="underline" textLength="6" x="338.17" y="90.3855">_</text><text fill="#FFFFFF" font-family="'Helvetica'" font-size="12" lengthAdjust="spacing" text-decoration="underline" textLength="6" x="344.17" y="90.3855">_</text><text fill="#FFFFFF" font-family="'Helvetica'" font-size="12" lengthAdjust="spacing" text-decoration="underline" textLength="6" x="350.17" y="90.3855">_</text><text fill="#FFFFFF" font-family="'Helvetica'" font-size="12" lengthAdjust="spacing" text-decoration="underline" textLength="6" x="356.17" y="90.3855">_</text><text fill="#FFFFFF" font-family="'Helvetica'" font-size="12" lengthAdjust="spacing" text-decoration="underline" textLength="6" x="362.17" y="90.3855">_</text><text fill="#FFFFFF" font-family="'Helvetica'" font-size="12" lengthAdjust="spacing" text-decoration="underline" textLength="6" x="368.17" y="90.3855">_</text><text fill="#FFFFFF" font-family="'Helvetica'" font-size="12" lengthAdjust="spacing" text-decoration="underline" textLength="6" x="374.17" y="90.3855">_</text><text fill="#FFFFFF" font-family="'Helvetica'" font-size="12" lengthAdjust="spacing" text-decoration="underline" textLength="6" x="380.17" y="90.3855">_</text><text fill="#FFFFFF" font-family="'Helvetica'" font-size="12" lengthAdjust="spacing" text-decoration="underline" textLength="6" x="386.17" y="90.3855">_</text><text fill="#FFFFFF" font-family="'Helvetica'" font-size="12" lengthAdjust="spacing" text-decoration="underline" textLength="6" x="392.17" y="90.3855">_</text><text fill="#FFFFFF" font-family="'Helvetica'" font-size="12" lengthAdjust="spacing" text-decoration="underline" textLength="6" x="398.17" y="90.3855">_</text><text fill="#FFFFFF" font-family="'Helvetica'" font-size="12" lengthAdjust="spacing" text-decoration="underline" textLength="6" x="404.17" y="90.3855">_</text><text fill="#FFFFFF" font-family="'Helvetica'" font-size="12" lengthAdjust="spacing" text-decoration="underline" textLength="6" x="410.17" y="90.3855">_</text><text fill="#FFFFFF" font-family="'Helvetica'" font-size="12" lengthAdjust="spacing" text-decoration="underline" textLength="6" x="416.17" y="90.3855">_</text><text fill="#FFFFFF" font-family="'Helvetica'" font-size="12" lengthAdjust="spacing" text-decoration="underline" textLength="6" x="422.17" y="90.3855">_</text><text fill="#FFFFFF" font-family="'Helvetica'" font-size="12" lengthAdjust="spacing" text-decoration="underline" textLength="6" x="428.17" y="90.3855">_</text><text fill="#FFFFFF" font-family="'Helvetica'" font-size="12" lengthAdjust="spacing" textLength="12" x="434.17" y="90.3855">__</text></g><!--link EntryHub to SecuritySwitch--><!--link SecuritySwitch to CA--><!--link CA to Mosquitto--><!--link Mosquitto to MetricsCollector--><!--link MetricsCollector to Grafana--><!--link DatabaseVault to StorageService--><!--link StorageService to NetworkManager--><!--link EntryHub to DatabaseVault--><!--link UserClient to VGap1--><!--link UserClient to VGap1--><!--link VGap1 to EntryHub--><!--link Mesh to VGap1--><!--link UserClient to HGap1--><!--link HGap1 to Mesh--><!--link UserClient to Mesh--><g class="link" data-entity-1="ent0001" data-entity-2="ent0002" data-link-type="dependency" data-source-line="91" id="lnk31"><path d="M226.65,112.8569 C303.92,112.8569 403.36,112.8569 480.64,112.8569" fill="none" id="UserClient-to-Mesh" style="stroke:#333333;stroke-width:1;"/><polygon fill="#333333" points="485.64,112.8569,476.64,108.8569,480.64,112.8569,476.64,116.8569,485.64,112.8569" style="stroke:#333333;stroke-width:1;stroke-linejoin:miter;stroke-miterlimit:10;"/><text fill="#333333" font-family="'Helvetica'" font-size="11" lengthAdjust="spacing" textLength="111.7993" x="235.2557" y="124.0673">joins after bootstrap</text><text fill="#333333" font-family="'Helvetica'" font-size="11" lengthAdjust="spacing" textLength="128.0308" x="227.14" y="136.872">(pre-auth key, CL-F-04)</text></g><!--link UserClient to EntryHub--><g class="link" data-entity-1="ent0001" data-entity-2="ent0007" data-link-type="dependency" data-source-line="92" id="lnk32"><path d="M170.55,129.3569 C170.55,186.0769 170.55,280.1869 170.55,336.8969" fill="none" id="UserClient-to-EntryHub" style="stroke:#333333;stroke-width:1;"/><polygon fill="#333333" points="170.55,341.8969,174.55,332.8969,170.55,336.8969,166.55,332.8969,170.55,341.8969" style="stroke:#333333;stroke-width:1;stroke-linejoin:miter;stroke-miterlimit:10;"/><text fill="#333333" font-family="'Helvetica'" font-size="11" lengthAdjust="spacing" textLength="155.8799" x="171.55" y="219.8373">HTTPS :443 (public internet)</text><text fill="#333333" font-family="'Helvetica'" font-size="11" lengthAdjust="spacing" textLength="96.9053" x="201.0373" y="232.642">Let's Encrypt cert</text></g><g class="legend" data-source-line="94"><rect fill="#DDDDDD" height="58.8906" rx="6" ry="6" style="stroke:#000000;stroke-width:1;" width="447.999" x="357.0855" y="680.8569"/><text fill="#000000" font-family="'Helvetica'" font-size="14" lengthAdjust="spacing" textLength="259.875" x="362.0855" y="698.852">Only Entry-Hub is publicly reachable.</text><text fill="#000000" font-family="'Helvetica'" font-size="14" lengthAdjust="spacing" textLength="345.9531" x="362.0855" y="715.1489">Every other node communicates exclusively over</text><text fill="#000000" font-family="'Helvetica'" font-size="14" lengthAdjust="spacing" textLength="437.999" x="362.0855" y="731.4457">the mesh, mutually authenticated with private-CA certificates.</text></g><?plantuml-src pLTjRzis4FwkNt5BFxJ98YVEozgwGG3NiMDWIPlLdb6WAGfQEakSQL8ZgIHkqV--8oKxafmqAx0FapzOvXsVUtjuH__2PIJo6A7LsljYx59WAyiN8WWijmBX33EXbWkK5iuuIpHR186PSvanUWMfOZIOmU5-PL4pENUBnzN5hjRgTg2a7V6l2ErsLL_bCkufBL53-w0Y45oYNMO8IjjKDUsUd1ZKDpp2qrFu5W2yPT4yAR64ql2i_shG7lISHEaOTRbwq3lklHe4tpVGidmgUFHpO6-FNxtUtwVL2t9rdF9eBj4OE6WTFs20ovbcZ-4FzjsdYV-RVnx0mZkBMZBnA5pNVPfmh_rJWuk4okD7GkuENlOtC0xwByyE3mWZS9x0rixEdrI7i2SuSMHdvrf-4YopAjiZPipf-_Err6WiZ-1N68s6CCSblOqP5oPY0hU06N081G1KGmk2mZkoCKGMUtsuH9F2vEgTCvLfViCi0j7aLkdvBYp65wDh6Q6s1cPQBM2bqUlk0icWtJhq5XrA43m7Bc-uuLF25MofSXigAPPWCaOOfWFaEN4C0QNAanHk29YJ5qHPmfvHEcoAX4BMGqTMs1gEnrSZw1mT7RReF5sWVMwWBoEzp2mujyYuEmXaROe2Z09koNl2TIWgZr8q3XEkjBfRg3kOz66eZ8MfgmlJoq1ZP9bCoE6jayXLf7ERSekd7q_s_C_JQ_bpwpuTatEMjU6PYw5ZwVnI0ZHLuysKE55TU2fb6nbBbUPVwTIlSZQbIY5AWgcm1fYCVTI-jaNDo-HMKlkNuj80cn4xA1tA6l8h8w0NcSQGvJPrrDg5taKu2FUFjckPteLRJYqaj-JzJ33BPUBH4w6cJ138gf7b1cDmzLZUfgWf364GNb0rADu5jFSEOCRl82HJL52X71UKX2pNcJAu_MXrlloldbhfX_-wzCLvRp3JOwpMlWNKBIevkFZOWvwhFe5hurLfwPoQJ5PORCNCf1Y_yTQx_YaC3yxSn_Sbe8EH85LBbpy1LfsdBwrUXiDywllEkQ9USty0lJclGGfmtzyR62ECSitjCXmHHQ9qXUHthsI522eJfm7ISurXHgt1OjWbAYgtoqEP1HF2MCpsediTKy3tkh2U2Wt0IsN-phcroeDS_Z4UmrIhEUfYvrhyE01QpICJKjSML12bQu6LqhNmIPW9DpaJDBfB7CrcJB82hFpHmFWU-Azr0S9FAOzZb9yrJr8RDdBhTHlfRkxeTRqMPQqfMQV3AzmdPqEl4NQXtin5SrSPNr36LE7txvDBc71jAJLmoQAKM6okvOiFxmRX-m_dPHSoG6h_7UVFc6LJPZ2Si5pOMbLN8Y_v0Lj752LBC1mLyX9Z5qQ3yLL9_4AZLFW1rBjYyeQNbA1aHGw2Mi_h0gzKAxKsy4gkrFtV84pDfu8mTJURE-fML_NRP6IiRcLOj-xkDy-fr1dISOtXyAu3D6zG9bGJMOpeB1T-WhltOXBIq4lSg8geNLA_gmyvkWXGryqN4l2EHPP69WsETGEZkKHDWiMWPk3dgL0qKEYRXXSDCMw3oXsfuRWVta_AYn7V4Aro4VZ9--2-1u7B1FlP4GphoEkpvcvOrSs5uBIOyXruS9xJwNbudDUGl7-dzvNim7tRf_k0R_IKKNUFHBjzBJVlOK4WC44P4n_UktHN2c6W0A1LZNIe6Ot-bkEDknM0yeVIqpzIYqKkYuPEHQL_KORVk9gf6yysHum5nKhNqjor29Auk2W2loVsTvBL3JMajbQT4As0l8FIoNy0?></g></svg>