<svg xmlns="http://www.w3.org/2000/svg" xmlns:xlink="http://www.w3.org/1999/xlink" contentStyleType="text/css" data-diagram-type="DESCRIPTION" height="988px" preserveAspectRatio="none" style="width:1622px;height:988px;background:#FFFFFF;" version="1.1" viewBox="0 0 1622 988" width="1622px" zoomAndPan="magnify"><?plantuml 1.2026.6?><defs><filter height="300%" id="f1db9uhc1cj708" width="300%" x="-1" y="-1"><feGaussianBlur result="blurOut" stdDeviation="2"/><feColorMatrix in="blurOut" result="blurOut2" type="matrix" values="0 0 0 0 0 0 0 0 0 0 0 0 0 0 0 0 0 0 .4 0"/><feOffset dx="4" dy="4" in="blurOut2" result="blurOut3"/><feBlend in="SourceGraphic" in2="blurOut3" mode="normal"/></filter><linearGradient id="g1db9uhc1cj7080" x1="0%" x2="100%" y1="0%" y2="100%"><stop offset="0%" stop-color="#2A4A7F"/><stop offset="100%" stop-color="#1B3A6B"/></linearGradient><linearGradient id="g1db9uhc1cj7081" x1="0%" x2="100%" y1="0%" y2="100%"><stop offset="0%" stop-color="#6FA3B0"/><stop offset="100%" stop-color="#4A7E8C"/></linearGradient><linearGradient id="g1db9uhc1cj7082" x1="0%" x2="100%" y1="0%" y2="100%"><stop offset="0%" stop-color="#C7D3DE"/><stop offset="100%" stop-color="#A9BAC9"/></linearGradient><linearGradient id="g1db9uhc1cj7083" x1="0%" x2="100%" y1="0%" y2="100%"><stop offset="0%" stop-color="#D8E6F2"/><stop offset="100%" stop-color="#B8D4E3"/></linearGradient></defs><g><g class="title" data-source-line="3"><text fill="#000000" font-family="'Helvetica'" font-size="14" font-weight="700" lengthAdjust="spacing" textLength="167.125" x="723.9375" y="22.9951">Deployment Diagram</text></g><!--cluster Proxmox--><g class="cluster" data-qualified-name="Proxmox" data-source-line="51" id="ent0005"><polygon fill="none" filter="url(#f1db9uhc1cj708)" points="16,267.0769,26,257.0769,1597,257.0769,1597,869.8569,1587,879.8569,16,879.8569,16,267.0769" style="stroke:#181818;stroke-width:1;stroke-linejoin:miter;stroke-miterlimit:10;"/><line style="stroke:#181818;stroke-width:1;" x1="1587" x2="1597" y1="267.0769" y2="257.0769"/><line style="stroke:#181818;stroke-width:1;" x1="16" x2="1587" y1="267.0769" y2="267.0769"/><line style="stroke:#181818;stroke-width:1;" x1="1587" x2="1587" y1="267.0769" y2="879.8569"/><text fill="#000000" font-family="'Helvetica'" font-size="12" font-weight="700" lengthAdjust="spacing" textLength="116.1914" x="744.4043" y="281.2155">Proxmox VE Host</text></g><!--cluster LXCGroup--><g class="cluster" data-qualified-name="Proxmox.LXCGroup" data-source-line="53" id="ent0006"><rect fill="#FDFDFD" filter="url(#f1db9uhc1cj708)" height="264.87" rx="6" ry="6" style="stroke:#AAAAAA;stroke-width:1;stroke-dasharray:7,7;" width="1533" x="40" y="302.0769"/><text fill="#000000" font-family="'Helvetica'" font-size="12" font-weight="700" lengthAdjust="spacing" textLength="103.166" x="754.917" y="315.2155">LXC Containers</text></g><!--cluster EntryHubDocker--><g class="cluster" data-qualified-name="Proxmox.LXCGroup.EntryHubDocker" data-source-line="55" id="ent0007"><polygon fill="#DDE4EA" filter="url(#f1db9uhc1cj708)" points="80,368.0769,90,358.0769,252,358.0769,252,516.9469,242,526.9469,80,526.9469,80,368.0769" style="stroke:#8C9BAA;stroke-width:1;stroke-linejoin:miter;stroke-miterlimit:10;"/><line style="stroke:#8C9BAA;stroke-width:1;" x1="242" x2="252" y1="368.0769" y2="358.0769"/><line style="stroke:#8C9BAA;stroke-width:1;" x1="80" x2="242" y1="368.0769" y2="368.0769"/><line style="stroke:#8C9BAA;stroke-width:1;" x1="242" x2="242" y1="368.0769" y2="526.9469"/><text fill="#5A6B7A" font-family="'Helvetica'" font-size="12" font-style="italic" lengthAdjust="spacing" textLength="55.6348" x="134.1826" y="382.2155">&#171;docker&#187;</text><text fill="#5A6B7A" font-family="'Helvetica'" font-size="12" font-weight="700" lengthAdjust="spacing" textLength="4.1777" x="159.9111" y="396.1843">&#160;</text></g><!--cluster SecuritySwitchDocker--><g class="cluster" data-qualified-name="Proxmox.LXCGroup.SecuritySwitchDocker" data-source-line="58" id="ent0009"><polygon fill="#DDE4EA" filter="url(#f1db9uhc1cj708)" points="292,375.0569,302,365.0569,500,365.0569,500,509.9669,490,519.9669,292,519.9669,292,375.0569" style="stroke:#8C9BAA;stroke-width:1;stroke-linejoin:miter;stroke-miterlimit:10;"/><line style="stroke:#8C9BAA;stroke-width:1;" x1="490" x2="500" y1="375.0569" y2="365.0569"/><line style="stroke:#8C9BAA;stroke-width:1;" x1="292" x2="490" y1="375.0569" y2="375.0569"/><line style="stroke:#8C9BAA;stroke-width:1;" x1="490" x2="490" y1="375.0569" y2="519.9669"/><text fill="#5A6B7A" font-family="'Helvetica'" font-size="12" font-style="italic" lengthAdjust="spacing" textLength="55.6348" x="364.1826" y="389.1955">&#171;docker&#187;</text><text fill="#5A6B7A" font-family="'Helvetica'" font-size="12" font-weight="700" lengthAdjust="spacing" textLength="4.1777" x="389.9111" y="403.1643">&#160;</text></g><!--cluster CADocker--><g class="cluster" data-qualified-name="Proxmox.LXCGroup.CADocker" data-source-line="61" id="ent0011"><polygon fill="#DDE4EA" filter="url(#f1db9uhc1cj708)" points="540,375.0569,550,365.0569,782,365.0569,782,509.9669,772,519.9669,540,519.9669,540,375.0569" style="stroke:#8C9BAA;stroke-width:1;stroke-linejoin:miter;stroke-miterlimit:10;"/><line style="stroke:#8C9BAA;stroke-width:1;" x1="772" x2="782" y1="375.0569" y2="365.0569"/><line style="stroke:#8C9BAA;stroke-width:1;" x1="540" x2="772" y1="375.0569" y2="375.0569"/><line style="stroke:#8C9BAA;stroke-width:1;" x1="772" x2="772" y1="375.0569" y2="519.9669"/><text fill="#5A6B7A" font-family="'Helvetica'" font-size="12" font-style="italic" lengthAdjust="spacing" textLength="55.6348" x="629.1826" y="389.1955">&#171;docker&#187;</text><text fill="#5A6B7A" font-family="'Helvetica'" font-size="12" font-weight="700" lengthAdjust="spacing" textLength="4.1777" x="654.9111" y="403.1643">&#160;</text></g><!--cluster MosquittoDocker--><g class="cluster" data-qualified-name="Proxmox.LXCGroup.MosquittoDocker" data-source-line="64" id="ent0013"><polygon fill="#DDE4EA" filter="url(#f1db9uhc1cj708)" points="822,375.0569,832,365.0569,1011,365.0569,1011,509.9669,1001,519.9669,822,519.9669,822,375.0569" style="stroke:#8C9BAA;stroke-width:1;stroke-linejoin:miter;stroke-miterlimit:10;"/><line style="stroke:#8C9BAA;stroke-width:1;" x1="1001" x2="1011" y1="375.0569" y2="365.0569"/><line style="stroke:#8C9BAA;stroke-width:1;" x1="822" x2="1001" y1="375.0569" y2="375.0569"/><line style="stroke:#8C9BAA;stroke-width:1;" x1="1001" x2="1001" y1="375.0569" y2="519.9669"/><text fill="#5A6B7A" font-family="'Helvetica'" font-size="12" font-style="italic" lengthAdjust="spacing" textLength="55.6348" x="884.6826" y="389.1955">&#171;docker&#187;</text><text fill="#5A6B7A" font-family="'Helvetica'" font-size="12" font-weight="700" lengthAdjust="spacing" textLength="4.1777" x="910.4111" y="403.1643">&#160;</text></g><!--cluster MetricsCollectorDocker--><g class="cluster" data-qualified-name="Proxmox.LXCGroup.MetricsCollectorDocker" data-source-line="67" id="ent0015"><polygon fill="#DDE4EA" filter="url(#f1db9uhc1cj708)" points="1051,375.0569,1061,365.0569,1269,365.0569,1269,509.9669,1259,519.9669,1051,519.9669,1051,375.0569" style="stroke:#8C9BAA;stroke-width:1;stroke-linejoin:miter;stroke-miterlimit:10;"/><line style="stroke:#8C9BAA;stroke-width:1;" x1="1259" x2="1269" y1="375.0569" y2="365.0569"/><line style="stroke:#8C9BAA;stroke-width:1;" x1="1051" x2="1259" y1="375.0569" y2="375.0569"/><line style="stroke:#8C9BAA;stroke-width:1;" x1="1259" x2="1259" y1="375.0569" y2="519.9669"/><text fill="#5A6B7A" font-family="'Helvetica'" font-size="12" font-style="italic" lengthAdjust="spacing" textLength="55.6348" x="1128.1826" y="389.1955">&#171;docker&#187;</text><text fill="#5A6B7A" font-family="'Helvetica'" font-size="12" font-weight="700" lengthAdjust="spacing" textLength="4.1777" x="1153.9111" y="403.1643">&#160;</text></g><!--cluster GrafanaDocker--><g class="cluster" data-qualified-name="Proxmox.LXCGroup.GrafanaDocker" data-source-line="70" id="ent0017"><polygon fill="#DDE4EA" filter="url(#f1db9uhc1cj708)" points="1309,375.0569,1319,365.0569,1533,365.0569,1533,509.9669,1523,519.9669,1309,519.9669,1309,375.0569" style="stroke:#8C9BAA;stroke-width:1;stroke-linejoin:miter;stroke-miterlimit:10;"/><line style="stroke:#8C9BAA;stroke-width:1;" x1="1523" x2="1533" y1="375.0569" y2="365.0569"/><line style="stroke:#8C9BAA;stroke-width:1;" x1="1309" x2="1523" y1="375.0569" y2="375.0569"/><line style="stroke:#8C9BAA;stroke-width:1;" x1="1523" x2="1523" y1="375.0569" y2="519.9669"/><text fill="#5A6B7A" font-family="'Helvetica'" font-size="12" font-style="italic" lengthAdjust="spacing" textLength="55.6348" x="1389.1826" y="389.1955">&#171;docker&#187;</text><text fill="#5A6B7A" font-family="'Helvetica'" font-size="12" font-weight="700" lengthAdjust="spacing" textLength="4.1777" x="1414.9111" y="403.1643">&#160;</text></g><!--cluster KVMGroup--><g class="cluster" data-qualified-name="Proxmox.KVMGroup" data-source-line="82" id="ent0024"><rect fill="#FDFDFD" filter="url(#f1db9uhc1cj708)" height="264.91" rx="6" ry="6" style="stroke:#AAAAAA;stroke-width:1;stroke-dasharray:7,7;" width="801" x="40" y="590.9469"/><text fill="#000000" font-family="'Helvetica'" font-size="12" font-weight="700" lengthAdjust="spacing" textLength="148.3242" x="366.3379" y="604.0855">KVM Virtual Machines</text><text fill="#000000" font-family="'Helvetica'" font-size="12" font-weight="700" lengthAdjust="spacing" textLength="94.4004" x="393.2998" y="618.0543">(RNF-ORG-04)</text></g><!--cluster DatabaseVaultDocker--><g class="cluster" data-qualified-name="Proxmox.KVMGroup.DatabaseVaultDocker" data-source-line="84" id="ent0025"><polygon fill="#DDE4EA" filter="url(#f1db9uhc1cj708)" points="80,670.9469,90,660.9469,287,660.9469,287,805.8569,277,815.8569,80,815.8569,80,670.9469" style="stroke:#8C9BAA;stroke-width:1;stroke-linejoin:miter;stroke-miterlimit:10;"/><line style="stroke:#8C9BAA;stroke-width:1;" x1="277" x2="287" y1="670.9469" y2="660.9469"/><line style="stroke:#8C9BAA;stroke-width:1;" x1="80" x2="277" y1="670.9469" y2="670.9469"/><line style="stroke:#8C9BAA;stroke-width:1;" x1="277" x2="277" y1="670.9469" y2="815.8569"/><text fill="#5A6B7A" font-family="'Helvetica'" font-size="12" font-style="italic" lengthAdjust="spacing" textLength="55.6348" x="151.6826" y="685.0855">&#171;docker&#187;</text><text fill="#5A6B7A" font-family="'Helvetica'" font-size="12" font-weight="700" lengthAdjust="spacing" textLength="4.1777" x="177.4111" y="699.0543">&#160;</text></g><!--cluster StorageServiceDocker--><g class="cluster" data-qualified-name="Proxmox.KVMGroup.StorageServiceDocker" data-source-line="87" id="ent0027"><polygon fill="#DDE4EA" filter="url(#f1db9uhc1cj708)" points="327,670.9469,337,660.9469,537,660.9469,537,805.8569,527,815.8569,327,815.8569,327,670.9469" style="stroke:#8C9BAA;stroke-width:1;stroke-linejoin:miter;stroke-miterlimit:10;"/><line style="stroke:#8C9BAA;stroke-width:1;" x1="527" x2="537" y1="670.9469" y2="660.9469"/><line style="stroke:#8C9BAA;stroke-width:1;" x1="327" x2="527" y1="670.9469" y2="670.9469"/><line style="stroke:#8C9BAA;stroke-width:1;" x1="527" x2="527" y1="670.9469" y2="815.8569"/><text fill="#5A6B7A" font-family="'Helvetica'" font-size="12" font-style="italic" lengthAdjust="spacing" textLength="55.6348" x="400.1826" y="685.0855">&#171;docker&#187;</text><text fill="#5A6B7A" font-family="'Helvetica'" font-size="12" font-weight="700" lengthAdjust="spacing" textLength="4.1777" x="425.9111" y="699.0543">&#160;</text></g><!--cluster NetworkManagerDocker--><g class="cluster" data-qualified-name="Proxmox.KVMGroup.NetworkManagerDocker" data-source-line="90" id="ent0029"><polygon fill="#DDE4EA" filter="url(#f1db9uhc1cj708)" points="577,670.9469,587,660.9469,801,660.9469,801,805.8569,791,815.8569,577,815.8569,577,670.9469" style="stroke:#8C9BAA;stroke-width:1;stroke-linejoin:miter;stroke-miterlimit:10;"/><line style="stroke:#8C9BAA;stroke-width:1;" x1="791" x2="801" y1="670.9469" y2="660.9469"/><line style="stroke:#8C9BAA;stroke-width:1;" x1="577" x2="791" y1="670.9469" y2="670.9469"/><line style="stroke:#8C9BAA;stroke-width:1;" x1="791" x2="791" y1="670.9469" y2="815.8569"/><text fill="#5A6B7A" font-family="'Helvetica'" font-size="12" font-style="italic" lengthAdjust="spacing" textLength="55.6348" x="657.1826" y="685.0855">&#171;docker&#187;</text><text fill="#5A6B7A" font-family="'Helvetica'" font-size="12" font-weight="700" lengthAdjust="spacing" textLength="4.1777" x="682.9111" y="699.0543">&#160;</text></g><!--entity EntryHub--><g class="entity" data-qualified-name="Proxmox.LXCGroup.EntryHubDocker.EntryHub" data-source-line="56" id="ent0008"><polygon fill="url(#g1db9uhc1cj7080)" filter="url(#f1db9uhc1cj708)" points="104.35,427.0769,114.35,417.0769,213.6488,417.0769,213.6488,492.9519,203.6488,502.9519,104.35,502.9519,104.35,427.0769" style="stroke:#C9A227;stroke-width:0.5;stroke-linejoin:miter;stroke-miterlimit:10;"/><line style="stroke:#C9A227;stroke-width:0.5;" x1="203.6488" x2="213.6488" y1="427.0769" y2="417.0769"/><line style="stroke:#C9A227;stroke-width:0.5;" x1="104.35" x2="203.6488" y1="427.0769" y2="427.0769"/><line style="stroke:#C9A227;stroke-width:0.5;" x1="203.6488" x2="203.6488" y1="427.0769" y2="502.9519"/><text fill="#F0F0F0" font-family="'Helvetica'" font-size="12" font-style="italic" lengthAdjust="spacing" textLength="50.918" x="128.5404" y="448.2155">&#171;public&#187;</text><text fill="#F0F0F0" font-family="'Helvetica'" font-size="12" font-weight="700" lengthAdjust="spacing" textLength="68.373" x="119.35" y="462.1843">Entry-Hub</text><text fill="#F0F0F0" font-family="'Helvetica'" font-size="12" lengthAdjust="spacing" textLength="26.0039" x="119.35" y="476.153">[Go]</text><text fill="#F0F0F0" font-family="'Helvetica'" font-size="12" lengthAdjust="spacing" textLength="69.2988" x="119.35" y="490.1218">HTTPS :443</text></g><!--entity SecuritySwitch--><g class="entity" data-qualified-name="Proxmox.LXCGroup.SecuritySwitchDocker.SecuritySwitch" data-source-line="59" id="ent0010"><polygon fill="url(#g1db9uhc1cj7080)" filter="url(#f1db9uhc1cj708)" points="315.88,434.0569,325.88,424.0569,462.1222,424.0569,462.1222,485.9631,452.1222,495.9631,315.88,495.9631,315.88,434.0569" style="stroke:#0A1B36;stroke-width:0.5;stroke-linejoin:miter;stroke-miterlimit:10;"/><line style="stroke:#0A1B36;stroke-width:0.5;" x1="452.1222" x2="462.1222" y1="434.0569" y2="424.0569"/><line style="stroke:#0A1B36;stroke-width:0.5;" x1="315.88" x2="452.1222" y1="434.0569" y2="434.0569"/><line style="stroke:#0A1B36;stroke-width:0.5;" x1="452.1222" x2="452.1222" y1="434.0569" y2="495.9631"/><text fill="#F0F0F0" font-family="'Helvetica'" font-size="12" font-style="italic" lengthAdjust="spacing" textLength="57.7969" x="355.1027" y="455.1955">&#171;service&#187;</text><text fill="#F0F0F0" font-family="'Helvetica'" font-size="12" font-weight="700" lengthAdjust="spacing" textLength="106.2422" x="330.88" y="469.1643">Security-Switch</text><text fill="#F0F0F0" font-family="'Helvetica'" font-size="12" lengthAdjust="spacing" textLength="26.0039" x="330.88" y="483.133">[Go]</text></g><!--entity CA--><g class="entity" data-qualified-name="Proxmox.LXCGroup.CADocker.CA" data-source-line="62" id="ent0012"><polygon fill="url(#g1db9uhc1cj7081)" filter="url(#f1db9uhc1cj708)" points="563.97,434.0569,573.97,424.0569,744.0266,424.0569,744.0266,485.9631,734.0266,495.9631,563.97,495.9631,563.97,434.0569" style="stroke:#2F5A66;stroke-width:0.5;stroke-linejoin:miter;stroke-miterlimit:10;"/><line style="stroke:#2F5A66;stroke-width:0.5;" x1="734.0266" x2="744.0266" y1="434.0569" y2="424.0569"/><line style="stroke:#2F5A66;stroke-width:0.5;" x1="563.97" x2="734.0266" y1="434.0569" y2="434.0569"/><line style="stroke:#2F5A66;stroke-width:0.5;" x1="734.0266" x2="734.0266" y1="434.0569" y2="495.9631"/><text fill="#0A1B22" font-family="'Helvetica'" font-size="12" font-style="italic" lengthAdjust="spacing" textLength="42.2637" x="627.8665" y="455.1955">&#171;infra&#187;</text><text fill="#0A1B22" font-family="'Helvetica'" font-size="12" font-weight="700" lengthAdjust="spacing" textLength="140.0566" x="578.97" y="469.1643">Certificate-Authority</text><text fill="#0A1B22" font-family="'Helvetica'" font-size="12" lengthAdjust="spacing" textLength="138.1289" x="578.97" y="483.133">[smallstep/certificates]</text></g><!--entity Mosquitto--><g class="entity" data-qualified-name="Proxmox.LXCGroup.MosquittoDocker.Mosquitto" data-source-line="65" id="ent0014"><polygon fill="url(#g1db9uhc1cj7081)" filter="url(#f1db9uhc1cj708)" points="845.6,434.0569,855.6,424.0569,972.3949,424.0569,972.3949,485.9631,962.3949,495.9631,845.6,495.9631,845.6,434.0569" style="stroke:#2F5A66;stroke-width:0.5;stroke-linejoin:miter;stroke-miterlimit:10;"/><line style="stroke:#2F5A66;stroke-width:0.5;" x1="962.3949" x2="972.3949" y1="434.0569" y2="424.0569"/><line style="stroke:#2F5A66;stroke-width:0.5;" x1="845.6" x2="962.3949" y1="434.0569" y2="434.0569"/><line style="stroke:#2F5A66;stroke-width:0.5;" x1="962.3949" x2="962.3949" y1="434.0569" y2="495.9631"/><text fill="#0A1B22" font-family="'Helvetica'" font-size="12" font-style="italic" lengthAdjust="spacing" textLength="42.2637" x="882.8656" y="455.1955">&#171;infra&#187;</text><text fill="#0A1B22" font-family="'Helvetica'" font-size="12" font-weight="700" lengthAdjust="spacing" textLength="68.291" x="860.6" y="469.1643">Mosquitto</text><text fill="#0A1B22" font-family="'Helvetica'" font-size="12" lengthAdjust="spacing" textLength="86.7949" x="860.6" y="483.133">[MQTT broker]</text></g><!--entity MetricsCollector--><g class="entity" data-qualified-name="Proxmox.LXCGroup.MetricsCollectorDocker.MetricsCollector" data-source-line="68" id="ent0016"><polygon fill="url(#g1db9uhc1cj7081)" filter="url(#f1db9uhc1cj708)" points="1075.24,434.0569,1085.24,424.0569,1230.7517,424.0569,1230.7517,485.9631,1220.7517,495.9631,1075.24,495.9631,1075.24,434.0569" style="stroke:#2F5A66;stroke-width:0.5;stroke-linejoin:miter;stroke-miterlimit:10;"/><line style="stroke:#2F5A66;stroke-width:0.5;" x1="1220.7517" x2="1230.7517" y1="434.0569" y2="424.0569"/><line style="stroke:#2F5A66;stroke-width:0.5;" x1="1075.24" x2="1220.7517" y1="434.0569" y2="434.0569"/><line style="stroke:#2F5A66;stroke-width:0.5;" x1="1220.7517" x2="1220.7517" y1="434.0569" y2="495.9631"/><text fill="#0A1B22" font-family="'Helvetica'" font-size="12" font-style="italic" lengthAdjust="spacing" textLength="42.2637" x="1126.864" y="455.1955">&#171;infra&#187;</text><text fill="#0A1B22" font-family="'Helvetica'" font-size="12" font-weight="700" lengthAdjust="spacing" textLength="115.5117" x="1090.24" y="469.1643">Metrics-Collector</text><text fill="#0A1B22" font-family="'Helvetica'" font-size="12" lengthAdjust="spacing" textLength="26.0039" x="1090.24" y="483.133">[Go]</text></g><!--entity Grafana--><g class="entity" data-qualified-name="Proxmox.LXCGroup.GrafanaDocker.Grafana" data-source-line="71" id="ent0018"><polygon fill="url(#g1db9uhc1cj7081)" filter="url(#f1db9uhc1cj708)" points="1333.23,434.0569,1343.23,424.0569,1494.7652,424.0569,1494.7652,485.9631,1484.7652,495.9631,1333.23,495.9631,1333.23,434.0569" style="stroke:#2F5A66;stroke-width:0.5;stroke-linejoin:miter;stroke-miterlimit:10;"/><line style="stroke:#2F5A66;stroke-width:0.5;" x1="1484.7652" x2="1494.7652" y1="434.0569" y2="424.0569"/><line style="stroke:#2F5A66;stroke-width:0.5;" x1="1333.23" x2="1484.7652" y1="434.0569" y2="434.0569"/><line style="stroke:#2F5A66;stroke-width:0.5;" x1="1484.7652" x2="1484.7652" y1="434.0569" y2="495.9631"/><text fill="#0A1B22" font-family="'Helvetica'" font-size="12" font-style="italic" lengthAdjust="spacing" textLength="42.2637" x="1387.8657" y="455.1955">&#171;infra&#187;</text><text fill="#0A1B22" font-family="'Helvetica'" font-size="12" font-weight="700" lengthAdjust="spacing" textLength="121.5352" x="1348.23" y="469.1643">Metrics-Visualizer</text><text fill="#0A1B22" font-family="'Helvetica'" font-size="12" lengthAdjust="spacing" textLength="57.4863" x="1348.23" y="483.133">[Grafana]</text></g><!--entity DatabaseVault--><g class="entity" data-qualified-name="Proxmox.KVMGroup.DatabaseVaultDocker.DatabaseVault" data-source-line="85" id="ent0026"><polygon fill="url(#g1db9uhc1cj7080)" filter="url(#f1db9uhc1cj708)" points="103.69,729.9469,113.69,719.9469,248.3091,719.9469,248.3091,781.8531,238.3091,791.8531,103.69,791.8531,103.69,729.9469" style="stroke:#0A1B36;stroke-width:0.5;stroke-linejoin:miter;stroke-miterlimit:10;"/><line style="stroke:#0A1B36;stroke-width:0.5;" x1="238.3091" x2="248.3091" y1="729.9469" y2="719.9469"/><line style="stroke:#0A1B36;stroke-width:0.5;" x1="103.69" x2="238.3091" y1="729.9469" y2="729.9469"/><line style="stroke:#0A1B36;stroke-width:0.5;" x1="238.3091" x2="238.3091" y1="729.9469" y2="791.8531"/><text fill="#F0F0F0" font-family="'Helvetica'" font-size="12" font-style="italic" lengthAdjust="spacing" textLength="57.7969" x="142.1011" y="751.0855">&#171;service&#187;</text><text fill="#F0F0F0" font-family="'Helvetica'" font-size="12" font-weight="700" lengthAdjust="spacing" textLength="104.6191" x="118.69" y="765.0543">Database-Vault</text><text fill="#F0F0F0" font-family="'Helvetica'" font-size="12" lengthAdjust="spacing" textLength="26.0039" x="118.69" y="779.023">[Go]</text></g><!--entity StorageService--><g class="entity" data-qualified-name="Proxmox.KVMGroup.StorageServiceDocker.StorageService" data-source-line="88" id="ent0028"><polygon fill="url(#g1db9uhc1cj7080)" filter="url(#f1db9uhc1cj708)" points="350.88,729.9469,360.88,719.9469,499.1144,719.9469,499.1144,781.8531,489.1144,791.8531,350.88,791.8531,350.88,729.9469" style="stroke:#0A1B36;stroke-width:0.5;stroke-linejoin:miter;stroke-miterlimit:10;"/><line style="stroke:#0A1B36;stroke-width:0.5;" x1="489.1144" x2="499.1144" y1="729.9469" y2="719.9469"/><line style="stroke:#0A1B36;stroke-width:0.5;" x1="350.88" x2="489.1144" y1="729.9469" y2="729.9469"/><line style="stroke:#0A1B36;stroke-width:0.5;" x1="489.1144" x2="489.1144" y1="729.9469" y2="791.8531"/><text fill="#F0F0F0" font-family="'Helvetica'" font-size="12" font-style="italic" lengthAdjust="spacing" textLength="57.7969" x="391.0988" y="751.0855">&#171;service&#187;</text><text fill="#F0F0F0" font-family="'Helvetica'" font-size="12" font-weight="700" lengthAdjust="spacing" textLength="108.2344" x="365.88" y="765.0543">Storage-Service</text><text fill="#F0F0F0" font-family="'Helvetica'" font-size="12" lengthAdjust="spacing" textLength="62.7188" x="365.88" y="779.023">[Go, SFTP]</text></g><!--entity NetworkManager--><g class="entity" data-qualified-name="Proxmox.KVMGroup.NetworkManagerDocker.NetworkManager" data-source-line="91" id="ent0030"><polygon fill="url(#g1db9uhc1cj7080)" filter="url(#f1db9uhc1cj708)" points="601.27,729.9469,611.27,719.9469,762.7231,719.9469,762.7231,781.8531,752.7231,791.8531,601.27,791.8531,601.27,729.9469" style="stroke:#0A1B36;stroke-width:0.5;stroke-linejoin:miter;stroke-miterlimit:10;"/><line style="stroke:#0A1B36;stroke-width:0.5;" x1="752.7231" x2="762.7231" y1="729.9469" y2="719.9469"/><line style="stroke:#0A1B36;stroke-width:0.5;" x1="601.27" x2="752.7231" y1="729.9469" y2="729.9469"/><line style="stroke:#0A1B36;stroke-width:0.5;" x1="752.7231" x2="752.7231" y1="729.9469" y2="791.8531"/><text fill="#F0F0F0" font-family="'Helvetica'" font-size="12" font-style="italic" lengthAdjust="spacing" textLength="57.7969" x="648.0981" y="751.0855">&#171;service&#187;</text><text fill="#F0F0F0" font-family="'Helvetica'" font-size="12" font-weight="700" lengthAdjust="spacing" textLength="121.4531" x="616.27" y="765.0543">Network-Manager</text><text fill="#F0F0F0" font-family="'Helvetica'" font-size="12" lengthAdjust="spacing" textLength="95.9297" x="616.27" y="779.023">[Go, Headscale]</text></g><!--entity UserClient--><g class="entity" data-qualified-name="UserClient" data-source-line="36" id="ent0001"><polygon fill="url(#g1db9uhc1cj7082)" filter="url(#f1db9uhc1cj708)" points="108.83,53.2969,118.83,43.2969,319.1796,43.2969,319.1796,119.1719,309.1796,129.1719,108.83,129.1719,108.83,53.2969" style="stroke:#5C7089;stroke-width:0.5;stroke-linejoin:miter;stroke-miterlimit:10;"/><line style="stroke:#5C7089;stroke-width:0.5;" x1="309.1796" x2="319.1796" y1="53.2969" y2="43.2969"/><line style="stroke:#5C7089;stroke-width:0.5;" x1="108.83" x2="309.1796" y1="53.2969" y2="53.2969"/><line style="stroke:#5C7089;stroke-width:0.5;" x1="309.1796" x2="309.1796" y1="53.2969" y2="129.1719"/><text fill="#14202B" font-family="'Helvetica'" font-size="12" font-style="italic" lengthAdjust="spacing" textLength="64.6113" x="176.6991" y="74.4355">&#171;external&#187;</text><text fill="#14202B" font-family="'Helvetica'" font-size="12" font-weight="700" lengthAdjust="spacing" textLength="75.375" x="123.83" y="88.4043">User-Client</text><text fill="#14202B" font-family="'Helvetica'" font-size="12" lengthAdjust="spacing" textLength="99.2402" x="123.83" y="102.373">[laptop/desktop]</text><text fill="#14202B" font-family="'Helvetica'" font-size="12" lengthAdjust="spacing" textLength="170.3496" x="123.83" y="116.3418">restic + SSH key + Tailscale</text></g><!--entity Mesh--><g class="entity" data-qualified-name="Mesh" data-source-line="38" id="ent0002"><path d="M587.1712,58.686 C592.4959,50.0794 597.4533,50.5186 602.8597,58.6093 C606.5648,53.2132 611.4732,52.7841 614.9351,58.8652 C619.1952,52.0976 626.393,52.5123 630.5878,58.9426 C633.4829,52.8566 639.2081,51.7549 643.793,56.9677 C648.9166,50.8461 655.1036,50.9984 657.9516,59.2148 C661.4889,51.703 665.496,51.2513 670.7116,57.6783 C675.6501,51.4561 680.9154,51.6081 685.649,57.9224 C690.3772,51.6108 695.0504,49.506 700.3543,57.3232 C704.7,52.9525 709.2873,52.657 712.2509,58.8759 C716.5869,52.3092 721.0916,51.624 726.5713,57.5666 C730.7853,50.9489 736.7226,51.8104 740.6404,57.8947 C745.8095,50.1189 751.1015,49.6662 756.1212,58.0379 C760.2353,52.2771 765.3516,53.5954 768.3921,59.1974 C772.7007,52.7267 778.375,53.0622 781.7706,60.1016 C788.4102,61.7336 790.9402,67.0623 785.4824,72.3579 C792.6092,76.1424 794.3176,81.8737 787.0754,87.2003 C792.7856,92.4476 791.9662,98.6651 785.1496,102.3165 C790.768,107.857 789.7811,112.9117 781.9745,115.124 C779.1715,121.3211 773.0424,121.4079 769.3127,116.1482 C767.3234,124.5978 760.0274,124.87 754.7292,119.6883 C750.6207,127.0938 744.8784,126.2582 740.0196,120.5285 C736.8895,125.8658 730.8869,126.3147 727.4231,120.9202 C724.4833,128.3103 718.7684,129.8387 713.4746,123.2729 C709.288,131.1699 702.8823,130.8853 698.3626,123.6046 C694.7947,130.3067 690.6402,131.4143 684.6209,126.506 C678.6251,132.3813 674.317,130.4534 670.9832,123.6439 C666.4746,130.0069 660.562,128.2868 657.9199,121.7533 C652.3816,128.3435 647.3937,126.6222 643.3017,120.1365 C640.1553,127.2227 633.9935,126.8189 630.2318,120.7477 C624.1356,127.069 617.8132,124.8253 614.5638,117.4833 C610.641,123.4088 605.3296,122.5635 601.857,116.9861 C597.4201,124.0214 590.3261,123.5626 586.9412,115.9173 C579.0412,112.5224 579.0975,107.8587 584.1402,101.8809 C578.1631,97.9247 576.881,92.4807 583.7044,88.1192 C576.2416,83.3013 578.264,77.7452 584.7143,73.9166 C577.1946,67.8922 580.0004,62.3407 587.1712,58.686" fill="url(#g1db9uhc1cj7083)" filter="url(#f1db9uhc1cj708)" style="stroke:#3A6EA5;stroke-width:0.5;"/><text fill="#14304D" font-family="'Helvetica'" font-size="12" font-weight="700" lengthAdjust="spacing" textLength="141.7207" x="593.66" y="76.4155">Headscale Mesh VPN</text><text fill="#14304D" font-family="'Helvetica'" font-size="12" lengthAdjust="spacing" textLength="135.9258" x="593.66" y="90.3843">private network, mTLS</text><text fill="#14304D" font-family="'Helvetica'" font-size="12" lengthAdjust="spacing" textLength="180.6797" x="593.66" y="104.353">certs from private CA, TLS 1.3</text></g><!--entity VGap1--><g class="entity" data-qualified-name="VGap1" data-source-line="43" id="ent0003"><rect fill="none" filter="url(#f1db9uhc1cj708)" height="61.9063" rx="6" ry="6" style="stroke:none;stroke-width:0.5;" width="28.2207" x="229.89" y="179.1669"/><text fill="#FFFFFF" font-family="'Helvetica'" font-size="12" lengthAdjust="spacing" textLength="8.2207" x="239.89" y="200.3055">X</text><text fill="#FFFFFF" font-family="'Helvetica'" font-size="12" lengthAdjust="spacing" textLength="8.2207" x="239.89" y="214.2743">X</text><text fill="#FFFFFF" font-family="'Helvetica'" font-size="12" lengthAdjust="spacing" textLength="8.2207" x="239.89" y="228.243">X</text></g><!--entity HGap1--><g class="entity" data-qualified-name="HGap1" data-source-line="49" id="ent0004"><rect fill="none" filter="url(#f1db9uhc1cj708)" height="33.9688" rx="6" ry="6" style="stroke:none;stroke-width:0.5;" width="200" x="349" y="69.2469"/><text fill="#FFFFFF" font-family="'Helvetica'" font-size="12" lengthAdjust="spacing" text-decoration="underline" textLength="6" x="359" y="90.3855">_</text><text fill="#FFFFFF" font-family="'Helvetica'" font-size="12" lengthAdjust="spacing" text-decoration="underline" textLength="6" x="365" y="90.3855">_</text><text fill="#FFFFFF" font-family="'Helvetica'" font-size="12" lengthAdjust="spacing" text-decoration="underline" textLength="6" x="371" y="90.3855">_</text><text fill="#FFFFFF" font-family="'Helvetica'" font-size="12" lengthAdjust="spacing" text-decoration="underline" textLength="6" x="377" y="90.3855">_</text><text fill="#FFFFFF" font-family="'Helvetica'" font-size="12" lengthAdjust="spacing" text-decoration="underline" textLength="6" x="383" y="90.3855">_</text><text fill="#FFFFFF" font-family="'Helvetica'" font-size="12" lengthAdjust="spacing" text-decoration="underline" textLength="6" x="389" y="90.3855">_</text><text fill="#FFFFFF" font-family="'Helvetica'" font-size="12" lengthAdjust="spacing" text-decoration="underline" textLength="6" x="395" y="90.3855">_</text><text fill="#FFFFFF" font-family="'Helvetica'" font-size="12" lengthAdjust="spacing" text-decoration="underline" textLength="6" x="401" y="90.3855">_</text><text fill="#FFFFFF" font-family="'Helvetica'" font-size="12" lengthAdjust="spacing" text-decoration="underline" textLength="6" x="407" y="90.3855">_</text><text fill="#FFFFFF" font-family="'Helvetica'" font-size="12" lengthAdjust="spacing" text-decoration="underline" textLength="6" x="413" y="90.3855">_</text><text fill="#FFFFFF" font-family="'Helvetica'" font-size="12" lengthAdjust="spacing" text-decoration="underline" textLength="6" x="419" y="90.3855">_</text><text fill="#FFFFFF" font-family="'Helvetica'" font-size="12" lengthAdjust="spacing" text-decoration="underline" textLength="6" x="425" y="90.3855">_</text><text fill="#FFFFFF" font-family="'Helvetica'" font-size="12" lengthAdjust="spacing" text-decoration="underline" textLength="6" x="431" y="90.3855">_</text><text fill="#FFFFFF" font-family="'Helvetica'" font-size="12" lengthAdjust="spacing" text-decoration="underline" textLength="6" x="437" y="90.3855">_</text><text fill="#FFFFFF" font-family="'Helvetica'" font-size="12" lengthAdjust="spacing" text-decoration="underline" textLength="6" x="443" y="90.3855">_</text><text fill="#FFFFFF" font-family="'Helvetica'" font-size="12" lengthAdjust="spacing" text-decoration="underline" textLength="6" x="449" y="90.3855">_</text><text fill="#FFFFFF" font-family="'Helvetica'" font-size="12" lengthAdjust="spacing" text-decoration="underline" textLength="6" x="455" y="90.3855">_</text><text fill="#FFFFFF" font-family="'Helvetica'" font-size="12" lengthAdjust="spacing" text-decoration="underline" textLength="6" x="461" y="90.3855">_</text><text fill="#FFFFFF" font-family="'Helvetica'" font-size="12" lengthAdjust="spacing" text-decoration="underline" textLength="6" x="467" y="90.3855">_</text><text fill="#FFFFFF" font-family="'Helvetica'" font-size="12" lengthAdjust="spacing" text-decoration="underline" textLength="6" x="473" y="90.3855">_</text><text fill="#FFFFFF" font-family="'Helvetica'" font-size="12" lengthAdjust="spacing" text-decoration="underline" textLength="6" x="479" y="90.3855">_</text><text fill="#FFFFFF" font-family="'Helvetica'" font-size="12" lengthAdjust="spacing" text-decoration="underline" textLength="6" x="485" y="90.3855">_</text><text fill="#FFFFFF" font-family="'Helvetica'" font-size="12" lengthAdjust="spacing" text-decoration="underline" textLength="6" x="491" y="90.3855">_</text><text fill="#FFFFFF" font-family="'Helvetica'" font-size="12" lengthAdjust="spacing" text-decoration="underline" textLength="6" x="497" y="90.3855">_</text><text fill="#FFFFFF" font-family="'Helvetica'" font-size="12" lengthAdjust="spacing" text-decoration="underline" textLength="6" x="503" y="90.3855">_</text><text fill="#FFFFFF" font-family="'Helvetica'" font-size="12" lengthAdjust="spacing" text-decoration="underline" textLength="6" x="509" y="90.3855">_</text><text fill="#FFFFFF" font-family="'Helvetica'" font-size="12" lengthAdjust="spacing" text-decoration="underline" textLength="6" x="515" y="90.3855">_</text><text fill="#FFFFFF" font-family="'Helvetica'" font-size="12" lengthAdjust="spacing" text-decoration="underline" textLength="6" x="521" y="90.3855">_</text><text fill="#FFFFFF" font-family="'Helvetica'" font-size="12" lengthAdjust="spacing" textLength="12" x="527" y="90.3855">__</text></g><!--link EntryHubDocker to SecuritySwitchDocker--><!--link SecuritySwitchDocker to CADocker--><!--link CADocker to MosquittoDocker--><!--link MosquittoDocker to MetricsCollectorDocker--><!--link MetricsCollectorDocker to GrafanaDocker--><!--link DatabaseVaultDocker to StorageServiceDocker--><!--link StorageServiceDocker to NetworkManagerDocker--><!--link EntryHubDocker to DatabaseVaultDocker--><!--link UserClient to VGap1--><!--link UserClient to VGap1--><!--link VGap1 to EntryHubDocker--><!--link VGap1 to EntryHubDocker--><!--link Mesh to VGap1--><!--link UserClient to HGap1--><!--link HGap1 to Mesh--><!--link UserClient to Mesh--><g class="link" data-entity-1="ent0001" data-entity-2="ent0002" data-link-type="dependency" data-source-line="115" id="lnk41"><path d="M319.48,112.8569 C396.75,112.8569 496.19,112.8569 573.47,112.8569" fill="none" id="UserClient-to-Mesh" style="stroke:#333333;stroke-width:1;"/><polygon fill="#333333" points="578.47,112.8569,569.47,108.8569,573.47,112.8569,569.47,116.8569,578.47,112.8569" style="stroke:#333333;stroke-width:1;stroke-linejoin:miter;stroke-miterlimit:10;"/><text fill="#333333" font-family="'Helvetica'" font-size="11" lengthAdjust="spacing" textLength="111.7993" x="328.0857" y="124.0673">joins after bootstrap</text><text fill="#333333" font-family="'Helvetica'" font-size="11" lengthAdjust="spacing" textLength="128.0308" x="319.97" y="136.872">(pre-auth key, CL-F-04)</text></g><!--link UserClient to EntryHubDocker--><g class="link" data-entity-1="ent0001" data-entity-2="ent0007" data-link-type="dependency" data-source-line="116" id="lnk42"><path d="M221.77,129.4569 C221.77,178.6319 221.77,261.2319 221.77,331.5381 C221.77,340.3264 221.77,343.9226 221.77,352.2374" fill="none" id="UserClient-to-EntryHubDocker" style="stroke:#333333;stroke-width:1;"/><polygon fill="#333333" points="221.77,357.2374,225.77,348.2374,221.77,352.2374,217.77,348.2374,221.77,357.2374" style="stroke:#333333;stroke-width:1;stroke-linejoin:miter;stroke-miterlimit:10;"/><text fill="#333333" font-family="'Helvetica'" font-size="11" lengthAdjust="spacing" textLength="155.8799" x="65.77" y="289.7073">HTTPS :443 (public internet)</text><text fill="#333333" font-family="'Helvetica'" font-size="11" lengthAdjust="spacing" textLength="96.9053" x="95.2573" y="302.512">Let's Encrypt cert</text></g><g class="legend" data-source-line="118"><rect fill="#DDDDDD" height="58.8906" rx="6" ry="6" style="stroke:#000000;stroke-width:1;" width="447.999" x="583.5005" y="910.8569"/><text fill="#000000" font-family="'Helvetica'" font-size="14" lengthAdjust="spacing" textLength="259.875" x="588.5005" y="928.852">Only Entry-Hub is publicly reachable.</text><text fill="#000000" font-family="'Helvetica'" font-size="14" lengthAdjust="spacing" textLength="345.9531" x="588.5005" y="945.1489">Every other node communicates exclusively over</text><text fill="#000000" font-family="'Helvetica'" font-size="14" lengthAdjust="spacing" textLength="437.999" x="588.5005" y="961.4457">the mesh, mutually authenticated with private-CA certificates.</text></g><?plantuml-src pLZTJXiv5BwVfpWB5oqiav00vQS8AIG1f8MMRLXKgQ2LCtEIySQnPsqFa5QLzY7s2VT9zjWpWSamjAcq5vjSCB7Fdy_vpl4t_CHb9B8OeT5e_cxiJ60ZpQOY22ot0g67gL2pAKeBFSx6cas3m4ouJ1azWbGn6anXQxEqg9cSkCMTyc97QtL_egGTyCy8hLPPNcKoxYejKKEhNTeGNAATfGXAsqG5mIllx_3GeBxZ4HuTGRDOuNAa6VsEr1HXfDKKIaTvPM1bA38IjHPN86K2wO6iPJ9Ac1nZ3F_yzJTjWr0H4w3kK6jE6P68CMqcgB5HEVJXOPeD1O_8vvS0u9X5at5n3g4qhBOxsvtTa-PgwtYhy-ROIIWTeovsk_kTTdkNLi_fX5S9ZoOIZO5sOuVMN98AkPDDzms-FdEE3nQrPE8bzztTtbQltrpjx1ztkljLzplTtSsz_KLNhUtsPlkunbMieWdgbnprUltjVgVgOAzBVZlFpjTQTBb3cTdjBBYCXChY5ppjzT-Sj9khntkzxVvMrIDbkT_PgHvfQtExH_O3Tn9OML__ZP0JTWKdDA-ltyXFWgLMfKt2y8J-tjv8ZSRo27w6mU0C9ZYZfol6XI5O47AO0MSXDm3bAWH17ZdvE4CMUtcuG9F0zUKxvohL_8vP1obxh_Ha0wPNvuCR6Q6s9WViNABRsG3QWrPZotjqLXpqkRpZXW_9hc0pbTbGIJ43apAoOGw08gUkG42fid42164w285PAx8zedJOn46Ul8UkhM3bxEhgSW07szjR3UhySxJK9dqPwLbgmOL5pbtBahSX2Z0AkANeoQwpeh8eGUDimgLM3rFr0DTzE5F6mj3LZEbPe36or5qKyCfXv2foS9zmYqSV3vl-vz6D_B5rduxhKvQsODMTuS3IfA44QAh6so7XfRpmlPGzorYYDFzCu9ddR4YLGfHafeGQO3Bsf_QrpMjU9BUKsZyKbmROYD11wL3MK5mf6NgTQWnPPXC7hGtedeSduURssaAcD-2Uqx3BB4K_4inoEVRMnq8DcIX6e9kkcQ7HvEenktS32b0OXDTK3Jhl55hDDepu0uJaYWfQ33O9QQPJPN3jnUhy_h_wB9J-REdIv_rUGQQtCL_x4j2iAENW_6CNkgxwP5mRBqfBfpI0qjnZ8sOcmVYjzzxndzpnISzz_Sm2QemnKhLqyHCWZmIymRwqUdQM3Nj-ea9bj9RbrzUzR4Z2VawTAffDJmsxO0sUhgB2ojSQtmECCitjR43eYf9b8fXhXBdAF8uQQr2waRyHGhUpZDkk6rmZ6bqMmmwrYd9-l7CpPK8OYsapUf8njuLjU2G1tmZXGfa_CswjMYQIHs7l_UBNgoiOQaNIjuksblECLlF8qCqa27HABnL0hXC-AYtKe6fngJ1EDHinoNx4-pKt6HD4sWhtkONRihaNN7yD_9yAxCDF2OzZbBUQZnCRrYBJwzL2jgez1vNNU4HOLQfITozSnS8pdTgAvQhrnQnQM4XsKEIZD7D-kRw0QwujfHSkM9JGP34tylM7ToVX-m-dnSrWWCJ-spdKOvODcS5hbWcx31Jc2g7NM43XWgqb1y60KiR6ECX5bvf5kKPOg1GHRC3WvEhojiRcae6yoydO1HLfZ4krPA4H5YgFWJoIljiQmoz6KpH8NJsUTKbDpl8kgKjcLRlke7D0ljIUiRgNOLriZb2_8XodIFENA4WyHkAVn75GZWbpCgU5QIOyQtJFEViYeZLsz2YYAvhks4LYHUIJRlfiAbtwY5SP9AP6ZqHMSWP7tCMPUhmNeOXtg1uyqwEBWSMWHk0vdb2v1I9KHAo8kRx61nRPmhVZLDpaJ9LEC9mH-RidAzImQNBDFnFBY-ZYCVdPg9c04VKrxhJqgcmShTFCjvUbzqVQJ0Nn1W-IjQ3qXb39fQUktztF2MvbQx58IybuXbhheJQ40YcUOmLdY_OV9w9x4oahvnj7EHi-W5hUInEjdlOkMFBn7LN1U01Ff8VOiwSvL6ltreLsxKO-Vsi90e5Zb341-xq3mXDUgE2v0LhLIEEM4QmQhW4SXmRbw-dxF5BJQIPpUW7uu4hExnoQt3y6IC7XS4edffUup0rlXzJC8TzwdTWp-FdxN4ZKfCnN6W551qMG_m80?></g></svg>